<svg xmlns="http://www.w3.org/2000/svg" xmlns:xlink="http://www.w3.org/1999/xlink" contentStyleType="text/css" data-diagram-type="DESCRIPTION" height="922px" preserveAspectRatio="none" style="width:738px;height:922px;background:#FFFFFF;" version="1.1" viewBox="0 0 738 922" width="738px" zoomAndPan="magnify"><defs/><g><!--cluster Sistema--><g class="cluster" data-entity="Sistema" data-source-line="6" data-uid="ent0003" id="cluster_Sistema"><rect fill="none" height="909" rx="2.5" ry="2.5" style="stroke:#181818;stroke-width:1;" width="574.02" x="158.78" y="7"/><text fill="#000000" font-family="sans-serif" font-size="14" font-weight="bold" lengthAdjust="spacing" textLength="56.1504" x="417.7148" y="22.5352">Sistema</text></g><!--entity UC1--><g class="entity" data-entity="UC1" data-source-line="8" data-uid="ent0004" id="entity_UC1"><ellipse cx="610.5906" cy="214.0021" fill="#F1F1F1" rx="96.5106" ry="21.7021" style="stroke:#181818;stroke-width:0.5;"/><text fill="#000000" font-family="sans-serif" font-size="14" lengthAdjust="spacing" textLength="167.8701" x="526.6556" y="218.7463">C1 - Visualizza lista libri</text></g><!--entity UC2--><g class="entity" data-entity="UC2" data-source-line="9" data-uid="ent0005" id="entity_UC2"><ellipse cx="610.5935" cy="540.9987" fill="#F1F1F1" rx="102.3935" ry="22.8787" style="stroke:#181818;stroke-width:0.5;"/><text fill="#000000" font-family="sans-serif" font-size="14" lengthAdjust="spacing" textLength="180.8857" x="520.1506" y="545.7428">C2 - Visualizza lista utenti</text></g><!--entity UC3--><g class="entity" data-entity="UC3" data-source-line="10" data-uid="ent0006" id="entity_UC3"><ellipse cx="610.5855" cy="802.0011" fill="#F1F1F1" rx="106.2055" ry="23.6411" style="stroke:#181818;stroke-width:0.5;"/><text fill="#000000" font-family="sans-serif" font-size="14" lengthAdjust="spacing" textLength="189.2324" x="515.9693" y="806.7452">C3 - Visualizza lista prestiti</text></g><!--entity UC4--><g class="entity" data-entity="UC4" data-source-line="11" data-uid="ent0007" id="entity_UC4"><ellipse cx="279.0751" cy="213.997" fill="#F1F1F1" rx="78.6851" ry="18.137" style="stroke:#181818;stroke-width:0.5;"/><text fill="#000000" font-family="sans-serif" font-size="14" lengthAdjust="spacing" textLength="126.9502" x="215.6" y="218.7412">C4 - Inserisci libro</text></g><!--entity UC5--><g class="entity" data-entity="UC5" data-source-line="12" data-uid="ent0008" id="entity_UC5"><ellipse cx="279.0821" cy="285.0004" fill="#F1F1F1" rx="79.4521" ry="18.2904" style="stroke:#181818;stroke-width:0.5;"/><text fill="#000000" font-family="sans-serif" font-size="14" lengthAdjust="spacing" textLength="128.7754" x="214.6944" y="289.7446">C5 - Modifica libro</text></g><!--entity UC6--><g class="entity" data-entity="UC6" data-source-line="13" data-uid="ent0009" id="entity_UC6"><ellipse cx="279.077" cy="356.0034" fill="#F1F1F1" rx="78.167" ry="18.0334" style="stroke:#181818;stroke-width:0.5;"/><text fill="#000000" font-family="sans-serif" font-size="14" lengthAdjust="spacing" textLength="125.7129" x="216.2206" y="360.7475">C6 - Rimuovi libro</text></g><!--entity UC7--><g class="entity" data-entity="UC7" data-source-line="14" data-uid="ent0010" id="entity_UC7"><ellipse cx="279.0761" cy="427.9952" fill="#F1F1F1" rx="83.8761" ry="19.1752" style="stroke:#181818;stroke-width:0.5;"/><text fill="#000000" font-family="sans-serif" font-size="14" lengthAdjust="spacing" textLength="139.166" x="209.4931" y="432.7394">C7 - Inserisci utente</text></g><!--entity UC8--><g class="entity" data-entity="UC8" data-source-line="15" data-uid="ent0011" id="entity_UC8"><ellipse cx="279.0826" cy="502.0025" fill="#F1F1F1" rx="84.6626" ry="19.3325" style="stroke:#181818;stroke-width:0.5;"/><text fill="#000000" font-family="sans-serif" font-size="14" lengthAdjust="spacing" textLength="140.9912" x="208.587" y="506.7467">C8 - Modifica utente</text></g><!--entity UC9--><g class="entity" data-entity="UC9" data-source-line="16" data-uid="ent0012" id="entity_UC9"><ellipse cx="279.0844" cy="574.9989" fill="#F1F1F1" rx="83.3444" ry="19.0689" style="stroke:#181818;stroke-width:0.5;"/><text fill="#000000" font-family="sans-serif" font-size="14" lengthAdjust="spacing" textLength="137.9287" x="210.1201" y="579.743">C9 - Rimuovi utente</text></g><!--entity UC10--><g class="entity" data-entity="UC10" data-source-line="17" data-uid="ent0013" id="entity_UC10"><ellipse cx="279.0827" cy="142.9985" fill="#F1F1F1" rx="79.3427" ry="18.2685" style="stroke:#181818;stroke-width:0.5;"/><text fill="#000000" font-family="sans-serif" font-size="14" lengthAdjust="spacing" textLength="128.5156" x="214.8249" y="147.7427">C10 - Ricerca libro</text></g><!--entity UC11--><g class="entity" data-entity="UC11" data-source-line="18" data-uid="ent0014" id="entity_UC11"><ellipse cx="279.0766" cy="66.0039" fill="#F1F1F1" rx="85.5966" ry="24.1939" style="stroke:#181818;stroke-width:0.5;"/><text fill="#000000" font-family="sans-serif" font-size="14" lengthAdjust="spacing" textLength="128.5156" x="214.8188" y="65.6761">C11 - Ricerca libro</text><text fill="#000000" font-family="sans-serif" font-size="14" lengthAdjust="spacing" textLength="61.6943" x="248.2295" y="82.1644">con filtro</text></g><!--entity UC12--><g class="entity" data-entity="UC12" data-source-line="19" data-uid="ent0015" id="entity_UC12"><ellipse cx="279.0805" cy="648.0001" fill="#F1F1F1" rx="84.5505" ry="19.3101" style="stroke:#181818;stroke-width:0.5;"/><text fill="#000000" font-family="sans-serif" font-size="14" lengthAdjust="spacing" textLength="140.7314" x="208.7148" y="652.7442">C12 - Ricerca utente</text></g><!--entity UC13--><g class="entity" data-entity="UC13" data-source-line="20" data-uid="ent0016" id="entity_UC13"><ellipse cx="279.0846" cy="723.0009" fill="#F1F1F1" rx="91.5046" ry="20.7009" style="stroke:#181818;stroke-width:0.5;"/><text fill="#000000" font-family="sans-serif" font-size="14" lengthAdjust="spacing" textLength="156.6387" x="200.7653" y="727.7451">C13 - Registra prestito</text></g><!--entity UC14--><g class="entity" data-entity="UC14" data-source-line="21" data-uid="ent0017" id="entity_UC14"><ellipse cx="279.0837" cy="802.0007" fill="#F1F1F1" rx="104.3037" ry="23.2607" style="stroke:#181818;stroke-width:0.5;"/><text fill="#000000" font-family="sans-serif" font-size="14" lengthAdjust="spacing" textLength="185.0762" x="186.5456" y="806.7449">C14 - Registra restituzione</text></g><!--entity UC15--><g class="entity" data-entity="UC15" data-source-line="22" data-uid="ent0018" id="entity_UC15"><ellipse cx="279.0814" cy="879.9963" fill="#F1F1F1" rx="88.8814" ry="20.1763" style="stroke:#181818;stroke-width:0.5;"/><text fill="#000000" font-family="sans-serif" font-size="14" lengthAdjust="spacing" textLength="150.6846" x="203.7391" y="884.7404">C15 - Estendi prestito</text></g><!--entity a--><g class="entity" data-entity="a" data-source-line="4" data-uid="ent0002" id="entity_a"><ellipse cx="58.8896" cy="444.26" fill="#F1F1F1" rx="8" ry="8" style="stroke:#181818;stroke-width:0.5;"/><path d="M58.8896,452.26 L58.8896,479.26 M45.8896,460.26 L71.8896,460.26 M58.8896,479.26 L45.8896,494.26 M58.8896,479.26 L71.8896,494.26" fill="none" style="stroke:#181818;stroke-width:0.5;"/><text fill="#000000" font-family="sans-serif" font-size="14" lengthAdjust="spacing" textLength="105.7793" x="6" y="509.2952">Amministratore</text></g><!--link a to UC4--><g class="link" data-entity-1="a" data-entity-2="UC4" data-source-line="26" data-uid="lnk19" id="link_a_UC4"><path d="M64.89,435.4 C73.47,385.17 95.72,298.03 150.78,249 C166.36,235.13 186.94,226.69 207.01,221.59" fill="none" id="a-UC4" style="stroke:#181818;stroke-width:1;"/></g><!--link a to UC5--><g class="link" data-entity-1="a" data-entity-2="UC5" data-source-line="27" data-uid="lnk20" id="link_a_UC5"><path d="M73.05,435.33 C86.98,400.17 112.31,349.42 150.78,320 C167.53,307.19 188.68,299.06 208.91,293.91" fill="none" id="a-UC5" style="stroke:#181818;stroke-width:1;"/></g><!--link a to UC6--><g class="link" data-entity-1="a" data-entity-2="UC6" data-source-line="28" data-uid="lnk21" id="link_a_UC6"><path d="M94.35,435.31 C110.17,419.58 130.01,402.46 150.78,391 C170.75,379.98 194.43,372.24 215.91,366.9" fill="none" id="a-UC6" style="stroke:#181818;stroke-width:1;"/></g><!--link a to UC10--><g class="link" data-entity-1="a" data-entity-2="UC10" data-source-line="29" data-uid="lnk22" id="link_a_UC10"><path d="M60.47,435.33 C63.57,372.34 79.04,247.65 150.78,178 C165.5,163.71 185.49,155.13 205.26,150.02" fill="none" id="a-UC10" style="stroke:#181818;stroke-width:1;"/></g><!--link a to UC11--><g class="link" data-entity-1="a" data-entity-2="UC11" data-source-line="30" data-uid="lnk23" id="link_a_UC11"><path d="M64.65,435.57 C75.78,351.5 106.04,154.92 150.78,107 C164.41,92.4 183.24,82.99 202.25,76.92" fill="none" id="a-UC11" style="stroke:#181818;stroke-width:1;"/></g><!--link a to UC7--><g class="link" data-entity-1="a" data-entity-2="UC7" data-source-line="31" data-uid="lnk24" id="link_a_UC7"><path d="M112.15,462.98 C143.42,456.39 183.33,447.98 216.17,441.05" fill="none" id="a-UC7" style="stroke:#181818;stroke-width:1;"/></g><!--link a to UC8--><g class="link" data-entity-1="a" data-entity-2="UC8" data-source-line="32" data-uid="lnk25" id="link_a_UC8"><path d="M112.15,480.71 C139.76,484.25 174.11,488.66 204.38,492.54" fill="none" id="a-UC8" style="stroke:#181818;stroke-width:1;"/></g><!--link a to UC9--><g class="link" data-entity-1="a" data-entity-2="UC9" data-source-line="33" data-uid="lnk26" id="link_a_UC9"><path d="M107.48,512.7 C120.91,522.29 135.92,531.85 150.78,539 C171.27,548.85 194.95,556.47 216.29,562.11" fill="none" id="a-UC9" style="stroke:#181818;stroke-width:1;"/></g><!--link a to UC12--><g class="link" data-entity-1="a" data-entity-2="UC12" data-source-line="34" data-uid="lnk27" id="link_a_UC12"><path d="M76.03,512.62 C90.99,543.86 116.17,586.66 150.78,612 C167.27,624.08 187.68,632.11 207.3,637.44" fill="none" id="a-UC12" style="stroke:#181818;stroke-width:1;"/></g><!--link a to UC13--><g class="link" data-entity-1="a" data-entity-2="UC13" data-source-line="35" data-uid="lnk28" id="link_a_UC13"><path d="M66.27,512.52 C76.11,559.83 99.52,639.4 150.78,685 C165,697.65 183.27,706.09 201.51,711.72" fill="none" id="a-UC13" style="stroke:#181818;stroke-width:1;"/></g><!--link a to UC14--><g class="link" data-entity-1="a" data-entity-2="UC14" data-source-line="36" data-uid="lnk29" id="link_a_UC14"><path d="M61.28,512.66 C65.57,573.75 82.76,692.65 150.78,761 C162.98,773.26 178.86,781.86 195.25,787.89" fill="none" id="a-UC14" style="stroke:#181818;stroke-width:1;"/></g><!--link a to UC15--><g class="link" data-entity-1="a" data-entity-2="UC15" data-source-line="37" data-uid="lnk30" id="link_a_UC15"><path d="M64.52,512.73 C75.39,597.45 105.16,795.45 150.78,843 C163.77,856.54 181.39,865.2 199.37,870.73" fill="none" id="a-UC15" style="stroke:#181818;stroke-width:1;"/></g><!--link UC11 to UC10--><g class="link" data-entity-1="UC11" data-entity-2="UC10" data-source-line="39" data-uid="lnk31" id="link_UC11_UC10"><path d="M279.08,90.62 C279.08,101.86 279.08,95.11 279.08,106.35" fill="none" id="UC11-to-UC10" style="stroke:#181818;stroke-width:1;"/><polygon fill="none" points="279.08,124.35,285.08,106.35,273.08,106.35,279.08,124.35" style="stroke:#181818;stroke-width:1;"/></g><!--link UC4 to UC1--><g class="link" data-entity-1="UC4" data-entity-2="UC1" data-source-line="41" data-uid="lnk32" id="link_UC4_UC1"><path d="M358.17,214 C404.8,214 458.37,214 507.82,214" fill="none" id="UC4-to-UC1" style="stroke:#181818;stroke-width:1;stroke-dasharray:7,7;"/><polygon fill="#181818" points="513.82,214,504.82,210,508.82,214,504.82,218,513.82,214" style="stroke:#181818;stroke-width:1;"/><text fill="#000000" font-family="sans-serif" font-size="13" lengthAdjust="spacing" textLength="59.3569" x="414.39" y="210.5684">&#171;include&#187;</text></g><!--link UC5 to UC1--><g class="link" data-entity-1="UC5" data-entity-2="UC1" data-source-line="42" data-uid="lnk33" id="link_UC5_UC1"><path d="M338.23,272.47 C394.49,260.35 473.9446,243.2237 533.8646,230.3137" fill="none" id="UC5-to-UC1" style="stroke:#181818;stroke-width:1;stroke-dasharray:7,7;"/><polygon fill="#181818" points="539.73,229.05,530.0894,227.0353,534.8422,230.1031,531.7744,234.8559,539.73,229.05" style="stroke:#181818;stroke-width:1;"/><text fill="#000000" font-family="sans-serif" font-size="13" lengthAdjust="spacing" textLength="59.3569" x="414.39" y="239.7084">&#171;include&#187;</text></g><!--link UC6 to UC1--><g class="link" data-entity-1="UC6" data-entity-2="UC1" data-source-line="43" data-uid="lnk34" id="link_UC6_UC1"><path d="M326.42,341.26 C344.34,335.31 364.94,328.16 383.39,321 C451.22,294.66 521.7982,259.7318 566.1682,236.8318" fill="none" id="UC6-to-UC1" style="stroke:#181818;stroke-width:1;stroke-dasharray:7,7;"/><polygon fill="#181818" points="571.5,234.08,561.6678,234.6532,567.0569,236.3732,565.3369,241.7622,571.5,234.08" style="stroke:#181818;stroke-width:1;"/><text fill="#000000" font-family="sans-serif" font-size="13" lengthAdjust="spacing" textLength="59.3569" x="414.39" y="279.5684">&#171;include&#187;</text></g><!--link UC10 to UC1--><g class="link" data-entity-1="UC10" data-entity-2="UC1" data-source-line="44" data-uid="lnk35" id="link_UC10_UC1"><path d="M338.23,155.53 C394.49,167.65 473.9446,184.7763 533.8646,197.6863" fill="none" id="UC10-to-UC1" style="stroke:#181818;stroke-width:1;stroke-dasharray:7,7;"/><polygon fill="#181818" points="539.73,198.95,531.7744,193.1441,534.8422,197.8969,530.0894,200.9647,539.73,198.95" style="stroke:#181818;stroke-width:1;"/><text fill="#000000" font-family="sans-serif" font-size="13" lengthAdjust="spacing" textLength="59.3569" x="414.39" y="168.7084">&#171;include&#187;</text></g><!--link UC11 to UC1--><g class="link" data-entity-1="UC11" data-entity-2="UC1" data-source-line="45" data-uid="lnk36" id="link_UC11_UC1"><path d="M330.67,85.65 C347.5,92.3 366.3,99.86 383.39,107 C424.15,124.04 434.36,128.3 474.39,147 C506.9,162.19 537.9851,177.6036 564.8351,191.1736" fill="none" id="UC11-to-UC1" style="stroke:#181818;stroke-width:1;stroke-dasharray:7,7;"/><polygon fill="#181818" points="570.19,193.88,563.9618,186.2504,565.7275,191.6247,560.3533,193.3904,570.19,193.88" style="stroke:#181818;stroke-width:1;"/><text fill="#000000" font-family="sans-serif" font-size="13" lengthAdjust="spacing" textLength="59.3569" x="414.39" y="116.1884">&#171;include&#187;</text></g><!--link UC7 to UC2--><g class="link" data-entity-1="UC7" data-entity-2="UC2" data-source-line="47" data-uid="lnk37" id="link_UC7_UC2"><path d="M328.48,443.92 C367.84,456.93 424.78,475.9 474.39,493 C501,502.17 524.8096,510.5818 549.4196,519.3718" fill="none" id="UC7-to-UC2" style="stroke:#181818;stroke-width:1;stroke-dasharray:7,7;"/><polygon fill="#181818" points="555.07,521.39,547.9398,514.5958,550.3613,519.7082,545.249,522.1297,555.07,521.39" style="stroke:#181818;stroke-width:1;"/><text fill="#000000" font-family="sans-serif" font-size="13" lengthAdjust="spacing" textLength="59.3569" x="414.39" y="469.5984">&#171;include&#187;</text></g><!--link UC8 to UC2--><g class="link" data-entity-1="UC8" data-entity-2="UC2" data-source-line="48" data-uid="lnk38" id="link_UC8_UC2"><path d="M354.85,510.85 C403.65,516.63 461.6916,523.4949 513.3216,529.6049" fill="none" id="UC8-to-UC2" style="stroke:#181818;stroke-width:1;stroke-dasharray:7,7;"/><polygon fill="#181818" points="519.28,530.31,510.8125,525.28,514.3146,529.7224,509.8723,533.2246,519.28,530.31" style="stroke:#181818;stroke-width:1;"/><text fill="#000000" font-family="sans-serif" font-size="13" lengthAdjust="spacing" textLength="59.3569" x="414.39" y="514.5784">&#171;include&#187;</text></g><!--link UC9 to UC2--><g class="link" data-entity-1="UC9" data-entity-2="UC2" data-source-line="49" data-uid="lnk39" id="link_UC9_UC2"><path d="M362.58,576.25 C397.22,575.9 437.86,574.35 474.39,570 C496.32,567.39 514.0896,564.1967 535.3596,559.5267" fill="none" id="UC9-to-UC2" style="stroke:#181818;stroke-width:1;stroke-dasharray:7,7;"/><polygon fill="#181818" points="541.22,558.24,531.5716,556.2631,536.3363,559.3123,533.2872,564.077,541.22,558.24" style="stroke:#181818;stroke-width:1;"/><text fill="#000000" font-family="sans-serif" font-size="13" lengthAdjust="spacing" textLength="59.3569" x="414.39" y="566.5684">&#171;include&#187;</text></g><!--link UC12 to UC2--><g class="link" data-entity-1="UC12" data-entity-2="UC2" data-source-line="50" data-uid="lnk40" id="link_UC12_UC2"><path d="M343.43,635.2 C381.79,626.75 431.44,614.56 474.39,600 C505.92,589.31 534.8524,576.7962 561.0524,564.5762" fill="none" id="UC12-to-UC2" style="stroke:#181818;stroke-width:1;stroke-dasharray:7,7;"/><polygon fill="#181818" points="566.49,562.04,556.6428,562.2192,561.9586,564.1535,560.0243,569.4694,566.49,562.04" style="stroke:#181818;stroke-width:1;"/><text fill="#000000" font-family="sans-serif" font-size="13" lengthAdjust="spacing" textLength="59.3569" x="414.39" y="596.5684">&#171;include&#187;</text></g><!--link UC13 to UC3--><g class="link" data-entity-1="UC13" data-entity-2="UC3" data-source-line="52" data-uid="lnk41" id="link_UC13_UC3"><path d="M343.23,738.14 C398.54,751.4 473.0853,769.2712 531.0653,783.1712" fill="none" id="UC13-to-UC3" style="stroke:#181818;stroke-width:1;stroke-dasharray:7,7;"/><polygon fill="#181818" points="536.9,784.57,529.0805,778.582,532.0378,783.4043,527.2155,786.3616,536.9,784.57" style="stroke:#181818;stroke-width:1;"/><text fill="#000000" font-family="sans-serif" font-size="13" lengthAdjust="spacing" textLength="59.3569" x="414.39" y="751.9884">&#171;include&#187;</text></g><!--link UC14 to UC3--><g class="link" data-entity-1="UC14" data-entity-2="UC3" data-source-line="53" data-uid="lnk42" id="link_UC14_UC3"><path d="M383.44,802 C421.85,802 459.45,802 498.05,802" fill="none" id="UC14-to-UC3" style="stroke:#181818;stroke-width:1;stroke-dasharray:7,7;"/><polygon fill="#181818" points="504.05,802,495.05,798,499.05,802,495.05,806,504.05,802" style="stroke:#181818;stroke-width:1;"/><text fill="#000000" font-family="sans-serif" font-size="13" lengthAdjust="spacing" textLength="59.3569" x="414.39" y="798.5684">&#171;include&#187;</text></g><!--link UC15 to UC3--><g class="link" data-entity-1="UC15" data-entity-2="UC3" data-source-line="54" data-uid="lnk43" id="link_UC15_UC3"><path d="M342.06,865.33 C397.24,852.27 472.2013,834.5219 530.5513,820.7119" fill="none" id="UC15-to-UC3" style="stroke:#181818;stroke-width:1;stroke-dasharray:7,7;"/><polygon fill="#181818" points="536.39,819.33,526.7107,817.5103,531.5244,820.4816,528.5532,825.2953,536.39,819.33" style="stroke:#181818;stroke-width:1;"/><text fill="#000000" font-family="sans-serif" font-size="13" lengthAdjust="spacing" textLength="59.3569" x="414.39" y="830.5784">&#171;include&#187;</text></g><!--SRC=[TP8_Ry8m4CLtVueJEmZdFmWXLQX3XovKTEhY9eQUb3YLxNIWxNUl4vBq0dY9dlL-T-VSSocF5cmD6ayV5WhKChTOAyRM3rM52etLmjPQha4O48orlb2dKiABysGbu9knniXS60cp7OSvlA9fH8ddiu3ICUttNUEiRN3OSG87z-36IcK7EY1qU8_-rD9O7FcGy97ZdvIH6asEtHtgdee85JlgkIxmYBcOG3614WVjiMhghscZX33fP5pt5xB7Ke9bTDw4oWYr8WCdq8hkUjbHkTHNL-TBIl5hwatbjO8ZblQ_WiR20r8ncSvf7hmDP2zFtHCPWXWRqYHuHCaBs9pTAnlxqaHu6ycZUrkgm9ksCME_Z0cOpxiSUn4F8Xc4My6W-A3IGMI3M8rGCAfmL6FxTkgXM-JFzjBR7IDOBBeJh66pGPMNJI6tM-V4NYVnEYvBhyKzblFItWfkgZAli_8wBlZxLkk5lHVUbaL-A_POVm00]--></g></svg>