<svg xmlns="http://www.w3.org/2000/svg" xmlns:xlink="http://www.w3.org/1999/xlink" contentStyleType="text/css" data-diagram-type="DESCRIPTION" height="917px" preserveAspectRatio="none" style="width:738px;height:917px;background:#FFFFFF;" version="1.1" viewBox="0 0 738 917" width="738px" zoomAndPan="magnify"><defs/><g><!--cluster Sistema--><g class="cluster" data-entity="Sistema" data-source-line="6" data-uid="ent0003" id="cluster_Sistema"><rect fill="none" height="904" rx="2.5" ry="2.5" style="stroke:#181818;stroke-width:1;" width="574.02" x="158.78" y="7"/><text fill="#000000" font-family="sans-serif" font-size="14" font-weight="bold" lengthAdjust="spacing" textLength="56.1504" x="417.7148" y="22.5352">Sistema</text></g><!--entity UC1--><g class="entity" data-entity="UC1" data-source-line="8" data-uid="ent0004" id="entity_UC1"><ellipse cx="610.5906" cy="167.0021" fill="#F1F1F1" rx="96.5106" ry="21.7021" style="stroke:#181818;stroke-width:0.5;"/><text fill="#000000" font-family="sans-serif" font-size="14" lengthAdjust="spacing" textLength="167.8701" x="526.6556" y="171.7463">C1 - Visualizza lista libri</text></g><!--entity UC2--><g class="entity" data-entity="UC2" data-source-line="9" data-uid="ent0005" id="entity_UC2"><ellipse cx="610.5935" cy="457.9987" fill="#F1F1F1" rx="102.3935" ry="22.8787" style="stroke:#181818;stroke-width:0.5;"/><text fill="#000000" font-family="sans-serif" font-size="14" lengthAdjust="spacing" textLength="180.8857" x="520.1506" y="462.7428">C2 - Visualizza lista utenti</text></g><!--entity UC3--><g class="entity" data-entity="UC3" data-source-line="10" data-uid="ent0006" id="entity_UC3"><ellipse cx="610.5855" cy="758.0011" fill="#F1F1F1" rx="106.2055" ry="23.6411" style="stroke:#181818;stroke-width:0.5;"/><text fill="#000000" font-family="sans-serif" font-size="14" lengthAdjust="spacing" textLength="189.2324" x="515.9693" y="762.7452">C3 - Visualizza lista prestiti</text></g><!--entity UC4--><g class="entity" data-entity="UC4" data-source-line="11" data-uid="ent0007" id="entity_UC4"><ellipse cx="279.0751" cy="59.997" fill="#F1F1F1" rx="78.6851" ry="18.137" style="stroke:#181818;stroke-width:0.5;"/><text fill="#000000" font-family="sans-serif" font-size="14" lengthAdjust="spacing" textLength="126.9502" x="215.6" y="64.7412">C4 - Inserisci libro</text></g><!--entity UC5--><g class="entity" data-entity="UC5" data-source-line="12" data-uid="ent0008" id="entity_UC5"><ellipse cx="279.0821" cy="131.0004" fill="#F1F1F1" rx="79.4521" ry="18.2904" style="stroke:#181818;stroke-width:0.5;"/><text fill="#000000" font-family="sans-serif" font-size="14" lengthAdjust="spacing" textLength="128.7754" x="214.6944" y="135.7446">C5 - Modifica libro</text></g><!--entity UC6--><g class="entity" data-entity="UC6" data-source-line="13" data-uid="ent0009" id="entity_UC6"><ellipse cx="279.077" cy="202.0034" fill="#F1F1F1" rx="78.167" ry="18.0334" style="stroke:#181818;stroke-width:0.5;"/><text fill="#000000" font-family="sans-serif" font-size="14" lengthAdjust="spacing" textLength="125.7129" x="216.2206" y="206.7475">C6 - Rimuovi libro</text></g><!--entity UC7--><g class="entity" data-entity="UC7" data-source-line="14" data-uid="ent0010" id="entity_UC7"><ellipse cx="279.0761" cy="564.9952" fill="#F1F1F1" rx="83.8761" ry="19.1752" style="stroke:#181818;stroke-width:0.5;"/><text fill="#000000" font-family="sans-serif" font-size="14" lengthAdjust="spacing" textLength="139.166" x="209.4931" y="569.7394">C7 - Inserisci utente</text></g><!--entity UC8--><g class="entity" data-entity="UC8" data-source-line="15" data-uid="ent0011" id="entity_UC8"><ellipse cx="279.0826" cy="346.0025" fill="#F1F1F1" rx="84.6626" ry="19.3325" style="stroke:#181818;stroke-width:0.5;"/><text fill="#000000" font-family="sans-serif" font-size="14" lengthAdjust="spacing" textLength="140.9912" x="208.587" y="350.7467">C8 - Modifica utente</text></g><!--entity UC9--><g class="entity" data-entity="UC9" data-source-line="16" data-uid="ent0012" id="entity_UC9"><ellipse cx="279.0844" cy="418.9989" fill="#F1F1F1" rx="83.3444" ry="19.0689" style="stroke:#181818;stroke-width:0.5;"/><text fill="#000000" font-family="sans-serif" font-size="14" lengthAdjust="spacing" textLength="137.9287" x="210.1201" y="423.743">C9 - Rimuovi utente</text></g><!--entity UC10--><g class="entity" data-entity="UC10" data-source-line="17" data-uid="ent0013" id="entity_UC10"><ellipse cx="279.0827" cy="272.9985" fill="#F1F1F1" rx="79.3427" ry="18.2685" style="stroke:#181818;stroke-width:0.5;"/><text fill="#000000" font-family="sans-serif" font-size="14" lengthAdjust="spacing" textLength="128.5156" x="214.8249" y="277.7427">C10 - Ricerca libro</text></g><!--entity UC12--><g class="entity" data-entity="UC12" data-source-line="19" data-uid="ent0014" id="entity_UC12"><ellipse cx="279.0805" cy="492.0001" fill="#F1F1F1" rx="84.5505" ry="19.3101" style="stroke:#181818;stroke-width:0.5;"/><text fill="#000000" font-family="sans-serif" font-size="14" lengthAdjust="spacing" textLength="140.7314" x="208.7148" y="496.7442">C12 - Ricerca utente</text></g><!--entity UC13--><g class="entity" data-entity="UC13" data-source-line="20" data-uid="ent0015" id="entity_UC13"><ellipse cx="279.0846" cy="640.0009" fill="#F1F1F1" rx="91.5046" ry="20.7009" style="stroke:#181818;stroke-width:0.5;"/><text fill="#000000" font-family="sans-serif" font-size="14" lengthAdjust="spacing" textLength="156.6387" x="200.7653" y="644.7451">C13 - Registra prestito</text></g><!--entity UC14--><g class="entity" data-entity="UC14" data-source-line="21" data-uid="ent0016" id="entity_UC14"><ellipse cx="279.0837" cy="719.0007" fill="#F1F1F1" rx="104.3037" ry="23.2607" style="stroke:#181818;stroke-width:0.5;"/><text fill="#000000" font-family="sans-serif" font-size="14" lengthAdjust="spacing" textLength="185.0762" x="186.5456" y="723.7449">C14 - Registra restituzione</text></g><!--entity UC15--><g class="entity" data-entity="UC15" data-source-line="22" data-uid="ent0017" id="entity_UC15"><ellipse cx="279.0814" cy="796.9963" fill="#F1F1F1" rx="88.8814" ry="20.1763" style="stroke:#181818;stroke-width:0.5;"/><text fill="#000000" font-family="sans-serif" font-size="14" lengthAdjust="spacing" textLength="150.6846" x="203.7391" y="801.7404">C15 - Estendi prestito</text></g><!--entity UC16--><g class="entity" data-entity="UC16" data-source-line="23" data-uid="ent0018" id="entity_UC16"><ellipse cx="279.0752" cy="874.003" fill="#F1F1F1" rx="94.6652" ry="21.333" style="stroke:#181818;stroke-width:0.5;"/><text fill="#000000" font-family="sans-serif" font-size="14" lengthAdjust="spacing" textLength="163.748" x="197.2011" y="878.7472">C16 - Filtra lista prestiti</text></g><!--entity a--><g class="entity" data-entity="a" data-source-line="4" data-uid="ent0002" id="entity_a"><ellipse cx="58.8896" cy="434.26" fill="#F1F1F1" rx="8" ry="8" style="stroke:#181818;stroke-width:0.5;"/><path d="M58.8896,442.26 L58.8896,469.26 M45.8896,450.26 L71.8896,450.26 M58.8896,469.26 L45.8896,484.26 M58.8896,469.26 L71.8896,484.26" fill="none" style="stroke:#181818;stroke-width:0.5;"/><text fill="#000000" font-family="sans-serif" font-size="14" lengthAdjust="spacing" textLength="105.7793" x="6" y="499.2952">Amministratore</text></g><!--link a to UC4--><g class="link" data-entity-1="a" data-entity-2="UC4" data-source-line="27" data-uid="lnk19" id="link_a_UC4"><path d="M64.43,425.54 C75.17,340.9 104.76,142.27 150.78,95 C165.17,80.22 185.18,71.5 205.07,66.42" fill="none" id="a-UC4" style="stroke:#181818;stroke-width:1;"/></g><!--link a to UC5--><g class="link" data-entity-1="a" data-entity-2="UC5" data-source-line="28" data-uid="lnk20" id="link_a_UC5"><path d="M60.37,425.33 C63.32,362.01 78.56,236.24 150.78,166 C165.49,151.7 185.47,143.12 205.24,138.01" fill="none" id="a-UC5" style="stroke:#181818;stroke-width:1;"/></g><!--link a to UC6--><g class="link" data-entity-1="a" data-entity-2="UC6" data-source-line="29" data-uid="lnk21" id="link_a_UC6"><path d="M64.72,425.5 C73.12,374.9 95.22,286.63 150.78,237 C166.42,223.03 187.14,214.57 207.32,209.47" fill="none" id="a-UC6" style="stroke:#181818;stroke-width:1;"/></g><!--link a to UC10--><g class="link" data-entity-1="a" data-entity-2="UC10" data-source-line="30" data-uid="lnk22" id="link_a_UC10"><path d="M72.9,425.49 C86.79,390.14 112.15,338.86 150.78,309 C167.77,295.87 189.33,287.52 209.86,282.23" fill="none" id="a-UC10" style="stroke:#181818;stroke-width:1;"/></g><!--link a to UC7--><g class="link" data-entity-1="a" data-entity-2="UC7" data-source-line="31" data-uid="lnk23" id="link_a_UC7"><path d="M107.48,502.7 C120.91,512.29 135.92,521.85 150.78,529 C171.17,538.8 194.71,546.39 215.97,552.02" fill="none" id="a-UC7" style="stroke:#181818;stroke-width:1;"/></g><!--link a to UC8--><g class="link" data-entity-1="a" data-entity-2="UC8" data-source-line="32" data-uid="lnk24" id="link_a_UC8"><path d="M94.89,425.44 C110.66,410.04 130.32,393.31 150.78,382 C169.78,371.5 192.1,363.85 212.7,358.37" fill="none" id="a-UC8" style="stroke:#181818;stroke-width:1;"/></g><!--link a to UC9--><g class="link" data-entity-1="a" data-entity-2="UC9" data-source-line="33" data-uid="lnk25" id="link_a_UC9"><path d="M112.15,453.22 C143.42,446.77 183.33,438.54 216.17,431.77" fill="none" id="a-UC9" style="stroke:#181818;stroke-width:1;"/></g><!--link a to UC12--><g class="link" data-entity-1="a" data-entity-2="UC12" data-source-line="34" data-uid="lnk26" id="link_a_UC12"><path d="M112.15,470.71 C139.76,474.25 174.11,478.66 204.38,482.54" fill="none" id="a-UC12" style="stroke:#181818;stroke-width:1;"/></g><!--link a to UC13--><g class="link" data-entity-1="a" data-entity-2="UC13" data-source-line="35" data-uid="lnk27" id="link_a_UC13"><path d="M76.12,502.49 C91.14,533.65 116.36,576.41 150.78,602 C166.61,613.76 186.06,621.91 204.96,627.54" fill="none" id="a-UC13" style="stroke:#181818;stroke-width:1;"/></g><!--link a to UC14--><g class="link" data-entity-1="a" data-entity-2="UC14" data-source-line="36" data-uid="lnk28" id="link_a_UC14"><path d="M66.18,502.46 C75.98,550.19 99.38,631.03 150.78,678 C163.81,689.9 180.32,698.35 197.1,704.35" fill="none" id="a-UC14" style="stroke:#181818;stroke-width:1;"/></g><!--link a to UC15--><g class="link" data-entity-1="a" data-entity-2="UC15" data-source-line="37" data-uid="lnk29" id="link_a_UC15"><path d="M60.58,502.55 C63.84,565.37 79.55,689.83 150.78,760 C164.22,773.24 182.12,781.8 200.23,787.31" fill="none" id="a-UC15" style="stroke:#181818;stroke-width:1;"/></g><!--link a to UC16--><g class="link" data-entity-1="a" data-entity-2="UC16" data-source-line="38" data-uid="lnk30" id="link_a_UC16"><path d="M64.5,502.57 C75.38,587.47 105.24,786.79 150.78,835 C163.32,848.28 180.24,857.07 197.65,862.89" fill="none" id="a-UC16" style="stroke:#181818;stroke-width:1;"/></g><!--link UC4 to UC1--><g class="link" data-entity-1="UC4" data-entity-2="UC1" data-source-line="40" data-uid="lnk31" id="link_UC4_UC1"><path d="M327.7,74.6 C367.09,86.77 424.48,104.68 474.39,121 C501.61,129.9 526.1154,138.1808 551.0354,146.7408" fill="none" id="UC4-to-UC1" style="stroke:#181818;stroke-width:1;stroke-dasharray:7,7;"/><polygon fill="#181818" points="556.71,148.69,549.4976,141.9832,551.9812,147.0657,546.8987,149.5492,556.71,148.69" style="stroke:#181818;stroke-width:1;"/><text fill="#000000" font-family="sans-serif" font-size="13" lengthAdjust="spacing" textLength="59.3569" x="414.39" y="98.7084">&#171;include&#187;</text></g><!--link UC5 to UC1--><g class="link" data-entity-1="UC5" data-entity-2="UC1" data-source-line="41" data-uid="lnk32" id="link_UC5_UC1"><path d="M351.58,138.81 C401.93,144.31 463.6354,151.0589 517.0454,156.8889" fill="none" id="UC5-to-UC1" style="stroke:#181818;stroke-width:1;stroke-dasharray:7,7;"/><polygon fill="#181818" points="523.01,157.54,514.4972,152.587,518.0395,156.9974,513.6291,160.5398,523.01,157.54" style="stroke:#181818;stroke-width:1;"/><text fill="#000000" font-family="sans-serif" font-size="13" lengthAdjust="spacing" textLength="59.3569" x="414.39" y="142.3484">&#171;include&#187;</text></g><!--link UC6 to UC1--><g class="link" data-entity-1="UC6" data-entity-2="UC1" data-source-line="42" data-uid="lnk33" id="link_UC6_UC1"><path d="M357.38,202.19 C393.1,201.52 436.02,199.63 474.39,195 C497.11,192.26 515.8325,188.9139 537.7325,184.2339" fill="none" id="UC6-to-UC1" style="stroke:#181818;stroke-width:1;stroke-dasharray:7,7;"/><polygon fill="#181818" points="543.6,182.98,533.9628,180.9491,538.7104,184.0249,535.6346,188.7725,543.6,182.98" style="stroke:#181818;stroke-width:1;"/><text fill="#000000" font-family="sans-serif" font-size="13" lengthAdjust="spacing" textLength="59.3569" x="414.39" y="191.5684">&#171;include&#187;</text></g><!--link UC10 to UC1--><g class="link" data-entity-1="UC10" data-entity-2="UC1" data-source-line="43" data-uid="lnk34" id="link_UC10_UC1"><path d="M339.9,260.87 C378.69,252.36 430.08,239.87 474.39,225 C506.59,214.19 536.378,201.4652 562.798,189.3252" fill="none" id="UC10-to-UC1" style="stroke:#181818;stroke-width:1;stroke-dasharray:7,7;"/><polygon fill="#181818" points="568.25,186.82,558.4019,186.9431,563.7067,188.9077,561.7422,194.2124,568.25,186.82" style="stroke:#181818;stroke-width:1;"/><text fill="#000000" font-family="sans-serif" font-size="13" lengthAdjust="spacing" textLength="59.3569" x="414.39" y="221.5684">&#171;include&#187;</text></g><!--link UC7 to UC2--><g class="link" data-entity-1="UC7" data-entity-2="UC2" data-source-line="45" data-uid="lnk35" id="link_UC7_UC2"><path d="M342.99,552.3 C381.41,543.84 431.28,531.61 474.39,517 C505.92,506.31 534.8524,493.7962 561.0524,481.5762" fill="none" id="UC7-to-UC2" style="stroke:#181818;stroke-width:1;stroke-dasharray:7,7;"/><polygon fill="#181818" points="566.49,479.04,556.6428,479.2192,561.9586,481.1535,560.0243,486.4694,566.49,479.04" style="stroke:#181818;stroke-width:1;"/><text fill="#000000" font-family="sans-serif" font-size="13" lengthAdjust="spacing" textLength="59.3569" x="414.39" y="513.5684">&#171;include&#187;</text></g><!--link UC8 to UC2--><g class="link" data-entity-1="UC8" data-entity-2="UC2" data-source-line="46" data-uid="lnk36" id="link_UC8_UC2"><path d="M329.3,361.87 C368.64,374.63 425.16,393.16 474.39,410 C501.02,419.11 524.8303,427.5098 549.4403,436.3098" fill="none" id="UC8-to-UC2" style="stroke:#181818;stroke-width:1;stroke-dasharray:7,7;"/><polygon fill="#181818" points="555.09,438.33,547.9623,431.5333,550.3819,436.6465,545.2687,439.0661,555.09,438.33" style="stroke:#181818;stroke-width:1;"/><text fill="#000000" font-family="sans-serif" font-size="13" lengthAdjust="spacing" textLength="59.3569" x="414.39" y="386.8184">&#171;include&#187;</text></g><!--link UC9 to UC2--><g class="link" data-entity-1="UC9" data-entity-2="UC2" data-source-line="47" data-uid="lnk37" id="link_UC9_UC2"><path d="M354.03,427.75 C402.89,433.54 461.2917,440.444 513.1917,446.594" fill="none" id="UC9-to-UC2" style="stroke:#181818;stroke-width:1;stroke-dasharray:7,7;"/><polygon fill="#181818" points="519.15,447.3,510.6832,442.2687,514.1847,446.7116,509.7418,450.2131,519.15,447.3" style="stroke:#181818;stroke-width:1;"/><text fill="#000000" font-family="sans-serif" font-size="13" lengthAdjust="spacing" textLength="59.3569" x="414.39" y="431.5784">&#171;include&#187;</text></g><!--link UC12 to UC2--><g class="link" data-entity-1="UC12" data-entity-2="UC2" data-source-line="48" data-uid="lnk38" id="link_UC12_UC2"><path d="M363.53,493.24 C397.96,492.87 438.2,491.31 474.39,487 C496.32,484.39 514.0896,481.1967 535.3596,476.5267" fill="none" id="UC12-to-UC2" style="stroke:#181818;stroke-width:1;stroke-dasharray:7,7;"/><polygon fill="#181818" points="541.22,475.24,531.5716,473.2631,536.3363,476.3123,533.2872,481.077,541.22,475.24" style="stroke:#181818;stroke-width:1;"/><text fill="#000000" font-family="sans-serif" font-size="13" lengthAdjust="spacing" textLength="59.3569" x="414.39" y="483.5684">&#171;include&#187;</text></g><!--link UC13 to UC3--><g class="link" data-entity-1="UC13" data-entity-2="UC3" data-source-line="50" data-uid="lnk39" id="link_UC13_UC3"><path d="M329.41,657.67 C389.29,679.11 484.3913,713.1672 547.3613,735.7172" fill="none" id="UC13-to-UC3" style="stroke:#181818;stroke-width:1;stroke-dasharray:7,7;"/><polygon fill="#181818" points="553.01,737.74,545.8855,730.9399,548.3027,736.0543,543.1883,738.4715,553.01,737.74" style="stroke:#181818;stroke-width:1;"/><text fill="#000000" font-family="sans-serif" font-size="13" lengthAdjust="spacing" textLength="59.3569" x="414.39" y="684.9984">&#171;include&#187;</text></g><!--link UC14 to UC3--><g class="link" data-entity-1="UC14" data-entity-2="UC3" data-source-line="51" data-uid="lnk40" id="link_UC14_UC3"><path d="M371.87,729.86 C416.81,735.18 464.8715,740.8757 510.0515,746.2157" fill="none" id="UC14-to-UC3" style="stroke:#181818;stroke-width:1;stroke-dasharray:7,7;"/><polygon fill="#181818" points="516.01,746.92,507.5417,741.8913,511.0446,746.3331,506.6027,749.836,516.01,746.92" style="stroke:#181818;stroke-width:1;"/><text fill="#000000" font-family="sans-serif" font-size="13" lengthAdjust="spacing" textLength="59.3569" x="414.39" y="731.5784">&#171;include&#187;</text></g><!--link UC15 to UC3--><g class="link" data-entity-1="UC15" data-entity-2="UC3" data-source-line="52" data-uid="lnk41" id="link_UC15_UC3"><path d="M358.59,787.71 C405.8,782.12 460.2017,775.6861 509.9017,769.7961" fill="none" id="UC15-to-UC3" style="stroke:#181818;stroke-width:1;stroke-dasharray:7,7;"/><polygon fill="#181818" points="515.86,769.09,506.4518,766.177,510.8947,769.6784,507.3933,774.1214,515.86,769.09" style="stroke:#181818;stroke-width:1;"/><text fill="#000000" font-family="sans-serif" font-size="13" lengthAdjust="spacing" textLength="59.3569" x="414.39" y="770.5784">&#171;include&#187;</text></g><!--link UC16 to UC3--><g class="link" data-entity-1="UC16" data-entity-2="UC3" data-source-line="53" data-uid="lnk42" id="link_UC16_UC3"><path d="M332.06,855.88 C371.21,842.22 426.19,822.99 474.39,806 C500.11,796.93 522.9062,788.8487 547.0562,780.2687" fill="none" id="UC16-to-UC3" style="stroke:#181818;stroke-width:1;stroke-dasharray:7,7;"/><polygon fill="#181818" points="552.71,778.26,542.8902,777.5038,547.9985,779.9339,545.5684,785.0422,552.71,778.26" style="stroke:#181818;stroke-width:1;"/><text fill="#000000" font-family="sans-serif" font-size="13" lengthAdjust="spacing" textLength="59.3569" x="414.39" y="802.5684">&#171;include&#187;</text></g><!--SRC=[TP8_JyCm4CLtVmgBXQbLdRzDLLL25KWCB4KmiPZ4BISb3h8TXYA-EtP8pAMDb-X5xtTtjj_LucYeQQc2quUX5IXH6cWb8PkxfW49sYXkMYKsb6lA2N4-bwTQq6VhYORJRq8wBKgk1RtPCxgWhw0xNiFvp6bj6VTzLt3Z6hpi6OAZERWpGfgHZX0Tpz6VIcW3deyHdrZ-KMgXG9VGdw4Tg0HHgQMUsWgEKF89b28eiz01cgxzcZRA49DFnlMt40EM8soDvqseDQ8AD7025VYjLprL2dLnTBOYjmXZbzYRB5j9Zr2R_nAS2ujGnMGymu4mbyX1dFeT6PFm3N4KBC7a7zYTxPhvlZWIvZAvjyibAxXgYsDXBfS7Tut0Eh2Ca1z2E5qi-jW7aOuY6uLziK7berYFel1Gv5NibM_AV5StrKwZo-NE_T4DtMv1bdLNYTtEEcdGoOAEpNhUibu-MD5LrJhe5477XZzlEIyUlFYwB0bRQTZA0jOl]--></g></svg>