<svg xmlns="http://www.w3.org/2000/svg" xmlns:xlink="http://www.w3.org/1999/xlink" contentStyleType="text/css" data-diagram-type="CLASS" height="2314px" preserveAspectRatio="none" style="width:1312px;height:2314px;background:#FFFFFF;" version="1.1" viewBox="0 0 1312 2314" width="1312px" zoomAndPan="magnify"><defs/><g><!--cluster Java--><g class="cluster" data-entity="Java" data-source-line="3" data-uid="ent0002" id="cluster_Java"><path d="M72.18,6 L103.805,6 A3.75,3.75 0 0 1 106.305,8.5 L113.305,28.4883 L1303.19,28.4883 A2.5,2.5 0 0 1 1305.69,30.9883 L1305.69,2304.5 A2.5,2.5 0 0 1 1303.19,2307 L72.18,2307 A2.5,2.5 0 0 1 69.68,2304.5 L69.68,8.5 A2.5,2.5 0 0 1 72.18,6" fill="none" style="stroke:#000000;stroke-width:1.5;"/><line style="stroke:#000000;stroke-width:1.5;" x1="69.68" x2="113.305" y1="28.4883" y2="28.4883"/><text fill="#000000" font-family="sans-serif" font-size="14" font-weight="bold" lengthAdjust="spacing" textLength="30.625" x="73.68" y="21.5352">Java</text></g><!--cluster Controllers--><g class="cluster" data-entity="Controllers" data-source-line="6" data-uid="ent0004" id="cluster_Controllers"><path d="M104.18,1729 L185.8577,1729 A3.75,3.75 0 0 1 188.3577,1731.5 L195.3577,1751.4883 L1271.19,1751.4883 A2.5,2.5 0 0 1 1273.69,1753.9883 L1273.69,2272.5 A2.5,2.5 0 0 1 1271.19,2275 L104.18,2275 A2.5,2.5 0 0 1 101.68,2272.5 L101.68,1731.5 A2.5,2.5 0 0 1 104.18,1729" fill="none" style="stroke:#000000;stroke-width:1.5;"/><line style="stroke:#000000;stroke-width:1.5;" x1="101.68" x2="195.3577" y1="1751.4883" y2="1751.4883"/><text fill="#000000" font-family="sans-serif" font-size="14" font-weight="bold" lengthAdjust="spacing" textLength="80.6777" x="105.68" y="1744.5352">Controllers</text></g><!--cluster Libri--><g class="cluster" data-entity="Libri" data-source-line="10" data-uid="ent0006" id="cluster_Libri"><path d="M150.22,2061 L184.1077,2061 A3.75,3.75 0 0 1 186.6077,2063.5 L193.6077,2083.4883 L680.79,2083.4883 A2.5,2.5 0 0 1 683.29,2085.9883 L683.29,2240.5 A2.5,2.5 0 0 1 680.79,2243 L150.22,2243 A2.5,2.5 0 0 1 147.72,2240.5 L147.72,2063.5 A2.5,2.5 0 0 1 150.22,2061" fill="none" style="stroke:#000000;stroke-width:1.5;"/><line style="stroke:#000000;stroke-width:1.5;" x1="147.72" x2="193.6077" y1="2083.4883" y2="2083.4883"/><text fill="#000000" font-family="sans-serif" font-size="14" font-weight="bold" lengthAdjust="spacing" textLength="32.8877" x="151.72" y="2076.5352">Libri</text></g><!--cluster Prestiti--><g class="cluster" data-entity="Prestiti" data-source-line="17" data-uid="ent0011" id="cluster_Prestiti"><path d="M136.18,1855 L188.7025,1855 A3.75,3.75 0 0 1 191.2025,1857.5 L198.2025,1877.4883 L696.71,1877.4883 A2.5,2.5 0 0 1 699.21,1879.9883 L699.21,2034.5 A2.5,2.5 0 0 1 696.71,2037 L136.18,2037 A2.5,2.5 0 0 1 133.68,2034.5 L133.68,1857.5 A2.5,2.5 0 0 1 136.18,1855" fill="none" style="stroke:#000000;stroke-width:1.5;"/><line style="stroke:#000000;stroke-width:1.5;" x1="133.68" x2="198.2025" y1="1877.4883" y2="1877.4883"/><text fill="#000000" font-family="sans-serif" font-size="14" font-weight="bold" lengthAdjust="spacing" textLength="51.5225" x="137.68" y="1870.5352">Prestiti</text></g><!--cluster Utenti--><g class="cluster" data-entity="Utenti" data-source-line="24" data-uid="ent0016" id="cluster_Utenti"><path d="M729.71,2061 L774.3164,2061 A3.75,3.75 0 0 1 776.8164,2063.5 L783.8164,2083.4883 L1239.19,2083.4883 A2.5,2.5 0 0 1 1241.69,2085.9883 L1241.69,2240.5 A2.5,2.5 0 0 1 1239.19,2243 L729.71,2243 A2.5,2.5 0 0 1 727.21,2240.5 L727.21,2063.5 A2.5,2.5 0 0 1 729.71,2061" fill="none" style="stroke:#000000;stroke-width:1.5;"/><line style="stroke:#000000;stroke-width:1.5;" x1="727.21" x2="783.8164" y1="2083.4883" y2="2083.4883"/><text fill="#000000" font-family="sans-serif" font-size="14" font-weight="bold" lengthAdjust="spacing" textLength="43.6064" x="731.21" y="2076.5352">Utenti</text></g><!--cluster Models--><g class="cluster" data-entity="Models" data-source-line="33" data-uid="ent0021" id="cluster_Models"><path d="M160.87,648 L213.4677,648 A3.75,3.75 0 0 1 215.9677,650.5 L222.9677,670.4883 L660.45,670.4883 A2.5,2.5 0 0 1 662.95,672.9883 L662.95,1686.5 A2.5,2.5 0 0 1 660.45,1689 L160.87,1689 A2.5,2.5 0 0 1 158.37,1686.5 L158.37,650.5 A2.5,2.5 0 0 1 160.87,648" fill="none" style="stroke:#000000;stroke-width:1.5;"/><line style="stroke:#000000;stroke-width:1.5;" x1="158.37" x2="222.9677" y1="670.4883" y2="670.4883"/><text fill="#000000" font-family="sans-serif" font-size="14" font-weight="bold" lengthAdjust="spacing" textLength="51.5977" x="162.37" y="663.5352">Models</text></g><!--cluster Libri--><g class="cluster" data-entity="Libri" data-source-line="40" data-uid="ent0026" id="cluster_Libri"><path d="M209.52,1475 L243.4077,1475 A3.75,3.75 0 0 1 245.9077,1477.5 L252.9077,1497.4883 L610.85,1497.4883 A2.5,2.5 0 0 1 613.35,1499.9883 L613.35,1654.5 A2.5,2.5 0 0 1 610.85,1657 L209.52,1657 A2.5,2.5 0 0 1 207.02,1654.5 L207.02,1477.5 A2.5,2.5 0 0 1 209.52,1475" fill="none" style="stroke:#000000;stroke-width:1.5;"/><line style="stroke:#000000;stroke-width:1.5;" x1="207.02" x2="252.9077" y1="1497.4883" y2="1497.4883"/><text fill="#000000" font-family="sans-serif" font-size="14" font-weight="bold" lengthAdjust="spacing" textLength="32.8877" x="211.02" y="1490.5352">Libri</text></g><!--cluster Prestiti--><g class="cluster" data-entity="Prestiti" data-source-line="46" data-uid="ent0030" id="cluster_Prestiti"><path d="M206.62,1269 L259.1425,1269 A3.75,3.75 0 0 1 261.6425,1271.5 L268.6425,1291.4883 L317.14,1291.4883 A2.5,2.5 0 0 1 319.64,1293.9883 L319.64,1448.5 A2.5,2.5 0 0 1 317.14,1451 L206.62,1451 A2.5,2.5 0 0 1 204.12,1448.5 L204.12,1271.5 A2.5,2.5 0 0 1 206.62,1269" fill="none" style="stroke:#000000;stroke-width:1.5;"/><line style="stroke:#000000;stroke-width:1.5;" x1="204.12" x2="268.6425" y1="1291.4883" y2="1291.4883"/><text fill="#000000" font-family="sans-serif" font-size="14" font-weight="bold" lengthAdjust="spacing" textLength="51.5225" x="208.12" y="1284.5352">Prestiti</text></g><!--cluster Utenti--><g class="cluster" data-entity="Utenti" data-source-line="51" data-uid="ent0033" id="cluster_Utenti"><path d="M210.15,1063 L254.7564,1063 A3.75,3.75 0 0 1 257.2564,1065.5 L264.2564,1085.4883 L313.61,1085.4883 A2.5,2.5 0 0 1 316.11,1087.9883 L316.11,1242.5 A2.5,2.5 0 0 1 313.61,1245 L210.15,1245 A2.5,2.5 0 0 1 207.65,1242.5 L207.65,1065.5 A2.5,2.5 0 0 1 210.15,1063" fill="none" style="stroke:#000000;stroke-width:1.5;"/><line style="stroke:#000000;stroke-width:1.5;" x1="207.65" x2="264.2564" y1="1085.4883" y2="1085.4883"/><text fill="#000000" font-family="sans-serif" font-size="14" font-weight="bold" lengthAdjust="spacing" textLength="43.6064" x="211.65" y="1078.5352">Utenti</text></g><!--cluster Servizi--><g class="cluster" data-entity="Servizi" data-source-line="56" data-uid="ent0036" id="cluster_Servizi"><path d="M192.87,857 L242.118,857 A3.75,3.75 0 0 1 244.618,859.5 L251.618,879.4883 L628.45,879.4883 A2.5,2.5 0 0 1 630.95,881.9883 L630.95,1036.5 A2.5,2.5 0 0 1 628.45,1039 L192.87,1039 A2.5,2.5 0 0 1 190.37,1036.5 L190.37,859.5 A2.5,2.5 0 0 1 192.87,857" fill="none" style="stroke:#000000;stroke-width:1.5;"/><line style="stroke:#000000;stroke-width:1.5;" x1="190.37" x2="251.618" y1="879.4883" y2="879.4883"/><text fill="#000000" font-family="sans-serif" font-size="14" font-weight="bold" lengthAdjust="spacing" textLength="48.248" x="194.37" y="872.5352">Servizi</text></g><!--cluster Views--><g class="cluster" data-entity="Views" data-source-line="65" data-uid="ent0041" id="cluster_Views"><path d="M125.43,105 L168.9632,105 A3.75,3.75 0 0 1 171.4632,107.5 L178.4632,127.4883 L1207.26,127.4883 A2.5,2.5 0 0 1 1209.76,129.9883 L1209.76,613.5 A2.5,2.5 0 0 1 1207.26,616 L125.43,616 A2.5,2.5 0 0 1 122.93,613.5 L122.93,107.5 A2.5,2.5 0 0 1 125.43,105" fill="none" style="stroke:#000000;stroke-width:1.5;"/><line style="stroke:#000000;stroke-width:1.5;" x1="122.93" x2="178.4632" y1="127.4883" y2="127.4883"/><text fill="#000000" font-family="sans-serif" font-size="14" font-weight="bold" lengthAdjust="spacing" textLength="42.5332" x="126.93" y="120.5352">Views</text></g><!--cluster Libri--><g class="cluster" data-entity="Libri" data-source-line="69" data-uid="ent0043" id="cluster_Libri"><path d="M168.41,410 L202.2977,410 A3.75,3.75 0 0 1 204.7977,412.5 L211.7977,432.4883 L655.55,432.4883 A2.5,2.5 0 0 1 658.05,434.9883 L658.05,589.5 A2.5,2.5 0 0 1 655.55,592 L168.41,592 A2.5,2.5 0 0 1 165.91,589.5 L165.91,412.5 A2.5,2.5 0 0 1 168.41,410" fill="none" style="stroke:#000000;stroke-width:1.5;"/><line style="stroke:#000000;stroke-width:1.5;" x1="165.91" x2="211.7977" y1="432.4883" y2="432.4883"/><text fill="#000000" font-family="sans-serif" font-size="14" font-weight="bold" lengthAdjust="spacing" textLength="32.8877" x="169.91" y="425.5352">Libri</text></g><!--cluster Prestiti--><g class="cluster" data-entity="Prestiti" data-source-line="75" data-uid="ent0047" id="cluster_Prestiti"><path d="M154.37,204 L206.8925,204 A3.75,3.75 0 0 1 209.3925,206.5 L216.3925,226.4883 L681.39,226.4883 A2.5,2.5 0 0 1 683.89,228.9883 L683.89,383.5 A2.5,2.5 0 0 1 681.39,386 L154.37,386 A2.5,2.5 0 0 1 151.87,383.5 L151.87,206.5 A2.5,2.5 0 0 1 154.37,204" fill="none" style="stroke:#000000;stroke-width:1.5;"/><line style="stroke:#000000;stroke-width:1.5;" x1="151.87" x2="216.3925" y1="226.4883" y2="226.4883"/><text fill="#000000" font-family="sans-serif" font-size="14" font-weight="bold" lengthAdjust="spacing" textLength="51.5225" x="155.87" y="219.5352">Prestiti</text></g><!--cluster Utenti--><g class="cluster" data-entity="Utenti" data-source-line="81" data-uid="ent0051" id="cluster_Utenti"><path d="M747.9,410 L792.5064,410 A3.75,3.75 0 0 1 795.0064,412.5 L802.0064,432.4883 L1183.26,432.4883 A2.5,2.5 0 0 1 1185.76,434.9883 L1185.76,589.5 A2.5,2.5 0 0 1 1183.26,592 L747.9,592 A2.5,2.5 0 0 1 745.4,589.5 L745.4,412.5 A2.5,2.5 0 0 1 747.9,410" fill="none" style="stroke:#000000;stroke-width:1.5;"/><line style="stroke:#000000;stroke-width:1.5;" x1="745.4" x2="802.0064" y1="432.4883" y2="432.4883"/><text fill="#000000" font-family="sans-serif" font-size="14" font-weight="bold" lengthAdjust="spacing" textLength="43.6064" x="749.4" y="425.5352">Utenti</text></g><!--class Main--><g class="entity" data-entity="Main" data-source-line="4" data-uid="ent0003" id="entity_Main"><rect fill="#F1F1F1" height="48" rx="2.5" ry="2.5" style="stroke:#181818;stroke-width:0.5;" width="64.5254" x="229.62" y="41"/><ellipse cx="244.62" cy="57" fill="#ADD1B2" rx="11" ry="11" style="stroke:#181818;stroke-width:1;"/><path d="M247.0931,63.1431 Q246.5121,63.4419 245.8729,63.5913 Q245.2338,63.7407 244.5282,63.7407 Q242.0214,63.7407 240.7015,62.0889 Q239.3817,60.437 239.3817,57.3159 Q239.3817,54.1865 240.7015,52.5347 Q242.0214,50.8828 244.5282,50.8828 Q245.2338,50.8828 245.8812,51.0322 Q246.5287,51.1816 247.0931,51.4805 L247.0931,54.2031 Q246.4623,53.6221 245.8688,53.3523 Q245.2753,53.0825 244.6444,53.0825 Q243.2997,53.0825 242.6149,54.1492 Q241.9301,55.2158 241.9301,57.3159 Q241.9301,59.4077 242.6149,60.4744 Q243.2997,61.541 244.6444,61.541 Q245.2753,61.541 245.8688,61.2712 Q246.4623,61.0015 247.0931,60.4204 Z " fill="#000000"/><text fill="#000000" font-family="sans-serif" font-size="14" lengthAdjust="spacing" textLength="32.5254" x="258.62" y="62.291">Main</text><line style="stroke:#181818;stroke-width:0.5;" x1="230.62" x2="293.1454" y1="73" y2="73"/><line style="stroke:#181818;stroke-width:0.5;" x1="230.62" x2="293.1454" y1="81" y2="81"/></g><!--class MainController--><g class="entity" data-entity="MainController" data-source-line="8" data-uid="ent0005" id="entity_MainController"><rect fill="#F1F1F1" height="48" rx="2.5" ry="2.5" style="stroke:#181818;stroke-width:0.5;" width="132.6865" x="195.54" y="1791"/><ellipse cx="210.54" cy="1807" fill="#ADD1B2" rx="11" ry="11" style="stroke:#181818;stroke-width:1;"/><path d="M213.0131,1813.1431 Q212.4321,1813.4419 211.7929,1813.5913 Q211.1538,1813.7407 210.4482,1813.7407 Q207.9414,1813.7407 206.6215,1812.0889 Q205.3017,1810.437 205.3017,1807.3159 Q205.3017,1804.1865 206.6215,1802.5347 Q207.9414,1800.8828 210.4482,1800.8828 Q211.1538,1800.8828 211.8012,1801.0322 Q212.4487,1801.1816 213.0131,1801.4805 L213.0131,1804.2031 Q212.3823,1803.6221 211.7888,1803.3523 Q211.1953,1803.0825 210.5644,1803.0825 Q209.2197,1803.0825 208.5349,1804.1492 Q207.8501,1805.2158 207.8501,1807.3159 Q207.8501,1809.4077 208.5349,1810.4744 Q209.2197,1811.541 210.5644,1811.541 Q211.1953,1811.541 211.7888,1811.2712 Q212.3823,1811.0015 213.0131,1810.4204 Z " fill="#000000"/><text fill="#000000" font-family="sans-serif" font-size="14" lengthAdjust="spacing" textLength="100.6865" x="224.54" y="1812.291">MainController</text><line style="stroke:#181818;stroke-width:0.5;" x1="196.54" x2="327.2265" y1="1823" y2="1823"/><line style="stroke:#181818;stroke-width:0.5;" x1="196.54" x2="327.2265" y1="1831" y2="1831"/></g><!--class AggiuntaLibroController--><g class="entity" data-entity="AggiuntaLibroController" data-source-line="11" data-uid="ent0007" id="entity_AggiuntaLibroController"><rect fill="#F1F1F1" height="48" rx="2.5" ry="2.5" style="stroke:#181818;stroke-width:0.5;" width="196.3223" x="163.72" y="2179"/><ellipse cx="178.72" cy="2195" fill="#ADD1B2" rx="11" ry="11" style="stroke:#181818;stroke-width:1;"/><path d="M181.1931,2201.1431 Q180.6121,2201.4419 179.9729,2201.5913 Q179.3338,2201.7407 178.6282,2201.7407 Q176.1214,2201.7407 174.8015,2200.0889 Q173.4817,2198.437 173.4817,2195.3159 Q173.4817,2192.1865 174.8015,2190.5347 Q176.1214,2188.8828 178.6282,2188.8828 Q179.3338,2188.8828 179.9812,2189.0322 Q180.6287,2189.1816 181.1931,2189.4805 L181.1931,2192.2031 Q180.5623,2191.6221 179.9688,2191.3523 Q179.3753,2191.0825 178.7444,2191.0825 Q177.3997,2191.0825 176.7149,2192.1492 Q176.0301,2193.2158 176.0301,2195.3159 Q176.0301,2197.4077 176.7149,2198.4744 Q177.3997,2199.541 178.7444,2199.541 Q179.3753,2199.541 179.9688,2199.2712 Q180.5623,2199.0015 181.1931,2198.4204 Z " fill="#000000"/><text fill="#000000" font-family="sans-serif" font-size="14" lengthAdjust="spacing" textLength="164.3223" x="192.72" y="2200.291">AggiuntaLibroController</text><line style="stroke:#181818;stroke-width:0.5;" x1="164.72" x2="359.0423" y1="2211" y2="2211"/><line style="stroke:#181818;stroke-width:0.5;" x1="164.72" x2="359.0423" y1="2219" y2="2219"/></g><!--class LibriController--><g class="entity" data-entity="LibriController" data-source-line="12" data-uid="ent0008" id="entity_LibriController"><rect fill="#F1F1F1" height="48" rx="2.5" ry="2.5" style="stroke:#181818;stroke-width:0.5;" width="130.2598" x="196.75" y="2096"/><ellipse cx="211.75" cy="2112" fill="#ADD1B2" rx="11" ry="11" style="stroke:#181818;stroke-width:1;"/><path d="M214.2231,2118.1431 Q213.6421,2118.4419 213.0029,2118.5913 Q212.3638,2118.7407 211.6582,2118.7407 Q209.1514,2118.7407 207.8315,2117.0889 Q206.5117,2115.437 206.5117,2112.3159 Q206.5117,2109.1865 207.8315,2107.5347 Q209.1514,2105.8828 211.6582,2105.8828 Q212.3638,2105.8828 213.0112,2106.0322 Q213.6587,2106.1816 214.2231,2106.4805 L214.2231,2109.2031 Q213.5923,2108.6221 212.9988,2108.3523 Q212.4053,2108.0825 211.7744,2108.0825 Q210.4297,2108.0825 209.7449,2109.1492 Q209.0601,2110.2158 209.0601,2112.3159 Q209.0601,2114.4077 209.7449,2115.4744 Q210.4297,2116.541 211.7744,2116.541 Q212.4053,2116.541 212.9988,2116.2712 Q213.5923,2116.0015 214.2231,2115.4204 Z " fill="#000000"/><text fill="#000000" font-family="sans-serif" font-size="14" lengthAdjust="spacing" textLength="98.2598" x="225.75" y="2117.291">LibriController</text><line style="stroke:#181818;stroke-width:0.5;" x1="197.75" x2="326.0098" y1="2128" y2="2128"/><line style="stroke:#181818;stroke-width:0.5;" x1="197.75" x2="326.0098" y1="2136" y2="2136"/></g><!--class ModificaLibroController--><g class="entity" data-entity="ModificaLibroController" data-source-line="13" data-uid="ent0009" id="entity_ModificaLibroController"><rect fill="#F1F1F1" height="48" rx="2.5" ry="2.5" style="stroke:#181818;stroke-width:0.5;" width="192.4258" x="467.81" y="2179"/><ellipse cx="482.81" cy="2195" fill="#ADD1B2" rx="11" ry="11" style="stroke:#181818;stroke-width:1;"/><path d="M485.2831,2201.1431 Q484.7021,2201.4419 484.0629,2201.5913 Q483.4238,2201.7407 482.7182,2201.7407 Q480.2114,2201.7407 478.8915,2200.0889 Q477.5717,2198.437 477.5717,2195.3159 Q477.5717,2192.1865 478.8915,2190.5347 Q480.2114,2188.8828 482.7182,2188.8828 Q483.4238,2188.8828 484.0712,2189.0322 Q484.7187,2189.1816 485.2831,2189.4805 L485.2831,2192.2031 Q484.6523,2191.6221 484.0588,2191.3523 Q483.4653,2191.0825 482.8344,2191.0825 Q481.4897,2191.0825 480.8049,2192.1492 Q480.1201,2193.2158 480.1201,2195.3159 Q480.1201,2197.4077 480.8049,2198.4744 Q481.4897,2199.541 482.8344,2199.541 Q483.4653,2199.541 484.0588,2199.2712 Q484.6523,2199.0015 485.2831,2198.4204 Z " fill="#000000"/><text fill="#000000" font-family="sans-serif" font-size="14" lengthAdjust="spacing" textLength="160.4258" x="496.81" y="2200.291">ModificaLibroController</text><line style="stroke:#181818;stroke-width:0.5;" x1="468.81" x2="659.2358" y1="2211" y2="2211"/><line style="stroke:#181818;stroke-width:0.5;" x1="468.81" x2="659.2358" y1="2219" y2="2219"/></g><!--class RimozioneLibroController--><g class="entity" data-entity="RimozioneLibroController" data-source-line="14" data-uid="ent0010" id="entity_RimozioneLibroController"><rect fill="#F1F1F1" height="48" rx="2.5" ry="2.5" style="stroke:#181818;stroke-width:0.5;" width="206.542" x="460.75" y="2096"/><ellipse cx="475.75" cy="2112" fill="#ADD1B2" rx="11" ry="11" style="stroke:#181818;stroke-width:1;"/><path d="M478.2231,2118.1431 Q477.6421,2118.4419 477.0029,2118.5913 Q476.3638,2118.7407 475.6582,2118.7407 Q473.1514,2118.7407 471.8315,2117.0889 Q470.5117,2115.437 470.5117,2112.3159 Q470.5117,2109.1865 471.8315,2107.5347 Q473.1514,2105.8828 475.6582,2105.8828 Q476.3638,2105.8828 477.0112,2106.0322 Q477.6587,2106.1816 478.2231,2106.4805 L478.2231,2109.2031 Q477.5923,2108.6221 476.9988,2108.3523 Q476.4053,2108.0825 475.7744,2108.0825 Q474.4297,2108.0825 473.7449,2109.1492 Q473.0601,2110.2158 473.0601,2112.3159 Q473.0601,2114.4077 473.7449,2115.4744 Q474.4297,2116.541 475.7744,2116.541 Q476.4053,2116.541 476.9988,2116.2712 Q477.5923,2116.0015 478.2231,2115.4204 Z " fill="#000000"/><text fill="#000000" font-family="sans-serif" font-size="14" lengthAdjust="spacing" textLength="174.542" x="489.75" y="2117.291">RimozioneLibroController</text><line style="stroke:#181818;stroke-width:0.5;" x1="461.75" x2="666.292" y1="2128" y2="2128"/><line style="stroke:#181818;stroke-width:0.5;" x1="461.75" x2="666.292" y1="2136" y2="2136"/></g><!--class EstensionePrestitoController--><g class="entity" data-entity="EstensionePrestitoController" data-source-line="18" data-uid="ent0012" id="entity_EstensionePrestitoController"><rect fill="#F1F1F1" height="48" rx="2.5" ry="2.5" style="stroke:#181818;stroke-width:0.5;" width="224.4043" x="149.68" y="1973"/><ellipse cx="164.68" cy="1989" fill="#ADD1B2" rx="11" ry="11" style="stroke:#181818;stroke-width:1;"/><path d="M167.1531,1995.1431 Q166.5721,1995.4419 165.9329,1995.5913 Q165.2938,1995.7407 164.5882,1995.7407 Q162.0814,1995.7407 160.7615,1994.0889 Q159.4417,1992.437 159.4417,1989.3159 Q159.4417,1986.1865 160.7615,1984.5347 Q162.0814,1982.8828 164.5882,1982.8828 Q165.2938,1982.8828 165.9412,1983.0322 Q166.5887,1983.1816 167.1531,1983.4805 L167.1531,1986.2031 Q166.5223,1985.6221 165.9288,1985.3523 Q165.3353,1985.0825 164.7044,1985.0825 Q163.3597,1985.0825 162.6749,1986.1492 Q161.9901,1987.2158 161.9901,1989.3159 Q161.9901,1991.4077 162.6749,1992.4744 Q163.3597,1993.541 164.7044,1993.541 Q165.3353,1993.541 165.9288,1993.2712 Q166.5223,1993.0015 167.1531,1992.4204 Z " fill="#000000"/><text fill="#000000" font-family="sans-serif" font-size="14" lengthAdjust="spacing" textLength="192.4043" x="178.68" y="1994.291">EstensionePrestitoController</text><line style="stroke:#181818;stroke-width:0.5;" x1="150.68" x2="373.0843" y1="2005" y2="2005"/><line style="stroke:#181818;stroke-width:0.5;" x1="150.68" x2="373.0843" y1="2013" y2="2013"/></g><!--class PrestitiController--><g class="entity" data-entity="PrestitiController" data-source-line="19" data-uid="ent0013" id="entity_PrestitiController"><rect fill="#F1F1F1" height="48" rx="2.5" ry="2.5" style="stroke:#181818;stroke-width:0.5;" width="147.1309" x="188.32" y="1890"/><ellipse cx="203.32" cy="1906" fill="#ADD1B2" rx="11" ry="11" style="stroke:#181818;stroke-width:1;"/><path d="M205.7931,1912.1431 Q205.2121,1912.4419 204.5729,1912.5913 Q203.9338,1912.7407 203.2282,1912.7407 Q200.7214,1912.7407 199.4015,1911.0889 Q198.0817,1909.437 198.0817,1906.3159 Q198.0817,1903.1865 199.4015,1901.5347 Q200.7214,1899.8828 203.2282,1899.8828 Q203.9338,1899.8828 204.5812,1900.0322 Q205.2287,1900.1816 205.7931,1900.4805 L205.7931,1903.2031 Q205.1623,1902.6221 204.5688,1902.3523 Q203.9753,1902.0825 203.3444,1902.0825 Q201.9997,1902.0825 201.3149,1903.1492 Q200.6301,1904.2158 200.6301,1906.3159 Q200.6301,1908.4077 201.3149,1909.4744 Q201.9997,1910.541 203.3444,1910.541 Q203.9753,1910.541 204.5688,1910.2712 Q205.1623,1910.0015 205.7931,1909.4204 Z " fill="#000000"/><text fill="#000000" font-family="sans-serif" font-size="14" lengthAdjust="spacing" textLength="115.1309" x="217.32" y="1911.291">PrestitiController</text><line style="stroke:#181818;stroke-width:0.5;" x1="189.32" x2="334.4509" y1="1922" y2="1922"/><line style="stroke:#181818;stroke-width:0.5;" x1="189.32" x2="334.4509" y1="1930" y2="1930"/></g><!--class RegistazionePrestitoController--><g class="entity" data-entity="RegistazionePrestitoController" data-source-line="20" data-uid="ent0014" id="entity_RegistazionePrestitoController"><rect fill="#F1F1F1" height="48" rx="2.5" ry="2.5" style="stroke:#181818;stroke-width:0.5;" width="238.377" x="444.83" y="1973"/><ellipse cx="459.83" cy="1989" fill="#ADD1B2" rx="11" ry="11" style="stroke:#181818;stroke-width:1;"/><path d="M462.3031,1995.1431 Q461.7221,1995.4419 461.0829,1995.5913 Q460.4438,1995.7407 459.7382,1995.7407 Q457.2314,1995.7407 455.9115,1994.0889 Q454.5917,1992.437 454.5917,1989.3159 Q454.5917,1986.1865 455.9115,1984.5347 Q457.2314,1982.8828 459.7382,1982.8828 Q460.4438,1982.8828 461.0912,1983.0322 Q461.7387,1983.1816 462.3031,1983.4805 L462.3031,1986.2031 Q461.6723,1985.6221 461.0788,1985.3523 Q460.4853,1985.0825 459.8544,1985.0825 Q458.5097,1985.0825 457.8249,1986.1492 Q457.1401,1987.2158 457.1401,1989.3159 Q457.1401,1991.4077 457.8249,1992.4744 Q458.5097,1993.541 459.8544,1993.541 Q460.4853,1993.541 461.0788,1993.2712 Q461.6723,1993.0015 462.3031,1992.4204 Z " fill="#000000"/><text fill="#000000" font-family="sans-serif" font-size="14" lengthAdjust="spacing" textLength="206.377" x="473.83" y="1994.291">RegistazionePrestitoController</text><line style="stroke:#181818;stroke-width:0.5;" x1="445.83" x2="682.207" y1="2005" y2="2005"/><line style="stroke:#181818;stroke-width:0.5;" x1="445.83" x2="682.207" y1="2013" y2="2013"/></g><!--class RestituzionePrestitoController--><g class="entity" data-entity="RestituzionePrestitoController" data-source-line="21" data-uid="ent0015" id="entity_RestituzionePrestitoController"><rect fill="#F1F1F1" height="48" rx="2.5" ry="2.5" style="stroke:#181818;stroke-width:0.5;" width="235.8408" x="446.1" y="1890"/><ellipse cx="461.1" cy="1906" fill="#ADD1B2" rx="11" ry="11" style="stroke:#181818;stroke-width:1;"/><path d="M463.5731,1912.1431 Q462.9921,1912.4419 462.3529,1912.5913 Q461.7138,1912.7407 461.0082,1912.7407 Q458.5014,1912.7407 457.1815,1911.0889 Q455.8617,1909.437 455.8617,1906.3159 Q455.8617,1903.1865 457.1815,1901.5347 Q458.5014,1899.8828 461.0082,1899.8828 Q461.7138,1899.8828 462.3612,1900.0322 Q463.0087,1900.1816 463.5731,1900.4805 L463.5731,1903.2031 Q462.9423,1902.6221 462.3488,1902.3523 Q461.7553,1902.0825 461.1244,1902.0825 Q459.7797,1902.0825 459.0949,1903.1492 Q458.4101,1904.2158 458.4101,1906.3159 Q458.4101,1908.4077 459.0949,1909.4744 Q459.7797,1910.541 461.1244,1910.541 Q461.7553,1910.541 462.3488,1910.2712 Q462.9423,1910.0015 463.5731,1909.4204 Z " fill="#000000"/><text fill="#000000" font-family="sans-serif" font-size="14" lengthAdjust="spacing" textLength="203.8408" x="475.1" y="1911.291">RestituzionePrestitoController</text><line style="stroke:#181818;stroke-width:0.5;" x1="447.1" x2="680.9408" y1="1922" y2="1922"/><line style="stroke:#181818;stroke-width:0.5;" x1="447.1" x2="680.9408" y1="1930" y2="1930"/></g><!--class AggiuntaUtenteController--><g class="entity" data-entity="AggiuntaUtenteController" data-source-line="25" data-uid="ent0017" id="entity_AggiuntaUtenteController"><rect fill="#F1F1F1" height="48" rx="2.5" ry="2.5" style="stroke:#181818;stroke-width:0.5;" width="206.1318" x="743.21" y="2179"/><ellipse cx="758.21" cy="2195" fill="#ADD1B2" rx="11" ry="11" style="stroke:#181818;stroke-width:1;"/><path d="M760.6831,2201.1431 Q760.1021,2201.4419 759.4629,2201.5913 Q758.8238,2201.7407 758.1182,2201.7407 Q755.6114,2201.7407 754.2915,2200.0889 Q752.9717,2198.437 752.9717,2195.3159 Q752.9717,2192.1865 754.2915,2190.5347 Q755.6114,2188.8828 758.1182,2188.8828 Q758.8238,2188.8828 759.4712,2189.0322 Q760.1187,2189.1816 760.6831,2189.4805 L760.6831,2192.2031 Q760.0523,2191.6221 759.4588,2191.3523 Q758.8653,2191.0825 758.2344,2191.0825 Q756.8897,2191.0825 756.2049,2192.1492 Q755.5201,2193.2158 755.5201,2195.3159 Q755.5201,2197.4077 756.2049,2198.4744 Q756.8897,2199.541 758.2344,2199.541 Q758.8653,2199.541 759.4588,2199.2712 Q760.0523,2199.0015 760.6831,2198.4204 Z " fill="#000000"/><text fill="#000000" font-family="sans-serif" font-size="14" lengthAdjust="spacing" textLength="174.1318" x="772.21" y="2200.291">AggiuntaUtenteController</text><line style="stroke:#181818;stroke-width:0.5;" x1="744.21" x2="948.3418" y1="2211" y2="2211"/><line style="stroke:#181818;stroke-width:0.5;" x1="744.21" x2="948.3418" y1="2219" y2="2219"/></g><!--class UtentiController--><g class="entity" data-entity="UtentiController" data-source-line="26" data-uid="ent0018" id="entity_UtentiController"><rect fill="#F1F1F1" height="48" rx="2.5" ry="2.5" style="stroke:#181818;stroke-width:0.5;" width="140.8691" x="775.84" y="2096"/><ellipse cx="790.84" cy="2112" fill="#ADD1B2" rx="11" ry="11" style="stroke:#181818;stroke-width:1;"/><path d="M793.3131,2118.1431 Q792.7321,2118.4419 792.0929,2118.5913 Q791.4538,2118.7407 790.7482,2118.7407 Q788.2414,2118.7407 786.9215,2117.0889 Q785.6017,2115.437 785.6017,2112.3159 Q785.6017,2109.1865 786.9215,2107.5347 Q788.2414,2105.8828 790.7482,2105.8828 Q791.4538,2105.8828 792.1012,2106.0322 Q792.7487,2106.1816 793.3131,2106.4805 L793.3131,2109.2031 Q792.6823,2108.6221 792.0888,2108.3523 Q791.4953,2108.0825 790.8644,2108.0825 Q789.5197,2108.0825 788.8349,2109.1492 Q788.1501,2110.2158 788.1501,2112.3159 Q788.1501,2114.4077 788.8349,2115.4744 Q789.5197,2116.541 790.8644,2116.541 Q791.4953,2116.541 792.0888,2116.2712 Q792.6823,2116.0015 793.3131,2115.4204 Z " fill="#000000"/><text fill="#000000" font-family="sans-serif" font-size="14" lengthAdjust="spacing" textLength="108.8691" x="804.84" y="2117.291">UtentiController</text><line style="stroke:#181818;stroke-width:0.5;" x1="776.84" x2="915.7091" y1="2128" y2="2128"/><line style="stroke:#181818;stroke-width:0.5;" x1="776.84" x2="915.7091" y1="2136" y2="2136"/></g><!--class ModificaUtenteController--><g class="entity" data-entity="ModificaUtenteController" data-source-line="27" data-uid="ent0019" id="entity_ModificaUtenteController"><rect fill="#F1F1F1" height="48" rx="2.5" ry="2.5" style="stroke:#181818;stroke-width:0.5;" width="202.2354" x="1016.4" y="2179"/><ellipse cx="1031.4" cy="2195" fill="#ADD1B2" rx="11" ry="11" style="stroke:#181818;stroke-width:1;"/><path d="M1033.8731,2201.1431 Q1033.2921,2201.4419 1032.6529,2201.5913 Q1032.0138,2201.7407 1031.3082,2201.7407 Q1028.8014,2201.7407 1027.4815,2200.0889 Q1026.1617,2198.437 1026.1617,2195.3159 Q1026.1617,2192.1865 1027.4815,2190.5347 Q1028.8014,2188.8828 1031.3082,2188.8828 Q1032.0138,2188.8828 1032.6612,2189.0322 Q1033.3087,2189.1816 1033.8731,2189.4805 L1033.8731,2192.2031 Q1033.2423,2191.6221 1032.6488,2191.3523 Q1032.0553,2191.0825 1031.4244,2191.0825 Q1030.0797,2191.0825 1029.3949,2192.1492 Q1028.7101,2193.2158 1028.7101,2195.3159 Q1028.7101,2197.4077 1029.3949,2198.4744 Q1030.0797,2199.541 1031.4244,2199.541 Q1032.0553,2199.541 1032.6488,2199.2712 Q1033.2423,2199.0015 1033.8731,2198.4204 Z " fill="#000000"/><text fill="#000000" font-family="sans-serif" font-size="14" lengthAdjust="spacing" textLength="170.2354" x="1045.4" y="2200.291">ModificaUtenteController</text><line style="stroke:#181818;stroke-width:0.5;" x1="1017.4" x2="1217.6354" y1="2211" y2="2211"/><line style="stroke:#181818;stroke-width:0.5;" x1="1017.4" x2="1217.6354" y1="2219" y2="2219"/></g><!--class RimozioneUtenteController--><g class="entity" data-entity="RimozioneUtenteController" data-source-line="28" data-uid="ent0020" id="entity_RimozioneUtenteController"><rect fill="#F1F1F1" height="48" rx="2.5" ry="2.5" style="stroke:#181818;stroke-width:0.5;" width="216.3516" x="1009.34" y="2096"/><ellipse cx="1024.34" cy="2112" fill="#ADD1B2" rx="11" ry="11" style="stroke:#181818;stroke-width:1;"/><path d="M1026.8131,2118.1431 Q1026.2321,2118.4419 1025.5929,2118.5913 Q1024.9538,2118.7407 1024.2482,2118.7407 Q1021.7414,2118.7407 1020.4215,2117.0889 Q1019.1017,2115.437 1019.1017,2112.3159 Q1019.1017,2109.1865 1020.4215,2107.5347 Q1021.7414,2105.8828 1024.2482,2105.8828 Q1024.9538,2105.8828 1025.6012,2106.0322 Q1026.2487,2106.1816 1026.8131,2106.4805 L1026.8131,2109.2031 Q1026.1823,2108.6221 1025.5888,2108.3523 Q1024.9953,2108.0825 1024.3644,2108.0825 Q1023.0197,2108.0825 1022.3349,2109.1492 Q1021.6501,2110.2158 1021.6501,2112.3159 Q1021.6501,2114.4077 1022.3349,2115.4744 Q1023.0197,2116.541 1024.3644,2116.541 Q1024.9953,2116.541 1025.5888,2116.2712 Q1026.1823,2116.0015 1026.8131,2115.4204 Z " fill="#000000"/><text fill="#000000" font-family="sans-serif" font-size="14" lengthAdjust="spacing" textLength="184.3516" x="1038.34" y="2117.291">RimozioneUtenteController</text><line style="stroke:#181818;stroke-width:0.5;" x1="1010.34" x2="1224.6916" y1="2128" y2="2128"/><line style="stroke:#181818;stroke-width:0.5;" x1="1010.34" x2="1224.6916" y1="2136" y2="2136"/></g><!--class Biblioteca--><g class="entity" data-entity="Biblioteca" data-source-line="35" data-uid="ent0022" id="entity_Biblioteca"><rect fill="#F1F1F1" height="48" rx="2.5" ry="2.5" style="stroke:#181818;stroke-width:0.5;" width="97.543" x="213.11" y="793"/><ellipse cx="228.11" cy="809" fill="#ADD1B2" rx="11" ry="11" style="stroke:#181818;stroke-width:1;"/><path d="M230.5831,815.1431 Q230.0021,815.4419 229.3629,815.5913 Q228.7238,815.7407 228.0182,815.7407 Q225.5114,815.7407 224.1915,814.0889 Q222.8717,812.437 222.8717,809.3159 Q222.8717,806.1865 224.1915,804.5347 Q225.5114,802.8828 228.0182,802.8828 Q228.7238,802.8828 229.3712,803.0322 Q230.0187,803.1816 230.5831,803.4805 L230.5831,806.2031 Q229.9523,805.6221 229.3588,805.3523 Q228.7653,805.0825 228.1344,805.0825 Q226.7897,805.0825 226.1049,806.1492 Q225.4201,807.2158 225.4201,809.3159 Q225.4201,811.4077 226.1049,812.4744 Q226.7897,813.541 228.1344,813.541 Q228.7653,813.541 229.3588,813.2712 Q229.9523,813.0015 230.5831,812.4204 Z " fill="#000000"/><text fill="#000000" font-family="sans-serif" font-size="14" lengthAdjust="spacing" textLength="65.543" x="242.11" y="814.291">Biblioteca</text><line style="stroke:#181818;stroke-width:0.5;" x1="214.11" x2="309.653" y1="825" y2="825"/><line style="stroke:#181818;stroke-width:0.5;" x1="214.11" x2="309.653" y1="833" y2="833"/></g><!--class Matricola--><g class="entity" data-entity="Matricola" data-source-line="36" data-uid="ent0023" id="entity_Matricola"><rect fill="#F1F1F1" height="48" rx="2.5" ry="2.5" style="stroke:#181818;stroke-width:0.5;" width="94.3506" x="214.71" y="710"/><ellipse cx="229.71" cy="726" fill="#ADD1B2" rx="11" ry="11" style="stroke:#181818;stroke-width:1;"/><path d="M232.1831,732.1431 Q231.6021,732.4419 230.9629,732.5913 Q230.3238,732.7407 229.6182,732.7407 Q227.1114,732.7407 225.7915,731.0889 Q224.4717,729.437 224.4717,726.3159 Q224.4717,723.1865 225.7915,721.5347 Q227.1114,719.8828 229.6182,719.8828 Q230.3238,719.8828 230.9712,720.0322 Q231.6187,720.1816 232.1831,720.4805 L232.1831,723.2031 Q231.5523,722.6221 230.9588,722.3523 Q230.3653,722.0825 229.7344,722.0825 Q228.3897,722.0825 227.7049,723.1492 Q227.0201,724.2158 227.0201,726.3159 Q227.0201,728.4077 227.7049,729.4744 Q228.3897,730.541 229.7344,730.541 Q230.3653,730.541 230.9588,730.2712 Q231.5523,730.0015 232.1831,729.4204 Z " fill="#000000"/><text fill="#000000" font-family="sans-serif" font-size="14" lengthAdjust="spacing" textLength="62.3506" x="243.71" y="731.291">Matricola</text><line style="stroke:#181818;stroke-width:0.5;" x1="215.71" x2="308.0606" y1="742" y2="742"/><line style="stroke:#181818;stroke-width:0.5;" x1="215.71" x2="308.0606" y1="750" y2="750"/></g><!--class ISBN--><g class="entity" data-entity="ISBN" data-source-line="37" data-uid="ent0024" id="entity_ISBN"><rect fill="#F1F1F1" height="48" rx="2.5" ry="2.5" style="stroke:#181818;stroke-width:0.5;" width="61.9688" x="533.04" y="793"/><ellipse cx="548.04" cy="809" fill="#ADD1B2" rx="11" ry="11" style="stroke:#181818;stroke-width:1;"/><path d="M550.5131,815.1431 Q549.9321,815.4419 549.2929,815.5913 Q548.6538,815.7407 547.9482,815.7407 Q545.4414,815.7407 544.1215,814.0889 Q542.8017,812.437 542.8017,809.3159 Q542.8017,806.1865 544.1215,804.5347 Q545.4414,802.8828 547.9482,802.8828 Q548.6538,802.8828 549.3012,803.0322 Q549.9487,803.1816 550.5131,803.4805 L550.5131,806.2031 Q549.8823,805.6221 549.2888,805.3523 Q548.6953,805.0825 548.0644,805.0825 Q546.7197,805.0825 546.0349,806.1492 Q545.3501,807.2158 545.3501,809.3159 Q545.3501,811.4077 546.0349,812.4744 Q546.7197,813.541 548.0644,813.541 Q548.6953,813.541 549.2888,813.2712 Q549.8823,813.0015 550.5131,812.4204 Z " fill="#000000"/><text fill="#000000" font-family="sans-serif" font-size="14" lengthAdjust="spacing" textLength="29.9688" x="562.04" y="814.291">ISBN</text><line style="stroke:#181818;stroke-width:0.5;" x1="534.04" x2="594.0088" y1="825" y2="825"/><line style="stroke:#181818;stroke-width:0.5;" x1="534.04" x2="594.0088" y1="833" y2="833"/></g><!--class Persona--><g class="entity" data-entity="Persona" data-source-line="38" data-uid="ent0025" id="entity_Persona"><rect fill="#F1F1F1" height="48" rx="2.5" ry="2.5" style="stroke:#181818;stroke-width:0.5;" width="85.4229" x="521.31" y="710"/><ellipse cx="536.31" cy="726" fill="#A9DCDF" rx="11" ry="11" style="stroke:#181818;stroke-width:1;"/><path d="M536.1733,721.3481 L535.0195,726.4199 L537.3354,726.4199 Z M534.6791,719.1069 L537.6757,719.1069 L541.0209,731.5 L538.5722,731.5 L537.8085,728.437 L534.5297,728.437 L533.7827,731.5 L531.3339,731.5 Z " fill="#000000"/><text fill="#000000" font-family="sans-serif" font-size="14" font-style="italic" lengthAdjust="spacing" textLength="53.4229" x="550.31" y="731.291">Persona</text><line style="stroke:#181818;stroke-width:0.5;" x1="522.31" x2="605.7329" y1="742" y2="742"/><line style="stroke:#181818;stroke-width:0.5;" x1="522.31" x2="605.7329" y1="750" y2="750"/></g><!--class Autore--><g class="entity" data-entity="Autore" data-source-line="41" data-uid="ent0027" id="entity_Autore"><rect fill="#F1F1F1" height="48" rx="2.5" ry="2.5" style="stroke:#181818;stroke-width:0.5;" width="77.7119" x="223.02" y="1593"/><ellipse cx="238.02" cy="1609" fill="#ADD1B2" rx="11" ry="11" style="stroke:#181818;stroke-width:1;"/><path d="M240.4931,1615.1431 Q239.9121,1615.4419 239.2729,1615.5913 Q238.6338,1615.7407 237.9282,1615.7407 Q235.4214,1615.7407 234.1015,1614.0889 Q232.7817,1612.437 232.7817,1609.3159 Q232.7817,1606.1865 234.1015,1604.5347 Q235.4214,1602.8828 237.9282,1602.8828 Q238.6338,1602.8828 239.2812,1603.0322 Q239.9287,1603.1816 240.4931,1603.4805 L240.4931,1606.2031 Q239.8623,1605.6221 239.2688,1605.3523 Q238.6753,1605.0825 238.0444,1605.0825 Q236.6997,1605.0825 236.0149,1606.1492 Q235.3301,1607.2158 235.3301,1609.3159 Q235.3301,1611.4077 236.0149,1612.4744 Q236.6997,1613.541 238.0444,1613.541 Q238.6753,1613.541 239.2688,1613.2712 Q239.8623,1613.0015 240.4931,1612.4204 Z " fill="#000000"/><text fill="#000000" font-family="sans-serif" font-size="14" lengthAdjust="spacing" textLength="45.7119" x="252.02" y="1614.291">Autore</text><line style="stroke:#181818;stroke-width:0.5;" x1="224.02" x2="299.7319" y1="1625" y2="1625"/><line style="stroke:#181818;stroke-width:0.5;" x1="224.02" x2="299.7319" y1="1633" y2="1633"/></g><!--class Libri--><g class="entity" data-entity="Libri" data-source-line="42" data-uid="ent0028" id="entity_Libri"><rect fill="#F1F1F1" height="48" rx="2.5" ry="2.5" style="stroke:#181818;stroke-width:0.5;" width="62.0986" x="230.83" y="1510"/><ellipse cx="245.83" cy="1526" fill="#ADD1B2" rx="11" ry="11" style="stroke:#181818;stroke-width:1;"/><path d="M248.3031,1532.1431 Q247.7221,1532.4419 247.0829,1532.5913 Q246.4438,1532.7407 245.7382,1532.7407 Q243.2314,1532.7407 241.9115,1531.0889 Q240.5917,1529.437 240.5917,1526.3159 Q240.5917,1523.1865 241.9115,1521.5347 Q243.2314,1519.8828 245.7382,1519.8828 Q246.4438,1519.8828 247.0912,1520.0322 Q247.7387,1520.1816 248.3031,1520.4805 L248.3031,1523.2031 Q247.6723,1522.6221 247.0788,1522.3523 Q246.4853,1522.0825 245.8544,1522.0825 Q244.5097,1522.0825 243.8249,1523.1492 Q243.1401,1524.2158 243.1401,1526.3159 Q243.1401,1528.4077 243.8249,1529.4744 Q244.5097,1530.541 245.8544,1530.541 Q246.4853,1530.541 247.0788,1530.2712 Q247.6723,1530.0015 248.3031,1529.4204 Z " fill="#000000"/><text fill="#000000" font-family="sans-serif" font-size="14" lengthAdjust="spacing" textLength="30.0986" x="259.83" y="1531.291">Libri</text><line style="stroke:#181818;stroke-width:0.5;" x1="231.83" x2="291.9286" y1="1542" y2="1542"/><line style="stroke:#181818;stroke-width:0.5;" x1="231.83" x2="291.9286" y1="1550" y2="1550"/></g><!--class Libro--><g class="entity" data-entity="Libro" data-source-line="43" data-uid="ent0029" id="entity_Libro"><rect fill="#F1F1F1" height="48" rx="2.5" ry="2.5" style="stroke:#181818;stroke-width:0.5;" width="66.6514" x="530.69" y="1593"/><ellipse cx="545.69" cy="1609" fill="#ADD1B2" rx="11" ry="11" style="stroke:#181818;stroke-width:1;"/><path d="M548.1631,1615.1431 Q547.5821,1615.4419 546.9429,1615.5913 Q546.3038,1615.7407 545.5982,1615.7407 Q543.0914,1615.7407 541.7715,1614.0889 Q540.4517,1612.437 540.4517,1609.3159 Q540.4517,1606.1865 541.7715,1604.5347 Q543.0914,1602.8828 545.5982,1602.8828 Q546.3038,1602.8828 546.9512,1603.0322 Q547.5987,1603.1816 548.1631,1603.4805 L548.1631,1606.2031 Q547.5323,1605.6221 546.9388,1605.3523 Q546.3453,1605.0825 545.7144,1605.0825 Q544.3697,1605.0825 543.6849,1606.1492 Q543.0001,1607.2158 543.0001,1609.3159 Q543.0001,1611.4077 543.6849,1612.4744 Q544.3697,1613.541 545.7144,1613.541 Q546.3453,1613.541 546.9388,1613.2712 Q547.5323,1613.0015 548.1631,1612.4204 Z " fill="#000000"/><text fill="#000000" font-family="sans-serif" font-size="14" lengthAdjust="spacing" textLength="34.6514" x="559.69" y="1614.291">Libro</text><line style="stroke:#181818;stroke-width:0.5;" x1="531.69" x2="596.3414" y1="1625" y2="1625"/><line style="stroke:#181818;stroke-width:0.5;" x1="531.69" x2="596.3414" y1="1633" y2="1633"/></g><!--class Prestiti--><g class="entity" data-entity="Prestiti" data-source-line="47" data-uid="ent0031" id="entity_Prestiti"><rect fill="#F1F1F1" height="48" rx="2.5" ry="2.5" style="stroke:#181818;stroke-width:0.5;" width="78.9697" x="222.4" y="1387"/><ellipse cx="237.4" cy="1403" fill="#ADD1B2" rx="11" ry="11" style="stroke:#181818;stroke-width:1;"/><path d="M239.8731,1409.1431 Q239.2921,1409.4419 238.6529,1409.5913 Q238.0138,1409.7407 237.3082,1409.7407 Q234.8014,1409.7407 233.4815,1408.0889 Q232.1617,1406.437 232.1617,1403.3159 Q232.1617,1400.1865 233.4815,1398.5347 Q234.8014,1396.8828 237.3082,1396.8828 Q238.0138,1396.8828 238.6612,1397.0322 Q239.3087,1397.1816 239.8731,1397.4805 L239.8731,1400.2031 Q239.2423,1399.6221 238.6488,1399.3523 Q238.0553,1399.0825 237.4244,1399.0825 Q236.0797,1399.0825 235.3949,1400.1492 Q234.7101,1401.2158 234.7101,1403.3159 Q234.7101,1405.4077 235.3949,1406.4744 Q236.0797,1407.541 237.4244,1407.541 Q238.0553,1407.541 238.6488,1407.2712 Q239.2423,1407.0015 239.8731,1406.4204 Z " fill="#000000"/><text fill="#000000" font-family="sans-serif" font-size="14" lengthAdjust="spacing" textLength="46.9697" x="251.4" y="1408.291">Prestiti</text><line style="stroke:#181818;stroke-width:0.5;" x1="223.4" x2="300.3697" y1="1419" y2="1419"/><line style="stroke:#181818;stroke-width:0.5;" x1="223.4" x2="300.3697" y1="1427" y2="1427"/></g><!--class Prestito--><g class="entity" data-entity="Prestito" data-source-line="48" data-uid="ent0032" id="entity_Prestito"><rect fill="#F1F1F1" height="48" rx="2.5" ry="2.5" style="stroke:#181818;stroke-width:0.5;" width="83.5225" x="220.12" y="1304"/><ellipse cx="235.12" cy="1320" fill="#ADD1B2" rx="11" ry="11" style="stroke:#181818;stroke-width:1;"/><path d="M237.5931,1326.1431 Q237.0121,1326.4419 236.3729,1326.5913 Q235.7338,1326.7407 235.0282,1326.7407 Q232.5214,1326.7407 231.2015,1325.0889 Q229.8817,1323.437 229.8817,1320.3159 Q229.8817,1317.1865 231.2015,1315.5347 Q232.5214,1313.8828 235.0282,1313.8828 Q235.7338,1313.8828 236.3812,1314.0322 Q237.0287,1314.1816 237.5931,1314.4805 L237.5931,1317.2031 Q236.9623,1316.6221 236.3688,1316.3523 Q235.7753,1316.0825 235.1444,1316.0825 Q233.7997,1316.0825 233.1149,1317.1492 Q232.4301,1318.2158 232.4301,1320.3159 Q232.4301,1322.4077 233.1149,1323.4744 Q233.7997,1324.541 235.1444,1324.541 Q235.7753,1324.541 236.3688,1324.2712 Q236.9623,1324.0015 237.5931,1323.4204 Z " fill="#000000"/><text fill="#000000" font-family="sans-serif" font-size="14" lengthAdjust="spacing" textLength="51.5225" x="249.12" y="1325.291">Prestito</text><line style="stroke:#181818;stroke-width:0.5;" x1="221.12" x2="302.6425" y1="1336" y2="1336"/><line style="stroke:#181818;stroke-width:0.5;" x1="221.12" x2="302.6425" y1="1344" y2="1344"/></g><!--class Utente--><g class="entity" data-entity="Utente" data-source-line="52" data-uid="ent0034" id="entity_Utente"><rect fill="#F1F1F1" height="48" rx="2.5" ry="2.5" style="stroke:#181818;stroke-width:0.5;" width="76.4609" x="223.65" y="1181"/><ellipse cx="238.65" cy="1197" fill="#ADD1B2" rx="11" ry="11" style="stroke:#181818;stroke-width:1;"/><path d="M241.1231,1203.1431 Q240.5421,1203.4419 239.9029,1203.5913 Q239.2638,1203.7407 238.5582,1203.7407 Q236.0514,1203.7407 234.7315,1202.0889 Q233.4117,1200.437 233.4117,1197.3159 Q233.4117,1194.1865 234.7315,1192.5347 Q236.0514,1190.8828 238.5582,1190.8828 Q239.2638,1190.8828 239.9112,1191.0322 Q240.5587,1191.1816 241.1231,1191.4805 L241.1231,1194.2031 Q240.4923,1193.6221 239.8988,1193.3523 Q239.3053,1193.0825 238.6744,1193.0825 Q237.3297,1193.0825 236.6449,1194.1492 Q235.9601,1195.2158 235.9601,1197.3159 Q235.9601,1199.4077 236.6449,1200.4744 Q237.3297,1201.541 238.6744,1201.541 Q239.3053,1201.541 239.8988,1201.2712 Q240.4923,1201.0015 241.1231,1200.4204 Z " fill="#000000"/><text fill="#000000" font-family="sans-serif" font-size="14" lengthAdjust="spacing" textLength="44.4609" x="252.65" y="1202.291">Utente</text><line style="stroke:#181818;stroke-width:0.5;" x1="224.65" x2="299.1109" y1="1213" y2="1213"/><line style="stroke:#181818;stroke-width:0.5;" x1="224.65" x2="299.1109" y1="1221" y2="1221"/></g><!--class Utenti--><g class="entity" data-entity="Utenti" data-source-line="53" data-uid="ent0035" id="entity_Utenti"><rect fill="#F1F1F1" height="48" rx="2.5" ry="2.5" style="stroke:#181818;stroke-width:0.5;" width="72.708" x="225.53" y="1098"/><ellipse cx="240.53" cy="1114" fill="#ADD1B2" rx="11" ry="11" style="stroke:#181818;stroke-width:1;"/><path d="M243.0031,1120.1431 Q242.4221,1120.4419 241.7829,1120.5913 Q241.1438,1120.7407 240.4382,1120.7407 Q237.9314,1120.7407 236.6115,1119.0889 Q235.2917,1117.437 235.2917,1114.3159 Q235.2917,1111.1865 236.6115,1109.5347 Q237.9314,1107.8828 240.4382,1107.8828 Q241.1438,1107.8828 241.7912,1108.0322 Q242.4387,1108.1816 243.0031,1108.4805 L243.0031,1111.2031 Q242.3723,1110.6221 241.7788,1110.3523 Q241.1853,1110.0825 240.5544,1110.0825 Q239.2097,1110.0825 238.5249,1111.1492 Q237.8401,1112.2158 237.8401,1114.3159 Q237.8401,1116.4077 238.5249,1117.4744 Q239.2097,1118.541 240.5544,1118.541 Q241.1853,1118.541 241.7788,1118.2712 Q242.3723,1118.0015 243.0031,1117.4204 Z " fill="#000000"/><text fill="#000000" font-family="sans-serif" font-size="14" lengthAdjust="spacing" textLength="40.708" x="254.53" y="1119.291">Utenti</text><line style="stroke:#181818;stroke-width:0.5;" x1="226.53" x2="297.238" y1="1130" y2="1130"/><line style="stroke:#181818;stroke-width:0.5;" x1="226.53" x2="297.238" y1="1138" y2="1138"/></g><!--class Archiviabile--><g class="entity" data-entity="Archiviabile" data-source-line="57" data-uid="ent0037" id="entity_Archiviabile"><rect fill="#F1F1F1" height="48" rx="2.5" ry="2.5" style="stroke:#181818;stroke-width:0.5;" width="111.0234" x="206.37" y="975"/><ellipse cx="221.37" cy="991" fill="#B4A7E5" rx="11" ry="11" style="stroke:#181818;stroke-width:1;"/><path d="M217.7977,987.2651 L217.7977,985.1069 L225.1771,985.1069 L225.1771,987.2651 L222.7118,987.2651 L222.7118,995.3418 L225.1771,995.3418 L225.1771,997.5 L217.7977,997.5 L217.7977,995.3418 L220.2631,995.3418 L220.2631,987.2651 Z " fill="#000000"/><text fill="#000000" font-family="sans-serif" font-size="14" font-style="italic" lengthAdjust="spacing" textLength="79.0234" x="235.37" y="996.291">Archiviabile</text><line style="stroke:#181818;stroke-width:0.5;" x1="207.37" x2="316.3934" y1="1007" y2="1007"/><line style="stroke:#181818;stroke-width:0.5;" x1="207.37" x2="316.3934" y1="1015" y2="1015"/></g><!--class Filtro--><g class="entity" data-entity="Filtro" data-source-line="58" data-uid="ent0038" id="entity_Filtro"><rect fill="#F1F1F1" height="48" rx="2.5" ry="2.5" style="stroke:#181818;stroke-width:0.5;" width="67.1641" x="228.3" y="892"/><ellipse cx="243.3" cy="908" fill="#EB937F" rx="11" ry="11" style="stroke:#181818;stroke-width:1;"/><path d="M246.9143,914.5 L239.1945,914.5 L239.1945,902.1069 L246.9143,902.1069 L246.9143,904.2651 L241.6433,904.2651 L241.6433,906.938 L246.4162,906.938 L246.4162,909.0962 L241.6433,909.0962 L241.6433,912.3418 L246.9143,912.3418 Z " fill="#000000"/><text fill="#000000" font-family="sans-serif" font-size="14" lengthAdjust="spacing" textLength="35.1641" x="257.3" y="913.291">Filtro</text><line style="stroke:#181818;stroke-width:0.5;" x1="229.3" x2="294.4641" y1="924" y2="924"/><line style="stroke:#181818;stroke-width:0.5;" x1="229.3" x2="294.4641" y1="932" y2="932"/></g><!--class Mappabile--><g class="entity" data-entity="Mappabile" data-source-line="59" data-uid="ent0039" id="entity_Mappabile"><rect fill="#F1F1F1" height="48" rx="2.5" ry="2.5" style="stroke:#181818;stroke-width:0.5;" width="101.8496" x="513.1" y="975"/><ellipse cx="528.1" cy="991" fill="#B4A7E5" rx="11" ry="11" style="stroke:#181818;stroke-width:1;"/><path d="M524.5277,987.2651 L524.5277,985.1069 L531.9071,985.1069 L531.9071,987.2651 L529.4418,987.2651 L529.4418,995.3418 L531.9071,995.3418 L531.9071,997.5 L524.5277,997.5 L524.5277,995.3418 L526.9931,995.3418 L526.9931,987.2651 Z " fill="#000000"/><text fill="#000000" font-family="sans-serif" font-size="14" font-style="italic" lengthAdjust="spacing" textLength="69.8496" x="542.1" y="996.291">Mappabile</text><line style="stroke:#181818;stroke-width:0.5;" x1="514.1" x2="613.9496" y1="1007" y2="1007"/><line style="stroke:#181818;stroke-width:0.5;" x1="514.1" x2="613.9496" y1="1015" y2="1015"/></g><!--class Maschera--><g class="entity" data-entity="Maschera" data-source-line="60" data-uid="ent0040" id="entity_Maschera"><rect fill="#F1F1F1" height="48" rx="2.5" ry="2.5" style="stroke:#181818;stroke-width:0.5;" width="96.0459" x="516" y="892"/><ellipse cx="531" cy="908" fill="#ADD1B2" rx="11" ry="11" style="stroke:#181818;stroke-width:1;"/><path d="M533.4731,914.1431 Q532.8921,914.4419 532.2529,914.5913 Q531.6138,914.7407 530.9082,914.7407 Q528.4014,914.7407 527.0815,913.0889 Q525.7617,911.437 525.7617,908.3159 Q525.7617,905.1865 527.0815,903.5347 Q528.4014,901.8828 530.9082,901.8828 Q531.6138,901.8828 532.2612,902.0322 Q532.9087,902.1816 533.4731,902.4805 L533.4731,905.2031 Q532.8423,904.6221 532.2488,904.3523 Q531.6553,904.0825 531.0244,904.0825 Q529.6797,904.0825 528.9949,905.1492 Q528.3101,906.2158 528.3101,908.3159 Q528.3101,910.4077 528.9949,911.4744 Q529.6797,912.541 531.0244,912.541 Q531.6553,912.541 532.2488,912.2712 Q532.8423,912.0015 533.4731,911.4204 Z " fill="#000000"/><text fill="#000000" font-family="sans-serif" font-size="14" lengthAdjust="spacing" textLength="64.0459" x="545" y="913.291">Maschera</text><line style="stroke:#181818;stroke-width:0.5;" x1="517" x2="611.0459" y1="924" y2="924"/><line style="stroke:#181818;stroke-width:0.5;" x1="517" x2="611.0459" y1="932" y2="932"/></g><!--class AvvisoConfermaRimozioneView--><g class="entity" data-entity="AvvisoConfermaRimozioneView" data-source-line="67" data-uid="ent0042" id="entity_AvvisoConfermaRimozioneView"><rect fill="#F1F1F1" height="48" rx="2.5" ry="2.5" style="stroke:#181818;stroke-width:0.5;" width="245.9033" x="138.93" y="140"/><ellipse cx="153.93" cy="156" fill="#ADD1B2" rx="11" ry="11" style="stroke:#181818;stroke-width:1;"/><path d="M156.4031,162.1431 Q155.8221,162.4419 155.1829,162.5913 Q154.5438,162.7407 153.8382,162.7407 Q151.3314,162.7407 150.0115,161.0889 Q148.6917,159.437 148.6917,156.3159 Q148.6917,153.1865 150.0115,151.5347 Q151.3314,149.8828 153.8382,149.8828 Q154.5438,149.8828 155.1912,150.0322 Q155.8387,150.1816 156.4031,150.4805 L156.4031,153.2031 Q155.7723,152.6221 155.1788,152.3523 Q154.5853,152.0825 153.9544,152.0825 Q152.6097,152.0825 151.9249,153.1492 Q151.2401,154.2158 151.2401,156.3159 Q151.2401,158.4077 151.9249,159.4744 Q152.6097,160.541 153.9544,160.541 Q154.5853,160.541 155.1788,160.2712 Q155.7723,160.0015 156.4031,159.4204 Z " fill="#000000"/><text fill="#000000" font-family="sans-serif" font-size="14" lengthAdjust="spacing" textLength="213.9033" x="167.93" y="161.291">AvvisoConfermaRimozioneView</text><line style="stroke:#181818;stroke-width:0.5;" x1="139.93" x2="383.8333" y1="172" y2="172"/><line style="stroke:#181818;stroke-width:0.5;" x1="139.93" x2="383.8333" y1="180" y2="180"/></g><!--class LibriView--><g class="entity" data-entity="LibriView" data-source-line="70" data-uid="ent0044" id="entity_LibriView"><rect fill="#F1F1F1" height="48" rx="2.5" ry="2.5" style="stroke:#181818;stroke-width:0.5;" width="93.8857" x="214.94" y="528"/><ellipse cx="229.94" cy="544" fill="#ADD1B2" rx="11" ry="11" style="stroke:#181818;stroke-width:1;"/><path d="M232.4131,550.1431 Q231.8321,550.4419 231.1929,550.5913 Q230.5538,550.7407 229.8482,550.7407 Q227.3414,550.7407 226.0215,549.0889 Q224.7017,547.437 224.7017,544.3159 Q224.7017,541.1865 226.0215,539.5347 Q227.3414,537.8828 229.8482,537.8828 Q230.5538,537.8828 231.2012,538.0322 Q231.8487,538.1816 232.4131,538.4805 L232.4131,541.2031 Q231.7823,540.6221 231.1888,540.3523 Q230.5953,540.0825 229.9644,540.0825 Q228.6197,540.0825 227.9349,541.1492 Q227.2501,542.2158 227.2501,544.3159 Q227.2501,546.4077 227.9349,547.4744 Q228.6197,548.541 229.9644,548.541 Q230.5953,548.541 231.1888,548.2712 Q231.7823,548.0015 232.4131,547.4204 Z " fill="#000000"/><text fill="#000000" font-family="sans-serif" font-size="14" lengthAdjust="spacing" textLength="61.8857" x="243.94" y="549.291">LibriView</text><line style="stroke:#181818;stroke-width:0.5;" x1="215.94" x2="307.8257" y1="560" y2="560"/><line style="stroke:#181818;stroke-width:0.5;" x1="215.94" x2="307.8257" y1="568" y2="568"/></g><!--class AggiuntaLibroView--><g class="entity" data-entity="AggiuntaLibroView" data-source-line="71" data-uid="ent0045" id="entity_AggiuntaLibroView"><rect fill="#F1F1F1" height="48" rx="2.5" ry="2.5" style="stroke:#181818;stroke-width:0.5;" width="159.9482" x="181.91" y="445"/><ellipse cx="196.91" cy="461" fill="#ADD1B2" rx="11" ry="11" style="stroke:#181818;stroke-width:1;"/><path d="M199.3831,467.1431 Q198.8021,467.4419 198.1629,467.5913 Q197.5238,467.7407 196.8182,467.7407 Q194.3114,467.7407 192.9915,466.0889 Q191.6717,464.437 191.6717,461.3159 Q191.6717,458.1865 192.9915,456.5347 Q194.3114,454.8828 196.8182,454.8828 Q197.5238,454.8828 198.1712,455.0322 Q198.8187,455.1816 199.3831,455.4805 L199.3831,458.2031 Q198.7523,457.6221 198.1588,457.3523 Q197.5653,457.0825 196.9344,457.0825 Q195.5897,457.0825 194.9049,458.1492 Q194.2201,459.2158 194.2201,461.3159 Q194.2201,463.4077 194.9049,464.4744 Q195.5897,465.541 196.9344,465.541 Q197.5653,465.541 198.1588,465.2712 Q198.7523,465.0015 199.3831,464.4204 Z " fill="#000000"/><text fill="#000000" font-family="sans-serif" font-size="14" lengthAdjust="spacing" textLength="127.9482" x="210.91" y="466.291">AggiuntaLibroView</text><line style="stroke:#181818;stroke-width:0.5;" x1="182.91" x2="340.8582" y1="477" y2="477"/><line style="stroke:#181818;stroke-width:0.5;" x1="182.91" x2="340.8582" y1="485" y2="485"/></g><!--class ModificaLibroView--><g class="entity" data-entity="ModificaLibroView" data-source-line="72" data-uid="ent0046" id="entity_ModificaLibroView"><rect fill="#F1F1F1" height="48" rx="2.5" ry="2.5" style="stroke:#181818;stroke-width:0.5;" width="156.0518" x="485.99" y="528"/><ellipse cx="500.99" cy="544" fill="#ADD1B2" rx="11" ry="11" style="stroke:#181818;stroke-width:1;"/><path d="M503.4631,550.1431 Q502.8821,550.4419 502.2429,550.5913 Q501.6038,550.7407 500.8982,550.7407 Q498.3914,550.7407 497.0715,549.0889 Q495.7517,547.437 495.7517,544.3159 Q495.7517,541.1865 497.0715,539.5347 Q498.3914,537.8828 500.8982,537.8828 Q501.6038,537.8828 502.2512,538.0322 Q502.8987,538.1816 503.4631,538.4805 L503.4631,541.2031 Q502.8323,540.6221 502.2388,540.3523 Q501.6453,540.0825 501.0144,540.0825 Q499.6697,540.0825 498.9849,541.1492 Q498.3001,542.2158 498.3001,544.3159 Q498.3001,546.4077 498.9849,547.4744 Q499.6697,548.541 501.0144,548.541 Q501.6453,548.541 502.2388,548.2712 Q502.8323,548.0015 503.4631,547.4204 Z " fill="#000000"/><text fill="#000000" font-family="sans-serif" font-size="14" lengthAdjust="spacing" textLength="124.0518" x="514.99" y="549.291">ModificaLibroView</text><line style="stroke:#181818;stroke-width:0.5;" x1="486.99" x2="641.0418" y1="560" y2="560"/><line style="stroke:#181818;stroke-width:0.5;" x1="486.99" x2="641.0418" y1="568" y2="568"/></g><!--class EstensionePrestitoView--><g class="entity" data-entity="EstensionePrestitoView" data-source-line="76" data-uid="ent0048" id="entity_EstensionePrestitoView"><rect fill="#F1F1F1" height="48" rx="2.5" ry="2.5" style="stroke:#181818;stroke-width:0.5;" width="188.0303" x="167.87" y="322"/><ellipse cx="182.87" cy="338" fill="#ADD1B2" rx="11" ry="11" style="stroke:#181818;stroke-width:1;"/><path d="M185.3431,344.1431 Q184.7621,344.4419 184.1229,344.5913 Q183.4838,344.7407 182.7782,344.7407 Q180.2714,344.7407 178.9515,343.0889 Q177.6317,341.437 177.6317,338.3159 Q177.6317,335.1865 178.9515,333.5347 Q180.2714,331.8828 182.7782,331.8828 Q183.4838,331.8828 184.1312,332.0322 Q184.7787,332.1816 185.3431,332.4805 L185.3431,335.2031 Q184.7123,334.6221 184.1188,334.3523 Q183.5253,334.0825 182.8944,334.0825 Q181.5497,334.0825 180.8649,335.1492 Q180.1801,336.2158 180.1801,338.3159 Q180.1801,340.4077 180.8649,341.4744 Q181.5497,342.541 182.8944,342.541 Q183.5253,342.541 184.1188,342.2712 Q184.7123,342.0015 185.3431,341.4204 Z " fill="#000000"/><text fill="#000000" font-family="sans-serif" font-size="14" lengthAdjust="spacing" textLength="156.0303" x="196.87" y="343.291">EstensionePrestitoView</text><line style="stroke:#181818;stroke-width:0.5;" x1="168.87" x2="354.9003" y1="354" y2="354"/><line style="stroke:#181818;stroke-width:0.5;" x1="168.87" x2="354.9003" y1="362" y2="362"/></g><!--class PrestitiView--><g class="entity" data-entity="PrestitiView" data-source-line="77" data-uid="ent0049" id="entity_PrestitiView"><rect fill="#F1F1F1" height="48" rx="2.5" ry="2.5" style="stroke:#181818;stroke-width:0.5;" width="110.7568" x="206.5" y="239"/><ellipse cx="221.5" cy="255" fill="#ADD1B2" rx="11" ry="11" style="stroke:#181818;stroke-width:1;"/><path d="M223.9731,261.1431 Q223.3921,261.4419 222.7529,261.5913 Q222.1138,261.7407 221.4082,261.7407 Q218.9014,261.7407 217.5815,260.0889 Q216.2617,258.437 216.2617,255.3159 Q216.2617,252.1865 217.5815,250.5347 Q218.9014,248.8828 221.4082,248.8828 Q222.1138,248.8828 222.7612,249.0322 Q223.4087,249.1816 223.9731,249.4805 L223.9731,252.2031 Q223.3423,251.6221 222.7488,251.3523 Q222.1553,251.0825 221.5244,251.0825 Q220.1797,251.0825 219.4949,252.1492 Q218.8101,253.2158 218.8101,255.3159 Q218.8101,257.4077 219.4949,258.4744 Q220.1797,259.541 221.5244,259.541 Q222.1553,259.541 222.7488,259.2712 Q223.3423,259.0015 223.9731,258.4204 Z " fill="#000000"/><text fill="#000000" font-family="sans-serif" font-size="14" lengthAdjust="spacing" textLength="78.7568" x="235.5" y="260.291">PrestitiView</text><line style="stroke:#181818;stroke-width:0.5;" x1="207.5" x2="316.2568" y1="271" y2="271"/><line style="stroke:#181818;stroke-width:0.5;" x1="207.5" x2="316.2568" y1="279" y2="279"/></g><!--class RegistrazionePrestitoView--><g class="entity" data-entity="RegistrazionePrestitoView" data-source-line="78" data-uid="ent0050" id="entity_RegistrazionePrestitoView"><rect fill="#F1F1F1" height="48" rx="2.5" ry="2.5" style="stroke:#181818;stroke-width:0.5;" width="207.7314" x="460.15" y="322"/><ellipse cx="475.15" cy="338" fill="#ADD1B2" rx="11" ry="11" style="stroke:#181818;stroke-width:1;"/><path d="M477.6231,344.1431 Q477.0421,344.4419 476.4029,344.5913 Q475.7638,344.7407 475.0582,344.7407 Q472.5514,344.7407 471.2315,343.0889 Q469.9117,341.437 469.9117,338.3159 Q469.9117,335.1865 471.2315,333.5347 Q472.5514,331.8828 475.0582,331.8828 Q475.7638,331.8828 476.4112,332.0322 Q477.0587,332.1816 477.6231,332.4805 L477.6231,335.2031 Q476.9923,334.6221 476.3988,334.3523 Q475.8053,334.0825 475.1744,334.0825 Q473.8297,334.0825 473.1449,335.1492 Q472.4601,336.2158 472.4601,338.3159 Q472.4601,340.4077 473.1449,341.4744 Q473.8297,342.541 475.1744,342.541 Q475.8053,342.541 476.3988,342.2712 Q476.9923,342.0015 477.6231,341.4204 Z " fill="#000000"/><text fill="#000000" font-family="sans-serif" font-size="14" lengthAdjust="spacing" textLength="175.7314" x="489.15" y="343.291">RegistrazionePrestitoView</text><line style="stroke:#181818;stroke-width:0.5;" x1="461.15" x2="666.8814" y1="354" y2="354"/><line style="stroke:#181818;stroke-width:0.5;" x1="461.15" x2="666.8814" y1="362" y2="362"/></g><!--class AggiuntaUtenteView--><g class="entity" data-entity="AggiuntaUtenteView" data-source-line="82" data-uid="ent0052" id="entity_AggiuntaUtenteView"><rect fill="#F1F1F1" height="48" rx="2.5" ry="2.5" style="stroke:#181818;stroke-width:0.5;" width="169.7578" x="761.4" y="528"/><ellipse cx="776.4" cy="544" fill="#ADD1B2" rx="11" ry="11" style="stroke:#181818;stroke-width:1;"/><path d="M778.8731,550.1431 Q778.2921,550.4419 777.6529,550.5913 Q777.0138,550.7407 776.3082,550.7407 Q773.8014,550.7407 772.4815,549.0889 Q771.1617,547.437 771.1617,544.3159 Q771.1617,541.1865 772.4815,539.5347 Q773.8014,537.8828 776.3082,537.8828 Q777.0138,537.8828 777.6612,538.0322 Q778.3087,538.1816 778.8731,538.4805 L778.8731,541.2031 Q778.2423,540.6221 777.6488,540.3523 Q777.0553,540.0825 776.4244,540.0825 Q775.0797,540.0825 774.3949,541.1492 Q773.7101,542.2158 773.7101,544.3159 Q773.7101,546.4077 774.3949,547.4744 Q775.0797,548.541 776.4244,548.541 Q777.0553,548.541 777.6488,548.2712 Q778.2423,548.0015 778.8731,547.4204 Z " fill="#000000"/><text fill="#000000" font-family="sans-serif" font-size="14" lengthAdjust="spacing" textLength="137.7578" x="790.4" y="549.291">AggiuntaUtenteView</text><line style="stroke:#181818;stroke-width:0.5;" x1="762.4" x2="930.1578" y1="560" y2="560"/><line style="stroke:#181818;stroke-width:0.5;" x1="762.4" x2="930.1578" y1="568" y2="568"/></g><!--class ModificaUtenteView--><g class="entity" data-entity="ModificaUtenteView" data-source-line="83" data-uid="ent0053" id="entity_ModificaUtenteView"><rect fill="#F1F1F1" height="48" rx="2.5" ry="2.5" style="stroke:#181818;stroke-width:0.5;" width="165.8613" x="763.34" y="445"/><ellipse cx="778.34" cy="461" fill="#ADD1B2" rx="11" ry="11" style="stroke:#181818;stroke-width:1;"/><path d="M780.8131,467.1431 Q780.2321,467.4419 779.5929,467.5913 Q778.9538,467.7407 778.2482,467.7407 Q775.7414,467.7407 774.4215,466.0889 Q773.1017,464.437 773.1017,461.3159 Q773.1017,458.1865 774.4215,456.5347 Q775.7414,454.8828 778.2482,454.8828 Q778.9538,454.8828 779.6012,455.0322 Q780.2487,455.1816 780.8131,455.4805 L780.8131,458.2031 Q780.1823,457.6221 779.5888,457.3523 Q778.9953,457.0825 778.3644,457.0825 Q777.0197,457.0825 776.3349,458.1492 Q775.6501,459.2158 775.6501,461.3159 Q775.6501,463.4077 776.3349,464.4744 Q777.0197,465.541 778.3644,465.541 Q778.9953,465.541 779.5888,465.2712 Q780.1823,465.0015 780.8131,464.4204 Z " fill="#000000"/><text fill="#000000" font-family="sans-serif" font-size="14" lengthAdjust="spacing" textLength="133.8613" x="792.34" y="466.291">ModificaUtenteView</text><line style="stroke:#181818;stroke-width:0.5;" x1="764.34" x2="928.2013" y1="477" y2="477"/><line style="stroke:#181818;stroke-width:0.5;" x1="764.34" x2="928.2013" y1="485" y2="485"/></g><!--class UtentiView--><g class="entity" data-entity="UtentiView" data-source-line="84" data-uid="ent0054" id="entity_UtentiView"><rect fill="#F1F1F1" height="48" rx="2.5" ry="2.5" style="stroke:#181818;stroke-width:0.5;" width="104.4951" x="1065.27" y="528"/><ellipse cx="1080.27" cy="544" fill="#ADD1B2" rx="11" ry="11" style="stroke:#181818;stroke-width:1;"/><path d="M1082.7431,550.1431 Q1082.1621,550.4419 1081.5229,550.5913 Q1080.8838,550.7407 1080.1782,550.7407 Q1077.6714,550.7407 1076.3515,549.0889 Q1075.0317,547.437 1075.0317,544.3159 Q1075.0317,541.1865 1076.3515,539.5347 Q1077.6714,537.8828 1080.1782,537.8828 Q1080.8838,537.8828 1081.5312,538.0322 Q1082.1787,538.1816 1082.7431,538.4805 L1082.7431,541.2031 Q1082.1123,540.6221 1081.5188,540.3523 Q1080.9253,540.0825 1080.2944,540.0825 Q1078.9497,540.0825 1078.2649,541.1492 Q1077.5801,542.2158 1077.5801,544.3159 Q1077.5801,546.4077 1078.2649,547.4744 Q1078.9497,548.541 1080.2944,548.541 Q1080.9253,548.541 1081.5188,548.2712 Q1082.1123,548.0015 1082.7431,547.4204 Z " fill="#000000"/><text fill="#000000" font-family="sans-serif" font-size="14" lengthAdjust="spacing" textLength="72.4951" x="1094.27" y="549.291">UtentiView</text><line style="stroke:#181818;stroke-width:0.5;" x1="1066.27" x2="1168.7651" y1="560" y2="560"/><line style="stroke:#181818;stroke-width:0.5;" x1="1066.27" x2="1168.7651" y1="568" y2="568"/></g><!--link Models to Controllers--><!--SRC=[dLJRJiCm37rUlY8_m2yW3GGIYA5f4xmW7jpKQosoPahS8ctglzDxcosxYCVud6Exzd4rRbYoaPQIb6LC5XMJoOJOWVg11EKh570GCwN1ERa0oWwbc8bP3p-QZAtH6gshM1KmOOvOY_IQDueirUoEEqyIoZE6EcuyKKTe125WOMBQa3glND7MxAllmLD6wJUrjEYOUDhNasFCNAtkm629NXWiZmavXlsr7Ai6oi_pZfhzg1hZq0WR04CbMicb8PxN3bCCK1etU9Qeyg7stV10aIR3g61Y4BQaZ1uZB-k7z-e1aMCBYkMoyfJ9u8ftSZOMZwpYFyrDo-v39n5pm_ZRkHmF-rIuHblGlbLIfR0RK2ZdLgLK44IacnoOvLlvJ9gRrYV41Uns0wiVerCfMcXhDNiOD_59-5ilOXZnl2Z8rSxQeDt2iDQQTtdCpRkZXQxMXxopxA3_d9kVjPVuqVR4h7zZuPfNhYRy3I6iJJGMAKKfMjVBkw-KuXYpx_lfhr68Fm00]--></g></svg>