<svg xmlns="http://www.w3.org/2000/svg" xmlns:xlink="http://www.w3.org/1999/xlink" contentStyleType="text/css" data-diagram-type="CLASS" height="2322px" preserveAspectRatio="none" style="width:1214px;height:2322px;background:#FFFFFF;" version="1.1" viewBox="0 0 1214 2322" width="1214px" zoomAndPan="magnify"><defs/><g><!--cluster java--><g class="cluster" data-entity="java" data-source-line="3" data-uid="ent0002" id="cluster_java"><path d="M8.5,6 L38.9287,6 A3.75,3.75 0 0 1 41.4287,8.5 L48.4287,28.4883 L1204.73,28.4883 A2.5,2.5 0 0 1 1207.23,30.9883 L1207.23,2312.5 A2.5,2.5 0 0 1 1204.73,2315 L8.5,2315 A2.5,2.5 0 0 1 6,2312.5 L6,8.5 A2.5,2.5 0 0 1 8.5,6" fill="none" style="stroke:#000000;stroke-width:1.5;"/><line style="stroke:#000000;stroke-width:1.5;" x1="6" x2="48.4287" y1="28.4883" y2="28.4883"/><text fill="#000000" font-family="sans-serif" font-size="14" font-weight="bold" lengthAdjust="spacing" textLength="29.4287" x="10" y="21.5352">java</text></g><!--cluster controllers--><g class="cluster" data-entity="controllers" data-source-line="6" data-uid="ent0004" id="cluster_controllers"><path d="M43.25,1697 L122.4053,1697 A3.75,3.75 0 0 1 124.9053,1699.5 L131.9053,1719.4883 L1180.73,1719.4883 A2.5,2.5 0 0 1 1183.23,1721.9883 L1183.23,2288.5 A2.5,2.5 0 0 1 1180.73,2291 L43.25,2291 A2.5,2.5 0 0 1 40.75,2288.5 L40.75,1699.5 A2.5,2.5 0 0 1 43.25,1697" fill="none" style="stroke:#000000;stroke-width:1.5;"/><line style="stroke:#000000;stroke-width:1.5;" x1="40.75" x2="131.9053" y1="1719.4883" y2="1719.4883"/><text fill="#000000" font-family="sans-serif" font-size="14" font-weight="bold" lengthAdjust="spacing" textLength="78.1553" x="44.75" y="1712.5352">controllers</text></g><!--cluster libri--><g class="cluster" data-entity="libri" data-source-line="12" data-uid="ent0008" id="cluster_libri"><path d="M81.29,2085 L111.5888,2085 A3.75,3.75 0 0 1 114.0888,2087.5 L121.0888,2107.4883 L605.1,2107.4883 A2.5,2.5 0 0 1 607.6,2109.9883 L607.6,2264.5 A2.5,2.5 0 0 1 605.1,2267 L81.29,2267 A2.5,2.5 0 0 1 78.79,2264.5 L78.79,2087.5 A2.5,2.5 0 0 1 81.29,2085" fill="none" style="stroke:#000000;stroke-width:1.5;"/><line style="stroke:#000000;stroke-width:1.5;" x1="78.79" x2="121.0888" y1="2107.4883" y2="2107.4883"/><text fill="#000000" font-family="sans-serif" font-size="14" font-weight="bold" lengthAdjust="spacing" textLength="29.2988" x="82.79" y="2100.5352">libri</text></g><!--cluster prestiti--><g class="cluster" data-entity="prestiti" data-source-line="18" data-uid="ent0012" id="cluster_prestiti"><path d="M67.25,1879 L120.4629,1879 A3.75,3.75 0 0 1 122.9629,1881.5 L129.9629,1901.4883 L628.07,1901.4883 A2.5,2.5 0 0 1 630.57,1903.9883 L630.57,2058.5 A2.5,2.5 0 0 1 628.07,2061 L67.25,2061 A2.5,2.5 0 0 1 64.75,2058.5 L64.75,1881.5 A2.5,2.5 0 0 1 67.25,1879" fill="none" style="stroke:#000000;stroke-width:1.5;"/><line style="stroke:#000000;stroke-width:1.5;" x1="64.75" x2="129.9629" y1="1901.4883" y2="1901.4883"/><text fill="#000000" font-family="sans-serif" font-size="14" font-weight="bold" lengthAdjust="spacing" textLength="52.2129" x="68.75" y="1894.5352">prestiti</text></g><!--cluster utenti--><g class="cluster" data-entity="utenti" data-source-line="24" data-uid="ent0016" id="cluster_utenti"><path d="M661.36,2085 L704.8522,2085 A3.75,3.75 0 0 1 707.3522,2087.5 L714.3522,2107.4883 L1156.73,2107.4883 A2.5,2.5 0 0 1 1159.23,2109.9883 L1159.23,2264.5 A2.5,2.5 0 0 1 1156.73,2267 L661.36,2267 A2.5,2.5 0 0 1 658.86,2264.5 L658.86,2087.5 A2.5,2.5 0 0 1 661.36,2085" fill="none" style="stroke:#000000;stroke-width:1.5;"/><line style="stroke:#000000;stroke-width:1.5;" x1="658.86" x2="714.3522" y1="2107.4883" y2="2107.4883"/><text fill="#000000" font-family="sans-serif" font-size="14" font-weight="bold" lengthAdjust="spacing" textLength="42.4922" x="662.86" y="2100.5352">utenti</text></g><!--cluster models--><g class="cluster" data-entity="models" data-source-line="32" data-uid="ent0020" id="cluster_models"><path d="M113.69,790 L167.1558,790 A3.75,3.75 0 0 1 169.6558,792.5 L176.6558,812.4883 L1130.54,812.4883 A2.5,2.5 0 0 1 1133.04,814.9883 L1133.04,1670.5 A2.5,2.5 0 0 1 1130.54,1673 L113.69,1673 A2.5,2.5 0 0 1 111.19,1670.5 L111.19,792.5 A2.5,2.5 0 0 1 113.69,790" fill="none" style="stroke:#000000;stroke-width:1.5;"/><line style="stroke:#000000;stroke-width:1.5;" x1="111.19" x2="176.6558" y1="812.4883" y2="812.4883"/><text fill="#000000" font-family="sans-serif" font-size="14" font-weight="bold" lengthAdjust="spacing" textLength="52.4658" x="115.19" y="805.5352">models</text></g><!--cluster libri--><g class="cluster" data-entity="libri" data-source-line="41" data-uid="ent0027" id="cluster_libri"><path d="M140.6,1467 L170.8988,1467 A3.75,3.75 0 0 1 173.3988,1469.5 L180.3988,1489.4883 L615.38,1489.4883 A2.5,2.5 0 0 1 617.88,1491.9883 L617.88,1646.5 A2.5,2.5 0 0 1 615.38,1649 L140.6,1649 A2.5,2.5 0 0 1 138.1,1646.5 L138.1,1469.5 A2.5,2.5 0 0 1 140.6,1467" fill="none" style="stroke:#000000;stroke-width:1.5;"/><line style="stroke:#000000;stroke-width:1.5;" x1="138.1" x2="180.3988" y1="1489.4883" y2="1489.4883"/><text fill="#000000" font-family="sans-serif" font-size="14" font-weight="bold" lengthAdjust="spacing" textLength="29.2988" x="142.1" y="1482.5352">libri</text></g><!--cluster prestiti--><g class="cluster" data-entity="prestiti" data-source-line="48" data-uid="ent0032" id="cluster_prestiti"><path d="M137.69,1261 L190.9029,1261 A3.75,3.75 0 0 1 193.4029,1263.5 L200.4029,1283.4883 L248.21,1283.4883 A2.5,2.5 0 0 1 250.71,1285.9883 L250.71,1440.5 A2.5,2.5 0 0 1 248.21,1443 L137.69,1443 A2.5,2.5 0 0 1 135.19,1440.5 L135.19,1263.5 A2.5,2.5 0 0 1 137.69,1261" fill="none" style="stroke:#000000;stroke-width:1.5;"/><line style="stroke:#000000;stroke-width:1.5;" x1="135.19" x2="200.4029" y1="1283.4883" y2="1283.4883"/><text fill="#000000" font-family="sans-serif" font-size="14" font-weight="bold" lengthAdjust="spacing" textLength="52.2129" x="139.19" y="1276.5352">prestiti</text></g><!--cluster utenti--><g class="cluster" data-entity="utenti" data-source-line="53" data-uid="ent0035" id="cluster_utenti"><path d="M141.22,1055 L184.7122,1055 A3.75,3.75 0 0 1 187.2122,1057.5 L194.2122,1077.4883 L620.29,1077.4883 A2.5,2.5 0 0 1 622.79,1079.9883 L622.79,1234.5 A2.5,2.5 0 0 1 620.29,1237 L141.22,1237 A2.5,2.5 0 0 1 138.72,1234.5 L138.72,1057.5 A2.5,2.5 0 0 1 141.22,1055" fill="none" style="stroke:#000000;stroke-width:1.5;"/><line style="stroke:#000000;stroke-width:1.5;" x1="138.72" x2="194.2122" y1="1077.4883" y2="1077.4883"/><text fill="#000000" font-family="sans-serif" font-size="14" font-weight="bold" lengthAdjust="spacing" textLength="42.4922" x="142.72" y="1070.5352">utenti</text></g><!--cluster servizi--><g class="cluster" data-entity="servizi" data-source-line="59" data-uid="ent0039" id="cluster_servizi"><path d="M708.92,1467 L758.086,1467 A3.75,3.75 0 0 1 760.586,1469.5 L767.586,1489.4883 L1106.54,1489.4883 A2.5,2.5 0 0 1 1109.04,1491.9883 L1109.04,1646.5 A2.5,2.5 0 0 1 1106.54,1649 L708.92,1649 A2.5,2.5 0 0 1 706.42,1646.5 L706.42,1469.5 A2.5,2.5 0 0 1 708.92,1467" fill="none" style="stroke:#000000;stroke-width:1.5;"/><line style="stroke:#000000;stroke-width:1.5;" x1="706.42" x2="767.586" y1="1489.4883" y2="1489.4883"/><text fill="#000000" font-family="sans-serif" font-size="14" font-weight="bold" lengthAdjust="spacing" textLength="48.166" x="710.42" y="1482.5352">servizi</text></g><!--cluster resources--><g class="cluster" data-entity="resources" data-source-line="67" data-uid="ent0044" id="cluster_resources"><path d="M32.5,105 L104.0537,105 A3.75,3.75 0 0 1 106.5537,107.5 L113.5537,127.4883 L1155.86,127.4883 A2.5,2.5 0 0 1 1158.36,129.9883 L1158.36,763.5 A2.5,2.5 0 0 1 1155.86,766 L32.5,766 A2.5,2.5 0 0 1 30,763.5 L30,107.5 A2.5,2.5 0 0 1 32.5,105" fill="none" style="stroke:#000000;stroke-width:1.5;"/><line style="stroke:#000000;stroke-width:1.5;" x1="30" x2="113.5537" y1="127.4883" y2="127.4883"/><text fill="#000000" font-family="sans-serif" font-size="14" font-weight="bold" lengthAdjust="spacing" textLength="70.5537" x="34" y="120.5352">resources</text></g><!--cluster views--><g class="cluster" data-entity="views" data-source-line="68" data-uid="ent0045" id="cluster_views"><path d="M56.5,148 L98.5566,148 A3.75,3.75 0 0 1 101.0566,150.5 L108.0566,170.4883 L1131.86,170.4883 A2.5,2.5 0 0 1 1134.36,172.9883 L1134.36,739.5 A2.5,2.5 0 0 1 1131.86,742 L56.5,742 A2.5,2.5 0 0 1 54,739.5 L54,150.5 A2.5,2.5 0 0 1 56.5,148" fill="none" style="stroke:#000000;stroke-width:1.5;"/><line style="stroke:#000000;stroke-width:1.5;" x1="54" x2="108.0566" y1="170.4883" y2="170.4883"/><text fill="#000000" font-family="sans-serif" font-size="14" font-weight="bold" lengthAdjust="spacing" textLength="41.0566" x="58" y="163.5352">views</text></g><!--cluster libri--><g class="cluster" data-entity="libri" data-source-line="73" data-uid="ent0048" id="cluster_libri"><path d="M99.48,536 L129.7788,536 A3.75,3.75 0 0 1 132.2788,538.5 L139.2788,558.4883 L586.91,558.4883 A2.5,2.5 0 0 1 589.41,560.9883 L589.41,715.5 A2.5,2.5 0 0 1 586.91,718 L99.48,718 A2.5,2.5 0 0 1 96.98,715.5 L96.98,538.5 A2.5,2.5 0 0 1 99.48,536" fill="none" style="stroke:#000000;stroke-width:1.5;"/><line style="stroke:#000000;stroke-width:1.5;" x1="96.98" x2="139.2788" y1="558.4883" y2="558.4883"/><text fill="#000000" font-family="sans-serif" font-size="14" font-weight="bold" lengthAdjust="spacing" textLength="29.2988" x="100.98" y="551.5352">libri</text></g><!--cluster prestiti--><g class="cluster" data-entity="prestiti" data-source-line="79" data-uid="ent0052" id="cluster_prestiti"><path d="M85.44,330 L138.6529,330 A3.75,3.75 0 0 1 141.1529,332.5 L148.1529,352.4883 L612.75,352.4883 A2.5,2.5 0 0 1 615.25,354.9883 L615.25,509.5 A2.5,2.5 0 0 1 612.75,512 L85.44,512 A2.5,2.5 0 0 1 82.94,509.5 L82.94,332.5 A2.5,2.5 0 0 1 85.44,330" fill="none" style="stroke:#000000;stroke-width:1.5;"/><line style="stroke:#000000;stroke-width:1.5;" x1="82.94" x2="148.1529" y1="352.4883" y2="352.4883"/><text fill="#000000" font-family="sans-serif" font-size="14" font-weight="bold" lengthAdjust="spacing" textLength="52.2129" x="86.94" y="345.5352">prestiti</text></g><!--cluster utenti--><g class="cluster" data-entity="utenti" data-source-line="85" data-uid="ent0056" id="cluster_utenti"><path d="M679.55,536 L723.0422,536 A3.75,3.75 0 0 1 725.5422,538.5 L732.5422,558.4883 L1107.86,558.4883 A2.5,2.5 0 0 1 1110.36,560.9883 L1110.36,715.5 A2.5,2.5 0 0 1 1107.86,718 L679.55,718 A2.5,2.5 0 0 1 677.05,715.5 L677.05,538.5 A2.5,2.5 0 0 1 679.55,536" fill="none" style="stroke:#000000;stroke-width:1.5;"/><line style="stroke:#000000;stroke-width:1.5;" x1="677.05" x2="732.5422" y1="558.4883" y2="558.4883"/><text fill="#000000" font-family="sans-serif" font-size="14" font-weight="bold" lengthAdjust="spacing" textLength="42.4922" x="681.05" y="551.5352">utenti</text></g><!--class Main--><g class="entity" data-entity="Main" data-source-line="4" data-uid="ent0003" id="entity_Main"><rect fill="#F1F1F1" height="48" rx="2.5" ry="2.5" style="stroke:#181818;stroke-width:0.5;" width="64.5254" x="160.69" y="41"/><ellipse cx="175.69" cy="57" fill="#ADD1B2" rx="11" ry="11" style="stroke:#181818;stroke-width:1;"/><path d="M178.1631,63.1431 Q177.5821,63.4419 176.9429,63.5913 Q176.3038,63.7407 175.5982,63.7407 Q173.0914,63.7407 171.7715,62.0889 Q170.4517,60.437 170.4517,57.3159 Q170.4517,54.1865 171.7715,52.5347 Q173.0914,50.8828 175.5982,50.8828 Q176.3038,50.8828 176.9512,51.0322 Q177.5987,51.1816 178.1631,51.4805 L178.1631,54.2031 Q177.5323,53.6221 176.9388,53.3523 Q176.3453,53.0825 175.7144,53.0825 Q174.3697,53.0825 173.6849,54.1492 Q173.0001,55.2158 173.0001,57.3159 Q173.0001,59.4077 173.6849,60.4744 Q174.3697,61.541 175.7144,61.541 Q176.3453,61.541 176.9388,61.2712 Q177.5323,61.0015 178.1631,60.4204 Z " fill="#000000"/><text fill="#000000" font-family="sans-serif" font-size="14" lengthAdjust="spacing" textLength="32.5254" x="189.69" y="62.291">Main</text><line style="stroke:#181818;stroke-width:0.5;" x1="161.69" x2="224.2154" y1="73" y2="73"/><line style="stroke:#181818;stroke-width:0.5;" x1="161.69" x2="224.2154" y1="81" y2="81"/></g><!--class BaseController--><g class="entity" data-entity="BaseController" data-source-line="8" data-uid="ent0005" id="entity_BaseController"><rect fill="#F1F1F1" height="48" rx="2.5" ry="2.5" style="stroke:#181818;stroke-width:0.5;" width="130.8818" x="127.51" y="1815"/><ellipse cx="142.51" cy="1831" fill="#ADD1B2" rx="11" ry="11" style="stroke:#181818;stroke-width:1;"/><path d="M144.9831,1837.1431 Q144.4021,1837.4419 143.7629,1837.5913 Q143.1238,1837.7407 142.4182,1837.7407 Q139.9114,1837.7407 138.5915,1836.0889 Q137.2717,1834.437 137.2717,1831.3159 Q137.2717,1828.1865 138.5915,1826.5347 Q139.9114,1824.8828 142.4182,1824.8828 Q143.1238,1824.8828 143.7712,1825.0322 Q144.4187,1825.1816 144.9831,1825.4805 L144.9831,1828.2031 Q144.3523,1827.6221 143.7588,1827.3523 Q143.1653,1827.0825 142.5344,1827.0825 Q141.1897,1827.0825 140.5049,1828.1492 Q139.8201,1829.2158 139.8201,1831.3159 Q139.8201,1833.4077 140.5049,1834.4744 Q141.1897,1835.541 142.5344,1835.541 Q143.1653,1835.541 143.7588,1835.2712 Q144.3523,1835.0015 144.9831,1834.4204 Z " fill="#000000"/><text fill="#000000" font-family="sans-serif" font-size="14" lengthAdjust="spacing" textLength="98.8818" x="156.51" y="1836.291">BaseController</text><line style="stroke:#181818;stroke-width:0.5;" x1="128.51" x2="257.3918" y1="1847" y2="1847"/><line style="stroke:#181818;stroke-width:0.5;" x1="128.51" x2="257.3918" y1="1855" y2="1855"/></g><!--class MenuController--><g class="entity" data-entity="MenuController" data-source-line="9" data-uid="ent0006" id="entity_MenuController"><rect fill="#F1F1F1" height="48" rx="2.5" ry="2.5" style="stroke:#181818;stroke-width:0.5;" width="137.3965" x="124.25" y="1732"/><ellipse cx="139.25" cy="1748" fill="#ADD1B2" rx="11" ry="11" style="stroke:#181818;stroke-width:1;"/><path d="M141.7231,1754.1431 Q141.1421,1754.4419 140.5029,1754.5913 Q139.8638,1754.7407 139.1582,1754.7407 Q136.6514,1754.7407 135.3315,1753.0889 Q134.0117,1751.437 134.0117,1748.3159 Q134.0117,1745.1865 135.3315,1743.5347 Q136.6514,1741.8828 139.1582,1741.8828 Q139.8638,1741.8828 140.5112,1742.0322 Q141.1587,1742.1816 141.7231,1742.4805 L141.7231,1745.2031 Q141.0923,1744.6221 140.4988,1744.3523 Q139.9053,1744.0825 139.2744,1744.0825 Q137.9297,1744.0825 137.2449,1745.1492 Q136.5601,1746.2158 136.5601,1748.3159 Q136.5601,1750.4077 137.2449,1751.4744 Q137.9297,1752.541 139.2744,1752.541 Q139.9053,1752.541 140.4988,1752.2712 Q141.0923,1752.0015 141.7231,1751.4204 Z " fill="#000000"/><text fill="#000000" font-family="sans-serif" font-size="14" lengthAdjust="spacing" textLength="105.3965" x="153.25" y="1753.291">MenuController</text><line style="stroke:#181818;stroke-width:0.5;" x1="125.25" x2="260.6465" y1="1764" y2="1764"/><line style="stroke:#181818;stroke-width:0.5;" x1="125.25" x2="260.6465" y1="1772" y2="1772"/></g><!--class RimozioneController--><g class="entity" data-entity="RimozioneController" data-source-line="10" data-uid="ent0007" id="entity_RimozioneController"><rect fill="#F1F1F1" height="48" rx="2.5" ry="2.5" style="stroke:#181818;stroke-width:0.5;" width="171.8906" x="409.44" y="1815"/><ellipse cx="424.44" cy="1831" fill="#ADD1B2" rx="11" ry="11" style="stroke:#181818;stroke-width:1;"/><path d="M426.9131,1837.1431 Q426.3321,1837.4419 425.6929,1837.5913 Q425.0538,1837.7407 424.3482,1837.7407 Q421.8414,1837.7407 420.5215,1836.0889 Q419.2017,1834.437 419.2017,1831.3159 Q419.2017,1828.1865 420.5215,1826.5347 Q421.8414,1824.8828 424.3482,1824.8828 Q425.0538,1824.8828 425.7012,1825.0322 Q426.3487,1825.1816 426.9131,1825.4805 L426.9131,1828.2031 Q426.2823,1827.6221 425.6888,1827.3523 Q425.0953,1827.0825 424.4644,1827.0825 Q423.1197,1827.0825 422.4349,1828.1492 Q421.7501,1829.2158 421.7501,1831.3159 Q421.7501,1833.4077 422.4349,1834.4744 Q423.1197,1835.541 424.4644,1835.541 Q425.0953,1835.541 425.6888,1835.2712 Q426.2823,1835.0015 426.9131,1834.4204 Z " fill="#000000"/><text fill="#000000" font-family="sans-serif" font-size="14" lengthAdjust="spacing" textLength="139.8906" x="438.44" y="1836.291">RimozioneController</text><line style="stroke:#181818;stroke-width:0.5;" x1="410.44" x2="580.3306" y1="1847" y2="1847"/><line style="stroke:#181818;stroke-width:0.5;" x1="410.44" x2="580.3306" y1="1855" y2="1855"/></g><!--class AggiuntaLibroController--><g class="entity" data-entity="AggiuntaLibroController" data-source-line="13" data-uid="ent0009" id="entity_AggiuntaLibroController"><rect fill="#F1F1F1" height="48" rx="2.5" ry="2.5" style="stroke:#181818;stroke-width:0.5;" width="196.3223" x="94.79" y="2203"/><ellipse cx="109.79" cy="2219" fill="#ADD1B2" rx="11" ry="11" style="stroke:#181818;stroke-width:1;"/><path d="M112.2631,2225.1431 Q111.6821,2225.4419 111.0429,2225.5913 Q110.4038,2225.7407 109.6982,2225.7407 Q107.1914,2225.7407 105.8715,2224.0889 Q104.5517,2222.437 104.5517,2219.3159 Q104.5517,2216.1865 105.8715,2214.5347 Q107.1914,2212.8828 109.6982,2212.8828 Q110.4038,2212.8828 111.0512,2213.0322 Q111.6987,2213.1816 112.2631,2213.4805 L112.2631,2216.2031 Q111.6323,2215.6221 111.0388,2215.3523 Q110.4453,2215.0825 109.8144,2215.0825 Q108.4697,2215.0825 107.7849,2216.1492 Q107.1001,2217.2158 107.1001,2219.3159 Q107.1001,2221.4077 107.7849,2222.4744 Q108.4697,2223.541 109.8144,2223.541 Q110.4453,2223.541 111.0388,2223.2712 Q111.6323,2223.0015 112.2631,2222.4204 Z " fill="#000000"/><text fill="#000000" font-family="sans-serif" font-size="14" lengthAdjust="spacing" textLength="164.3223" x="123.79" y="2224.291">AggiuntaLibroController</text><line style="stroke:#181818;stroke-width:0.5;" x1="95.79" x2="290.1123" y1="2235" y2="2235"/><line style="stroke:#181818;stroke-width:0.5;" x1="95.79" x2="290.1123" y1="2243" y2="2243"/></g><!--class LibriController--><g class="entity" data-entity="LibriController" data-source-line="14" data-uid="ent0010" id="entity_LibriController"><rect fill="#F1F1F1" height="48" rx="2.5" ry="2.5" style="stroke:#181818;stroke-width:0.5;" width="130.2598" x="127.82" y="2120"/><ellipse cx="142.82" cy="2136" fill="#ADD1B2" rx="11" ry="11" style="stroke:#181818;stroke-width:1;"/><path d="M145.2931,2142.1431 Q144.7121,2142.4419 144.0729,2142.5913 Q143.4338,2142.7407 142.7282,2142.7407 Q140.2214,2142.7407 138.9015,2141.0889 Q137.5817,2139.437 137.5817,2136.3159 Q137.5817,2133.1865 138.9015,2131.5347 Q140.2214,2129.8828 142.7282,2129.8828 Q143.4338,2129.8828 144.0812,2130.0322 Q144.7287,2130.1816 145.2931,2130.4805 L145.2931,2133.2031 Q144.6623,2132.6221 144.0688,2132.3523 Q143.4753,2132.0825 142.8444,2132.0825 Q141.4997,2132.0825 140.8149,2133.1492 Q140.1301,2134.2158 140.1301,2136.3159 Q140.1301,2138.4077 140.8149,2139.4744 Q141.4997,2140.541 142.8444,2140.541 Q143.4753,2140.541 144.0688,2140.2712 Q144.6623,2140.0015 145.2931,2139.4204 Z " fill="#000000"/><text fill="#000000" font-family="sans-serif" font-size="14" lengthAdjust="spacing" textLength="98.2598" x="156.82" y="2141.291">LibriController</text><line style="stroke:#181818;stroke-width:0.5;" x1="128.82" x2="257.0798" y1="2152" y2="2152"/><line style="stroke:#181818;stroke-width:0.5;" x1="128.82" x2="257.0798" y1="2160" y2="2160"/></g><!--class ModificaLibroController--><g class="entity" data-entity="ModificaLibroController" data-source-line="15" data-uid="ent0011" id="entity_ModificaLibroController"><rect fill="#F1F1F1" height="48" rx="2.5" ry="2.5" style="stroke:#181818;stroke-width:0.5;" width="192.4258" x="399.17" y="2203"/><ellipse cx="414.17" cy="2219" fill="#ADD1B2" rx="11" ry="11" style="stroke:#181818;stroke-width:1;"/><path d="M416.6431,2225.1431 Q416.0621,2225.4419 415.4229,2225.5913 Q414.7838,2225.7407 414.0782,2225.7407 Q411.5714,2225.7407 410.2515,2224.0889 Q408.9317,2222.437 408.9317,2219.3159 Q408.9317,2216.1865 410.2515,2214.5347 Q411.5714,2212.8828 414.0782,2212.8828 Q414.7838,2212.8828 415.4312,2213.0322 Q416.0787,2213.1816 416.6431,2213.4805 L416.6431,2216.2031 Q416.0123,2215.6221 415.4188,2215.3523 Q414.8253,2215.0825 414.1944,2215.0825 Q412.8497,2215.0825 412.1649,2216.1492 Q411.4801,2217.2158 411.4801,2219.3159 Q411.4801,2221.4077 412.1649,2222.4744 Q412.8497,2223.541 414.1944,2223.541 Q414.8253,2223.541 415.4188,2223.2712 Q416.0123,2223.0015 416.6431,2222.4204 Z " fill="#000000"/><text fill="#000000" font-family="sans-serif" font-size="14" lengthAdjust="spacing" textLength="160.4258" x="428.17" y="2224.291">ModificaLibroController</text><line style="stroke:#181818;stroke-width:0.5;" x1="400.17" x2="590.5958" y1="2235" y2="2235"/><line style="stroke:#181818;stroke-width:0.5;" x1="400.17" x2="590.5958" y1="2243" y2="2243"/></g><!--class EstensionePrestitoController--><g class="entity" data-entity="EstensionePrestitoController" data-source-line="19" data-uid="ent0013" id="entity_EstensionePrestitoController"><rect fill="#F1F1F1" height="48" rx="2.5" ry="2.5" style="stroke:#181818;stroke-width:0.5;" width="224.4043" x="80.75" y="1997"/><ellipse cx="95.75" cy="2013" fill="#ADD1B2" rx="11" ry="11" style="stroke:#181818;stroke-width:1;"/><path d="M98.2231,2019.1431 Q97.6421,2019.4419 97.0029,2019.5913 Q96.3638,2019.7407 95.6582,2019.7407 Q93.1514,2019.7407 91.8315,2018.0889 Q90.5117,2016.437 90.5117,2013.3159 Q90.5117,2010.1865 91.8315,2008.5347 Q93.1514,2006.8828 95.6582,2006.8828 Q96.3638,2006.8828 97.0112,2007.0322 Q97.6587,2007.1816 98.2231,2007.4805 L98.2231,2010.2031 Q97.5923,2009.6221 96.9988,2009.3523 Q96.4053,2009.0825 95.7744,2009.0825 Q94.4297,2009.0825 93.7449,2010.1492 Q93.0601,2011.2158 93.0601,2013.3159 Q93.0601,2015.4077 93.7449,2016.4744 Q94.4297,2017.541 95.7744,2017.541 Q96.4053,2017.541 96.9988,2017.2712 Q97.5923,2017.0015 98.2231,2016.4204 Z " fill="#000000"/><text fill="#000000" font-family="sans-serif" font-size="14" lengthAdjust="spacing" textLength="192.4043" x="109.75" y="2018.291">EstensionePrestitoController</text><line style="stroke:#181818;stroke-width:0.5;" x1="81.75" x2="304.1543" y1="2029" y2="2029"/><line style="stroke:#181818;stroke-width:0.5;" x1="81.75" x2="304.1543" y1="2037" y2="2037"/></g><!--class PrestitiController--><g class="entity" data-entity="PrestitiController" data-source-line="20" data-uid="ent0014" id="entity_PrestitiController"><rect fill="#F1F1F1" height="48" rx="2.5" ry="2.5" style="stroke:#181818;stroke-width:0.5;" width="147.1309" x="119.39" y="1914"/><ellipse cx="134.39" cy="1930" fill="#ADD1B2" rx="11" ry="11" style="stroke:#181818;stroke-width:1;"/><path d="M136.8631,1936.1431 Q136.2821,1936.4419 135.6429,1936.5913 Q135.0038,1936.7407 134.2982,1936.7407 Q131.7914,1936.7407 130.4715,1935.0889 Q129.1517,1933.437 129.1517,1930.3159 Q129.1517,1927.1865 130.4715,1925.5347 Q131.7914,1923.8828 134.2982,1923.8828 Q135.0038,1923.8828 135.6512,1924.0322 Q136.2987,1924.1816 136.8631,1924.4805 L136.8631,1927.2031 Q136.2323,1926.6221 135.6388,1926.3523 Q135.0453,1926.0825 134.4144,1926.0825 Q133.0697,1926.0825 132.3849,1927.1492 Q131.7001,1928.2158 131.7001,1930.3159 Q131.7001,1932.4077 132.3849,1933.4744 Q133.0697,1934.541 134.4144,1934.541 Q135.0453,1934.541 135.6388,1934.2712 Q136.2323,1934.0015 136.8631,1933.4204 Z " fill="#000000"/><text fill="#000000" font-family="sans-serif" font-size="14" lengthAdjust="spacing" textLength="115.1309" x="148.39" y="1935.291">PrestitiController</text><line style="stroke:#181818;stroke-width:0.5;" x1="120.39" x2="265.5209" y1="1946" y2="1946"/><line style="stroke:#181818;stroke-width:0.5;" x1="120.39" x2="265.5209" y1="1954" y2="1954"/></g><!--class RegistazionePrestitoController--><g class="entity" data-entity="RegistazionePrestitoController" data-source-line="21" data-uid="ent0015" id="entity_RegistazionePrestitoController"><rect fill="#F1F1F1" height="48" rx="2.5" ry="2.5" style="stroke:#181818;stroke-width:0.5;" width="238.377" x="376.19" y="1997"/><ellipse cx="391.19" cy="2013" fill="#ADD1B2" rx="11" ry="11" style="stroke:#181818;stroke-width:1;"/><path d="M393.6631,2019.1431 Q393.0821,2019.4419 392.4429,2019.5913 Q391.8038,2019.7407 391.0982,2019.7407 Q388.5914,2019.7407 387.2715,2018.0889 Q385.9517,2016.437 385.9517,2013.3159 Q385.9517,2010.1865 387.2715,2008.5347 Q388.5914,2006.8828 391.0982,2006.8828 Q391.8038,2006.8828 392.4512,2007.0322 Q393.0987,2007.1816 393.6631,2007.4805 L393.6631,2010.2031 Q393.0323,2009.6221 392.4388,2009.3523 Q391.8453,2009.0825 391.2144,2009.0825 Q389.8697,2009.0825 389.1849,2010.1492 Q388.5001,2011.2158 388.5001,2013.3159 Q388.5001,2015.4077 389.1849,2016.4744 Q389.8697,2017.541 391.2144,2017.541 Q391.8453,2017.541 392.4388,2017.2712 Q393.0323,2017.0015 393.6631,2016.4204 Z " fill="#000000"/><text fill="#000000" font-family="sans-serif" font-size="14" lengthAdjust="spacing" textLength="206.377" x="405.19" y="2018.291">RegistazionePrestitoController</text><line style="stroke:#181818;stroke-width:0.5;" x1="377.19" x2="613.567" y1="2029" y2="2029"/><line style="stroke:#181818;stroke-width:0.5;" x1="377.19" x2="613.567" y1="2037" y2="2037"/></g><!--class AggiuntaUtenteController--><g class="entity" data-entity="AggiuntaUtenteController" data-source-line="25" data-uid="ent0017" id="entity_AggiuntaUtenteController"><rect fill="#F1F1F1" height="48" rx="2.5" ry="2.5" style="stroke:#181818;stroke-width:0.5;" width="206.1318" x="674.86" y="2203"/><ellipse cx="689.86" cy="2219" fill="#ADD1B2" rx="11" ry="11" style="stroke:#181818;stroke-width:1;"/><path d="M692.3331,2225.1431 Q691.7521,2225.4419 691.1129,2225.5913 Q690.4738,2225.7407 689.7682,2225.7407 Q687.2614,2225.7407 685.9415,2224.0889 Q684.6217,2222.437 684.6217,2219.3159 Q684.6217,2216.1865 685.9415,2214.5347 Q687.2614,2212.8828 689.7682,2212.8828 Q690.4738,2212.8828 691.1212,2213.0322 Q691.7687,2213.1816 692.3331,2213.4805 L692.3331,2216.2031 Q691.7023,2215.6221 691.1088,2215.3523 Q690.5153,2215.0825 689.8844,2215.0825 Q688.5397,2215.0825 687.8549,2216.1492 Q687.1701,2217.2158 687.1701,2219.3159 Q687.1701,2221.4077 687.8549,2222.4744 Q688.5397,2223.541 689.8844,2223.541 Q690.5153,2223.541 691.1088,2223.2712 Q691.7023,2223.0015 692.3331,2222.4204 Z " fill="#000000"/><text fill="#000000" font-family="sans-serif" font-size="14" lengthAdjust="spacing" textLength="174.1318" x="703.86" y="2224.291">AggiuntaUtenteController</text><line style="stroke:#181818;stroke-width:0.5;" x1="675.86" x2="879.9918" y1="2235" y2="2235"/><line style="stroke:#181818;stroke-width:0.5;" x1="675.86" x2="879.9918" y1="2243" y2="2243"/></g><!--class UtentiController--><g class="entity" data-entity="UtentiController" data-source-line="26" data-uid="ent0018" id="entity_UtentiController"><rect fill="#F1F1F1" height="48" rx="2.5" ry="2.5" style="stroke:#181818;stroke-width:0.5;" width="140.8691" x="707.49" y="2120"/><ellipse cx="722.49" cy="2136" fill="#ADD1B2" rx="11" ry="11" style="stroke:#181818;stroke-width:1;"/><path d="M724.9631,2142.1431 Q724.3821,2142.4419 723.7429,2142.5913 Q723.1038,2142.7407 722.3982,2142.7407 Q719.8914,2142.7407 718.5715,2141.0889 Q717.2517,2139.437 717.2517,2136.3159 Q717.2517,2133.1865 718.5715,2131.5347 Q719.8914,2129.8828 722.3982,2129.8828 Q723.1038,2129.8828 723.7512,2130.0322 Q724.3987,2130.1816 724.9631,2130.4805 L724.9631,2133.2031 Q724.3323,2132.6221 723.7388,2132.3523 Q723.1453,2132.0825 722.5144,2132.0825 Q721.1697,2132.0825 720.4849,2133.1492 Q719.8001,2134.2158 719.8001,2136.3159 Q719.8001,2138.4077 720.4849,2139.4744 Q721.1697,2140.541 722.5144,2140.541 Q723.1453,2140.541 723.7388,2140.2712 Q724.3323,2140.0015 724.9631,2139.4204 Z " fill="#000000"/><text fill="#000000" font-family="sans-serif" font-size="14" lengthAdjust="spacing" textLength="108.8691" x="736.49" y="2141.291">UtentiController</text><line style="stroke:#181818;stroke-width:0.5;" x1="708.49" x2="847.3591" y1="2152" y2="2152"/><line style="stroke:#181818;stroke-width:0.5;" x1="708.49" x2="847.3591" y1="2160" y2="2160"/></g><!--class ModificaUtenteController--><g class="entity" data-entity="ModificaUtenteController" data-source-line="27" data-uid="ent0019" id="entity_ModificaUtenteController"><rect fill="#F1F1F1" height="48" rx="2.5" ry="2.5" style="stroke:#181818;stroke-width:0.5;" width="202.2354" x="940.99" y="2203"/><ellipse cx="955.99" cy="2219" fill="#ADD1B2" rx="11" ry="11" style="stroke:#181818;stroke-width:1;"/><path d="M958.4631,2225.1431 Q957.8821,2225.4419 957.2429,2225.5913 Q956.6038,2225.7407 955.8982,2225.7407 Q953.3914,2225.7407 952.0715,2224.0889 Q950.7517,2222.437 950.7517,2219.3159 Q950.7517,2216.1865 952.0715,2214.5347 Q953.3914,2212.8828 955.8982,2212.8828 Q956.6038,2212.8828 957.2512,2213.0322 Q957.8987,2213.1816 958.4631,2213.4805 L958.4631,2216.2031 Q957.8323,2215.6221 957.2388,2215.3523 Q956.6453,2215.0825 956.0144,2215.0825 Q954.6697,2215.0825 953.9849,2216.1492 Q953.3001,2217.2158 953.3001,2219.3159 Q953.3001,2221.4077 953.9849,2222.4744 Q954.6697,2223.541 956.0144,2223.541 Q956.6453,2223.541 957.2388,2223.2712 Q957.8323,2223.0015 958.4631,2222.4204 Z " fill="#000000"/><text fill="#000000" font-family="sans-serif" font-size="14" lengthAdjust="spacing" textLength="170.2354" x="969.99" y="2224.291">ModificaUtenteController</text><line style="stroke:#181818;stroke-width:0.5;" x1="941.99" x2="1142.2254" y1="2235" y2="2235"/><line style="stroke:#181818;stroke-width:0.5;" x1="941.99" x2="1142.2254" y1="2243" y2="2243"/></g><!--class Biblioteca--><g class="entity" data-entity="Biblioteca" data-source-line="34" data-uid="ent0021" id="entity_Biblioteca"><rect fill="#F1F1F1" height="48" rx="2.5" ry="2.5" style="stroke:#181818;stroke-width:0.5;" width="97.543" x="144.18" y="991"/><ellipse cx="159.18" cy="1007" fill="#ADD1B2" rx="11" ry="11" style="stroke:#181818;stroke-width:1;"/><path d="M161.6531,1013.1431 Q161.0721,1013.4419 160.4329,1013.5913 Q159.7938,1013.7407 159.0882,1013.7407 Q156.5814,1013.7407 155.2615,1012.0889 Q153.9417,1010.437 153.9417,1007.3159 Q153.9417,1004.1865 155.2615,1002.5347 Q156.5814,1000.8828 159.0882,1000.8828 Q159.7938,1000.8828 160.4412,1001.0322 Q161.0887,1001.1816 161.6531,1001.4805 L161.6531,1004.2031 Q161.0223,1003.6221 160.4288,1003.3523 Q159.8353,1003.0825 159.2044,1003.0825 Q157.8597,1003.0825 157.1749,1004.1492 Q156.4901,1005.2158 156.4901,1007.3159 Q156.4901,1009.4077 157.1749,1010.4744 Q157.8597,1011.541 159.2044,1011.541 Q159.8353,1011.541 160.4288,1011.2712 Q161.0223,1011.0015 161.6531,1010.4204 Z " fill="#000000"/><text fill="#000000" font-family="sans-serif" font-size="14" lengthAdjust="spacing" textLength="65.543" x="173.18" y="1012.291">Biblioteca</text><line style="stroke:#181818;stroke-width:0.5;" x1="145.18" x2="240.723" y1="1023" y2="1023"/><line style="stroke:#181818;stroke-width:0.5;" x1="145.18" x2="240.723" y1="1031" y2="1031"/></g><!--class Matricola--><g class="entity" data-entity="Matricola" data-source-line="35" data-uid="ent0022" id="entity_Matricola"><rect fill="#F1F1F1" height="48" rx="2.5" ry="2.5" style="stroke:#181818;stroke-width:0.5;" width="94.3506" x="145.78" y="908"/><ellipse cx="160.78" cy="924" fill="#ADD1B2" rx="11" ry="11" style="stroke:#181818;stroke-width:1;"/><path d="M163.2531,930.1431 Q162.6721,930.4419 162.0329,930.5913 Q161.3938,930.7407 160.6882,930.7407 Q158.1814,930.7407 156.8615,929.0889 Q155.5417,927.437 155.5417,924.3159 Q155.5417,921.1865 156.8615,919.5347 Q158.1814,917.8828 160.6882,917.8828 Q161.3938,917.8828 162.0412,918.0322 Q162.6887,918.1816 163.2531,918.4805 L163.2531,921.2031 Q162.6223,920.6221 162.0288,920.3523 Q161.4353,920.0825 160.8044,920.0825 Q159.4597,920.0825 158.7749,921.1492 Q158.0901,922.2158 158.0901,924.3159 Q158.0901,926.4077 158.7749,927.4744 Q159.4597,928.541 160.8044,928.541 Q161.4353,928.541 162.0288,928.2712 Q162.6223,928.0015 163.2531,927.4204 Z " fill="#000000"/><text fill="#000000" font-family="sans-serif" font-size="14" lengthAdjust="spacing" textLength="62.3506" x="174.78" y="929.291">Matricola</text><line style="stroke:#181818;stroke-width:0.5;" x1="146.78" x2="239.1306" y1="940" y2="940"/><line style="stroke:#181818;stroke-width:0.5;" x1="146.78" x2="239.1306" y1="948" y2="948"/></g><!--class ISBN--><g class="entity" data-entity="ISBN" data-source-line="36" data-uid="ent0023" id="entity_ISBN"><rect fill="#F1F1F1" height="48" rx="2.5" ry="2.5" style="stroke:#181818;stroke-width:0.5;" width="61.9688" x="161.97" y="825"/><ellipse cx="176.97" cy="841" fill="#ADD1B2" rx="11" ry="11" style="stroke:#181818;stroke-width:1;"/><path d="M179.4431,847.1431 Q178.8621,847.4419 178.2229,847.5913 Q177.5838,847.7407 176.8782,847.7407 Q174.3714,847.7407 173.0515,846.0889 Q171.7317,844.437 171.7317,841.3159 Q171.7317,838.1865 173.0515,836.5347 Q174.3714,834.8828 176.8782,834.8828 Q177.5838,834.8828 178.2312,835.0322 Q178.8787,835.1816 179.4431,835.4805 L179.4431,838.2031 Q178.8123,837.6221 178.2188,837.3523 Q177.6253,837.0825 176.9944,837.0825 Q175.6497,837.0825 174.9649,838.1492 Q174.2801,839.2158 174.2801,841.3159 Q174.2801,843.4077 174.9649,844.4744 Q175.6497,845.541 176.9944,845.541 Q177.6253,845.541 178.2188,845.2712 Q178.8123,845.0015 179.4431,844.4204 Z " fill="#000000"/><text fill="#000000" font-family="sans-serif" font-size="14" lengthAdjust="spacing" textLength="29.9688" x="190.97" y="846.291">ISBN</text><line style="stroke:#181818;stroke-width:0.5;" x1="162.97" x2="222.9388" y1="857" y2="857"/><line style="stroke:#181818;stroke-width:0.5;" x1="162.97" x2="222.9388" y1="865" y2="865"/></g><!--class Persona--><g class="entity" data-entity="Persona" data-source-line="37" data-uid="ent0024" id="entity_Persona"><rect fill="#F1F1F1" height="48" rx="2.5" ry="2.5" style="stroke:#181818;stroke-width:0.5;" width="85.4229" x="452.67" y="991"/><ellipse cx="467.67" cy="1007" fill="#A9DCDF" rx="11" ry="11" style="stroke:#181818;stroke-width:1;"/><path d="M467.5333,1002.3481 L466.3795,1007.4199 L468.6954,1007.4199 Z M466.0391,1000.1069 L469.0357,1000.1069 L472.3809,1012.5 L469.9322,1012.5 L469.1685,1009.437 L465.8897,1009.437 L465.1427,1012.5 L462.6939,1012.5 Z " fill="#000000"/><text fill="#000000" font-family="sans-serif" font-size="14" font-style="italic" lengthAdjust="spacing" textLength="53.4229" x="481.67" y="1012.291">Persona</text><line style="stroke:#181818;stroke-width:0.5;" x1="453.67" x2="537.0929" y1="1023" y2="1023"/><line style="stroke:#181818;stroke-width:0.5;" x1="453.67" x2="537.0929" y1="1031" y2="1031"/></g><!--class FormatoCampiErratoException--><g class="entity" data-entity="FormatoCampiErratoException" data-source-line="38" data-uid="ent0025" id="entity_FormatoCampiErratoException"><rect fill="#F1F1F1" height="48" rx="2.5" ry="2.5" style="stroke:#181818;stroke-width:0.5;" width="238.958" x="375.9" y="908"/><ellipse cx="390.9" cy="924" fill="#D94321" rx="11" ry="11" style="stroke:#181818;stroke-width:1;"/><path d="M395.4107,930.5 L392.879,930.5 L390.5133,926.3994 L388.1559,930.5 L385.6241,930.5 L389.2599,924.208 L385.7237,918.1069 L388.2555,918.1069 L390.5133,922.0498 L392.7794,918.1069 L395.3111,918.1069 L391.7916,924.208 Z " fill="#000000"/><text fill="#000000" font-family="sans-serif" font-size="14" lengthAdjust="spacing" textLength="206.958" x="404.9" y="929.291">FormatoCampiErratoException</text><line style="stroke:#181818;stroke-width:0.5;" x1="376.9" x2="613.858" y1="940" y2="940"/><line style="stroke:#181818;stroke-width:0.5;" x1="376.9" x2="613.858" y1="948" y2="948"/></g><!--class OggettoGiaPresenteException--><g class="entity" data-entity="OggettoGiaPresenteException" data-source-line="39" data-uid="ent0026" id="entity_OggettoGiaPresenteException"><rect fill="#F1F1F1" height="48" rx="2.5" ry="2.5" style="stroke:#181818;stroke-width:0.5;" width="233.5576" x="378.6" y="825"/><ellipse cx="393.6" cy="841" fill="#D94321" rx="11" ry="11" style="stroke:#181818;stroke-width:1;"/><path d="M398.1107,847.5 L395.579,847.5 L393.2133,843.3994 L390.8559,847.5 L388.3241,847.5 L391.9599,841.208 L388.4237,835.1069 L390.9555,835.1069 L393.2133,839.0498 L395.4794,835.1069 L398.0111,835.1069 L394.4916,841.208 Z " fill="#000000"/><text fill="#000000" font-family="sans-serif" font-size="14" lengthAdjust="spacing" textLength="201.5576" x="407.6" y="846.291">OggettoGiaPresenteException</text><line style="stroke:#181818;stroke-width:0.5;" x1="379.6" x2="611.1576" y1="857" y2="857"/><line style="stroke:#181818;stroke-width:0.5;" x1="379.6" x2="611.1576" y1="865" y2="865"/></g><!--class Autore--><g class="entity" data-entity="Autore" data-source-line="42" data-uid="ent0028" id="entity_Autore"><rect fill="#F1F1F1" height="48" rx="2.5" ry="2.5" style="stroke:#181818;stroke-width:0.5;" width="77.7119" x="154.1" y="1585"/><ellipse cx="169.1" cy="1601" fill="#ADD1B2" rx="11" ry="11" style="stroke:#181818;stroke-width:1;"/><path d="M171.5731,1607.1431 Q170.9921,1607.4419 170.3529,1607.5913 Q169.7138,1607.7407 169.0082,1607.7407 Q166.5014,1607.7407 165.1815,1606.0889 Q163.8617,1604.437 163.8617,1601.3159 Q163.8617,1598.1865 165.1815,1596.5347 Q166.5014,1594.8828 169.0082,1594.8828 Q169.7138,1594.8828 170.3612,1595.0322 Q171.0087,1595.1816 171.5731,1595.4805 L171.5731,1598.2031 Q170.9423,1597.6221 170.3488,1597.3523 Q169.7553,1597.0825 169.1244,1597.0825 Q167.7797,1597.0825 167.0949,1598.1492 Q166.4101,1599.2158 166.4101,1601.3159 Q166.4101,1603.4077 167.0949,1604.4744 Q167.7797,1605.541 169.1244,1605.541 Q169.7553,1605.541 170.3488,1605.2712 Q170.9423,1605.0015 171.5731,1604.4204 Z " fill="#000000"/><text fill="#000000" font-family="sans-serif" font-size="14" lengthAdjust="spacing" textLength="45.7119" x="183.1" y="1606.291">Autore</text><line style="stroke:#181818;stroke-width:0.5;" x1="155.1" x2="230.8119" y1="1617" y2="1617"/><line style="stroke:#181818;stroke-width:0.5;" x1="155.1" x2="230.8119" y1="1625" y2="1625"/></g><!--class Libri--><g class="entity" data-entity="Libri" data-source-line="43" data-uid="ent0029" id="entity_Libri"><rect fill="#F1F1F1" height="48" rx="2.5" ry="2.5" style="stroke:#181818;stroke-width:0.5;" width="62.0986" x="161.9" y="1502"/><ellipse cx="176.9" cy="1518" fill="#ADD1B2" rx="11" ry="11" style="stroke:#181818;stroke-width:1;"/><path d="M179.3731,1524.1431 Q178.7921,1524.4419 178.1529,1524.5913 Q177.5138,1524.7407 176.8082,1524.7407 Q174.3014,1524.7407 172.9815,1523.0889 Q171.6617,1521.437 171.6617,1518.3159 Q171.6617,1515.1865 172.9815,1513.5347 Q174.3014,1511.8828 176.8082,1511.8828 Q177.5138,1511.8828 178.1612,1512.0322 Q178.8087,1512.1816 179.3731,1512.4805 L179.3731,1515.2031 Q178.7423,1514.6221 178.1488,1514.3523 Q177.5553,1514.0825 176.9244,1514.0825 Q175.5797,1514.0825 174.8949,1515.1492 Q174.2101,1516.2158 174.2101,1518.3159 Q174.2101,1520.4077 174.8949,1521.4744 Q175.5797,1522.541 176.9244,1522.541 Q177.5553,1522.541 178.1488,1522.2712 Q178.7423,1522.0015 179.3731,1521.4204 Z " fill="#000000"/><text fill="#000000" font-family="sans-serif" font-size="14" lengthAdjust="spacing" textLength="30.0986" x="190.9" y="1523.291">Libri</text><line style="stroke:#181818;stroke-width:0.5;" x1="162.9" x2="222.9986" y1="1534" y2="1534"/><line style="stroke:#181818;stroke-width:0.5;" x1="162.9" x2="222.9986" y1="1542" y2="1542"/></g><!--class Libro--><g class="entity" data-entity="Libro" data-source-line="44" data-uid="ent0030" id="entity_Libro"><rect fill="#F1F1F1" height="48" rx="2.5" ry="2.5" style="stroke:#181818;stroke-width:0.5;" width="66.6514" x="462.06" y="1585"/><ellipse cx="477.06" cy="1601" fill="#ADD1B2" rx="11" ry="11" style="stroke:#181818;stroke-width:1;"/><path d="M479.5331,1607.1431 Q478.9521,1607.4419 478.3129,1607.5913 Q477.6738,1607.7407 476.9682,1607.7407 Q474.4614,1607.7407 473.1415,1606.0889 Q471.8217,1604.437 471.8217,1601.3159 Q471.8217,1598.1865 473.1415,1596.5347 Q474.4614,1594.8828 476.9682,1594.8828 Q477.6738,1594.8828 478.3212,1595.0322 Q478.9687,1595.1816 479.5331,1595.4805 L479.5331,1598.2031 Q478.9023,1597.6221 478.3088,1597.3523 Q477.7153,1597.0825 477.0844,1597.0825 Q475.7397,1597.0825 475.0549,1598.1492 Q474.3701,1599.2158 474.3701,1601.3159 Q474.3701,1603.4077 475.0549,1604.4744 Q475.7397,1605.541 477.0844,1605.541 Q477.7153,1605.541 478.3088,1605.2712 Q478.9023,1605.0015 479.5331,1604.4204 Z " fill="#000000"/><text fill="#000000" font-family="sans-serif" font-size="14" lengthAdjust="spacing" textLength="34.6514" x="491.06" y="1606.291">Libro</text><line style="stroke:#181818;stroke-width:0.5;" x1="463.06" x2="527.7114" y1="1617" y2="1617"/><line style="stroke:#181818;stroke-width:0.5;" x1="463.06" x2="527.7114" y1="1625" y2="1625"/></g><!--class LibroGiaPresenteException--><g class="entity" data-entity="LibroGiaPresenteException" data-source-line="45" data-uid="ent0031" id="entity_LibroGiaPresenteException"><rect fill="#F1F1F1" height="48" rx="2.5" ry="2.5" style="stroke:#181818;stroke-width:0.5;" width="213.002" x="388.88" y="1502"/><ellipse cx="403.88" cy="1518" fill="#D94321" rx="11" ry="11" style="stroke:#181818;stroke-width:1;"/><path d="M408.3907,1524.5 L405.859,1524.5 L403.4933,1520.3994 L401.1359,1524.5 L398.6041,1524.5 L402.2399,1518.208 L398.7037,1512.1069 L401.2355,1512.1069 L403.4933,1516.0498 L405.7594,1512.1069 L408.2911,1512.1069 L404.7716,1518.208 Z " fill="#000000"/><text fill="#000000" font-family="sans-serif" font-size="14" lengthAdjust="spacing" textLength="181.002" x="417.88" y="1523.291">LibroGiaPresenteException</text><line style="stroke:#181818;stroke-width:0.5;" x1="389.88" x2="600.882" y1="1534" y2="1534"/><line style="stroke:#181818;stroke-width:0.5;" x1="389.88" x2="600.882" y1="1542" y2="1542"/></g><!--class Prestiti--><g class="entity" data-entity="Prestiti" data-source-line="49" data-uid="ent0033" id="entity_Prestiti"><rect fill="#F1F1F1" height="48" rx="2.5" ry="2.5" style="stroke:#181818;stroke-width:0.5;" width="78.9697" x="153.47" y="1379"/><ellipse cx="168.47" cy="1395" fill="#ADD1B2" rx="11" ry="11" style="stroke:#181818;stroke-width:1;"/><path d="M170.9431,1401.1431 Q170.3621,1401.4419 169.7229,1401.5913 Q169.0838,1401.7407 168.3782,1401.7407 Q165.8714,1401.7407 164.5515,1400.0889 Q163.2317,1398.437 163.2317,1395.3159 Q163.2317,1392.1865 164.5515,1390.5347 Q165.8714,1388.8828 168.3782,1388.8828 Q169.0838,1388.8828 169.7312,1389.0322 Q170.3787,1389.1816 170.9431,1389.4805 L170.9431,1392.2031 Q170.3123,1391.6221 169.7188,1391.3523 Q169.1253,1391.0825 168.4944,1391.0825 Q167.1497,1391.0825 166.4649,1392.1492 Q165.7801,1393.2158 165.7801,1395.3159 Q165.7801,1397.4077 166.4649,1398.4744 Q167.1497,1399.541 168.4944,1399.541 Q169.1253,1399.541 169.7188,1399.2712 Q170.3123,1399.0015 170.9431,1398.4204 Z " fill="#000000"/><text fill="#000000" font-family="sans-serif" font-size="14" lengthAdjust="spacing" textLength="46.9697" x="182.47" y="1400.291">Prestiti</text><line style="stroke:#181818;stroke-width:0.5;" x1="154.47" x2="231.4397" y1="1411" y2="1411"/><line style="stroke:#181818;stroke-width:0.5;" x1="154.47" x2="231.4397" y1="1419" y2="1419"/></g><!--class Prestito--><g class="entity" data-entity="Prestito" data-source-line="50" data-uid="ent0034" id="entity_Prestito"><rect fill="#F1F1F1" height="48" rx="2.5" ry="2.5" style="stroke:#181818;stroke-width:0.5;" width="83.5225" x="151.19" y="1296"/><ellipse cx="166.19" cy="1312" fill="#ADD1B2" rx="11" ry="11" style="stroke:#181818;stroke-width:1;"/><path d="M168.6631,1318.1431 Q168.0821,1318.4419 167.4429,1318.5913 Q166.8038,1318.7407 166.0982,1318.7407 Q163.5914,1318.7407 162.2715,1317.0889 Q160.9517,1315.437 160.9517,1312.3159 Q160.9517,1309.1865 162.2715,1307.5347 Q163.5914,1305.8828 166.0982,1305.8828 Q166.8038,1305.8828 167.4512,1306.0322 Q168.0987,1306.1816 168.6631,1306.4805 L168.6631,1309.2031 Q168.0323,1308.6221 167.4388,1308.3523 Q166.8453,1308.0825 166.2144,1308.0825 Q164.8697,1308.0825 164.1849,1309.1492 Q163.5001,1310.2158 163.5001,1312.3159 Q163.5001,1314.4077 164.1849,1315.4744 Q164.8697,1316.541 166.2144,1316.541 Q166.8453,1316.541 167.4388,1316.2712 Q168.0323,1316.0015 168.6631,1315.4204 Z " fill="#000000"/><text fill="#000000" font-family="sans-serif" font-size="14" lengthAdjust="spacing" textLength="51.5225" x="180.19" y="1317.291">Prestito</text><line style="stroke:#181818;stroke-width:0.5;" x1="152.19" x2="233.7125" y1="1328" y2="1328"/><line style="stroke:#181818;stroke-width:0.5;" x1="152.19" x2="233.7125" y1="1336" y2="1336"/></g><!--class Utente--><g class="entity" data-entity="Utente" data-source-line="54" data-uid="ent0036" id="entity_Utente"><rect fill="#F1F1F1" height="48" rx="2.5" ry="2.5" style="stroke:#181818;stroke-width:0.5;" width="76.4609" x="154.72" y="1173"/><ellipse cx="169.72" cy="1189" fill="#ADD1B2" rx="11" ry="11" style="stroke:#181818;stroke-width:1;"/><path d="M172.1931,1195.1431 Q171.6121,1195.4419 170.9729,1195.5913 Q170.3338,1195.7407 169.6282,1195.7407 Q167.1214,1195.7407 165.8015,1194.0889 Q164.4817,1192.437 164.4817,1189.3159 Q164.4817,1186.1865 165.8015,1184.5347 Q167.1214,1182.8828 169.6282,1182.8828 Q170.3338,1182.8828 170.9812,1183.0322 Q171.6287,1183.1816 172.1931,1183.4805 L172.1931,1186.2031 Q171.5623,1185.6221 170.9688,1185.3523 Q170.3753,1185.0825 169.7444,1185.0825 Q168.3997,1185.0825 167.7149,1186.1492 Q167.0301,1187.2158 167.0301,1189.3159 Q167.0301,1191.4077 167.7149,1192.4744 Q168.3997,1193.541 169.7444,1193.541 Q170.3753,1193.541 170.9688,1193.2712 Q171.5623,1193.0015 172.1931,1192.4204 Z " fill="#000000"/><text fill="#000000" font-family="sans-serif" font-size="14" lengthAdjust="spacing" textLength="44.4609" x="183.72" y="1194.291">Utente</text><line style="stroke:#181818;stroke-width:0.5;" x1="155.72" x2="230.1809" y1="1205" y2="1205"/><line style="stroke:#181818;stroke-width:0.5;" x1="155.72" x2="230.1809" y1="1213" y2="1213"/></g><!--class Utenti--><g class="entity" data-entity="Utenti" data-source-line="55" data-uid="ent0037" id="entity_Utenti"><rect fill="#F1F1F1" height="48" rx="2.5" ry="2.5" style="stroke:#181818;stroke-width:0.5;" width="72.708" x="156.6" y="1090"/><ellipse cx="171.6" cy="1106" fill="#ADD1B2" rx="11" ry="11" style="stroke:#181818;stroke-width:1;"/><path d="M174.0731,1112.1431 Q173.4921,1112.4419 172.8529,1112.5913 Q172.2138,1112.7407 171.5082,1112.7407 Q169.0014,1112.7407 167.6815,1111.0889 Q166.3617,1109.437 166.3617,1106.3159 Q166.3617,1103.1865 167.6815,1101.5347 Q169.0014,1099.8828 171.5082,1099.8828 Q172.2138,1099.8828 172.8612,1100.0322 Q173.5087,1100.1816 174.0731,1100.4805 L174.0731,1103.2031 Q173.4423,1102.6221 172.8488,1102.3523 Q172.2553,1102.0825 171.6244,1102.0825 Q170.2797,1102.0825 169.5949,1103.1492 Q168.9101,1104.2158 168.9101,1106.3159 Q168.9101,1108.4077 169.5949,1109.4744 Q170.2797,1110.541 171.6244,1110.541 Q172.2553,1110.541 172.8488,1110.2712 Q173.4423,1110.0015 174.0731,1109.4204 Z " fill="#000000"/><text fill="#000000" font-family="sans-serif" font-size="14" lengthAdjust="spacing" textLength="40.708" x="185.6" y="1111.291">Utenti</text><line style="stroke:#181818;stroke-width:0.5;" x1="157.6" x2="228.308" y1="1122" y2="1122"/><line style="stroke:#181818;stroke-width:0.5;" x1="157.6" x2="228.308" y1="1130" y2="1130"/></g><!--class UtenteGiaPresenteException--><g class="entity" data-entity="UtenteGiaPresenteException" data-source-line="56" data-uid="ent0038" id="entity_UtenteGiaPresenteException"><rect fill="#F1F1F1" height="48" rx="2.5" ry="2.5" style="stroke:#181818;stroke-width:0.5;" width="222.8115" x="383.98" y="1173"/><ellipse cx="398.98" cy="1189" fill="#D94321" rx="11" ry="11" style="stroke:#181818;stroke-width:1;"/><path d="M403.4907,1195.5 L400.959,1195.5 L398.5933,1191.3994 L396.2359,1195.5 L393.7041,1195.5 L397.3399,1189.208 L393.8037,1183.1069 L396.3355,1183.1069 L398.5933,1187.0498 L400.8594,1183.1069 L403.3911,1183.1069 L399.8716,1189.208 Z " fill="#000000"/><text fill="#000000" font-family="sans-serif" font-size="14" lengthAdjust="spacing" textLength="190.8115" x="412.98" y="1194.291">UtenteGiaPresenteException</text><line style="stroke:#181818;stroke-width:0.5;" x1="384.98" x2="605.7915" y1="1205" y2="1205"/><line style="stroke:#181818;stroke-width:0.5;" x1="384.98" x2="605.7915" y1="1213" y2="1213"/></g><!--class Archiviabile--><g class="entity" data-entity="Archiviabile" data-source-line="60" data-uid="ent0040" id="entity_Archiviabile"><rect fill="#F1F1F1" height="48" rx="2.5" ry="2.5" style="stroke:#181818;stroke-width:0.5;" width="111.0234" x="722.42" y="1585"/><ellipse cx="737.42" cy="1601" fill="#B4A7E5" rx="11" ry="11" style="stroke:#181818;stroke-width:1;"/><path d="M733.8477,1597.2651 L733.8477,1595.1069 L741.2271,1595.1069 L741.2271,1597.2651 L738.7618,1597.2651 L738.7618,1605.3418 L741.2271,1605.3418 L741.2271,1607.5 L733.8477,1607.5 L733.8477,1605.3418 L736.3131,1605.3418 L736.3131,1597.2651 Z " fill="#000000"/><text fill="#000000" font-family="sans-serif" font-size="14" font-style="italic" lengthAdjust="spacing" textLength="79.0234" x="751.42" y="1606.291">Archiviabile</text><line style="stroke:#181818;stroke-width:0.5;" x1="723.42" x2="832.4434" y1="1617" y2="1617"/><line style="stroke:#181818;stroke-width:0.5;" x1="723.42" x2="832.4434" y1="1625" y2="1625"/></g><!--class Filtro--><g class="entity" data-entity="Filtro" data-source-line="61" data-uid="ent0041" id="entity_Filtro"><rect fill="#F1F1F1" height="48" rx="2.5" ry="2.5" style="stroke:#181818;stroke-width:0.5;" width="67.1641" x="744.35" y="1502"/><ellipse cx="759.35" cy="1518" fill="#EB937F" rx="11" ry="11" style="stroke:#181818;stroke-width:1;"/><path d="M762.9643,1524.5 L755.2445,1524.5 L755.2445,1512.1069 L762.9643,1512.1069 L762.9643,1514.2651 L757.6933,1514.2651 L757.6933,1516.938 L762.4662,1516.938 L762.4662,1519.0962 L757.6933,1519.0962 L757.6933,1522.3418 L762.9643,1522.3418 Z " fill="#000000"/><text fill="#000000" font-family="sans-serif" font-size="14" lengthAdjust="spacing" textLength="35.1641" x="773.35" y="1523.291">Filtro</text><line style="stroke:#181818;stroke-width:0.5;" x1="745.35" x2="810.5141" y1="1534" y2="1534"/><line style="stroke:#181818;stroke-width:0.5;" x1="745.35" x2="810.5141" y1="1542" y2="1542"/></g><!--class Mappabile--><g class="entity" data-entity="Mappabile" data-source-line="62" data-uid="ent0042" id="entity_Mappabile"><rect fill="#F1F1F1" height="48" rx="2.5" ry="2.5" style="stroke:#181818;stroke-width:0.5;" width="101.8496" x="991.19" y="1585"/><ellipse cx="1006.19" cy="1601" fill="#B4A7E5" rx="11" ry="11" style="stroke:#181818;stroke-width:1;"/><path d="M1002.6177,1597.2651 L1002.6177,1595.1069 L1009.9971,1595.1069 L1009.9971,1597.2651 L1007.5318,1597.2651 L1007.5318,1605.3418 L1009.9971,1605.3418 L1009.9971,1607.5 L1002.6177,1607.5 L1002.6177,1605.3418 L1005.0831,1605.3418 L1005.0831,1597.2651 Z " fill="#000000"/><text fill="#000000" font-family="sans-serif" font-size="14" font-style="italic" lengthAdjust="spacing" textLength="69.8496" x="1020.19" y="1606.291">Mappabile</text><line style="stroke:#181818;stroke-width:0.5;" x1="992.19" x2="1092.0396" y1="1617" y2="1617"/><line style="stroke:#181818;stroke-width:0.5;" x1="992.19" x2="1092.0396" y1="1625" y2="1625"/></g><!--class Maschera--><g class="entity" data-entity="Maschera" data-source-line="63" data-uid="ent0043" id="entity_Maschera"><rect fill="#F1F1F1" height="48" rx="2.5" ry="2.5" style="stroke:#181818;stroke-width:0.5;" width="96.0459" x="994.09" y="1502"/><ellipse cx="1009.09" cy="1518" fill="#ADD1B2" rx="11" ry="11" style="stroke:#181818;stroke-width:1;"/><path d="M1011.5631,1524.1431 Q1010.9821,1524.4419 1010.3429,1524.5913 Q1009.7038,1524.7407 1008.9982,1524.7407 Q1006.4914,1524.7407 1005.1715,1523.0889 Q1003.8517,1521.437 1003.8517,1518.3159 Q1003.8517,1515.1865 1005.1715,1513.5347 Q1006.4914,1511.8828 1008.9982,1511.8828 Q1009.7038,1511.8828 1010.3512,1512.0322 Q1010.9987,1512.1816 1011.5631,1512.4805 L1011.5631,1515.2031 Q1010.9323,1514.6221 1010.3388,1514.3523 Q1009.7453,1514.0825 1009.1144,1514.0825 Q1007.7697,1514.0825 1007.0849,1515.1492 Q1006.4001,1516.2158 1006.4001,1518.3159 Q1006.4001,1520.4077 1007.0849,1521.4744 Q1007.7697,1522.541 1009.1144,1522.541 Q1009.7453,1522.541 1010.3388,1522.2712 Q1010.9323,1522.0015 1011.5631,1521.4204 Z " fill="#000000"/><text fill="#000000" font-family="sans-serif" font-size="14" lengthAdjust="spacing" textLength="64.0459" x="1023.09" y="1523.291">Maschera</text><line style="stroke:#181818;stroke-width:0.5;" x1="995.09" x2="1089.1359" y1="1534" y2="1534"/><line style="stroke:#181818;stroke-width:0.5;" x1="995.09" x2="1089.1359" y1="1542" y2="1542"/></g><!--class AvvisoConfermaRimozioneView--><g class="entity" data-entity="AvvisoConfermaRimozioneView" data-source-line="70" data-uid="ent0046" id="entity_AvvisoConfermaRimozioneView"><rect fill="#F1F1F1" height="48" rx="2.5" ry="2.5" style="stroke:#181818;stroke-width:0.5;" width="245.9033" x="70" y="266"/><ellipse cx="85" cy="282" fill="#ADD1B2" rx="11" ry="11" style="stroke:#181818;stroke-width:1;"/><path d="M87.4731,288.1431 Q86.8921,288.4419 86.2529,288.5913 Q85.6138,288.7407 84.9082,288.7407 Q82.4014,288.7407 81.0815,287.0889 Q79.7617,285.437 79.7617,282.3159 Q79.7617,279.1865 81.0815,277.5347 Q82.4014,275.8828 84.9082,275.8828 Q85.6138,275.8828 86.2612,276.0322 Q86.9087,276.1816 87.4731,276.4805 L87.4731,279.2031 Q86.8423,278.6221 86.2488,278.3523 Q85.6553,278.0825 85.0244,278.0825 Q83.6797,278.0825 82.9949,279.1492 Q82.3101,280.2158 82.3101,282.3159 Q82.3101,284.4077 82.9949,285.4744 Q83.6797,286.541 85.0244,286.541 Q85.6553,286.541 86.2488,286.2712 Q86.8423,286.0015 87.4731,285.4204 Z " fill="#000000"/><text fill="#000000" font-family="sans-serif" font-size="14" lengthAdjust="spacing" textLength="213.9033" x="99" y="287.291">AvvisoConfermaRimozioneView</text><line style="stroke:#181818;stroke-width:0.5;" x1="71" x2="314.9033" y1="298" y2="298"/><line style="stroke:#181818;stroke-width:0.5;" x1="71" x2="314.9033" y1="306" y2="306"/></g><!--class MenuView--><g class="entity" data-entity="MenuView" data-source-line="71" data-uid="ent0047" id="entity_MenuView"><rect fill="#F1F1F1" height="48" rx="2.5" ry="2.5" style="stroke:#181818;stroke-width:0.5;" width="101.0225" x="142.44" y="183"/><ellipse cx="157.44" cy="199" fill="#ADD1B2" rx="11" ry="11" style="stroke:#181818;stroke-width:1;"/><path d="M159.9131,205.1431 Q159.3321,205.4419 158.6929,205.5913 Q158.0538,205.7407 157.3482,205.7407 Q154.8414,205.7407 153.5215,204.0889 Q152.2017,202.437 152.2017,199.3159 Q152.2017,196.1865 153.5215,194.5347 Q154.8414,192.8828 157.3482,192.8828 Q158.0538,192.8828 158.7012,193.0322 Q159.3487,193.1816 159.9131,193.4805 L159.9131,196.2031 Q159.2823,195.6221 158.6888,195.3523 Q158.0953,195.0825 157.4644,195.0825 Q156.1197,195.0825 155.4349,196.1492 Q154.7501,197.2158 154.7501,199.3159 Q154.7501,201.4077 155.4349,202.4744 Q156.1197,203.541 157.4644,203.541 Q158.0953,203.541 158.6888,203.2712 Q159.2823,203.0015 159.9131,202.4204 Z " fill="#000000"/><text fill="#000000" font-family="sans-serif" font-size="14" lengthAdjust="spacing" textLength="69.0225" x="171.44" y="204.291">MenuView</text><line style="stroke:#181818;stroke-width:0.5;" x1="143.44" x2="242.4625" y1="215" y2="215"/><line style="stroke:#181818;stroke-width:0.5;" x1="143.44" x2="242.4625" y1="223" y2="223"/></g><!--class LibriView--><g class="entity" data-entity="LibriView" data-source-line="74" data-uid="ent0049" id="entity_LibriView"><rect fill="#F1F1F1" height="48" rx="2.5" ry="2.5" style="stroke:#181818;stroke-width:0.5;" width="93.8857" x="146.01" y="654"/><ellipse cx="161.01" cy="670" fill="#ADD1B2" rx="11" ry="11" style="stroke:#181818;stroke-width:1;"/><path d="M163.4831,676.1431 Q162.9021,676.4419 162.2629,676.5913 Q161.6238,676.7407 160.9182,676.7407 Q158.4114,676.7407 157.0915,675.0889 Q155.7717,673.437 155.7717,670.3159 Q155.7717,667.1865 157.0915,665.5347 Q158.4114,663.8828 160.9182,663.8828 Q161.6238,663.8828 162.2712,664.0322 Q162.9187,664.1816 163.4831,664.4805 L163.4831,667.2031 Q162.8523,666.6221 162.2588,666.3523 Q161.6653,666.0825 161.0344,666.0825 Q159.6897,666.0825 159.0049,667.1492 Q158.3201,668.2158 158.3201,670.3159 Q158.3201,672.4077 159.0049,673.4744 Q159.6897,674.541 161.0344,674.541 Q161.6653,674.541 162.2588,674.2712 Q162.8523,674.0015 163.4831,673.4204 Z " fill="#000000"/><text fill="#000000" font-family="sans-serif" font-size="14" lengthAdjust="spacing" textLength="61.8857" x="175.01" y="675.291">LibriView</text><line style="stroke:#181818;stroke-width:0.5;" x1="147.01" x2="238.8957" y1="686" y2="686"/><line style="stroke:#181818;stroke-width:0.5;" x1="147.01" x2="238.8957" y1="694" y2="694"/></g><!--class AggiuntaLibroView--><g class="entity" data-entity="AggiuntaLibroView" data-source-line="75" data-uid="ent0050" id="entity_AggiuntaLibroView"><rect fill="#F1F1F1" height="48" rx="2.5" ry="2.5" style="stroke:#181818;stroke-width:0.5;" width="159.9482" x="112.98" y="571"/><ellipse cx="127.98" cy="587" fill="#ADD1B2" rx="11" ry="11" style="stroke:#181818;stroke-width:1;"/><path d="M130.4531,593.1431 Q129.8721,593.4419 129.2329,593.5913 Q128.5938,593.7407 127.8882,593.7407 Q125.3814,593.7407 124.0615,592.0889 Q122.7417,590.437 122.7417,587.3159 Q122.7417,584.1865 124.0615,582.5347 Q125.3814,580.8828 127.8882,580.8828 Q128.5938,580.8828 129.2412,581.0322 Q129.8887,581.1816 130.4531,581.4805 L130.4531,584.2031 Q129.8223,583.6221 129.2288,583.3523 Q128.6353,583.0825 128.0044,583.0825 Q126.6597,583.0825 125.9749,584.1492 Q125.2901,585.2158 125.2901,587.3159 Q125.2901,589.4077 125.9749,590.4744 Q126.6597,591.541 128.0044,591.541 Q128.6353,591.541 129.2288,591.2712 Q129.8223,591.0015 130.4531,590.4204 Z " fill="#000000"/><text fill="#000000" font-family="sans-serif" font-size="14" lengthAdjust="spacing" textLength="127.9482" x="141.98" y="592.291">AggiuntaLibroView</text><line style="stroke:#181818;stroke-width:0.5;" x1="113.98" x2="271.9282" y1="603" y2="603"/><line style="stroke:#181818;stroke-width:0.5;" x1="113.98" x2="271.9282" y1="611" y2="611"/></g><!--class ModificaLibroView--><g class="entity" data-entity="ModificaLibroView" data-source-line="76" data-uid="ent0051" id="entity_ModificaLibroView"><rect fill="#F1F1F1" height="48" rx="2.5" ry="2.5" style="stroke:#181818;stroke-width:0.5;" width="156.0518" x="417.36" y="654"/><ellipse cx="432.36" cy="670" fill="#ADD1B2" rx="11" ry="11" style="stroke:#181818;stroke-width:1;"/><path d="M434.8331,676.1431 Q434.2521,676.4419 433.6129,676.5913 Q432.9738,676.7407 432.2682,676.7407 Q429.7614,676.7407 428.4415,675.0889 Q427.1217,673.437 427.1217,670.3159 Q427.1217,667.1865 428.4415,665.5347 Q429.7614,663.8828 432.2682,663.8828 Q432.9738,663.8828 433.6212,664.0322 Q434.2687,664.1816 434.8331,664.4805 L434.8331,667.2031 Q434.2023,666.6221 433.6088,666.3523 Q433.0153,666.0825 432.3844,666.0825 Q431.0397,666.0825 430.3549,667.1492 Q429.6701,668.2158 429.6701,670.3159 Q429.6701,672.4077 430.3549,673.4744 Q431.0397,674.541 432.3844,674.541 Q433.0153,674.541 433.6088,674.2712 Q434.2023,674.0015 434.8331,673.4204 Z " fill="#000000"/><text fill="#000000" font-family="sans-serif" font-size="14" lengthAdjust="spacing" textLength="124.0518" x="446.36" y="675.291">ModificaLibroView</text><line style="stroke:#181818;stroke-width:0.5;" x1="418.36" x2="572.4118" y1="686" y2="686"/><line style="stroke:#181818;stroke-width:0.5;" x1="418.36" x2="572.4118" y1="694" y2="694"/></g><!--class EstensionePrestitoView--><g class="entity" data-entity="EstensionePrestitoView" data-source-line="80" data-uid="ent0053" id="entity_EstensionePrestitoView"><rect fill="#F1F1F1" height="48" rx="2.5" ry="2.5" style="stroke:#181818;stroke-width:0.5;" width="188.0303" x="98.94" y="448"/><ellipse cx="113.94" cy="464" fill="#ADD1B2" rx="11" ry="11" style="stroke:#181818;stroke-width:1;"/><path d="M116.4131,470.1431 Q115.8321,470.4419 115.1929,470.5913 Q114.5538,470.7407 113.8482,470.7407 Q111.3414,470.7407 110.0215,469.0889 Q108.7017,467.437 108.7017,464.3159 Q108.7017,461.1865 110.0215,459.5347 Q111.3414,457.8828 113.8482,457.8828 Q114.5538,457.8828 115.2012,458.0322 Q115.8487,458.1816 116.4131,458.4805 L116.4131,461.2031 Q115.7823,460.6221 115.1888,460.3523 Q114.5953,460.0825 113.9644,460.0825 Q112.6197,460.0825 111.9349,461.1492 Q111.2501,462.2158 111.2501,464.3159 Q111.2501,466.4077 111.9349,467.4744 Q112.6197,468.541 113.9644,468.541 Q114.5953,468.541 115.1888,468.2712 Q115.7823,468.0015 116.4131,467.4204 Z " fill="#000000"/><text fill="#000000" font-family="sans-serif" font-size="14" lengthAdjust="spacing" textLength="156.0303" x="127.94" y="469.291">EstensionePrestitoView</text><line style="stroke:#181818;stroke-width:0.5;" x1="99.94" x2="285.9703" y1="480" y2="480"/><line style="stroke:#181818;stroke-width:0.5;" x1="99.94" x2="285.9703" y1="488" y2="488"/></g><!--class PrestitiView--><g class="entity" data-entity="PrestitiView" data-source-line="81" data-uid="ent0054" id="entity_PrestitiView"><rect fill="#F1F1F1" height="48" rx="2.5" ry="2.5" style="stroke:#181818;stroke-width:0.5;" width="110.7568" x="137.57" y="365"/><ellipse cx="152.57" cy="381" fill="#ADD1B2" rx="11" ry="11" style="stroke:#181818;stroke-width:1;"/><path d="M155.0431,387.1431 Q154.4621,387.4419 153.8229,387.5913 Q153.1838,387.7407 152.4782,387.7407 Q149.9714,387.7407 148.6515,386.0889 Q147.3317,384.437 147.3317,381.3159 Q147.3317,378.1865 148.6515,376.5347 Q149.9714,374.8828 152.4782,374.8828 Q153.1838,374.8828 153.8312,375.0322 Q154.4787,375.1816 155.0431,375.4805 L155.0431,378.2031 Q154.4123,377.6221 153.8188,377.3523 Q153.2253,377.0825 152.5944,377.0825 Q151.2497,377.0825 150.5649,378.1492 Q149.8801,379.2158 149.8801,381.3159 Q149.8801,383.4077 150.5649,384.4744 Q151.2497,385.541 152.5944,385.541 Q153.2253,385.541 153.8188,385.2712 Q154.4123,385.0015 155.0431,384.4204 Z " fill="#000000"/><text fill="#000000" font-family="sans-serif" font-size="14" lengthAdjust="spacing" textLength="78.7568" x="166.57" y="386.291">PrestitiView</text><line style="stroke:#181818;stroke-width:0.5;" x1="138.57" x2="247.3268" y1="397" y2="397"/><line style="stroke:#181818;stroke-width:0.5;" x1="138.57" x2="247.3268" y1="405" y2="405"/></g><!--class RegistrazionePrestitoView--><g class="entity" data-entity="RegistrazionePrestitoView" data-source-line="82" data-uid="ent0055" id="entity_RegistrazionePrestitoView"><rect fill="#F1F1F1" height="48" rx="2.5" ry="2.5" style="stroke:#181818;stroke-width:0.5;" width="207.7314" x="391.52" y="448"/><ellipse cx="406.52" cy="464" fill="#ADD1B2" rx="11" ry="11" style="stroke:#181818;stroke-width:1;"/><path d="M408.9931,470.1431 Q408.4121,470.4419 407.7729,470.5913 Q407.1338,470.7407 406.4282,470.7407 Q403.9214,470.7407 402.6015,469.0889 Q401.2817,467.437 401.2817,464.3159 Q401.2817,461.1865 402.6015,459.5347 Q403.9214,457.8828 406.4282,457.8828 Q407.1338,457.8828 407.7812,458.0322 Q408.4287,458.1816 408.9931,458.4805 L408.9931,461.2031 Q408.3623,460.6221 407.7688,460.3523 Q407.1753,460.0825 406.5444,460.0825 Q405.1997,460.0825 404.5149,461.1492 Q403.8301,462.2158 403.8301,464.3159 Q403.8301,466.4077 404.5149,467.4744 Q405.1997,468.541 406.5444,468.541 Q407.1753,468.541 407.7688,468.2712 Q408.3623,468.0015 408.9931,467.4204 Z " fill="#000000"/><text fill="#000000" font-family="sans-serif" font-size="14" lengthAdjust="spacing" textLength="175.7314" x="420.52" y="469.291">RegistrazionePrestitoView</text><line style="stroke:#181818;stroke-width:0.5;" x1="392.52" x2="598.2514" y1="480" y2="480"/><line style="stroke:#181818;stroke-width:0.5;" x1="392.52" x2="598.2514" y1="488" y2="488"/></g><!--class AggiuntaUtenteView--><g class="entity" data-entity="AggiuntaUtenteView" data-source-line="86" data-uid="ent0057" id="entity_AggiuntaUtenteView"><rect fill="#F1F1F1" height="48" rx="2.5" ry="2.5" style="stroke:#181818;stroke-width:0.5;" width="169.7578" x="693.05" y="654"/><ellipse cx="708.05" cy="670" fill="#ADD1B2" rx="11" ry="11" style="stroke:#181818;stroke-width:1;"/><path d="M710.5231,676.1431 Q709.9421,676.4419 709.3029,676.5913 Q708.6638,676.7407 707.9582,676.7407 Q705.4514,676.7407 704.1315,675.0889 Q702.8117,673.437 702.8117,670.3159 Q702.8117,667.1865 704.1315,665.5347 Q705.4514,663.8828 707.9582,663.8828 Q708.6638,663.8828 709.3112,664.0322 Q709.9587,664.1816 710.5231,664.4805 L710.5231,667.2031 Q709.8923,666.6221 709.2988,666.3523 Q708.7053,666.0825 708.0744,666.0825 Q706.7297,666.0825 706.0449,667.1492 Q705.3601,668.2158 705.3601,670.3159 Q705.3601,672.4077 706.0449,673.4744 Q706.7297,674.541 708.0744,674.541 Q708.7053,674.541 709.2988,674.2712 Q709.8923,674.0015 710.5231,673.4204 Z " fill="#000000"/><text fill="#000000" font-family="sans-serif" font-size="14" lengthAdjust="spacing" textLength="137.7578" x="722.05" y="675.291">AggiuntaUtenteView</text><line style="stroke:#181818;stroke-width:0.5;" x1="694.05" x2="861.8078" y1="686" y2="686"/><line style="stroke:#181818;stroke-width:0.5;" x1="694.05" x2="861.8078" y1="694" y2="694"/></g><!--class ModificaUtenteView--><g class="entity" data-entity="ModificaUtenteView" data-source-line="87" data-uid="ent0058" id="entity_ModificaUtenteView"><rect fill="#F1F1F1" height="48" rx="2.5" ry="2.5" style="stroke:#181818;stroke-width:0.5;" width="165.8613" x="695" y="571"/><ellipse cx="710" cy="587" fill="#ADD1B2" rx="11" ry="11" style="stroke:#181818;stroke-width:1;"/><path d="M712.4731,593.1431 Q711.8921,593.4419 711.2529,593.5913 Q710.6138,593.7407 709.9082,593.7407 Q707.4014,593.7407 706.0815,592.0889 Q704.7617,590.437 704.7617,587.3159 Q704.7617,584.1865 706.0815,582.5347 Q707.4014,580.8828 709.9082,580.8828 Q710.6138,580.8828 711.2612,581.0322 Q711.9087,581.1816 712.4731,581.4805 L712.4731,584.2031 Q711.8423,583.6221 711.2488,583.3523 Q710.6553,583.0825 710.0244,583.0825 Q708.6797,583.0825 707.9949,584.1492 Q707.3101,585.2158 707.3101,587.3159 Q707.3101,589.4077 707.9949,590.4744 Q708.6797,591.541 710.0244,591.541 Q710.6553,591.541 711.2488,591.2712 Q711.8423,591.0015 712.4731,590.4204 Z " fill="#000000"/><text fill="#000000" font-family="sans-serif" font-size="14" lengthAdjust="spacing" textLength="133.8613" x="724" y="592.291">ModificaUtenteView</text><line style="stroke:#181818;stroke-width:0.5;" x1="696" x2="859.8613" y1="603" y2="603"/><line style="stroke:#181818;stroke-width:0.5;" x1="696" x2="859.8613" y1="611" y2="611"/></g><!--class UtentiView--><g class="entity" data-entity="UtentiView" data-source-line="88" data-uid="ent0059" id="entity_UtentiView"><rect fill="#F1F1F1" height="48" rx="2.5" ry="2.5" style="stroke:#181818;stroke-width:0.5;" width="104.4951" x="989.86" y="654"/><ellipse cx="1004.86" cy="670" fill="#ADD1B2" rx="11" ry="11" style="stroke:#181818;stroke-width:1;"/><path d="M1007.3331,676.1431 Q1006.7521,676.4419 1006.1129,676.5913 Q1005.4738,676.7407 1004.7682,676.7407 Q1002.2614,676.7407 1000.9415,675.0889 Q999.6217,673.437 999.6217,670.3159 Q999.6217,667.1865 1000.9415,665.5347 Q1002.2614,663.8828 1004.7682,663.8828 Q1005.4738,663.8828 1006.1212,664.0322 Q1006.7687,664.1816 1007.3331,664.4805 L1007.3331,667.2031 Q1006.7023,666.6221 1006.1088,666.3523 Q1005.5153,666.0825 1004.8844,666.0825 Q1003.5397,666.0825 1002.8549,667.1492 Q1002.1701,668.2158 1002.1701,670.3159 Q1002.1701,672.4077 1002.8549,673.4744 Q1003.5397,674.541 1004.8844,674.541 Q1005.5153,674.541 1006.1088,674.2712 Q1006.7023,674.0015 1007.3331,673.4204 Z " fill="#000000"/><text fill="#000000" font-family="sans-serif" font-size="14" lengthAdjust="spacing" textLength="72.4951" x="1018.86" y="675.291">UtentiView</text><line style="stroke:#181818;stroke-width:0.5;" x1="990.86" x2="1093.3551" y1="686" y2="686"/><line style="stroke:#181818;stroke-width:0.5;" x1="990.86" x2="1093.3551" y1="694" y2="694"/></g><!--SRC=[ZLJ1Rfmm43qlN-5RJls5I4cqYIA59agKNgeUPiqiEut1o1vejHN_NXlM2oOcYGGIdlVC6_FUe73FWhKmL1vO56HGCkawongGRr2Y-0qT_CisKe6r8WUgiqss2Q3KDHkj51hhE0uuyQx1uiqPEvTphDj4-PagVNIYyHPt1Hb5EqDUuBJXgYofhHaUN5r7cqu43r0Ao7L1UvA9dNqisHYqJ3nNtLh6sle-dqOmANt2akhFM99bEAw-Oz54wmGvTV1N3s1AOa0-F7fYR-yzxUV6Lhf0jV2KTeeqeuJ9Js13KgkfSlzo_TqjO6VPW6Jnv9AXQu_ZNucDZvQurQO2Tt2e6jeQunwt0OjuZsM9pFgEm7yht_ISzr4yMjO65sc8bzel9wcXj2BqUJ22vUyg-WkMZdOi3OpR6pbVwy-YwUWuAf2ZcZr855T67gWZs94QjDmWLkAM58zVOYBcq3HdLd3PoWCQ6BMYcBXsT6ia3aa9nOxmJuXESAJhoFgexz5vVvxt7uuvqt5DXOg_tzixzpCmKx-41HODVS3wfKnaxEh8BruTh5-Knq4tyQIlAiyoaPppbUCamJ4-Swd1ipwxo8UH5jz-7gWeiFvrAQP_WCso_m00]--></g></svg>