<svg xmlns="http://www.w3.org/2000/svg" xmlns:xlink="http://www.w3.org/1999/xlink" contentStyleType="text/css" data-diagram-type="CLASS" height="1019px" preserveAspectRatio="none" style="width:863px;height:1019px;background:#FFFFFF;" version="1.1" viewBox="0 0 863 1019" width="863px" zoomAndPan="magnify"><defs/><g><!--cluster java--><g class="cluster" data-entity="java" data-source-line="3" data-uid="ent0002" id="cluster_java"><path d="M8.5,6 L38.9287,6 A3.75,3.75 0 0 1 41.4287,8.5 L48.4287,28.4883 L853.86,28.4883 A2.5,2.5 0 0 1 856.36,30.9883 L856.36,1009.5 A2.5,2.5 0 0 1 853.86,1012 L8.5,1012 A2.5,2.5 0 0 1 6,1009.5 L6,8.5 A2.5,2.5 0 0 1 8.5,6" fill="none" style="stroke:#000000;stroke-width:1.5;"/><line style="stroke:#000000;stroke-width:1.5;" x1="6" x2="48.4287" y1="28.4883" y2="28.4883"/><text fill="#000000" font-family="sans-serif" font-size="14" font-weight="bold" lengthAdjust="spacing" textLength="29.4287" x="10" y="21.5352">java</text></g><!--cluster models--><g class="cluster" data-entity="models" data-source-line="6" data-uid="ent0004" id="cluster_models"><path d="M32.5,105 L85.9658,105 A3.75,3.75 0 0 1 88.4658,107.5 L95.4658,127.4883 L829.86,127.4883 A2.5,2.5 0 0 1 832.36,129.9883 L832.36,985.5 A2.5,2.5 0 0 1 829.86,988 L32.5,988 A2.5,2.5 0 0 1 30,985.5 L30,107.5 A2.5,2.5 0 0 1 32.5,105" fill="none" style="stroke:#000000;stroke-width:1.5;"/><line style="stroke:#000000;stroke-width:1.5;" x1="30" x2="95.4658" y1="127.4883" y2="127.4883"/><text fill="#000000" font-family="sans-serif" font-size="14" font-weight="bold" lengthAdjust="spacing" textLength="52.4658" x="34" y="120.5352">models</text></g><!--cluster prestiti--><g class="cluster" data-entity="prestiti" data-source-line="16" data-uid="ent0011" id="cluster_prestiti"><path d="M56.5,782 L109.7129,782 A3.75,3.75 0 0 1 112.2129,784.5 L119.2129,804.4883 L167.02,804.4883 A2.5,2.5 0 0 1 169.52,806.9883 L169.52,961.5 A2.5,2.5 0 0 1 167.02,964 L56.5,964 A2.5,2.5 0 0 1 54,961.5 L54,784.5 A2.5,2.5 0 0 1 56.5,782" fill="none" style="stroke:#000000;stroke-width:1.5;"/><line style="stroke:#000000;stroke-width:1.5;" x1="54" x2="119.2129" y1="804.4883" y2="804.4883"/><text fill="#000000" font-family="sans-serif" font-size="14" font-weight="bold" lengthAdjust="spacing" textLength="52.2129" x="58" y="797.5352">prestiti</text></g><!--cluster libri--><g class="cluster" data-entity="libri" data-source-line="21" data-uid="ent0014" id="cluster_libri"><path d="M59.41,576 L89.7088,576 A3.75,3.75 0 0 1 92.2088,578.5 L99.2088,598.4883 L460.01,598.4883 A2.5,2.5 0 0 1 462.51,600.9883 L462.51,755.5 A2.5,2.5 0 0 1 460.01,758 L59.41,758 A2.5,2.5 0 0 1 56.91,755.5 L56.91,578.5 A2.5,2.5 0 0 1 59.41,576" fill="none" style="stroke:#000000;stroke-width:1.5;"/><line style="stroke:#000000;stroke-width:1.5;" x1="56.91" x2="99.2088" y1="598.4883" y2="598.4883"/><text fill="#000000" font-family="sans-serif" font-size="14" font-weight="bold" lengthAdjust="spacing" textLength="29.2988" x="60.91" y="591.5352">libri</text></g><!--cluster utenti--><g class="cluster" data-entity="utenti" data-source-line="28" data-uid="ent0019" id="cluster_utenti"><path d="M60.03,370 L103.5222,370 A3.75,3.75 0 0 1 106.0222,372.5 L113.0222,392.4883 L464.92,392.4883 A2.5,2.5 0 0 1 467.42,394.9883 L467.42,549.5 A2.5,2.5 0 0 1 464.92,552 L60.03,552 A2.5,2.5 0 0 1 57.53,549.5 L57.53,372.5 A2.5,2.5 0 0 1 60.03,370" fill="none" style="stroke:#000000;stroke-width:1.5;"/><line style="stroke:#000000;stroke-width:1.5;" x1="57.53" x2="113.0222" y1="392.4883" y2="392.4883"/><text fill="#000000" font-family="sans-serif" font-size="14" font-weight="bold" lengthAdjust="spacing" textLength="42.4922" x="61.53" y="385.5352">utenti</text></g><!--cluster servizi--><g class="cluster" data-entity="servizi" data-source-line="34" data-uid="ent0023" id="cluster_servizi"><path d="M505.99,576 L555.156,576 A3.75,3.75 0 0 1 557.656,578.5 L564.656,598.4883 L805.86,598.4883 A2.5,2.5 0 0 1 808.36,600.9883 L808.36,755.5 A2.5,2.5 0 0 1 805.86,758 L505.99,758 A2.5,2.5 0 0 1 503.49,755.5 L503.49,578.5 A2.5,2.5 0 0 1 505.99,576" fill="none" style="stroke:#000000;stroke-width:1.5;"/><line style="stroke:#000000;stroke-width:1.5;" x1="503.49" x2="564.656" y1="598.4883" y2="598.4883"/><text fill="#000000" font-family="sans-serif" font-size="14" font-weight="bold" lengthAdjust="spacing" textLength="48.166" x="507.49" y="591.5352">servizi</text></g><!--class Main--><g class="entity" data-entity="Main" data-source-line="4" data-uid="ent0003" id="entity_Main"><rect fill="#F1F1F1" height="48" rx="2.5" ry="2.5" style="stroke:#181818;stroke-width:0.5;" width="64.5254" x="79.5" y="41"/><ellipse cx="94.5" cy="57" fill="#ADD1B2" rx="11" ry="11" style="stroke:#181818;stroke-width:1;"/><path d="M96.9731,63.1431 Q96.3921,63.4419 95.7529,63.5913 Q95.1138,63.7407 94.4082,63.7407 Q91.9014,63.7407 90.5815,62.0889 Q89.2617,60.437 89.2617,57.3159 Q89.2617,54.1865 90.5815,52.5347 Q91.9014,50.8828 94.4082,50.8828 Q95.1138,50.8828 95.7612,51.0322 Q96.4087,51.1816 96.9731,51.4805 L96.9731,54.2031 Q96.3423,53.6221 95.7488,53.3523 Q95.1553,53.0825 94.5244,53.0825 Q93.1797,53.0825 92.4949,54.1492 Q91.8101,55.2158 91.8101,57.3159 Q91.8101,59.4077 92.4949,60.4744 Q93.1797,61.541 94.5244,61.541 Q95.1553,61.541 95.7488,61.2712 Q96.3423,61.0015 96.9731,60.4204 Z " fill="#000000"/><text fill="#000000" font-family="sans-serif" font-size="14" lengthAdjust="spacing" textLength="32.5254" x="108.5" y="62.291">Main</text><line style="stroke:#181818;stroke-width:0.5;" x1="80.5" x2="143.0254" y1="73" y2="73"/><line style="stroke:#181818;stroke-width:0.5;" x1="80.5" x2="143.0254" y1="81" y2="81"/></g><!--class Biblioteca--><g class="entity" data-entity="Biblioteca" data-source-line="8" data-uid="ent0005" id="entity_Biblioteca"><rect fill="#F1F1F1" height="48" rx="2.5" ry="2.5" style="stroke:#181818;stroke-width:0.5;" width="97.543" x="62.99" y="306"/><ellipse cx="77.99" cy="322" fill="#ADD1B2" rx="11" ry="11" style="stroke:#181818;stroke-width:1;"/><path d="M80.4631,328.1431 Q79.8821,328.4419 79.2429,328.5913 Q78.6038,328.7407 77.8982,328.7407 Q75.3914,328.7407 74.0715,327.0889 Q72.7517,325.437 72.7517,322.3159 Q72.7517,319.1865 74.0715,317.5347 Q75.3914,315.8828 77.8982,315.8828 Q78.6038,315.8828 79.2512,316.0322 Q79.8987,316.1816 80.4631,316.4805 L80.4631,319.2031 Q79.8323,318.6221 79.2388,318.3523 Q78.6453,318.0825 78.0144,318.0825 Q76.6697,318.0825 75.9849,319.1492 Q75.3001,320.2158 75.3001,322.3159 Q75.3001,324.4077 75.9849,325.4744 Q76.6697,326.541 78.0144,326.541 Q78.6453,326.541 79.2388,326.2712 Q79.8323,326.0015 80.4631,325.4204 Z " fill="#000000"/><text fill="#000000" font-family="sans-serif" font-size="14" lengthAdjust="spacing" textLength="65.543" x="91.99" y="327.291">Biblioteca</text><line style="stroke:#181818;stroke-width:0.5;" x1="63.99" x2="159.533" y1="338" y2="338"/><line style="stroke:#181818;stroke-width:0.5;" x1="63.99" x2="159.533" y1="346" y2="346"/></g><!--class Matricola--><g class="entity" data-entity="Matricola" data-source-line="9" data-uid="ent0006" id="entity_Matricola"><rect fill="#F1F1F1" height="48" rx="2.5" ry="2.5" style="stroke:#181818;stroke-width:0.5;" width="94.3506" x="64.59" y="223"/><ellipse cx="79.59" cy="239" fill="#ADD1B2" rx="11" ry="11" style="stroke:#181818;stroke-width:1;"/><path d="M82.0631,245.1431 Q81.4821,245.4419 80.8429,245.5913 Q80.2038,245.7407 79.4982,245.7407 Q76.9914,245.7407 75.6715,244.0889 Q74.3517,242.437 74.3517,239.3159 Q74.3517,236.1865 75.6715,234.5347 Q76.9914,232.8828 79.4982,232.8828 Q80.2038,232.8828 80.8512,233.0322 Q81.4987,233.1816 82.0631,233.4805 L82.0631,236.2031 Q81.4323,235.6221 80.8388,235.3523 Q80.2453,235.0825 79.6144,235.0825 Q78.2697,235.0825 77.5849,236.1492 Q76.9001,237.2158 76.9001,239.3159 Q76.9001,241.4077 77.5849,242.4744 Q78.2697,243.541 79.6144,243.541 Q80.2453,243.541 80.8388,243.2712 Q81.4323,243.0015 82.0631,242.4204 Z " fill="#000000"/><text fill="#000000" font-family="sans-serif" font-size="14" lengthAdjust="spacing" textLength="62.3506" x="93.59" y="244.291">Matricola</text><line style="stroke:#181818;stroke-width:0.5;" x1="65.59" x2="157.9406" y1="255" y2="255"/><line style="stroke:#181818;stroke-width:0.5;" x1="65.59" x2="157.9406" y1="263" y2="263"/></g><!--class ISBN--><g class="entity" data-entity="ISBN" data-source-line="10" data-uid="ent0007" id="entity_ISBN"><rect fill="#F1F1F1" height="48" rx="2.5" ry="2.5" style="stroke:#181818;stroke-width:0.5;" width="61.9688" x="80.78" y="140"/><ellipse cx="95.78" cy="156" fill="#ADD1B2" rx="11" ry="11" style="stroke:#181818;stroke-width:1;"/><path d="M98.2531,162.1431 Q97.6721,162.4419 97.0329,162.5913 Q96.3938,162.7407 95.6882,162.7407 Q93.1814,162.7407 91.8615,161.0889 Q90.5417,159.437 90.5417,156.3159 Q90.5417,153.1865 91.8615,151.5347 Q93.1814,149.8828 95.6882,149.8828 Q96.3938,149.8828 97.0412,150.0322 Q97.6887,150.1816 98.2531,150.4805 L98.2531,153.2031 Q97.6223,152.6221 97.0288,152.3523 Q96.4353,152.0825 95.8044,152.0825 Q94.4597,152.0825 93.7749,153.1492 Q93.0901,154.2158 93.0901,156.3159 Q93.0901,158.4077 93.7749,159.4744 Q94.4597,160.541 95.8044,160.541 Q96.4353,160.541 97.0288,160.2712 Q97.6223,160.0015 98.2531,159.4204 Z " fill="#000000"/><text fill="#000000" font-family="sans-serif" font-size="14" lengthAdjust="spacing" textLength="29.9688" x="109.78" y="161.291">ISBN</text><line style="stroke:#181818;stroke-width:0.5;" x1="81.78" x2="141.7488" y1="172" y2="172"/><line style="stroke:#181818;stroke-width:0.5;" x1="81.78" x2="141.7488" y1="180" y2="180"/></g><!--class Persona--><g class="entity" data-entity="Persona" data-source-line="11" data-uid="ent0008" id="entity_Persona"><rect fill="#F1F1F1" height="48" rx="2.5" ry="2.5" style="stroke:#181818;stroke-width:0.5;" width="85.4229" x="297.3" y="306"/><ellipse cx="312.3" cy="322" fill="#A9DCDF" rx="11" ry="11" style="stroke:#181818;stroke-width:1;"/><path d="M312.1633,317.3481 L311.0095,322.4199 L313.3254,322.4199 Z M310.6691,315.1069 L313.6657,315.1069 L317.0109,327.5 L314.5622,327.5 L313.7985,324.437 L310.5197,324.437 L309.7727,327.5 L307.3239,327.5 Z " fill="#000000"/><text fill="#000000" font-family="sans-serif" font-size="14" font-style="italic" lengthAdjust="spacing" textLength="53.4229" x="326.3" y="327.291">Persona</text><line style="stroke:#181818;stroke-width:0.5;" x1="298.3" x2="381.7229" y1="338" y2="338"/><line style="stroke:#181818;stroke-width:0.5;" x1="298.3" x2="381.7229" y1="346" y2="346"/></g><!--class OggettoGiaPresenteException--><g class="entity" data-entity="OggettoGiaPresenteException" data-source-line="12" data-uid="ent0009" id="entity_OggettoGiaPresenteException"><rect fill="#F1F1F1" height="48" rx="2.5" ry="2.5" style="stroke:#181818;stroke-width:0.5;" width="233.5576" x="223.23" y="223"/><ellipse cx="238.23" cy="239" fill="#D94321" rx="11" ry="11" style="stroke:#181818;stroke-width:1;"/><path d="M242.7407,245.5 L240.209,245.5 L237.8433,241.3994 L235.4859,245.5 L232.9541,245.5 L236.5899,239.208 L233.0537,233.1069 L235.5855,233.1069 L237.8433,237.0498 L240.1094,233.1069 L242.6411,233.1069 L239.1216,239.208 Z " fill="#000000"/><text fill="#000000" font-family="sans-serif" font-size="14" lengthAdjust="spacing" textLength="201.5576" x="252.23" y="244.291">OggettoGiaPresenteException</text><line style="stroke:#181818;stroke-width:0.5;" x1="224.23" x2="455.7876" y1="255" y2="255"/><line style="stroke:#181818;stroke-width:0.5;" x1="224.23" x2="455.7876" y1="263" y2="263"/></g><!--class FormatoCampiErratoException--><g class="entity" data-entity="FormatoCampiErratoException" data-source-line="13" data-uid="ent0010" id="entity_FormatoCampiErratoException"><rect fill="#F1F1F1" height="48" rx="2.5" ry="2.5" style="stroke:#181818;stroke-width:0.5;" width="238.958" x="220.53" y="140"/><ellipse cx="235.53" cy="156" fill="#D94321" rx="11" ry="11" style="stroke:#181818;stroke-width:1;"/><path d="M240.0407,162.5 L237.509,162.5 L235.1433,158.3994 L232.7859,162.5 L230.2541,162.5 L233.8899,156.208 L230.3537,150.1069 L232.8855,150.1069 L235.1433,154.0498 L237.4094,150.1069 L239.9411,150.1069 L236.4216,156.208 Z " fill="#000000"/><text fill="#000000" font-family="sans-serif" font-size="14" lengthAdjust="spacing" textLength="206.958" x="249.53" y="161.291">FormatoCampiErratoException</text><line style="stroke:#181818;stroke-width:0.5;" x1="221.53" x2="458.488" y1="172" y2="172"/><line style="stroke:#181818;stroke-width:0.5;" x1="221.53" x2="458.488" y1="180" y2="180"/></g><!--class Prestiti--><g class="entity" data-entity="Prestiti" data-source-line="17" data-uid="ent0012" id="entity_Prestiti"><rect fill="#F1F1F1" height="48" rx="2.5" ry="2.5" style="stroke:#181818;stroke-width:0.5;" width="78.9697" x="72.28" y="900"/><ellipse cx="87.28" cy="916" fill="#ADD1B2" rx="11" ry="11" style="stroke:#181818;stroke-width:1;"/><path d="M89.7531,922.1431 Q89.1721,922.4419 88.5329,922.5913 Q87.8938,922.7407 87.1882,922.7407 Q84.6814,922.7407 83.3615,921.0889 Q82.0417,919.437 82.0417,916.3159 Q82.0417,913.1865 83.3615,911.5347 Q84.6814,909.8828 87.1882,909.8828 Q87.8938,909.8828 88.5412,910.0322 Q89.1887,910.1816 89.7531,910.4805 L89.7531,913.2031 Q89.1223,912.6221 88.5288,912.3523 Q87.9353,912.0825 87.3044,912.0825 Q85.9597,912.0825 85.2749,913.1492 Q84.5901,914.2158 84.5901,916.3159 Q84.5901,918.4077 85.2749,919.4744 Q85.9597,920.541 87.3044,920.541 Q87.9353,920.541 88.5288,920.2712 Q89.1223,920.0015 89.7531,919.4204 Z " fill="#000000"/><text fill="#000000" font-family="sans-serif" font-size="14" lengthAdjust="spacing" textLength="46.9697" x="101.28" y="921.291">Prestiti</text><line style="stroke:#181818;stroke-width:0.5;" x1="73.28" x2="150.2497" y1="932" y2="932"/><line style="stroke:#181818;stroke-width:0.5;" x1="73.28" x2="150.2497" y1="940" y2="940"/></g><!--class Prestito--><g class="entity" data-entity="Prestito" data-source-line="18" data-uid="ent0013" id="entity_Prestito"><rect fill="#F1F1F1" height="48" rx="2.5" ry="2.5" style="stroke:#181818;stroke-width:0.5;" width="83.5225" x="70" y="817"/><ellipse cx="85" cy="833" fill="#ADD1B2" rx="11" ry="11" style="stroke:#181818;stroke-width:1;"/><path d="M87.4731,839.1431 Q86.8921,839.4419 86.2529,839.5913 Q85.6138,839.7407 84.9082,839.7407 Q82.4014,839.7407 81.0815,838.0889 Q79.7617,836.437 79.7617,833.3159 Q79.7617,830.1865 81.0815,828.5347 Q82.4014,826.8828 84.9082,826.8828 Q85.6138,826.8828 86.2612,827.0322 Q86.9087,827.1816 87.4731,827.4805 L87.4731,830.2031 Q86.8423,829.6221 86.2488,829.3523 Q85.6553,829.0825 85.0244,829.0825 Q83.6797,829.0825 82.9949,830.1492 Q82.3101,831.2158 82.3101,833.3159 Q82.3101,835.4077 82.9949,836.4744 Q83.6797,837.541 85.0244,837.541 Q85.6553,837.541 86.2488,837.2712 Q86.8423,837.0015 87.4731,836.4204 Z " fill="#000000"/><text fill="#000000" font-family="sans-serif" font-size="14" lengthAdjust="spacing" textLength="51.5225" x="99" y="838.291">Prestito</text><line style="stroke:#181818;stroke-width:0.5;" x1="71" x2="152.5225" y1="849" y2="849"/><line style="stroke:#181818;stroke-width:0.5;" x1="71" x2="152.5225" y1="857" y2="857"/></g><!--class Autore--><g class="entity" data-entity="Autore" data-source-line="22" data-uid="ent0015" id="entity_Autore"><rect fill="#F1F1F1" height="48" rx="2.5" ry="2.5" style="stroke:#181818;stroke-width:0.5;" width="77.7119" x="72.91" y="694"/><ellipse cx="87.91" cy="710" fill="#ADD1B2" rx="11" ry="11" style="stroke:#181818;stroke-width:1;"/><path d="M90.3831,716.1431 Q89.8021,716.4419 89.1629,716.5913 Q88.5238,716.7407 87.8182,716.7407 Q85.3114,716.7407 83.9915,715.0889 Q82.6717,713.437 82.6717,710.3159 Q82.6717,707.1865 83.9915,705.5347 Q85.3114,703.8828 87.8182,703.8828 Q88.5238,703.8828 89.1712,704.0322 Q89.8187,704.1816 90.3831,704.4805 L90.3831,707.2031 Q89.7523,706.6221 89.1588,706.3523 Q88.5653,706.0825 87.9344,706.0825 Q86.5897,706.0825 85.9049,707.1492 Q85.2201,708.2158 85.2201,710.3159 Q85.2201,712.4077 85.9049,713.4744 Q86.5897,714.541 87.9344,714.541 Q88.5653,714.541 89.1588,714.2712 Q89.7523,714.0015 90.3831,713.4204 Z " fill="#000000"/><text fill="#000000" font-family="sans-serif" font-size="14" lengthAdjust="spacing" textLength="45.7119" x="101.91" y="715.291">Autore</text><line style="stroke:#181818;stroke-width:0.5;" x1="73.91" x2="149.6219" y1="726" y2="726"/><line style="stroke:#181818;stroke-width:0.5;" x1="73.91" x2="149.6219" y1="734" y2="734"/></g><!--class Libri--><g class="entity" data-entity="Libri" data-source-line="23" data-uid="ent0016" id="entity_Libri"><rect fill="#F1F1F1" height="48" rx="2.5" ry="2.5" style="stroke:#181818;stroke-width:0.5;" width="62.0986" x="80.71" y="611"/><ellipse cx="95.71" cy="627" fill="#ADD1B2" rx="11" ry="11" style="stroke:#181818;stroke-width:1;"/><path d="M98.1831,633.1431 Q97.6021,633.4419 96.9629,633.5913 Q96.3238,633.7407 95.6182,633.7407 Q93.1114,633.7407 91.7915,632.0889 Q90.4717,630.437 90.4717,627.3159 Q90.4717,624.1865 91.7915,622.5347 Q93.1114,620.8828 95.6182,620.8828 Q96.3238,620.8828 96.9712,621.0322 Q97.6187,621.1816 98.1831,621.4805 L98.1831,624.2031 Q97.5523,623.6221 96.9588,623.3523 Q96.3653,623.0825 95.7344,623.0825 Q94.3897,623.0825 93.7049,624.1492 Q93.0201,625.2158 93.0201,627.3159 Q93.0201,629.4077 93.7049,630.4744 Q94.3897,631.541 95.7344,631.541 Q96.3653,631.541 96.9588,631.2712 Q97.5523,631.0015 98.1831,630.4204 Z " fill="#000000"/><text fill="#000000" font-family="sans-serif" font-size="14" lengthAdjust="spacing" textLength="30.0986" x="109.71" y="632.291">Libri</text><line style="stroke:#181818;stroke-width:0.5;" x1="81.71" x2="141.8086" y1="643" y2="643"/><line style="stroke:#181818;stroke-width:0.5;" x1="81.71" x2="141.8086" y1="651" y2="651"/></g><!--class Libro--><g class="entity" data-entity="Libro" data-source-line="24" data-uid="ent0017" id="entity_Libro"><rect fill="#F1F1F1" height="48" rx="2.5" ry="2.5" style="stroke:#181818;stroke-width:0.5;" width="66.6514" x="306.69" y="694"/><ellipse cx="321.69" cy="710" fill="#ADD1B2" rx="11" ry="11" style="stroke:#181818;stroke-width:1;"/><path d="M324.1631,716.1431 Q323.5821,716.4419 322.9429,716.5913 Q322.3038,716.7407 321.5982,716.7407 Q319.0914,716.7407 317.7715,715.0889 Q316.4517,713.437 316.4517,710.3159 Q316.4517,707.1865 317.7715,705.5347 Q319.0914,703.8828 321.5982,703.8828 Q322.3038,703.8828 322.9512,704.0322 Q323.5987,704.1816 324.1631,704.4805 L324.1631,707.2031 Q323.5323,706.6221 322.9388,706.3523 Q322.3453,706.0825 321.7144,706.0825 Q320.3697,706.0825 319.6849,707.1492 Q319.0001,708.2158 319.0001,710.3159 Q319.0001,712.4077 319.6849,713.4744 Q320.3697,714.541 321.7144,714.541 Q322.3453,714.541 322.9388,714.2712 Q323.5323,714.0015 324.1631,713.4204 Z " fill="#000000"/><text fill="#000000" font-family="sans-serif" font-size="14" lengthAdjust="spacing" textLength="34.6514" x="335.69" y="715.291">Libro</text><line style="stroke:#181818;stroke-width:0.5;" x1="307.69" x2="372.3414" y1="726" y2="726"/><line style="stroke:#181818;stroke-width:0.5;" x1="307.69" x2="372.3414" y1="734" y2="734"/></g><!--class LibroGiaPresenteException--><g class="entity" data-entity="LibroGiaPresenteException" data-source-line="25" data-uid="ent0018" id="entity_LibroGiaPresenteException"><rect fill="#F1F1F1" height="48" rx="2.5" ry="2.5" style="stroke:#181818;stroke-width:0.5;" width="213.002" x="233.51" y="611"/><ellipse cx="248.51" cy="627" fill="#D94321" rx="11" ry="11" style="stroke:#181818;stroke-width:1;"/><path d="M253.0207,633.5 L250.489,633.5 L248.1233,629.3994 L245.7659,633.5 L243.2341,633.5 L246.8699,627.208 L243.3337,621.1069 L245.8655,621.1069 L248.1233,625.0498 L250.3894,621.1069 L252.9211,621.1069 L249.4016,627.208 Z " fill="#000000"/><text fill="#000000" font-family="sans-serif" font-size="14" lengthAdjust="spacing" textLength="181.002" x="262.51" y="632.291">LibroGiaPresenteException</text><line style="stroke:#181818;stroke-width:0.5;" x1="234.51" x2="445.512" y1="643" y2="643"/><line style="stroke:#181818;stroke-width:0.5;" x1="234.51" x2="445.512" y1="651" y2="651"/></g><!--class Utente--><g class="entity" data-entity="Utente" data-source-line="29" data-uid="ent0020" id="entity_Utente"><rect fill="#F1F1F1" height="48" rx="2.5" ry="2.5" style="stroke:#181818;stroke-width:0.5;" width="76.4609" x="73.53" y="488"/><ellipse cx="88.53" cy="504" fill="#ADD1B2" rx="11" ry="11" style="stroke:#181818;stroke-width:1;"/><path d="M91.0031,510.1431 Q90.4221,510.4419 89.7829,510.5913 Q89.1438,510.7407 88.4382,510.7407 Q85.9314,510.7407 84.6115,509.0889 Q83.2917,507.437 83.2917,504.3159 Q83.2917,501.1865 84.6115,499.5347 Q85.9314,497.8828 88.4382,497.8828 Q89.1438,497.8828 89.7912,498.0322 Q90.4387,498.1816 91.0031,498.4805 L91.0031,501.2031 Q90.3723,500.6221 89.7788,500.3523 Q89.1853,500.0825 88.5544,500.0825 Q87.2097,500.0825 86.5249,501.1492 Q85.8401,502.2158 85.8401,504.3159 Q85.8401,506.4077 86.5249,507.4744 Q87.2097,508.541 88.5544,508.541 Q89.1853,508.541 89.7788,508.2712 Q90.3723,508.0015 91.0031,507.4204 Z " fill="#000000"/><text fill="#000000" font-family="sans-serif" font-size="14" lengthAdjust="spacing" textLength="44.4609" x="102.53" y="509.291">Utente</text><line style="stroke:#181818;stroke-width:0.5;" x1="74.53" x2="148.9909" y1="520" y2="520"/><line style="stroke:#181818;stroke-width:0.5;" x1="74.53" x2="148.9909" y1="528" y2="528"/></g><!--class Utenti--><g class="entity" data-entity="Utenti" data-source-line="30" data-uid="ent0021" id="entity_Utenti"><rect fill="#F1F1F1" height="48" rx="2.5" ry="2.5" style="stroke:#181818;stroke-width:0.5;" width="72.708" x="75.41" y="405"/><ellipse cx="90.41" cy="421" fill="#ADD1B2" rx="11" ry="11" style="stroke:#181818;stroke-width:1;"/><path d="M92.8831,427.1431 Q92.3021,427.4419 91.6629,427.5913 Q91.0238,427.7407 90.3182,427.7407 Q87.8114,427.7407 86.4915,426.0889 Q85.1717,424.437 85.1717,421.3159 Q85.1717,418.1865 86.4915,416.5347 Q87.8114,414.8828 90.3182,414.8828 Q91.0238,414.8828 91.6712,415.0322 Q92.3187,415.1816 92.8831,415.4805 L92.8831,418.2031 Q92.2523,417.6221 91.6588,417.3523 Q91.0653,417.0825 90.4344,417.0825 Q89.0897,417.0825 88.4049,418.1492 Q87.7201,419.2158 87.7201,421.3159 Q87.7201,423.4077 88.4049,424.4744 Q89.0897,425.541 90.4344,425.541 Q91.0653,425.541 91.6588,425.2712 Q92.2523,425.0015 92.8831,424.4204 Z " fill="#000000"/><text fill="#000000" font-family="sans-serif" font-size="14" lengthAdjust="spacing" textLength="40.708" x="104.41" y="426.291">Utenti</text><line style="stroke:#181818;stroke-width:0.5;" x1="76.41" x2="147.118" y1="437" y2="437"/><line style="stroke:#181818;stroke-width:0.5;" x1="76.41" x2="147.118" y1="445" y2="445"/></g><!--class UtenteGiaPresenteException--><g class="entity" data-entity="UtenteGiaPresenteException" data-source-line="31" data-uid="ent0022" id="entity_UtenteGiaPresenteException"><rect fill="#F1F1F1" height="48" rx="2.5" ry="2.5" style="stroke:#181818;stroke-width:0.5;" width="222.8115" x="228.61" y="488"/><ellipse cx="243.61" cy="504" fill="#D94321" rx="11" ry="11" style="stroke:#181818;stroke-width:1;"/><path d="M248.1207,510.5 L245.589,510.5 L243.2233,506.3994 L240.8659,510.5 L238.3341,510.5 L241.9699,504.208 L238.4337,498.1069 L240.9655,498.1069 L243.2233,502.0498 L245.4894,498.1069 L248.0211,498.1069 L244.5016,504.208 Z " fill="#000000"/><text fill="#000000" font-family="sans-serif" font-size="14" lengthAdjust="spacing" textLength="190.8115" x="257.61" y="509.291">UtenteGiaPresenteException</text><line style="stroke:#181818;stroke-width:0.5;" x1="229.61" x2="450.4215" y1="520" y2="520"/><line style="stroke:#181818;stroke-width:0.5;" x1="229.61" x2="450.4215" y1="528" y2="528"/></g><!--class Archiviabile--><g class="entity" data-entity="Archiviabile" data-source-line="35" data-uid="ent0024" id="entity_Archiviabile"><rect fill="#F1F1F1" height="48" rx="2.5" ry="2.5" style="stroke:#181818;stroke-width:0.5;" width="111.0234" x="519.49" y="694"/><ellipse cx="534.49" cy="710" fill="#B4A7E5" rx="11" ry="11" style="stroke:#181818;stroke-width:1;"/><path d="M530.9177,706.2651 L530.9177,704.1069 L538.2971,704.1069 L538.2971,706.2651 L535.8318,706.2651 L535.8318,714.3418 L538.2971,714.3418 L538.2971,716.5 L530.9177,716.5 L530.9177,714.3418 L533.3831,714.3418 L533.3831,706.2651 Z " fill="#000000"/><text fill="#000000" font-family="sans-serif" font-size="14" font-style="italic" lengthAdjust="spacing" textLength="79.0234" x="548.49" y="715.291">Archiviabile</text><line style="stroke:#181818;stroke-width:0.5;" x1="520.49" x2="629.5134" y1="726" y2="726"/><line style="stroke:#181818;stroke-width:0.5;" x1="520.49" x2="629.5134" y1="734" y2="734"/></g><!--class Filtro--><g class="entity" data-entity="Filtro" data-source-line="36" data-uid="ent0025" id="entity_Filtro"><rect fill="#F1F1F1" height="48" rx="2.5" ry="2.5" style="stroke:#181818;stroke-width:0.5;" width="67.1641" x="541.42" y="611"/><ellipse cx="556.42" cy="627" fill="#EB937F" rx="11" ry="11" style="stroke:#181818;stroke-width:1;"/><path d="M560.0343,633.5 L552.3145,633.5 L552.3145,621.1069 L560.0343,621.1069 L560.0343,623.2651 L554.7633,623.2651 L554.7633,625.938 L559.5362,625.938 L559.5362,628.0962 L554.7633,628.0962 L554.7633,631.3418 L560.0343,631.3418 Z " fill="#000000"/><text fill="#000000" font-family="sans-serif" font-size="14" lengthAdjust="spacing" textLength="35.1641" x="570.42" y="632.291">Filtro</text><line style="stroke:#181818;stroke-width:0.5;" x1="542.42" x2="607.5841" y1="643" y2="643"/><line style="stroke:#181818;stroke-width:0.5;" x1="542.42" x2="607.5841" y1="651" y2="651"/></g><!--class Mappabile--><g class="entity" data-entity="Mappabile" data-source-line="37" data-uid="ent0026" id="entity_Mappabile"><rect fill="#F1F1F1" height="48" rx="2.5" ry="2.5" style="stroke:#181818;stroke-width:0.5;" width="101.8496" x="690.51" y="694"/><ellipse cx="705.51" cy="710" fill="#B4A7E5" rx="11" ry="11" style="stroke:#181818;stroke-width:1;"/><path d="M701.9377,706.2651 L701.9377,704.1069 L709.3171,704.1069 L709.3171,706.2651 L706.8518,706.2651 L706.8518,714.3418 L709.3171,714.3418 L709.3171,716.5 L701.9377,716.5 L701.9377,714.3418 L704.4031,714.3418 L704.4031,706.2651 Z " fill="#000000"/><text fill="#000000" font-family="sans-serif" font-size="14" font-style="italic" lengthAdjust="spacing" textLength="69.8496" x="719.51" y="715.291">Mappabile</text><line style="stroke:#181818;stroke-width:0.5;" x1="691.51" x2="791.3596" y1="726" y2="726"/><line style="stroke:#181818;stroke-width:0.5;" x1="691.51" x2="791.3596" y1="734" y2="734"/></g><!--class Maschera--><g class="entity" data-entity="Maschera" data-source-line="38" data-uid="ent0027" id="entity_Maschera"><rect fill="#F1F1F1" height="48" rx="2.5" ry="2.5" style="stroke:#181818;stroke-width:0.5;" width="96.0459" x="693.42" y="611"/><ellipse cx="708.42" cy="627" fill="#ADD1B2" rx="11" ry="11" style="stroke:#181818;stroke-width:1;"/><path d="M710.8931,633.1431 Q710.3121,633.4419 709.6729,633.5913 Q709.0338,633.7407 708.3282,633.7407 Q705.8214,633.7407 704.5015,632.0889 Q703.1817,630.437 703.1817,627.3159 Q703.1817,624.1865 704.5015,622.5347 Q705.8214,620.8828 708.3282,620.8828 Q709.0338,620.8828 709.6812,621.0322 Q710.3287,621.1816 710.8931,621.4805 L710.8931,624.2031 Q710.2623,623.6221 709.6688,623.3523 Q709.0753,623.0825 708.4444,623.0825 Q707.0997,623.0825 706.4149,624.1492 Q705.7301,625.2158 705.7301,627.3159 Q705.7301,629.4077 706.4149,630.4744 Q707.0997,631.541 708.4444,631.541 Q709.0753,631.541 709.6688,631.2712 Q710.2623,631.0015 710.8931,630.4204 Z " fill="#000000"/><text fill="#000000" font-family="sans-serif" font-size="14" lengthAdjust="spacing" textLength="64.0459" x="722.42" y="632.291">Maschera</text><line style="stroke:#181818;stroke-width:0.5;" x1="694.42" x2="788.4659" y1="643" y2="643"/><line style="stroke:#181818;stroke-width:0.5;" x1="694.42" x2="788.4659" y1="651" y2="651"/></g><!--SRC=[TP5zQiCm3CN_Za_XgxIZ7ODb2vGTG77LH9iJ6ra9OsLtdvsF9kae11FzzAptX2rUH8lJJ5Kj-aoCHiYrIdamNr2X_eGUhYep5aBGEL2hianbSxTnPxJXEh19iwVIaXCqS4Cv29DnTY4lf_rRBA0Cmc145yZ1jQcFtmPzYg3Vgmf5t3D1mHYm5JpClOtkwBW1SK_GU3emnz-rRlpcl3vE4X9AYQSenOJ-4HV9RwAh-vPANb_UTU8Ob_erzRTb6hDAEw07EzsxTH8LQxkF1F2kfgt1g7dei1eVa7lw6UTJ5F853EeTcvfwWfBiu8Hjr-WZMHatMOGvU7zJpGyTJ8qCqougdIfw_W40]--></g></svg>