<svg xmlns="http://www.w3.org/2000/svg" xmlns:xlink="http://www.w3.org/1999/xlink" contentStyleType="text/css" data-diagram-type="CLASS" height="1142px" preserveAspectRatio="none" style="width:413px;height:1142px;background:#FFFFFF;" version="1.1" viewBox="0 0 413 1142" width="413px" zoomAndPan="magnify"><defs/><g><!--cluster Java--><g class="cluster" data-entity="Java" data-source-line="3" data-uid="ent0002" id="cluster_Java"><path d="M8.5,6 L40.125,6 A3.75,3.75 0 0 1 42.625,8.5 L49.625,28.4883 L404.37,28.4883 A2.5,2.5 0 0 1 406.87,30.9883 L406.87,1132.5 A2.5,2.5 0 0 1 404.37,1135 L8.5,1135 A2.5,2.5 0 0 1 6,1132.5 L6,8.5 A2.5,2.5 0 0 1 8.5,6" fill="none" style="stroke:#000000;stroke-width:1.5;"/><line style="stroke:#000000;stroke-width:1.5;" x1="6" x2="49.625" y1="28.4883" y2="28.4883"/><text fill="#000000" font-family="sans-serif" font-size="14" font-weight="bold" lengthAdjust="spacing" textLength="30.625" x="10" y="21.5352">Java</text></g><!--cluster models--><g class="cluster" data-entity="models" data-source-line="6" data-uid="ent0004" id="cluster_Models"><path d="M32.5,105 L85.0977,105 A3.75,3.75 0 0 1 87.5977,107.5 L94.5977,127.4883 L380.37,127.4883 A2.5,2.5 0 0 1 382.87,129.9883 L382.87,1108.5 A2.5,2.5 0 0 1 380.37,1111 L32.5,1111 A2.5,2.5 0 0 1 30,1108.5 L30,107.5 A2.5,2.5 0 0 1 32.5,105" fill="none" style="stroke:#000000;stroke-width:1.5;"/><line style="stroke:#000000;stroke-width:1.5;" x1="30" x2="94.5977" y1="127.4883" y2="127.4883"/><text fill="#000000" font-family="sans-serif" font-size="14" font-weight="bold" lengthAdjust="spacing" textLength="51.5977" x="34" y="120.5352">models</text></g><!--cluster Prestiti--><g class="cluster" data-entity="Prestiti" data-source-line="14" data-uid="ent0009" id="cluster_Prestiti"><path d="M70.25,905 L122.7725,905 A3.75,3.75 0 0 1 125.2725,907.5 L132.2725,927.4883 L180.77,927.4883 A2.5,2.5 0 0 1 183.27,929.9883 L183.27,1084.5 A2.5,2.5 0 0 1 180.77,1087 L70.25,1087 A2.5,2.5 0 0 1 67.75,1084.5 L67.75,907.5 A2.5,2.5 0 0 1 70.25,905" fill="none" style="stroke:#000000;stroke-width:1.5;"/><line style="stroke:#000000;stroke-width:1.5;" x1="67.75" x2="132.2725" y1="927.4883" y2="927.4883"/><text fill="#000000" font-family="sans-serif" font-size="14" font-weight="bold" lengthAdjust="spacing" textLength="51.5225" x="71.75" y="920.5352">Prestiti</text></g><!--cluster Libri--><g class="cluster" data-entity="Libri" data-source-line="19" data-uid="ent0012" id="cluster_Libri"><path d="M73.16,699 L107.0477,699 A3.75,3.75 0 0 1 109.5477,701.5 L116.5477,721.4883 L338.77,721.4883 A2.5,2.5 0 0 1 341.27,723.9883 L341.27,878.5 A2.5,2.5 0 0 1 338.77,881 L73.16,881 A2.5,2.5 0 0 1 70.66,878.5 L70.66,701.5 A2.5,2.5 0 0 1 73.16,699" fill="none" style="stroke:#000000;stroke-width:1.5;"/><line style="stroke:#000000;stroke-width:1.5;" x1="70.66" x2="116.5477" y1="721.4883" y2="721.4883"/><text fill="#000000" font-family="sans-serif" font-size="14" font-weight="bold" lengthAdjust="spacing" textLength="32.8877" x="74.66" y="714.5352">Libri</text></g><!--cluster Utenti--><g class="cluster" data-entity="Utenti" data-source-line="25" data-uid="ent0016" id="cluster_Utenti"><path d="M73.78,493 L118.3864,493 A3.75,3.75 0 0 1 120.8864,495.5 L127.8864,515.4883 L177.24,515.4883 A2.5,2.5 0 0 1 179.74,517.9883 L179.74,672.5 A2.5,2.5 0 0 1 177.24,675 L73.78,675 A2.5,2.5 0 0 1 71.28,672.5 L71.28,495.5 A2.5,2.5 0 0 1 73.78,493" fill="none" style="stroke:#000000;stroke-width:1.5;"/><line style="stroke:#000000;stroke-width:1.5;" x1="71.28" x2="127.8864" y1="515.4883" y2="515.4883"/><text fill="#000000" font-family="sans-serif" font-size="14" font-weight="bold" lengthAdjust="spacing" textLength="43.6064" x="75.28" y="508.5352">Utenti</text></g><!--cluster Servizi--><g class="cluster" data-entity="Servizi" data-source-line="30" data-uid="ent0019" id="cluster_Servizi"><path d="M56.5,287 L105.748,287 A3.75,3.75 0 0 1 108.248,289.5 L115.248,309.4883 L356.37,309.4883 A2.5,2.5 0 0 1 358.87,311.9883 L358.87,466.5 A2.5,2.5 0 0 1 356.37,469 L56.5,469 A2.5,2.5 0 0 1 54,466.5 L54,289.5 A2.5,2.5 0 0 1 56.5,287" fill="none" style="stroke:#000000;stroke-width:1.5;"/><line style="stroke:#000000;stroke-width:1.5;" x1="54" x2="115.248" y1="309.4883" y2="309.4883"/><text fill="#000000" font-family="sans-serif" font-size="14" font-weight="bold" lengthAdjust="spacing" textLength="48.248" x="58" y="302.5352">Servizi</text></g><!--class Main--><g class="entity" data-entity="Main" data-source-line="4" data-uid="ent0003" id="entity_Main"><rect fill="#F1F1F1" height="48" rx="2.5" ry="2.5" style="stroke:#181818;stroke-width:0.5;" width="64.5254" x="93.25" y="41"/><ellipse cx="108.25" cy="57" fill="#ADD1B2" rx="11" ry="11" style="stroke:#181818;stroke-width:1;"/><path d="M110.7231,63.1431 Q110.1421,63.4419 109.5029,63.5913 Q108.8638,63.7407 108.1582,63.7407 Q105.6514,63.7407 104.3315,62.0889 Q103.0117,60.437 103.0117,57.3159 Q103.0117,54.1865 104.3315,52.5347 Q105.6514,50.8828 108.1582,50.8828 Q108.8638,50.8828 109.5112,51.0322 Q110.1587,51.1816 110.7231,51.4805 L110.7231,54.2031 Q110.0923,53.6221 109.4988,53.3523 Q108.9053,53.0825 108.2744,53.0825 Q106.9297,53.0825 106.2449,54.1492 Q105.5601,55.2158 105.5601,57.3159 Q105.5601,59.4077 106.2449,60.4744 Q106.9297,61.541 108.2744,61.541 Q108.9053,61.541 109.4988,61.2712 Q110.0923,61.0015 110.7231,60.4204 Z " fill="#000000"/><text fill="#000000" font-family="sans-serif" font-size="14" lengthAdjust="spacing" textLength="32.5254" x="122.25" y="62.291">Main</text><line style="stroke:#181818;stroke-width:0.5;" x1="94.25" x2="156.7754" y1="73" y2="73"/><line style="stroke:#181818;stroke-width:0.5;" x1="94.25" x2="156.7754" y1="81" y2="81"/></g><!--class Biblioteca--><g class="entity" data-entity="Biblioteca" data-source-line="8" data-uid="ent0005" id="entity_Biblioteca"><rect fill="#F1F1F1" height="48" rx="2.5" ry="2.5" style="stroke:#181818;stroke-width:0.5;" width="97.543" x="76.74" y="223"/><ellipse cx="91.74" cy="239" fill="#ADD1B2" rx="11" ry="11" style="stroke:#181818;stroke-width:1;"/><path d="M94.2131,245.1431 Q93.6321,245.4419 92.9929,245.5913 Q92.3538,245.7407 91.6482,245.7407 Q89.1414,245.7407 87.8215,244.0889 Q86.5017,242.437 86.5017,239.3159 Q86.5017,236.1865 87.8215,234.5347 Q89.1414,232.8828 91.6482,232.8828 Q92.3538,232.8828 93.0012,233.0322 Q93.6487,233.1816 94.2131,233.4805 L94.2131,236.2031 Q93.5823,235.6221 92.9888,235.3523 Q92.3953,235.0825 91.7644,235.0825 Q90.4197,235.0825 89.7349,236.1492 Q89.0501,237.2158 89.0501,239.3159 Q89.0501,241.4077 89.7349,242.4744 Q90.4197,243.541 91.7644,243.541 Q92.3953,243.541 92.9888,243.2712 Q93.5823,243.0015 94.2131,242.4204 Z " fill="#000000"/><text fill="#000000" font-family="sans-serif" font-size="14" lengthAdjust="spacing" textLength="65.543" x="105.74" y="244.291">Biblioteca</text><line style="stroke:#181818;stroke-width:0.5;" x1="77.74" x2="173.283" y1="255" y2="255"/><line style="stroke:#181818;stroke-width:0.5;" x1="77.74" x2="173.283" y1="263" y2="263"/></g><!--class Matricola--><g class="entity" data-entity="Matricola" data-source-line="9" data-uid="ent0006" id="entity_Matricola"><rect fill="#F1F1F1" height="48" rx="2.5" ry="2.5" style="stroke:#181818;stroke-width:0.5;" width="94.3506" x="78.34" y="140"/><ellipse cx="93.34" cy="156" fill="#ADD1B2" rx="11" ry="11" style="stroke:#181818;stroke-width:1;"/><path d="M95.8131,162.1431 Q95.2321,162.4419 94.5929,162.5913 Q93.9538,162.7407 93.2482,162.7407 Q90.7414,162.7407 89.4215,161.0889 Q88.1017,159.437 88.1017,156.3159 Q88.1017,153.1865 89.4215,151.5347 Q90.7414,149.8828 93.2482,149.8828 Q93.9538,149.8828 94.6012,150.0322 Q95.2487,150.1816 95.8131,150.4805 L95.8131,153.2031 Q95.1823,152.6221 94.5888,152.3523 Q93.9953,152.0825 93.3644,152.0825 Q92.0197,152.0825 91.3349,153.1492 Q90.6501,154.2158 90.6501,156.3159 Q90.6501,158.4077 91.3349,159.4744 Q92.0197,160.541 93.3644,160.541 Q93.9953,160.541 94.5888,160.2712 Q95.1823,160.0015 95.8131,159.4204 Z " fill="#000000"/><text fill="#000000" font-family="sans-serif" font-size="14" lengthAdjust="spacing" textLength="62.3506" x="107.34" y="161.291">Matricola</text><line style="stroke:#181818;stroke-width:0.5;" x1="79.34" x2="171.6906" y1="172" y2="172"/><line style="stroke:#181818;stroke-width:0.5;" x1="79.34" x2="171.6906" y1="180" y2="180"/></g><!--class ISBN--><g class="entity" data-entity="ISBN" data-source-line="10" data-uid="ent0007" id="entity_ISBN"><rect fill="#F1F1F1" height="48" rx="2.5" ry="2.5" style="stroke:#181818;stroke-width:0.5;" width="61.9688" x="260.96" y="223"/><ellipse cx="275.96" cy="239" fill="#ADD1B2" rx="11" ry="11" style="stroke:#181818;stroke-width:1;"/><path d="M278.4331,245.1431 Q277.8521,245.4419 277.2129,245.5913 Q276.5738,245.7407 275.8682,245.7407 Q273.3614,245.7407 272.0415,244.0889 Q270.7217,242.437 270.7217,239.3159 Q270.7217,236.1865 272.0415,234.5347 Q273.3614,232.8828 275.8682,232.8828 Q276.5738,232.8828 277.2212,233.0322 Q277.8687,233.1816 278.4331,233.4805 L278.4331,236.2031 Q277.8023,235.6221 277.2088,235.3523 Q276.6153,235.0825 275.9844,235.0825 Q274.6397,235.0825 273.9549,236.1492 Q273.2701,237.2158 273.2701,239.3159 Q273.2701,241.4077 273.9549,242.4744 Q274.6397,243.541 275.9844,243.541 Q276.6153,243.541 277.2088,243.2712 Q277.8023,243.0015 278.4331,242.4204 Z " fill="#000000"/><text fill="#000000" font-family="sans-serif" font-size="14" lengthAdjust="spacing" textLength="29.9688" x="289.96" y="244.291">ISBN</text><line style="stroke:#181818;stroke-width:0.5;" x1="261.96" x2="321.9288" y1="255" y2="255"/><line style="stroke:#181818;stroke-width:0.5;" x1="261.96" x2="321.9288" y1="263" y2="263"/></g><!--class Persona--><g class="entity" data-entity="Persona" data-source-line="11" data-uid="ent0008" id="entity_Persona"><rect fill="#F1F1F1" height="48" rx="2.5" ry="2.5" style="stroke:#181818;stroke-width:0.5;" width="85.4229" x="249.24" y="140"/><ellipse cx="264.24" cy="156" fill="#A9DCDF" rx="11" ry="11" style="stroke:#181818;stroke-width:1;"/><path d="M264.1033,151.3481 L262.9495,156.4199 L265.2654,156.4199 Z M262.6091,149.1069 L265.6057,149.1069 L268.9509,161.5 L266.5022,161.5 L265.7385,158.437 L262.4597,158.437 L261.7127,161.5 L259.2639,161.5 Z " fill="#000000"/><text fill="#000000" font-family="sans-serif" font-size="14" font-style="italic" lengthAdjust="spacing" textLength="53.4229" x="278.24" y="161.291">Persona</text><line style="stroke:#181818;stroke-width:0.5;" x1="250.24" x2="333.6629" y1="172" y2="172"/><line style="stroke:#181818;stroke-width:0.5;" x1="250.24" x2="333.6629" y1="180" y2="180"/></g><!--class Prestiti--><g class="entity" data-entity="Prestiti" data-source-line="15" data-uid="ent0010" id="entity_Prestiti"><rect fill="#F1F1F1" height="48" rx="2.5" ry="2.5" style="stroke:#181818;stroke-width:0.5;" width="78.9697" x="86.03" y="1023"/><ellipse cx="101.03" cy="1039" fill="#ADD1B2" rx="11" ry="11" style="stroke:#181818;stroke-width:1;"/><path d="M103.5031,1045.1431 Q102.9221,1045.4419 102.2829,1045.5913 Q101.6438,1045.7407 100.9382,1045.7407 Q98.4314,1045.7407 97.1115,1044.0889 Q95.7917,1042.437 95.7917,1039.3159 Q95.7917,1036.1865 97.1115,1034.5347 Q98.4314,1032.8828 100.9382,1032.8828 Q101.6438,1032.8828 102.2912,1033.0322 Q102.9387,1033.1816 103.5031,1033.4805 L103.5031,1036.2031 Q102.8723,1035.6221 102.2788,1035.3523 Q101.6853,1035.0825 101.0544,1035.0825 Q99.7097,1035.0825 99.0249,1036.1492 Q98.3401,1037.2158 98.3401,1039.3159 Q98.3401,1041.4077 99.0249,1042.4744 Q99.7097,1043.541 101.0544,1043.541 Q101.6853,1043.541 102.2788,1043.2712 Q102.8723,1043.0015 103.5031,1042.4204 Z " fill="#000000"/><text fill="#000000" font-family="sans-serif" font-size="14" lengthAdjust="spacing" textLength="46.9697" x="115.03" y="1044.291">Prestiti</text><line style="stroke:#181818;stroke-width:0.5;" x1="87.03" x2="163.9997" y1="1055" y2="1055"/><line style="stroke:#181818;stroke-width:0.5;" x1="87.03" x2="163.9997" y1="1063" y2="1063"/></g><!--class Prestito--><g class="entity" data-entity="Prestito" data-source-line="16" data-uid="ent0011" id="entity_Prestito"><rect fill="#F1F1F1" height="48" rx="2.5" ry="2.5" style="stroke:#181818;stroke-width:0.5;" width="83.5225" x="83.75" y="940"/><ellipse cx="98.75" cy="956" fill="#ADD1B2" rx="11" ry="11" style="stroke:#181818;stroke-width:1;"/><path d="M101.2231,962.1431 Q100.6421,962.4419 100.0029,962.5913 Q99.3638,962.7407 98.6582,962.7407 Q96.1514,962.7407 94.8315,961.0889 Q93.5117,959.437 93.5117,956.3159 Q93.5117,953.1865 94.8315,951.5347 Q96.1514,949.8828 98.6582,949.8828 Q99.3638,949.8828 100.0112,950.0322 Q100.6587,950.1816 101.2231,950.4805 L101.2231,953.2031 Q100.5923,952.6221 99.9988,952.3523 Q99.4053,952.0825 98.7744,952.0825 Q97.4297,952.0825 96.7449,953.1492 Q96.0601,954.2158 96.0601,956.3159 Q96.0601,958.4077 96.7449,959.4744 Q97.4297,960.541 98.7744,960.541 Q99.4053,960.541 99.9988,960.2712 Q100.5923,960.0015 101.2231,959.4204 Z " fill="#000000"/><text fill="#000000" font-family="sans-serif" font-size="14" lengthAdjust="spacing" textLength="51.5225" x="112.75" y="961.291">Prestito</text><line style="stroke:#181818;stroke-width:0.5;" x1="84.75" x2="166.2725" y1="972" y2="972"/><line style="stroke:#181818;stroke-width:0.5;" x1="84.75" x2="166.2725" y1="980" y2="980"/></g><!--class Autore--><g class="entity" data-entity="Autore" data-source-line="20" data-uid="ent0013" id="entity_Autore"><rect fill="#F1F1F1" height="48" rx="2.5" ry="2.5" style="stroke:#181818;stroke-width:0.5;" width="77.7119" x="86.66" y="817"/><ellipse cx="101.66" cy="833" fill="#ADD1B2" rx="11" ry="11" style="stroke:#181818;stroke-width:1;"/><path d="M104.1331,839.1431 Q103.5521,839.4419 102.9129,839.5913 Q102.2738,839.7407 101.5682,839.7407 Q99.0614,839.7407 97.7415,838.0889 Q96.4217,836.437 96.4217,833.3159 Q96.4217,830.1865 97.7415,828.5347 Q99.0614,826.8828 101.5682,826.8828 Q102.2738,826.8828 102.9212,827.0322 Q103.5687,827.1816 104.1331,827.4805 L104.1331,830.2031 Q103.5023,829.6221 102.9088,829.3523 Q102.3153,829.0825 101.6844,829.0825 Q100.3397,829.0825 99.6549,830.1492 Q98.9701,831.2158 98.9701,833.3159 Q98.9701,835.4077 99.6549,836.4744 Q100.3397,837.541 101.6844,837.541 Q102.3153,837.541 102.9088,837.2712 Q103.5023,837.0015 104.1331,836.4204 Z " fill="#000000"/><text fill="#000000" font-family="sans-serif" font-size="14" lengthAdjust="spacing" textLength="45.7119" x="115.66" y="838.291">Autore</text><line style="stroke:#181818;stroke-width:0.5;" x1="87.66" x2="163.3719" y1="849" y2="849"/><line style="stroke:#181818;stroke-width:0.5;" x1="87.66" x2="163.3719" y1="857" y2="857"/></g><!--class Libri--><g class="entity" data-entity="Libri" data-source-line="21" data-uid="ent0014" id="entity_Libri"><rect fill="#F1F1F1" height="48" rx="2.5" ry="2.5" style="stroke:#181818;stroke-width:0.5;" width="62.0986" x="94.46" y="734"/><ellipse cx="109.46" cy="750" fill="#ADD1B2" rx="11" ry="11" style="stroke:#181818;stroke-width:1;"/><path d="M111.9331,756.1431 Q111.3521,756.4419 110.7129,756.5913 Q110.0738,756.7407 109.3682,756.7407 Q106.8614,756.7407 105.5415,755.0889 Q104.2217,753.437 104.2217,750.3159 Q104.2217,747.1865 105.5415,745.5347 Q106.8614,743.8828 109.3682,743.8828 Q110.0738,743.8828 110.7212,744.0322 Q111.3687,744.1816 111.9331,744.4805 L111.9331,747.2031 Q111.3023,746.6221 110.7088,746.3523 Q110.1153,746.0825 109.4844,746.0825 Q108.1397,746.0825 107.4549,747.1492 Q106.7701,748.2158 106.7701,750.3159 Q106.7701,752.4077 107.4549,753.4744 Q108.1397,754.541 109.4844,754.541 Q110.1153,754.541 110.7088,754.2712 Q111.3023,754.0015 111.9331,753.4204 Z " fill="#000000"/><text fill="#000000" font-family="sans-serif" font-size="14" lengthAdjust="spacing" textLength="30.0986" x="123.46" y="755.291">Libri</text><line style="stroke:#181818;stroke-width:0.5;" x1="95.46" x2="155.5586" y1="766" y2="766"/><line style="stroke:#181818;stroke-width:0.5;" x1="95.46" x2="155.5586" y1="774" y2="774"/></g><!--class Libro--><g class="entity" data-entity="Libro" data-source-line="22" data-uid="ent0015" id="entity_Libro"><rect fill="#F1F1F1" height="48" rx="2.5" ry="2.5" style="stroke:#181818;stroke-width:0.5;" width="66.6514" x="258.62" y="817"/><ellipse cx="273.62" cy="833" fill="#ADD1B2" rx="11" ry="11" style="stroke:#181818;stroke-width:1;"/><path d="M276.0931,839.1431 Q275.5121,839.4419 274.8729,839.5913 Q274.2338,839.7407 273.5282,839.7407 Q271.0214,839.7407 269.7015,838.0889 Q268.3817,836.437 268.3817,833.3159 Q268.3817,830.1865 269.7015,828.5347 Q271.0214,826.8828 273.5282,826.8828 Q274.2338,826.8828 274.8812,827.0322 Q275.5287,827.1816 276.0931,827.4805 L276.0931,830.2031 Q275.4623,829.6221 274.8688,829.3523 Q274.2753,829.0825 273.6444,829.0825 Q272.2997,829.0825 271.6149,830.1492 Q270.9301,831.2158 270.9301,833.3159 Q270.9301,835.4077 271.6149,836.4744 Q272.2997,837.541 273.6444,837.541 Q274.2753,837.541 274.8688,837.2712 Q275.4623,837.0015 276.0931,836.4204 Z " fill="#000000"/><text fill="#000000" font-family="sans-serif" font-size="14" lengthAdjust="spacing" textLength="34.6514" x="287.62" y="838.291">Libro</text><line style="stroke:#181818;stroke-width:0.5;" x1="259.62" x2="324.2714" y1="849" y2="849"/><line style="stroke:#181818;stroke-width:0.5;" x1="259.62" x2="324.2714" y1="857" y2="857"/></g><!--class Utente--><g class="entity" data-entity="Utente" data-source-line="26" data-uid="ent0017" id="entity_Utente"><rect fill="#F1F1F1" height="48" rx="2.5" ry="2.5" style="stroke:#181818;stroke-width:0.5;" width="76.4609" x="87.28" y="611"/><ellipse cx="102.28" cy="627" fill="#ADD1B2" rx="11" ry="11" style="stroke:#181818;stroke-width:1;"/><path d="M104.7531,633.1431 Q104.1721,633.4419 103.5329,633.5913 Q102.8938,633.7407 102.1882,633.7407 Q99.6814,633.7407 98.3615,632.0889 Q97.0417,630.437 97.0417,627.3159 Q97.0417,624.1865 98.3615,622.5347 Q99.6814,620.8828 102.1882,620.8828 Q102.8938,620.8828 103.5412,621.0322 Q104.1887,621.1816 104.7531,621.4805 L104.7531,624.2031 Q104.1223,623.6221 103.5288,623.3523 Q102.9353,623.0825 102.3044,623.0825 Q100.9597,623.0825 100.2749,624.1492 Q99.5901,625.2158 99.5901,627.3159 Q99.5901,629.4077 100.2749,630.4744 Q100.9597,631.541 102.3044,631.541 Q102.9353,631.541 103.5288,631.2712 Q104.1223,631.0015 104.7531,630.4204 Z " fill="#000000"/><text fill="#000000" font-family="sans-serif" font-size="14" lengthAdjust="spacing" textLength="44.4609" x="116.28" y="632.291">Utente</text><line style="stroke:#181818;stroke-width:0.5;" x1="88.28" x2="162.7409" y1="643" y2="643"/><line style="stroke:#181818;stroke-width:0.5;" x1="88.28" x2="162.7409" y1="651" y2="651"/></g><!--class Utenti--><g class="entity" data-entity="Utenti" data-source-line="27" data-uid="ent0018" id="entity_Utenti"><rect fill="#F1F1F1" height="48" rx="2.5" ry="2.5" style="stroke:#181818;stroke-width:0.5;" width="72.708" x="89.16" y="528"/><ellipse cx="104.16" cy="544" fill="#ADD1B2" rx="11" ry="11" style="stroke:#181818;stroke-width:1;"/><path d="M106.6331,550.1431 Q106.0521,550.4419 105.4129,550.5913 Q104.7738,550.7407 104.0682,550.7407 Q101.5614,550.7407 100.2415,549.0889 Q98.9217,547.437 98.9217,544.3159 Q98.9217,541.1865 100.2415,539.5347 Q101.5614,537.8828 104.0682,537.8828 Q104.7738,537.8828 105.4212,538.0322 Q106.0687,538.1816 106.6331,538.4805 L106.6331,541.2031 Q106.0023,540.6221 105.4088,540.3523 Q104.8153,540.0825 104.1844,540.0825 Q102.8397,540.0825 102.1549,541.1492 Q101.4701,542.2158 101.4701,544.3159 Q101.4701,546.4077 102.1549,547.4744 Q102.8397,548.541 104.1844,548.541 Q104.8153,548.541 105.4088,548.2712 Q106.0023,548.0015 106.6331,547.4204 Z " fill="#000000"/><text fill="#000000" font-family="sans-serif" font-size="14" lengthAdjust="spacing" textLength="40.708" x="118.16" y="549.291">Utenti</text><line style="stroke:#181818;stroke-width:0.5;" x1="90.16" x2="160.868" y1="560" y2="560"/><line style="stroke:#181818;stroke-width:0.5;" x1="90.16" x2="160.868" y1="568" y2="568"/></g><!--class Archiviabile--><g class="entity" data-entity="Archiviabile" data-source-line="31" data-uid="ent0020" id="entity_Archiviabile"><rect fill="#F1F1F1" height="48" rx="2.5" ry="2.5" style="stroke:#181818;stroke-width:0.5;" width="111.0234" x="70" y="405"/><ellipse cx="85" cy="421" fill="#B4A7E5" rx="11" ry="11" style="stroke:#181818;stroke-width:1;"/><path d="M81.4277,417.2651 L81.4277,415.1069 L88.8071,415.1069 L88.8071,417.2651 L86.3418,417.2651 L86.3418,425.3418 L88.8071,425.3418 L88.8071,427.5 L81.4277,427.5 L81.4277,425.3418 L83.8931,425.3418 L83.8931,417.2651 Z " fill="#000000"/><text fill="#000000" font-family="sans-serif" font-size="14" font-style="italic" lengthAdjust="spacing" textLength="79.0234" x="99" y="426.291">Archiviabile</text><line style="stroke:#181818;stroke-width:0.5;" x1="71" x2="180.0234" y1="437" y2="437"/><line style="stroke:#181818;stroke-width:0.5;" x1="71" x2="180.0234" y1="445" y2="445"/></g><!--class Filtro--><g class="entity" data-entity="Filtro" data-source-line="32" data-uid="ent0021" id="entity_Filtro"><rect fill="#F1F1F1" height="48" rx="2.5" ry="2.5" style="stroke:#181818;stroke-width:0.5;" width="67.1641" x="91.93" y="322"/><ellipse cx="106.93" cy="338" fill="#EB937F" rx="11" ry="11" style="stroke:#181818;stroke-width:1;"/><path d="M110.5443,344.5 L102.8245,344.5 L102.8245,332.1069 L110.5443,332.1069 L110.5443,334.2651 L105.2733,334.2651 L105.2733,336.938 L110.0462,336.938 L110.0462,339.0962 L105.2733,339.0962 L105.2733,342.3418 L110.5443,342.3418 Z " fill="#000000"/><text fill="#000000" font-family="sans-serif" font-size="14" lengthAdjust="spacing" textLength="35.1641" x="120.93" y="343.291">Filtro</text><line style="stroke:#181818;stroke-width:0.5;" x1="92.93" x2="158.0941" y1="354" y2="354"/><line style="stroke:#181818;stroke-width:0.5;" x1="92.93" x2="158.0941" y1="362" y2="362"/></g><!--class Mappabile--><g class="entity" data-entity="Mappabile" data-source-line="33" data-uid="ent0022" id="entity_Mappabile"><rect fill="#F1F1F1" height="48" rx="2.5" ry="2.5" style="stroke:#181818;stroke-width:0.5;" width="101.8496" x="241.02" y="405"/><ellipse cx="256.02" cy="421" fill="#B4A7E5" rx="11" ry="11" style="stroke:#181818;stroke-width:1;"/><path d="M252.4477,417.2651 L252.4477,415.1069 L259.8271,415.1069 L259.8271,417.2651 L257.3618,417.2651 L257.3618,425.3418 L259.8271,425.3418 L259.8271,427.5 L252.4477,427.5 L252.4477,425.3418 L254.9131,425.3418 L254.9131,417.2651 Z " fill="#000000"/><text fill="#000000" font-family="sans-serif" font-size="14" font-style="italic" lengthAdjust="spacing" textLength="69.8496" x="270.02" y="426.291">Mappabile</text><line style="stroke:#181818;stroke-width:0.5;" x1="242.02" x2="341.8696" y1="437" y2="437"/><line style="stroke:#181818;stroke-width:0.5;" x1="242.02" x2="341.8696" y1="445" y2="445"/></g><!--class Maschera--><g class="entity" data-entity="Maschera" data-source-line="34" data-uid="ent0023" id="entity_Maschera"><rect fill="#F1F1F1" height="48" rx="2.5" ry="2.5" style="stroke:#181818;stroke-width:0.5;" width="96.0459" x="243.93" y="322"/><ellipse cx="258.93" cy="338" fill="#ADD1B2" rx="11" ry="11" style="stroke:#181818;stroke-width:1;"/><path d="M261.4031,344.1431 Q260.8221,344.4419 260.1829,344.5913 Q259.5438,344.7407 258.8382,344.7407 Q256.3314,344.7407 255.0115,343.0889 Q253.6917,341.437 253.6917,338.3159 Q253.6917,335.1865 255.0115,333.5347 Q256.3314,331.8828 258.8382,331.8828 Q259.5438,331.8828 260.1912,332.0322 Q260.8387,332.1816 261.4031,332.4805 L261.4031,335.2031 Q260.7723,334.6221 260.1788,334.3523 Q259.5853,334.0825 258.9544,334.0825 Q257.6097,334.0825 256.9249,335.1492 Q256.2401,336.2158 256.2401,338.3159 Q256.2401,340.4077 256.9249,341.4744 Q257.6097,342.541 258.9544,342.541 Q259.5853,342.541 260.1788,342.2712 Q260.7723,342.0015 261.4031,341.4204 Z " fill="#000000"/><text fill="#000000" font-family="sans-serif" font-size="14" lengthAdjust="spacing" textLength="64.0459" x="272.93" y="343.291">Maschera</text><line style="stroke:#181818;stroke-width:0.5;" x1="244.93" x2="338.9759" y1="354" y2="354"/><line style="stroke:#181818;stroke-width:0.5;" x1="244.93" x2="338.9759" y1="362" y2="362"/></g><!--SRC=[RL3BQiCm43nRNo7o9ycXa5ANGEW7h3URUAWgcTN6XuR-UnNLSUAsi0VDC2yKv6ZUabUSUlC7gB0XHUS6udSwYLyzqqYhYsiuKCw-9SJBbsiQryoADXqavAkci9DkWouWcJ3DL4kcu1Jkp7Q_UIs0kcnAR7udcbEadvnoSyDE9HiCjMCotxW_J2hCTU4YuGMTBkphioMLEww29VmtwCqaBeTKHdvXLE-ZSIywudDoeZZqI2n-hTnZ17K8DKFY-SC_8LYjVn2sD0opwlQZcNjHcdRMAmzNYhy1]--></g></svg>