<svg xmlns="http://www.w3.org/2000/svg" xmlns:xlink="http://www.w3.org/1999/xlink" contentStyleType="text/css" data-diagram-type="SEQUENCE" height="691px" preserveAspectRatio="none" style="width:1177px;height:691px;background:#FFFFFF;" version="1.1" viewBox="0 0 1177 691" width="1177px" zoomAndPan="magnify"><defs/><g><g><title>ClasseCheContieneVisualizzazioneUtenti</title><rect fill="#FFFFFF" height="34.3105" style="stroke:#181818;stroke-width:1;" width="10" x="494.6123" y="293.3516"/></g><g><title>ClasseCheContieneVisualizzazioneUtenti</title><rect fill="#FFFFFF" height="100.9316" style="stroke:#181818;stroke-width:1;" width="10" x="494.6123" y="484.1699"/></g><g><title>GestoreUtenti</title><rect fill="#FFFFFF" height="71.6211" style="stroke:#181818;stroke-width:1;" width="10" x="867.3052" y="484.1699"/></g><rect fill="none" height="250.4395" style="stroke:#000000;stroke-width:1.5;" width="1045.1704" x="10" y="342.6621"/><g><title>Amministratore</title><rect fill="#000000" fill-opacity="0.00000" height="528.6133" width="8" x="71.8896" y="81.4883"/><line style="stroke:#181818;stroke-width:0.5;stroke-dasharray:5,5;" x1="75" x2="75" y1="81.4883" y2="610.1016"/></g><g><title>ClasseCheContieneVisualizzazioneUtenti</title><rect fill="#000000" fill-opacity="0.00000" height="528.6133" width="8" x="495.6123" y="81.4883"/><line style="stroke:#181818;stroke-width:0.5;stroke-dasharray:5,5;" x1="499.2324" x2="499.2324" y1="81.4883" y2="610.1016"/></g><g><title>Utenti</title><rect fill="#000000" fill-opacity="0.00000" height="528.6133" width="8" x="777.3882" y="81.4883"/><line style="stroke:#181818;stroke-width:0.5;stroke-dasharray:5,5;" x1="781.0342" x2="781.0342" y1="81.4883" y2="610.1016"/></g><g><title>GestoreUtenti</title><rect fill="#000000" fill-opacity="0.00000" height="528.6133" width="8" x="868.3052" y="81.4883"/><line style="stroke:#181818;stroke-width:0.5;stroke-dasharray:5,5;" x1="871.7422" x2="871.7422" y1="81.4883" y2="610.1016"/></g><g><title>Biblioteca</title><rect fill="#000000" fill-opacity="0.00000" height="528.6133" width="8" x="1051.1704" y="81.4883"/><line style="stroke:#181818;stroke-width:0.5;stroke-dasharray:5,5;" x1="1054.3989" x2="1054.3989" y1="81.4883" y2="610.1016"/></g><g class="participant participant-head" data-participant="a"><text fill="#000000" font-family="sans-serif" font-size="14" lengthAdjust="spacing" textLength="105.7793" x="20" y="78.5352">Amministratore</text><ellipse cx="75.8896" cy="13.5" fill="#E2E2F0" rx="8" ry="8" style="stroke:#181818;stroke-width:0.5;"/><path d="M75.8896,21.5 L75.8896,48.5 M62.8896,29.5 L88.8896,29.5 M75.8896,48.5 L62.8896,63.5 M75.8896,48.5 L88.8896,63.5" fill="none" style="stroke:#181818;stroke-width:0.5;"/></g><g class="participant participant-tail" data-participant="a"><text fill="#000000" font-family="sans-serif" font-size="14" lengthAdjust="spacing" textLength="105.7793" x="20" y="622.6367">Amministratore</text><ellipse cx="75.8896" cy="634.0898" fill="#E2E2F0" rx="8" ry="8" style="stroke:#181818;stroke-width:0.5;"/><path d="M75.8896,642.0898 L75.8896,669.0898 M62.8896,650.0898 L88.8896,650.0898 M75.8896,669.0898 L62.8896,684.0898 M75.8896,669.0898 L88.8896,684.0898" fill="none" style="stroke:#181818;stroke-width:0.5;"/></g><g class="participant participant-head" data-participant="cvu"><rect fill="#E2E2F0" height="30.4883" rx="2.5" ry="2.5" style="stroke:#181818;stroke-width:0.5;" width="290.7598" x="354.2324" y="50"/><text fill="#000000" font-family="sans-serif" font-size="14" lengthAdjust="spacing" textLength="276.7598" x="361.2324" y="70.5352">ClasseCheContieneVisualizzazioneUtenti</text></g><g class="participant participant-tail" data-participant="cvu"><rect fill="#E2E2F0" height="30.4883" rx="2.5" ry="2.5" style="stroke:#181818;stroke-width:0.5;" width="290.7598" x="354.2324" y="609.1016"/><text fill="#000000" font-family="sans-serif" font-size="14" lengthAdjust="spacing" textLength="276.7598" x="361.2324" y="629.6367">ClasseCheContieneVisualizzazioneUtenti</text></g><g class="participant participant-head" data-participant="u"><rect fill="#E2E2F0" height="30.4883" rx="2.5" ry="2.5" style="stroke:#181818;stroke-width:0.5;" width="54.708" x="754.0342" y="50"/><text fill="#000000" font-family="sans-serif" font-size="14" lengthAdjust="spacing" textLength="40.708" x="761.0342" y="70.5352">Utenti</text></g><g class="participant participant-tail" data-participant="u"><rect fill="#E2E2F0" height="30.4883" rx="2.5" ry="2.5" style="stroke:#181818;stroke-width:0.5;" width="54.708" x="754.0342" y="609.1016"/><text fill="#000000" font-family="sans-serif" font-size="14" lengthAdjust="spacing" textLength="40.708" x="761.0342" y="629.6367">Utenti</text></g><g class="participant participant-head" data-participant="gu"><rect fill="#E2E2F0" height="30.4883" rx="2.5" ry="2.5" style="stroke:#181818;stroke-width:0.5;" width="107.126" x="818.7422" y="50"/><text fill="#000000" font-family="sans-serif" font-size="14" lengthAdjust="spacing" textLength="93.126" x="825.7422" y="70.5352">GestoreUtenti</text></g><g class="participant participant-tail" data-participant="gu"><rect fill="#E2E2F0" height="30.4883" rx="2.5" ry="2.5" style="stroke:#181818;stroke-width:0.5;" width="107.126" x="818.7422" y="609.1016"/><text fill="#000000" font-family="sans-serif" font-size="14" lengthAdjust="spacing" textLength="93.126" x="825.7422" y="629.6367">GestoreUtenti</text></g><g class="participant participant-head" data-participant="b"><rect fill="#E2E2F0" height="30.4883" rx="2.5" ry="2.5" style="stroke:#181818;stroke-width:0.5;" width="79.543" x="1015.3989" y="50"/><text fill="#000000" font-family="sans-serif" font-size="14" lengthAdjust="spacing" textLength="65.543" x="1022.3989" y="70.5352">Biblioteca</text></g><g class="participant participant-tail" data-participant="b"><rect fill="#E2E2F0" height="30.4883" rx="2.5" ry="2.5" style="stroke:#181818;stroke-width:0.5;" width="79.543" x="1015.3989" y="609.1016"/><text fill="#000000" font-family="sans-serif" font-size="14" lengthAdjust="spacing" textLength="65.543" x="1022.3989" y="629.6367">Biblioteca</text></g><g><title>ClasseCheContieneVisualizzazioneUtenti</title><rect fill="#FFFFFF" height="34.3105" style="stroke:#181818;stroke-width:1;" width="10" x="494.6123" y="293.3516"/></g><g><title>ClasseCheContieneVisualizzazioneUtenti</title><rect fill="#FFFFFF" height="100.9316" style="stroke:#181818;stroke-width:1;" width="10" x="494.6123" y="484.1699"/></g><g><title>GestoreUtenti</title><rect fill="#FFFFFF" height="71.6211" style="stroke:#181818;stroke-width:1;" width="10" x="867.3052" y="484.1699"/></g><g class="message" data-participant-1="b" data-participant-2="b"><line style="stroke:#181818;stroke-width:1;" x1="1055.1704" x2="1097.1704" y1="112.7988" y2="112.7988"/><line style="stroke:#181818;stroke-width:1;" x1="1097.1704" x2="1097.1704" y1="112.7988" y2="125.7988"/><line style="stroke:#181818;stroke-width:1;" x1="1056.1704" x2="1097.1704" y1="125.7988" y2="125.7988"/><polygon fill="#181818" points="1066.1704,121.7988,1056.1704,125.7988,1066.1704,129.7988,1062.1704,125.7988" style="stroke:#181818;stroke-width:1;"/><text fill="#000000" font-family="sans-serif" font-size="13" lengthAdjust="spacing" textLength="108.7925" x="1062.1704" y="108.0566">caricaArchivio(...)</text></g><g class="message" data-participant-1="cvu" data-participant-2="cvu"><line style="stroke:#181818;stroke-width:1;" x1="499.6123" x2="541.6123" y1="155.1094" y2="155.1094"/><line style="stroke:#181818;stroke-width:1;" x1="541.6123" x2="541.6123" y1="155.1094" y2="168.1094"/><line style="stroke:#181818;stroke-width:1;" x1="500.6123" x2="541.6123" y1="168.1094" y2="168.1094"/><polygon fill="#181818" points="510.6123,164.1094,500.6123,168.1094,510.6123,172.1094,506.6123,168.1094" style="stroke:#181818;stroke-width:1;"/><text fill="#000000" font-family="sans-serif" font-size="13" lengthAdjust="spacing" textLength="76.978" x="506.6123" y="150.3672">inizialize(...)</text></g><g class="message" data-participant-1="a" data-participant-2="cvu"><polygon fill="#181818" points="487.6123,193.4199,497.6123,197.4199,487.6123,201.4199,491.6123,197.4199" style="stroke:#181818;stroke-width:1;"/><line style="stroke:#181818;stroke-width:1;" x1="75.8896" x2="493.6123" y1="197.4199" y2="197.4199"/><text fill="#000000" font-family="sans-serif" font-size="13" lengthAdjust="spacing" textLength="140.0737" x="82.8896" y="192.6777">Apre schermata utenti</text></g><g class="message" data-participant-1="a" data-participant-2="cvu"><polygon fill="#181818" points="487.6123,222.7305,497.6123,226.7305,487.6123,230.7305,491.6123,226.7305" style="stroke:#181818;stroke-width:1;"/><line style="stroke:#181818;stroke-width:1;" x1="75.8896" x2="493.6123" y1="226.7305" y2="226.7305"/><text fill="#000000" font-family="sans-serif" font-size="13" lengthAdjust="spacing" textLength="124.395" x="82.8896" y="221.9883">Seleziona un utente</text></g><g class="message" data-participant-1="a" data-participant-2="cvu"><polygon fill="#181818" points="487.6123,252.041,497.6123,256.041,487.6123,260.041,491.6123,256.041" style="stroke:#181818;stroke-width:1;"/><line style="stroke:#181818;stroke-width:1;" x1="75.8896" x2="493.6123" y1="256.041" y2="256.041"/><text fill="#000000" font-family="sans-serif" font-size="13" lengthAdjust="spacing" textLength="171.2153" x="82.8896" y="251.2988">Clicca il pulsante "Rimuovi"</text></g><g class="message" data-participant-1="cvu" data-participant-2="cvu"><line style="stroke:#181818;stroke-width:1;" x1="499.6123" x2="546.6123" y1="280.3516" y2="280.3516"/><line style="stroke:#181818;stroke-width:1;" x1="546.6123" x2="546.6123" y1="280.3516" y2="293.3516"/><line style="stroke:#181818;stroke-width:1;" x1="505.6123" x2="546.6123" y1="293.3516" y2="293.3516"/><polygon fill="#181818" points="515.6123,289.3516,505.6123,293.3516,515.6123,297.3516,511.6123,293.3516" style="stroke:#181818;stroke-width:1;"/><text fill="#000000" font-family="sans-serif" font-size="13" lengthAdjust="spacing" textLength="267.7759" x="511.6123" y="275.6094">funzioneOnActionPulsanteDiRimozione(...)</text></g><g class="message" data-participant-1="cvu" data-participant-2="a"><polygon fill="#181818" points="86.8896,323.6621,76.8896,327.6621,86.8896,331.6621,82.8896,327.6621" style="stroke:#181818;stroke-width:1;"/><line style="stroke:#181818;stroke-width:1;stroke-dasharray:2,2;" x1="80.8896" x2="498.6123" y1="327.6621" y2="327.6621"/><text fill="#000000" font-family="sans-serif" font-size="13" lengthAdjust="spacing" textLength="394.7227" x="92.8896" y="322.9199">Viene mostrata una nuova finestra con un messaggio di avviso</text></g><path d="M10,342.6621 L72.1387,342.6621 L72.1387,349.9727 L62.1387,359.9727 L10,359.9727 L10,342.6621" fill="#EEEEEE" style="stroke:#000000;stroke-width:1.5;"/><rect fill="none" height="250.4395" style="stroke:#000000;stroke-width:1.5;" width="1045.1704" x="10" y="342.6621"/><text fill="#000000" font-family="sans-serif" font-size="13" font-weight="bold" lengthAdjust="spacing" textLength="17.1387" x="25" y="356.2305">alt</text><text fill="#000000" font-family="sans-serif" font-size="11" font-weight="bold" lengthAdjust="spacing" textLength="209.854" x="87.1387" y="355.2969">[Annulla l'operazione cliccando "No"]</text><g class="message" data-participant-1="a" data-participant-2="cvu"><polygon fill="#181818" points="487.6123,377.2832,497.6123,381.2832,487.6123,385.2832,491.6123,381.2832" style="stroke:#181818;stroke-width:1;"/><line style="stroke:#181818;stroke-width:1;" x1="75.8896" x2="493.6123" y1="381.2832" y2="381.2832"/><text fill="#000000" font-family="sans-serif" font-size="13" lengthAdjust="spacing" textLength="293.2935" x="82.8896" y="376.541">Annulla l'operazione cliccando il pulsante "No"</text></g><g class="message" data-participant-1="cvu" data-participant-2="a"><polygon fill="#181818" points="86.8896,406.5938,76.8896,410.5938,86.8896,414.5938,82.8896,410.5938" style="stroke:#181818;stroke-width:1;"/><line style="stroke:#181818;stroke-width:1;stroke-dasharray:2,2;" x1="80.8896" x2="498.6123" y1="410.5938" y2="410.5938"/><text fill="#000000" font-family="sans-serif" font-size="13" lengthAdjust="spacing" textLength="292.0493" x="92.8896" y="405.8516">Viene chiusa la schermata di rimozione utente</text></g><line style="stroke:#000000;stroke-width:1;stroke-dasharray:2,2;" x1="10" x2="1055.1704" y1="419.5938" y2="419.5938"/><text fill="#000000" font-family="sans-serif" font-size="11" font-weight="bold" lengthAdjust="spacing" textLength="216.0684" x="15" y="430.2285">[Conferma l'operazione cliccando "Si"]</text><g class="message" data-participant-1="a" data-participant-2="cvu"><polygon fill="#181818" points="487.6123,450.8594,497.6123,454.8594,487.6123,458.8594,491.6123,454.8594" style="stroke:#181818;stroke-width:1;"/><line style="stroke:#181818;stroke-width:1;" x1="75.8896" x2="493.6123" y1="454.8594" y2="454.8594"/><text fill="#000000" font-family="sans-serif" font-size="13" lengthAdjust="spacing" textLength="300.3013" x="82.8896" y="450.1172">Conferma l'operazione cliccando il pulsante "Si"</text></g><g class="message" data-participant-1="cvu" data-participant-2="gu"><polygon fill="#181818" points="855.3052,480.1699,865.3052,484.1699,855.3052,488.1699,859.3052,484.1699" style="stroke:#181818;stroke-width:1;"/><line style="stroke:#181818;stroke-width:1;" x1="504.6123" x2="861.3052" y1="484.1699" y2="484.1699"/><text fill="#000000" font-family="sans-serif" font-size="13" lengthAdjust="spacing" textLength="107.98" x="511.6123" y="479.4277">eliminaUtente(...)</text></g><g class="message" data-participant-1="gu" data-participant-2="gu"><line style="stroke:#181818;stroke-width:1;" x1="877.3052" x2="919.3052" y1="513.4805" y2="513.4805"/><line style="stroke:#181818;stroke-width:1;" x1="919.3052" x2="919.3052" y1="513.4805" y2="526.4805"/><line style="stroke:#181818;stroke-width:1;" x1="878.3052" x2="919.3052" y1="526.4805" y2="526.4805"/><polygon fill="#181818" points="888.3052,522.4805,878.3052,526.4805,888.3052,530.4805,884.3052,526.4805" style="stroke:#181818;stroke-width:1;"/><text fill="#000000" font-family="sans-serif" font-size="13" lengthAdjust="spacing" textLength="148.8652" x="884.3052" y="508.7383">Viene eliminato l'utente</text></g><g class="message" data-participant-1="gu" data-participant-2="cvu"><polygon fill="#181818" points="515.6123,551.791,505.6123,555.791,515.6123,559.791,511.6123,555.791" style="stroke:#181818;stroke-width:1;"/><line style="stroke:#181818;stroke-width:1;stroke-dasharray:2,2;" x1="509.6123" x2="871.3052" y1="555.791" y2="555.791"/><text fill="#000000" font-family="sans-serif" font-size="13" lengthAdjust="spacing" textLength="61.7056" x="521.6123" y="551.0488">Conferma</text></g><line style="stroke:#A80036;stroke-width:2;" x1="772.3882" x2="790.3882" y1="546.791" y2="564.791"/><line style="stroke:#A80036;stroke-width:2;" x1="772.3882" x2="790.3882" y1="564.791" y2="546.791"/><g class="message" data-participant-1="cvu" data-participant-2="a"><polygon fill="#181818" points="86.8896,581.1016,76.8896,585.1016,86.8896,589.1016,82.8896,585.1016" style="stroke:#181818;stroke-width:1;"/><line style="stroke:#181818;stroke-width:1;stroke-dasharray:2,2;" x1="80.8896" x2="498.6123" y1="585.1016" y2="585.1016"/><text fill="#000000" font-family="sans-serif" font-size="13" lengthAdjust="spacing" textLength="292.0493" x="92.8896" y="580.3594">Viene chiusa la schermata di rimozione utente</text></g><!--SRC=[fLB9JiCm43qdNp7g1JYq7z13fL0aRe2ew7tgJDEH73kAxKZqwnaxALaauC0bYlrcUOipLDwsKDGr6tQ-HJaHe0FCimPRpueRD1xs6fsZ_ONsrdWcGqTs0JLVhtXbQ-Z3azp7HjM5UUi8BO1dSd7RY5UBWaS-QRQU54RqbEVPQRqxRK5XomgBLbsuOtk_sMmUyapshdVosO8ekNBaHWE40r0qeisf2xKrUeIG5e_mWJH5COAO7YHPEU9xpKgei8OcQ2S42LRlN0VRyMgw_nnCykJL5ChBpzjG_SHIRHDq8oPuXp8dcPP6h7UuXMDq66gR0ebq48oiGJYpeNW9ofh8iYRdiAhOGYaETXqxcsSbpUUYzb0O4xH6q7UseRRF35GIP4eBgnSh4aQZVg-UET1tBgXBCi59Fqxi5eRjJV_Dtapi9Uq8v5cTOzsF10yy9VXN-OnXtvhogQINDCjZn_JiRa4ianZFLJfcrT3Sonj6U2lxlvMaeWM_T5t6oEmdf4cJSAhm7-EMAPCfi_mB]--></g></svg>