<svg xmlns="http://www.w3.org/2000/svg" xmlns:xlink="http://www.w3.org/1999/xlink" contentStyleType="text/css" data-diagram-type="SEQUENCE" height="879px" preserveAspectRatio="none" style="width:1367px;height:879px;background:#FFFFFF;" version="1.1" viewBox="0 0 1367 879" width="1367px" zoomAndPan="magnify"><defs/><g><g><title>ClasseCheContieneVisualizzazionePrestiti</title><rect fill="#FFFFFF" height="34.3105" style="stroke:#181818;stroke-width:1;" width="10" x="648.3716" y="293.3516"/></g><g><title>ClasseCheContieneVisualizzazionePrestiti</title><rect fill="#FFFFFF" height="135.2422" style="stroke:#181818;stroke-width:1;" width="10" x="648.3716" y="447.9043"/></g><g><title>ClasseCheContieneVisualizzazionePrestiti</title><rect fill="#FFFFFF" height="100.9316" style="stroke:#181818;stroke-width:1;" width="10" x="648.3716" y="680.0781"/></g><g><title>Prestito</title><rect fill="#FFFFFF" height="71.6211" style="stroke:#181818;stroke-width:1;" width="10" x="938.7422" y="482.2148"/></g><g><title>GestorePrestito</title><rect fill="#FFFFFF" height="71.6211" style="stroke:#181818;stroke-width:1;" width="10" x="1061.9648" y="680.0781"/></g><rect fill="none" height="309.1055" style="stroke:#000000;stroke-width:1.5;" width="1056.9648" x="10" y="342.6621"/><rect fill="none" height="46.6211" style="stroke:#000000;stroke-width:1.5;" width="491.6426" x="494.8608" y="598.1465"/><g><title>Amministratore</title><rect fill="#000000" fill-opacity="0.00000" height="717.5215" width="8" x="71.8896" y="81.4883"/><line style="stroke:#181818;stroke-width:0.5;stroke-dasharray:5,5;" x1="75" x2="75" y1="81.4883" y2="799.0098"/></g><g><title>ClasseCheContieneVisualizzazionePrestiti</title><rect fill="#000000" fill-opacity="0.00000" height="717.5215" width="8" x="649.3716" y="81.4883"/><line style="stroke:#181818;stroke-width:0.5;stroke-dasharray:5,5;" x1="652.8608" x2="652.8608" y1="81.4883" y2="799.0098"/></g><g><title>Prestito</title><rect fill="#000000" fill-opacity="0.00000" height="717.5215" width="8" x="939.7422" y="81.4883"/><line style="stroke:#181818;stroke-width:0.5;stroke-dasharray:5,5;" x1="942.981" x2="942.981" y1="81.4883" y2="799.0098"/></g><g><title>GestorePrestito</title><rect fill="#000000" fill-opacity="0.00000" height="717.5215" width="8" x="1062.9648" y="81.4883"/><line style="stroke:#181818;stroke-width:0.5;stroke-dasharray:5,5;" x1="1065.9946" x2="1065.9946" y1="81.4883" y2="799.0098"/></g><g><title>Biblioteca</title><rect fill="#000000" fill-opacity="0.00000" height="717.5215" width="8" x="1241.0566" y="81.4883"/><line style="stroke:#181818;stroke-width:0.5;stroke-dasharray:5,5;" x1="1244.2852" x2="1244.2852" y1="81.4883" y2="799.0098"/></g><g class="participant participant-head" data-participant="a"><text fill="#000000" font-family="sans-serif" font-size="14" lengthAdjust="spacing" textLength="105.7793" x="20" y="78.5352">Amministratore</text><ellipse cx="75.8896" cy="13.5" fill="#E2E2F0" rx="8" ry="8" style="stroke:#181818;stroke-width:0.5;"/><path d="M75.8896,21.5 L75.8896,48.5 M62.8896,29.5 L88.8896,29.5 M75.8896,48.5 L62.8896,63.5 M75.8896,48.5 L88.8896,63.5" fill="none" style="stroke:#181818;stroke-width:0.5;"/></g><g class="participant participant-tail" data-participant="a"><text fill="#000000" font-family="sans-serif" font-size="14" lengthAdjust="spacing" textLength="105.7793" x="20" y="811.5449">Amministratore</text><ellipse cx="75.8896" cy="822.998" fill="#E2E2F0" rx="8" ry="8" style="stroke:#181818;stroke-width:0.5;"/><path d="M75.8896,830.998 L75.8896,857.998 M62.8896,838.998 L88.8896,838.998 M75.8896,857.998 L62.8896,872.998 M75.8896,857.998 L88.8896,872.998" fill="none" style="stroke:#181818;stroke-width:0.5;"/></g><g class="participant participant-head" data-participant="cvp"><rect fill="#E2E2F0" height="30.4883" rx="2.5" ry="2.5" style="stroke:#181818;stroke-width:0.5;" width="297.0215" x="504.8608" y="50"/><text fill="#000000" font-family="sans-serif" font-size="14" lengthAdjust="spacing" textLength="283.0215" x="511.8608" y="70.5352">ClasseCheContieneVisualizzazionePrestiti</text></g><g class="participant participant-tail" data-participant="cvp"><rect fill="#E2E2F0" height="30.4883" rx="2.5" ry="2.5" style="stroke:#181818;stroke-width:0.5;" width="297.0215" x="504.8608" y="798.0098"/><text fill="#000000" font-family="sans-serif" font-size="14" lengthAdjust="spacing" textLength="283.0215" x="511.8608" y="818.5449">ClasseCheContieneVisualizzazionePrestiti</text></g><g class="participant participant-head" data-participant="p"><rect fill="#E2E2F0" height="30.4883" rx="2.5" ry="2.5" style="stroke:#181818;stroke-width:0.5;" width="65.5225" x="910.981" y="50"/><text fill="#000000" font-family="sans-serif" font-size="14" lengthAdjust="spacing" textLength="51.5225" x="917.981" y="70.5352">Prestito</text></g><g class="participant participant-tail" data-participant="p"><rect fill="#E2E2F0" height="30.4883" rx="2.5" ry="2.5" style="stroke:#181818;stroke-width:0.5;" width="65.5225" x="910.981" y="798.0098"/><text fill="#000000" font-family="sans-serif" font-size="14" lengthAdjust="spacing" textLength="51.5225" x="917.981" y="818.5449">Prestito</text></g><g class="participant participant-head" data-participant="gp"><rect fill="#E2E2F0" height="30.4883" rx="2.5" ry="2.5" style="stroke:#181818;stroke-width:0.5;" width="117.9404" x="1007.9946" y="50"/><text fill="#000000" font-family="sans-serif" font-size="14" lengthAdjust="spacing" textLength="103.9404" x="1014.9946" y="70.5352">GestorePrestito</text></g><g class="participant participant-tail" data-participant="gp"><rect fill="#E2E2F0" height="30.4883" rx="2.5" ry="2.5" style="stroke:#181818;stroke-width:0.5;" width="117.9404" x="1007.9946" y="798.0098"/><text fill="#000000" font-family="sans-serif" font-size="14" lengthAdjust="spacing" textLength="103.9404" x="1014.9946" y="818.5449">GestorePrestito</text></g><g class="participant participant-head" data-participant="b"><rect fill="#E2E2F0" height="30.4883" rx="2.5" ry="2.5" style="stroke:#181818;stroke-width:0.5;" width="79.543" x="1205.2852" y="50"/><text fill="#000000" font-family="sans-serif" font-size="14" lengthAdjust="spacing" textLength="65.543" x="1212.2852" y="70.5352">Biblioteca</text></g><g class="participant participant-tail" data-participant="b"><rect fill="#E2E2F0" height="30.4883" rx="2.5" ry="2.5" style="stroke:#181818;stroke-width:0.5;" width="79.543" x="1205.2852" y="798.0098"/><text fill="#000000" font-family="sans-serif" font-size="14" lengthAdjust="spacing" textLength="65.543" x="1212.2852" y="818.5449">Biblioteca</text></g><g><title>ClasseCheContieneVisualizzazionePrestiti</title><rect fill="#FFFFFF" height="34.3105" style="stroke:#181818;stroke-width:1;" width="10" x="648.3716" y="293.3516"/></g><g><title>ClasseCheContieneVisualizzazionePrestiti</title><rect fill="#FFFFFF" height="135.2422" style="stroke:#181818;stroke-width:1;" width="10" x="648.3716" y="447.9043"/></g><g><title>ClasseCheContieneVisualizzazionePrestiti</title><rect fill="#FFFFFF" height="100.9316" style="stroke:#181818;stroke-width:1;" width="10" x="648.3716" y="680.0781"/></g><g><title>Prestito</title><rect fill="#FFFFFF" height="71.6211" style="stroke:#181818;stroke-width:1;" width="10" x="938.7422" y="482.2148"/></g><g><title>GestorePrestito</title><rect fill="#FFFFFF" height="71.6211" style="stroke:#181818;stroke-width:1;" width="10" x="1061.9648" y="680.0781"/></g><g class="message" data-participant-1="b" data-participant-2="b"><line style="stroke:#181818;stroke-width:1;" x1="1245.0566" x2="1287.0566" y1="112.7988" y2="112.7988"/><line style="stroke:#181818;stroke-width:1;" x1="1287.0566" x2="1287.0566" y1="112.7988" y2="125.7988"/><line style="stroke:#181818;stroke-width:1;" x1="1246.0566" x2="1287.0566" y1="125.7988" y2="125.7988"/><polygon fill="#181818" points="1256.0566,121.7988,1246.0566,125.7988,1256.0566,129.7988,1252.0566,125.7988" style="stroke:#181818;stroke-width:1;"/><text fill="#000000" font-family="sans-serif" font-size="13" lengthAdjust="spacing" textLength="108.7925" x="1252.0566" y="108.0566">caricaArchivio(...)</text></g><g class="message" data-participant-1="cvp" data-participant-2="cvp"><line style="stroke:#181818;stroke-width:1;" x1="653.3716" x2="695.3716" y1="155.1094" y2="155.1094"/><line style="stroke:#181818;stroke-width:1;" x1="695.3716" x2="695.3716" y1="155.1094" y2="168.1094"/><line style="stroke:#181818;stroke-width:1;" x1="654.3716" x2="695.3716" y1="168.1094" y2="168.1094"/><polygon fill="#181818" points="664.3716,164.1094,654.3716,168.1094,664.3716,172.1094,660.3716,168.1094" style="stroke:#181818;stroke-width:1;"/><text fill="#000000" font-family="sans-serif" font-size="13" lengthAdjust="spacing" textLength="76.978" x="660.3716" y="150.3672">inizialize(...)</text></g><g class="message" data-participant-1="a" data-participant-2="cvp"><polygon fill="#181818" points="641.3716,193.4199,651.3716,197.4199,641.3716,201.4199,645.3716,197.4199" style="stroke:#181818;stroke-width:1;"/><line style="stroke:#181818;stroke-width:1;" x1="75.8896" x2="647.3716" y1="197.4199" y2="197.4199"/><text fill="#000000" font-family="sans-serif" font-size="13" lengthAdjust="spacing" textLength="147.8242" x="82.8896" y="192.6777">Apre schermata prestiti</text></g><g class="message" data-participant-1="a" data-participant-2="cvp"><polygon fill="#181818" points="641.3716,222.7305,651.3716,226.7305,641.3716,230.7305,645.3716,226.7305" style="stroke:#181818;stroke-width:1;"/><line style="stroke:#181818;stroke-width:1;" x1="75.8896" x2="647.3716" y1="226.7305" y2="226.7305"/><text fill="#000000" font-family="sans-serif" font-size="13" lengthAdjust="spacing" textLength="132.8882" x="82.8896" y="221.9883">Seleziona un prestito</text></g><g class="message" data-participant-1="a" data-participant-2="cvp"><polygon fill="#181818" points="641.3716,252.041,651.3716,256.041,641.3716,260.041,645.3716,256.041" style="stroke:#181818;stroke-width:1;"/><line style="stroke:#181818;stroke-width:1;" x1="75.8896" x2="647.3716" y1="256.041" y2="256.041"/><text fill="#000000" font-family="sans-serif" font-size="13" lengthAdjust="spacing" textLength="166.3467" x="82.8896" y="251.2988">Clicca il pulsante "Estendi"</text></g><g class="message" data-participant-1="cvp" data-participant-2="cvp"><line style="stroke:#181818;stroke-width:1;" x1="653.3716" x2="700.3716" y1="280.3516" y2="280.3516"/><line style="stroke:#181818;stroke-width:1;" x1="700.3716" x2="700.3716" y1="280.3516" y2="293.3516"/><line style="stroke:#181818;stroke-width:1;" x1="659.3716" x2="700.3716" y1="293.3516" y2="293.3516"/><polygon fill="#181818" points="669.3716,289.3516,659.3716,293.3516,669.3716,297.3516,665.3716,293.3516" style="stroke:#181818;stroke-width:1;"/><text fill="#000000" font-family="sans-serif" font-size="13" lengthAdjust="spacing" textLength="233.4604" x="665.3716" y="275.6094">funzioneOnActionPulsanteEstendi(...)</text></g><g class="message" data-participant-1="cvp" data-participant-2="a"><polygon fill="#181818" points="86.8896,323.6621,76.8896,327.6621,86.8896,331.6621,82.8896,327.6621" style="stroke:#181818;stroke-width:1;"/><line style="stroke:#181818;stroke-width:1;stroke-dasharray:2,2;" x1="80.8896" x2="652.3716" y1="327.6621" y2="327.6621"/><text fill="#000000" font-family="sans-serif" font-size="13" lengthAdjust="spacing" textLength="298.6128" x="92.8896" y="322.9199">Viene mostrata la schermata di estendi prestito</text></g><path d="M10,342.6621 L84.4468,342.6621 L84.4468,349.9727 L74.4468,359.9727 L10,359.9727 L10,342.6621" fill="#EEEEEE" style="stroke:#000000;stroke-width:1.5;"/><rect fill="none" height="309.1055" style="stroke:#000000;stroke-width:1.5;" width="1056.9648" x="10" y="342.6621"/><text fill="#000000" font-family="sans-serif" font-size="13" font-weight="bold" lengthAdjust="spacing" textLength="29.4468" x="25" y="356.2305">loop</text><text fill="#000000" font-family="sans-serif" font-size="11" font-weight="bold" lengthAdjust="spacing" textLength="282.4443" x="99.4468" y="355.2969">[Amministratore modifica i campi in modo errato]</text><g class="message" data-participant-1="a" data-participant-2="cvp"><polygon fill="#181818" points="641.3716,377.2832,651.3716,381.2832,641.3716,385.2832,645.3716,381.2832" style="stroke:#181818;stroke-width:1;"/><line style="stroke:#181818;stroke-width:1;" x1="75.8896" x2="647.3716" y1="381.2832" y2="381.2832"/><text fill="#000000" font-family="sans-serif" font-size="13" lengthAdjust="spacing" textLength="265.1479" x="82.8896" y="376.541">Modifica i campi del prestito nel TextField</text></g><g class="message" data-participant-1="a" data-participant-2="cvp"><polygon fill="#181818" points="641.3716,406.5938,651.3716,410.5938,641.3716,414.5938,645.3716,410.5938" style="stroke:#181818;stroke-width:1;"/><line style="stroke:#181818;stroke-width:1;" x1="75.8896" x2="647.3716" y1="410.5938" y2="410.5938"/><text fill="#000000" font-family="sans-serif" font-size="13" lengthAdjust="spacing" textLength="184.3867" x="82.8896" y="405.8516">Preme il pulsante "Conferma"</text></g><g class="message" data-participant-1="cvp" data-participant-2="cvp"><line style="stroke:#181818;stroke-width:1;" x1="653.3716" x2="700.3716" y1="434.9043" y2="434.9043"/><line style="stroke:#181818;stroke-width:1;" x1="700.3716" x2="700.3716" y1="434.9043" y2="447.9043"/><line style="stroke:#181818;stroke-width:1;" x1="659.3716" x2="700.3716" y1="447.9043" y2="447.9043"/><polygon fill="#181818" points="669.3716,443.9043,659.3716,447.9043,669.3716,451.9043,665.3716,447.9043" style="stroke:#181818;stroke-width:1;"/><text fill="#000000" font-family="sans-serif" font-size="13" lengthAdjust="spacing" textLength="276.3706" x="665.3716" y="430.1621">funzioneOnActionDiPulsanteDiConferma(...)</text></g><g class="message" data-participant-1="cvp" data-participant-2="p"><polygon fill="#181818" points="926.7422,478.2148,936.7422,482.2148,926.7422,486.2148,930.7422,482.2148" style="stroke:#181818;stroke-width:1;"/><line style="stroke:#181818;stroke-width:1;" x1="658.3716" x2="932.7422" y1="482.2148" y2="482.2148"/><text fill="#000000" font-family="sans-serif" font-size="13" lengthAdjust="spacing" textLength="66.2188" x="665.3716" y="477.4727">verifica(...)</text></g><g class="message" data-participant-1="p" data-participant-2="p"><line style="stroke:#181818;stroke-width:1;" x1="948.7422" x2="990.7422" y1="511.5254" y2="511.5254"/><line style="stroke:#181818;stroke-width:1;" x1="990.7422" x2="990.7422" y1="511.5254" y2="524.5254"/><line style="stroke:#181818;stroke-width:1;" x1="949.7422" x2="990.7422" y1="524.5254" y2="524.5254"/><polygon fill="#181818" points="959.7422,520.5254,949.7422,524.5254,959.7422,528.5254,955.7422,524.5254" style="stroke:#181818;stroke-width:1;"/><text fill="#000000" font-family="sans-serif" font-size="13" lengthAdjust="spacing" textLength="89.2227" x="955.7422" y="506.7832">Verifica campi</text></g><g class="message" data-participant-1="p" data-participant-2="cvp"><polygon fill="#181818" points="669.3716,549.8359,659.3716,553.8359,669.3716,557.8359,665.3716,553.8359" style="stroke:#181818;stroke-width:1;"/><line style="stroke:#181818;stroke-width:1;stroke-dasharray:2,2;" x1="663.3716" x2="942.7422" y1="553.8359" y2="553.8359"/><text fill="#000000" font-family="sans-serif" font-size="13" lengthAdjust="spacing" textLength="197.8628" x="675.3716" y="549.0938">Verifica non andata a buon fine</text></g><g class="message" data-participant-1="cvp" data-participant-2="a"><polygon fill="#181818" points="86.8896,579.1465,76.8896,583.1465,86.8896,587.1465,82.8896,583.1465" style="stroke:#181818;stroke-width:1;"/><line style="stroke:#181818;stroke-width:1;stroke-dasharray:2,2;" x1="80.8896" x2="652.3716" y1="583.1465" y2="583.1465"/><text fill="#000000" font-family="sans-serif" font-size="13" lengthAdjust="spacing" textLength="548.4819" x="92.8896" y="578.4043">Viene visualizzato un messaggio di errore e vengono evidenziati i campi da correggere</text></g><path d="M494.8608,598.1465 L577.8706,598.1465 L577.8706,605.457 L567.8706,615.457 L494.8608,615.457 L494.8608,598.1465" fill="#EEEEEE" style="stroke:#000000;stroke-width:1.5;"/><rect fill="none" height="46.6211" style="stroke:#000000;stroke-width:1.5;" width="491.6426" x="494.8608" y="598.1465"/><text fill="#000000" font-family="sans-serif" font-size="13" font-weight="bold" lengthAdjust="spacing" textLength="38.0098" x="509.8608" y="611.7148">break</text><g class="message" data-participant-1="p" data-participant-2="cvp"><polygon fill="#181818" points="664.3716,632.7676,654.3716,636.7676,664.3716,640.7676,660.3716,636.7676" style="stroke:#181818;stroke-width:1;"/><line style="stroke:#181818;stroke-width:1;stroke-dasharray:2,2;" x1="658.3716" x2="942.7422" y1="636.7676" y2="636.7676"/><text fill="#000000" font-family="sans-serif" font-size="13" lengthAdjust="spacing" textLength="169.6284" x="670.3716" y="632.0254">Verifica andata a buon fine</text></g><g class="message" data-participant-1="cvp" data-participant-2="gp"><polygon fill="#181818" points="1049.9648,676.0781,1059.9648,680.0781,1049.9648,684.0781,1053.9648,680.0781" style="stroke:#181818;stroke-width:1;"/><line style="stroke:#181818;stroke-width:1;" x1="658.3716" x2="1055.9648" y1="680.0781" y2="680.0781"/><text fill="#000000" font-family="sans-serif" font-size="13" lengthAdjust="spacing" textLength="114.6196" x="665.3716" y="675.3359">estendiPrestito(...)</text></g><g class="message" data-participant-1="gp" data-participant-2="gp"><line style="stroke:#181818;stroke-width:1;" x1="1071.9648" x2="1113.9648" y1="709.3887" y2="709.3887"/><line style="stroke:#181818;stroke-width:1;" x1="1113.9648" x2="1113.9648" y1="709.3887" y2="722.3887"/><line style="stroke:#181818;stroke-width:1;" x1="1072.9648" x2="1113.9648" y1="722.3887" y2="722.3887"/><polygon fill="#181818" points="1082.9648,718.3887,1072.9648,722.3887,1082.9648,726.3887,1078.9648,722.3887" style="stroke:#181818;stroke-width:1;"/><text fill="#000000" font-family="sans-serif" font-size="13" lengthAdjust="spacing" textLength="144.0918" x="1078.9648" y="704.6465">Viene esteso il prestito</text></g><g class="message" data-participant-1="gp" data-participant-2="cvp"><polygon fill="#181818" points="669.3716,747.6992,659.3716,751.6992,669.3716,755.6992,665.3716,751.6992" style="stroke:#181818;stroke-width:1;"/><line style="stroke:#181818;stroke-width:1;stroke-dasharray:2,2;" x1="663.3716" x2="1065.9648" y1="751.6992" y2="751.6992"/><text fill="#000000" font-family="sans-serif" font-size="13" lengthAdjust="spacing" textLength="61.7056" x="675.3716" y="746.957">Conferma</text></g><g class="message" data-participant-1="cvp" data-participant-2="a"><polygon fill="#181818" points="86.8896,777.0098,76.8896,781.0098,86.8896,785.0098,82.8896,781.0098" style="stroke:#181818;stroke-width:1;"/><line style="stroke:#181818;stroke-width:1;stroke-dasharray:2,2;" x1="80.8896" x2="652.3716" y1="781.0098" y2="781.0098"/><text fill="#000000" font-family="sans-serif" font-size="13" lengthAdjust="spacing" textLength="284.7241" x="92.8896" y="776.2676">Viene chiusa la schermata di estensione libro</text></g><!--SRC=[bLInZjim39tjho2oN3ia7v0XG9gxTYhkW1RPQPbnYCgI8Sd68LzVIfOTnxqRkXYM-KWzlaUwG1MiWsFRic4V7Cg903rWMNJe0Ylkq0GuQVIUJbSwMHEO39tPzwZvTiCRMqDlZdpWm35L3TrZSWxQ65o5VaX4RbmYcXNa6rUQRI25CLgLPL5j3zKU53fMU7JgoWFRBxlTxcjPoDtRWpps8FtSE3Aa7C8SE7RIeLTNSYq6X2uplmD-aQRO549lfh0jYplWf5a96zRGzTeBHuBDYmzaQjuiALnwayHvDKSLvEKjepDsuYMn0QL6qYscmtPxW0rkzd2EKaDhapC86XV4QmOQ2or8rlHGhYoULjQsjkOBH_OYODknw1I_MI0N4MMXhUtWVvDcQNwkaJNfcHuOEVocz_2TITUBBB6_fKSzPSukiT7DACadYZxpfEapJnbPrhMkOnMfCP1B52VS7PXWnOWwPzJOnXX8lYGUSzHO0sZgw0T2rSlfmeOYVE54jbMoSR9qcDT7P94nQybxR1gsoLRdekg28jDO8p8FN9DqZh9Wix12pJf7JKCkNhXolYYUH92QaronQEyLnwb13T5Y0LIEy4-PEixopcrzs9ACMfaUUSORoSWJEEtlnoCz7vkaS9DpHoLY1M-J-VCKHynTxCdOnoPZhMbNPbdbNz3xJ_R49oKqL-xVFVaB]--></g></svg>