<svg xmlns="http://www.w3.org/2000/svg" xmlns:xlink="http://www.w3.org/1999/xlink" contentStyleType="text/css" data-diagram-type="SEQUENCE" height="733px" preserveAspectRatio="none" style="width:1056px;height:733px;background:#FFFFFF;" version="1.1" viewBox="0 0 1056 733" width="1056px" zoomAndPan="magnify"><defs/><g><g><title>UtentiController</title><rect fill="#FFFFFF" height="34.3105" style="stroke:#181818;stroke-width:1;" width="10" x="494.6123" y="251.041"/></g><g><title>RimozioneUtenteController</title><rect fill="#FFFFFF" height="34.3105" style="stroke:#181818;stroke-width:1;" width="10" x="665.2227" y="376.2832"/></g><g><title>RimozioneUtenteController</title><rect fill="#FFFFFF" height="135.2422" style="stroke:#181818;stroke-width:1;" width="10" x="665.2227" y="492.1699"/></g><g><title>Utenti</title><rect fill="#FFFFFF" height="71.6211" style="stroke:#181818;stroke-width:1;" width="10" x="870.2134" y="526.4805"/></g><rect fill="none" height="335.0605" style="stroke:#000000;stroke-width:1.5;" width="1039.7695" x="10" y="300.3516"/><g><title>Amministratore</title><rect fill="#000000" fill-opacity="0.00000" height="570.9238" width="8" x="71.8896" y="81.4883"/><line style="stroke:#181818;stroke-width:0.5;stroke-dasharray:5,5;" x1="75" x2="75" y1="81.4883" y2="652.4121"/></g><g><title>UtentiController</title><rect fill="#000000" fill-opacity="0.00000" height="570.9238" width="8" x="495.6123" y="81.4883"/><line style="stroke:#181818;stroke-width:0.5;stroke-dasharray:5,5;" x1="499.1777" x2="499.1777" y1="81.4883" y2="652.4121"/></g><g><title>RimozioneUtenteController</title><rect fill="#000000" fill-opacity="0.00000" height="570.9238" width="8" x="666.2227" y="81.4883"/><line style="stroke:#181818;stroke-width:0.5;stroke-dasharray:5,5;" x1="670.0469" x2="670.0469" y1="81.4883" y2="652.4121"/></g><g><title>Utente</title><rect fill="#000000" fill-opacity="0.00000" height="570.9238" width="8" x="804.6289" y="81.4883"/><line style="stroke:#181818;stroke-width:0.5;stroke-dasharray:5,5;" x1="808.3984" x2="808.3984" y1="81.4883" y2="652.4121"/></g><g><title>Utenti</title><rect fill="#000000" fill-opacity="0.00000" height="570.9238" width="8" x="871.2134" y="81.4883"/><line style="stroke:#181818;stroke-width:0.5;stroke-dasharray:5,5;" x1="874.8594" x2="874.8594" y1="81.4883" y2="652.4121"/></g><g class="participant participant-head" data-participant="a"><text fill="#000000" font-family="sans-serif" font-size="14" lengthAdjust="spacing" textLength="105.7793" x="20" y="78.5352">Amministratore</text><ellipse cx="75.8896" cy="13.5" fill="#E2E2F0" rx="8" ry="8" style="stroke:#181818;stroke-width:0.5;"/><path d="M75.8896,21.5 L75.8896,48.5 M62.8896,29.5 L88.8896,29.5 M75.8896,48.5 L62.8896,63.5 M75.8896,48.5 L88.8896,63.5" fill="none" style="stroke:#181818;stroke-width:0.5;"/></g><g class="participant participant-tail" data-participant="a"><text fill="#000000" font-family="sans-serif" font-size="14" lengthAdjust="spacing" textLength="105.7793" x="20" y="664.9473">Amministratore</text><ellipse cx="75.8896" cy="676.4004" fill="#E2E2F0" rx="8" ry="8" style="stroke:#181818;stroke-width:0.5;"/><path d="M75.8896,684.4004 L75.8896,711.4004 M62.8896,692.4004 L88.8896,692.4004 M75.8896,711.4004 L62.8896,726.4004 M75.8896,711.4004 L88.8896,726.4004" fill="none" style="stroke:#181818;stroke-width:0.5;"/></g><g class="participant participant-head" data-participant="cvu"><rect fill="#E2E2F0" height="30.4883" rx="2.5" ry="2.5" style="stroke:#181818;stroke-width:0.5;" width="122.8691" x="438.1777" y="50"/><text fill="#000000" font-family="sans-serif" font-size="14" lengthAdjust="spacing" textLength="108.8691" x="445.1777" y="70.5352">UtentiController</text></g><g class="participant participant-tail" data-participant="cvu"><rect fill="#E2E2F0" height="30.4883" rx="2.5" ry="2.5" style="stroke:#181818;stroke-width:0.5;" width="122.8691" x="438.1777" y="651.4121"/><text fill="#000000" font-family="sans-serif" font-size="14" lengthAdjust="spacing" textLength="108.8691" x="445.1777" y="671.9473">UtentiController</text></g><g class="participant participant-head" data-participant="ruc"><rect fill="#E2E2F0" height="30.4883" rx="2.5" ry="2.5" style="stroke:#181818;stroke-width:0.5;" width="198.3516" x="571.0469" y="50"/><text fill="#000000" font-family="sans-serif" font-size="14" lengthAdjust="spacing" textLength="184.3516" x="578.0469" y="70.5352">RimozioneUtenteController</text></g><g class="participant participant-tail" data-participant="ruc"><rect fill="#E2E2F0" height="30.4883" rx="2.5" ry="2.5" style="stroke:#181818;stroke-width:0.5;" width="198.3516" x="571.0469" y="651.4121"/><text fill="#000000" font-family="sans-serif" font-size="14" lengthAdjust="spacing" textLength="184.3516" x="578.0469" y="671.9473">RimozioneUtenteController</text></g><g class="participant participant-head" data-participant="u"><rect fill="#E2E2F0" height="30.4883" rx="2.5" ry="2.5" style="stroke:#181818;stroke-width:0.5;" width="58.4609" x="779.3984" y="50"/><text fill="#000000" font-family="sans-serif" font-size="14" lengthAdjust="spacing" textLength="44.4609" x="786.3984" y="70.5352">Utente</text></g><g class="participant participant-tail" data-participant="u"><rect fill="#E2E2F0" height="30.4883" rx="2.5" ry="2.5" style="stroke:#181818;stroke-width:0.5;" width="58.4609" x="779.3984" y="651.4121"/><text fill="#000000" font-family="sans-serif" font-size="14" lengthAdjust="spacing" textLength="44.4609" x="786.3984" y="671.9473">Utente</text></g><g class="participant participant-head" data-participant="gu"><rect fill="#E2E2F0" height="30.4883" rx="2.5" ry="2.5" style="stroke:#181818;stroke-width:0.5;" width="54.708" x="847.8594" y="50"/><text fill="#000000" font-family="sans-serif" font-size="14" lengthAdjust="spacing" textLength="40.708" x="854.8594" y="70.5352">Utenti</text></g><g class="participant participant-tail" data-participant="gu"><rect fill="#E2E2F0" height="30.4883" rx="2.5" ry="2.5" style="stroke:#181818;stroke-width:0.5;" width="54.708" x="847.8594" y="651.4121"/><text fill="#000000" font-family="sans-serif" font-size="14" lengthAdjust="spacing" textLength="40.708" x="854.8594" y="671.9473">Utenti</text></g><g><title>UtentiController</title><rect fill="#FFFFFF" height="34.3105" style="stroke:#181818;stroke-width:1;" width="10" x="494.6123" y="251.041"/></g><g><title>RimozioneUtenteController</title><rect fill="#FFFFFF" height="34.3105" style="stroke:#181818;stroke-width:1;" width="10" x="665.2227" y="376.2832"/></g><g><title>RimozioneUtenteController</title><rect fill="#FFFFFF" height="135.2422" style="stroke:#181818;stroke-width:1;" width="10" x="665.2227" y="492.1699"/></g><g><title>Utenti</title><rect fill="#FFFFFF" height="71.6211" style="stroke:#181818;stroke-width:1;" width="10" x="870.2134" y="526.4805"/></g><g class="message" data-participant-1="cvu" data-participant-2="cvu"><line style="stroke:#181818;stroke-width:1;" x1="499.6123" x2="541.6123" y1="112.7988" y2="112.7988"/><line style="stroke:#181818;stroke-width:1;" x1="541.6123" x2="541.6123" y1="112.7988" y2="125.7988"/><line style="stroke:#181818;stroke-width:1;" x1="500.6123" x2="541.6123" y1="125.7988" y2="125.7988"/><polygon fill="#181818" points="510.6123,121.7988,500.6123,125.7988,510.6123,129.7988,506.6123,125.7988" style="stroke:#181818;stroke-width:1;"/><text fill="#000000" font-family="sans-serif" font-size="13" lengthAdjust="spacing" textLength="74.3882" x="506.6123" y="108.0566">initialize(...)</text></g><g class="message" data-participant-1="a" data-participant-2="cvu"><polygon fill="#181818" points="487.6123,151.1094,497.6123,155.1094,487.6123,159.1094,491.6123,155.1094" style="stroke:#181818;stroke-width:1;"/><line style="stroke:#181818;stroke-width:1;" x1="75.8896" x2="493.6123" y1="155.1094" y2="155.1094"/><text fill="#000000" font-family="sans-serif" font-size="13" lengthAdjust="spacing" textLength="140.0737" x="82.8896" y="150.3672">Apre schermata utenti</text></g><g class="message" data-participant-1="a" data-participant-2="cvu"><polygon fill="#181818" points="487.6123,180.4199,497.6123,184.4199,487.6123,188.4199,491.6123,184.4199" style="stroke:#181818;stroke-width:1;"/><line style="stroke:#181818;stroke-width:1;" x1="75.8896" x2="493.6123" y1="184.4199" y2="184.4199"/><text fill="#000000" font-family="sans-serif" font-size="13" lengthAdjust="spacing" textLength="124.395" x="82.8896" y="179.6777">Seleziona un utente</text></g><g class="message" data-participant-1="a" data-participant-2="cvu"><polygon fill="#181818" points="487.6123,209.7305,497.6123,213.7305,487.6123,217.7305,491.6123,213.7305" style="stroke:#181818;stroke-width:1;"/><line style="stroke:#181818;stroke-width:1;" x1="75.8896" x2="493.6123" y1="213.7305" y2="213.7305"/><text fill="#000000" font-family="sans-serif" font-size="13" lengthAdjust="spacing" textLength="171.2153" x="82.8896" y="208.9883">Clicca il pulsante "Rimuovi"</text></g><g class="message" data-participant-1="cvu" data-participant-2="cvu"><line style="stroke:#181818;stroke-width:1;" x1="499.6123" x2="546.6123" y1="238.041" y2="238.041"/><line style="stroke:#181818;stroke-width:1;" x1="546.6123" x2="546.6123" y1="238.041" y2="251.041"/><line style="stroke:#181818;stroke-width:1;" x1="505.6123" x2="546.6123" y1="251.041" y2="251.041"/><polygon fill="#181818" points="515.6123,247.041,505.6123,251.041,515.6123,255.041,511.6123,251.041" style="stroke:#181818;stroke-width:1;"/><text fill="#000000" font-family="sans-serif" font-size="13" lengthAdjust="spacing" textLength="105.1299" x="511.6123" y="233.2988">onDeleteUser(...)</text></g><g class="message" data-participant-1="cvu" data-participant-2="a"><polygon fill="#181818" points="86.8896,281.3516,76.8896,285.3516,86.8896,289.3516,82.8896,285.3516" style="stroke:#181818;stroke-width:1;"/><line style="stroke:#181818;stroke-width:1;stroke-dasharray:2,2;" x1="80.8896" x2="498.6123" y1="285.3516" y2="285.3516"/><text fill="#000000" font-family="sans-serif" font-size="13" lengthAdjust="spacing" textLength="394.7227" x="92.8896" y="280.6094">Viene mostrata una nuova finestra con un messaggio di avviso</text></g><path d="M10,300.3516 L72.1387,300.3516 L72.1387,307.6621 L62.1387,317.6621 L10,317.6621 L10,300.3516" fill="#EEEEEE" style="stroke:#000000;stroke-width:1.5;"/><rect fill="none" height="335.0605" style="stroke:#000000;stroke-width:1.5;" width="1039.7695" x="10" y="300.3516"/><text fill="#000000" font-family="sans-serif" font-size="13" font-weight="bold" lengthAdjust="spacing" textLength="17.1387" x="25" y="313.9199">alt</text><text fill="#000000" font-family="sans-serif" font-size="11" font-weight="bold" lengthAdjust="spacing" textLength="209.854" x="87.1387" y="312.9863">[Annulla l'operazione cliccando "No"]</text><g class="message" data-participant-1="a" data-participant-2="ruc"><polygon fill="#181818" points="658.2227,334.9727,668.2227,338.9727,658.2227,342.9727,662.2227,338.9727" style="stroke:#181818;stroke-width:1;"/><line style="stroke:#181818;stroke-width:1;" x1="75.8896" x2="664.2227" y1="338.9727" y2="338.9727"/><text fill="#000000" font-family="sans-serif" font-size="13" lengthAdjust="spacing" textLength="293.2935" x="82.8896" y="334.2305">Annulla l'operazione cliccando il pulsante "No"</text></g><g class="message" data-participant-1="ruc" data-participant-2="ruc"><line style="stroke:#181818;stroke-width:1;" x1="670.2227" x2="717.2227" y1="363.2832" y2="363.2832"/><line style="stroke:#181818;stroke-width:1;" x1="717.2227" x2="717.2227" y1="363.2832" y2="376.2832"/><line style="stroke:#181818;stroke-width:1;" x1="676.2227" x2="717.2227" y1="376.2832" y2="376.2832"/><polygon fill="#181818" points="686.2227,372.2832,676.2227,376.2832,686.2227,380.2832,682.2227,376.2832" style="stroke:#181818;stroke-width:1;"/><text fill="#000000" font-family="sans-serif" font-size="13" lengthAdjust="spacing" textLength="78.749" x="682.2227" y="358.541">onCancel(...)</text></g><g class="message" data-participant-1="ruc" data-participant-2="a"><polygon fill="#181818" points="86.8896,406.5938,76.8896,410.5938,86.8896,414.5938,82.8896,410.5938" style="stroke:#181818;stroke-width:1;"/><line style="stroke:#181818;stroke-width:1;stroke-dasharray:2,2;" x1="80.8896" x2="669.2227" y1="410.5938" y2="410.5938"/><text fill="#000000" font-family="sans-serif" font-size="13" lengthAdjust="spacing" textLength="292.0493" x="92.8896" y="405.8516">Viene chiusa la schermata di rimozione utente</text></g><line style="stroke:#000000;stroke-width:1;stroke-dasharray:2,2;" x1="10" x2="1049.7695" y1="419.5938" y2="419.5938"/><text fill="#000000" font-family="sans-serif" font-size="11" font-weight="bold" lengthAdjust="spacing" textLength="216.0684" x="15" y="430.2285">[Conferma l'operazione cliccando "Si"]</text><g class="message" data-participant-1="a" data-participant-2="ruc"><polygon fill="#181818" points="658.2227,450.8594,668.2227,454.8594,658.2227,458.8594,662.2227,454.8594" style="stroke:#181818;stroke-width:1;"/><line style="stroke:#181818;stroke-width:1;" x1="75.8896" x2="664.2227" y1="454.8594" y2="454.8594"/><text fill="#000000" font-family="sans-serif" font-size="13" lengthAdjust="spacing" textLength="300.3013" x="82.8896" y="450.1172">Conferma l'operazione cliccando il pulsante "Si"</text></g><g class="message" data-participant-1="ruc" data-participant-2="ruc"><line style="stroke:#181818;stroke-width:1;" x1="670.2227" x2="717.2227" y1="479.1699" y2="479.1699"/><line style="stroke:#181818;stroke-width:1;" x1="717.2227" x2="717.2227" y1="479.1699" y2="492.1699"/><line style="stroke:#181818;stroke-width:1;" x1="676.2227" x2="717.2227" y1="492.1699" y2="492.1699"/><polygon fill="#181818" points="686.2227,488.1699,676.2227,492.1699,686.2227,496.1699,682.2227,492.1699" style="stroke:#181818;stroke-width:1;"/><text fill="#000000" font-family="sans-serif" font-size="13" lengthAdjust="spacing" textLength="87.8896" x="682.2227" y="474.4277">onConfirm(...)</text></g><g class="message" data-participant-1="ruc" data-participant-2="gu"><polygon fill="#181818" points="858.2134,522.4805,868.2134,526.4805,858.2134,530.4805,862.2134,526.4805" style="stroke:#181818;stroke-width:1;"/><line style="stroke:#181818;stroke-width:1;" x1="675.2227" x2="864.2134" y1="526.4805" y2="526.4805"/><text fill="#000000" font-family="sans-serif" font-size="13" lengthAdjust="spacing" textLength="68.5483" x="682.2227" y="521.7383">rimuovi(...)</text></g><g class="message" data-participant-1="gu" data-participant-2="gu"><line style="stroke:#181818;stroke-width:1;" x1="880.2134" x2="922.2134" y1="555.791" y2="555.791"/><line style="stroke:#181818;stroke-width:1;" x1="922.2134" x2="922.2134" y1="555.791" y2="568.791"/><line style="stroke:#181818;stroke-width:1;" x1="881.2134" x2="922.2134" y1="568.791" y2="568.791"/><polygon fill="#181818" points="891.2134,564.791,881.2134,568.791,891.2134,572.791,887.2134,568.791" style="stroke:#181818;stroke-width:1;"/><text fill="#000000" font-family="sans-serif" font-size="13" lengthAdjust="spacing" textLength="140.5562" x="887.2134" y="551.0488">Viene rimosso l'utente</text></g><g class="message" data-participant-1="gu" data-participant-2="ruc"><polygon fill="#181818" points="686.2227,594.1016,676.2227,598.1016,686.2227,602.1016,682.2227,598.1016" style="stroke:#181818;stroke-width:1;"/><line style="stroke:#181818;stroke-width:1;stroke-dasharray:2,2;" x1="680.2227" x2="874.2134" y1="598.1016" y2="598.1016"/><text fill="#000000" font-family="sans-serif" font-size="13" lengthAdjust="spacing" textLength="61.7056" x="692.2227" y="593.3594">Conferma</text></g><line style="stroke:#A80036;stroke-width:2;" x1="799.6289" x2="817.6289" y1="589.1016" y2="607.1016"/><line style="stroke:#A80036;stroke-width:2;" x1="799.6289" x2="817.6289" y1="607.1016" y2="589.1016"/><g class="message" data-participant-1="ruc" data-participant-2="a"><polygon fill="#181818" points="86.8896,623.4121,76.8896,627.4121,86.8896,631.4121,82.8896,627.4121" style="stroke:#181818;stroke-width:1;"/><line style="stroke:#181818;stroke-width:1;stroke-dasharray:2,2;" x1="80.8896" x2="669.2227" y1="627.4121" y2="627.4121"/><text fill="#000000" font-family="sans-serif" font-size="13" lengthAdjust="spacing" textLength="292.0493" x="92.8896" y="622.6699">Viene chiusa la schermata di rimozione utente</text></g><!--SRC=[hPA_JiD03CRdorDONO2XVO0EaQeoCr31RbrCi7JnHVSd4ZmzlWkb2HIni4JA-RFz_MmRjCa7E0m32ySKKFy8C08sPiIGsFA8ak0faIG-Uad1EqUXIEoKrw977lmxUw6gfhKwP7kbPEsLh_KgWJutZT4ssrO_Ur2BYT7nEztkThkxnk1du32gwMXVAGoO478jS0cVo57nfH6PWtG97XrRYy0EnkmY5aiR1Sb-uisokPTxBPFeAL8ujxU99zI4EecgtRQuXsSc8HXydMTfYY1Q3-65XSeZM2_5oq0nOj-pXqvvfucZRqn7wxhQnoKuY6Jd4DoD7obW7JFOwbqw3vi7hsuBbCvv_vTw1JjdQXfiMwZPNeuebjmdveMpxh1gbw3sbNFKNhXOWVA4ypLyZNo9DfTg3Bb8e9VoKX9_fJlnakul-GflJYsMspESfdCOpdHNyTfULnxcC_WfxCkwZUdph9l7K7XZz6hgYxTAlfckprqv0_y6jSvYAhNmlusNf3FD1m00]--></g></svg>