<svg xmlns="http://www.w3.org/2000/svg" xmlns:xlink="http://www.w3.org/1999/xlink" contentStyleType="text/css" data-diagram-type="SEQUENCE" height="1146px" preserveAspectRatio="none" style="width:1115px;height:1146px;background:#FFFFFF;" version="1.1" viewBox="0 0 1115 1146" width="1115px" zoomAndPan="magnify"><defs/><g><g><title>ClasseCheContieneVisualizzazioneLibri</title><rect fill="#FFFFFF" height="34.3105" style="stroke:#181818;stroke-width:1;" width="10" x="504.6123" y="275.3516"/></g><g><title>ClasseCheContieneVisualizzazioneLibri</title><rect fill="#FFFFFF" height="105.9316" style="stroke:#181818;stroke-width:1;" width="10" x="504.6123" y="429.9043"/></g><g><title>ClasseCheContieneVisualizzazioneLibri</title><rect fill="#FFFFFF" height="34.3105" style="stroke:#181818;stroke-width:1;" width="10" x="504.6123" y="785.9648"/></g><g><title>Libro</title><rect fill="#FFFFFF" height="71.6211" style="stroke:#181818;stroke-width:1;" width="10" x="794.9829" y="464.2148"/></g><g><title>GestoreLibri</title><rect fill="#FFFFFF" height="71.6211" style="stroke:#181818;stroke-width:1;" width="10" x="918.2056" y="632.7676"/></g><g><title>GestoreLibri</title><rect fill="#FFFFFF" height="71.6211" style="stroke:#181818;stroke-width:1;" width="10" x="918.2056" y="968.8281"/></g><rect fill="none" height="849.0293" style="stroke:#000000;stroke-width:1.5;" width="1098.1592" x="10" y="199.4199"/><rect fill="none" height="279.7949" style="stroke:#000000;stroke-width:1.5;" width="903.2056" x="20" y="324.6621"/><rect fill="none" height="46.6211" style="stroke:#000000;stroke-width:1.5;" width="474.7715" x="359.5371" y="550.8359"/><rect fill="none" height="75.9316" style="stroke:#000000;stroke-width:1.5;" width="639.6875" x="20" y="864.5859"/><g><title>Amministratore</title><rect fill="#000000" fill-opacity="0.00000" height="983.9609" width="8" x="81.8896" y="81.4883"/><line style="stroke:#181818;stroke-width:0.5;stroke-dasharray:5,5;" x1="85" x2="85" y1="81.4883" y2="1065.4492"/></g><g><title>ClasseCheContieneVisualizzazioneLibri</title><rect fill="#000000" fill-opacity="0.00000" height="983.9609" width="8" x="505.6123" y="81.4883"/><line style="stroke:#181818;stroke-width:0.5;stroke-dasharray:5,5;" x1="509.5371" x2="509.5371" y1="81.4883" y2="1065.4492"/></g><g><title>Libro</title><rect fill="#000000" fill-opacity="0.00000" height="983.9609" width="8" x="795.9829" y="81.4883"/><line style="stroke:#181818;stroke-width:0.5;stroke-dasharray:5,5;" x1="799.6572" x2="799.6572" y1="81.4883" y2="1065.4492"/></g><g><title>GestoreLibri</title><rect fill="#000000" fill-opacity="0.00000" height="983.9609" width="8" x="919.2056" y="81.4883"/><line style="stroke:#181818;stroke-width:0.5;stroke-dasharray:5,5;" x1="922.9473" x2="922.9473" y1="81.4883" y2="1065.4492"/></g><g class="participant participant-head" data-participant="a"><text fill="#000000" font-family="sans-serif" font-size="14" lengthAdjust="spacing" textLength="105.7793" x="30" y="78.5352">Amministratore</text><ellipse cx="85.8896" cy="13.5" fill="#E2E2F0" rx="8" ry="8" style="stroke:#181818;stroke-width:0.5;"/><path d="M85.8896,21.5 L85.8896,48.5 M72.8896,29.5 L98.8896,29.5 M85.8896,48.5 L72.8896,63.5 M85.8896,48.5 L98.8896,63.5" fill="none" style="stroke:#181818;stroke-width:0.5;"/></g><g class="participant participant-tail" data-participant="a"><text fill="#000000" font-family="sans-serif" font-size="14" lengthAdjust="spacing" textLength="105.7793" x="30" y="1077.9844">Amministratore</text><ellipse cx="85.8896" cy="1089.4375" fill="#E2E2F0" rx="8" ry="8" style="stroke:#181818;stroke-width:0.5;"/><path d="M85.8896,1097.4375 L85.8896,1124.4375 M72.8896,1105.4375 L98.8896,1105.4375 M85.8896,1124.4375 L72.8896,1139.4375 M85.8896,1124.4375 L98.8896,1139.4375" fill="none" style="stroke:#181818;stroke-width:0.5;"/></g><g class="participant participant-head" data-participant="cvl"><rect fill="#E2E2F0" height="30.4883" rx="2.5" ry="2.5" style="stroke:#181818;stroke-width:0.5;" width="280.1504" x="369.5371" y="50"/><text fill="#000000" font-family="sans-serif" font-size="14" lengthAdjust="spacing" textLength="266.1504" x="376.5371" y="70.5352">ClasseCheContieneVisualizzazioneLibri</text></g><g class="participant participant-tail" data-participant="cvl"><rect fill="#E2E2F0" height="30.4883" rx="2.5" ry="2.5" style="stroke:#181818;stroke-width:0.5;" width="280.1504" x="369.5371" y="1064.4492"/><text fill="#000000" font-family="sans-serif" font-size="14" lengthAdjust="spacing" textLength="266.1504" x="376.5371" y="1084.9844">ClasseCheContieneVisualizzazioneLibri</text></g><g class="participant participant-head" data-participant="l"><rect fill="#E2E2F0" height="30.4883" rx="2.5" ry="2.5" style="stroke:#181818;stroke-width:0.5;" width="48.6514" x="775.6572" y="50"/><text fill="#000000" font-family="sans-serif" font-size="14" lengthAdjust="spacing" textLength="34.6514" x="782.6572" y="70.5352">Libro</text></g><g class="participant participant-tail" data-participant="l"><rect fill="#E2E2F0" height="30.4883" rx="2.5" ry="2.5" style="stroke:#181818;stroke-width:0.5;" width="48.6514" x="775.6572" y="1064.4492"/><text fill="#000000" font-family="sans-serif" font-size="14" lengthAdjust="spacing" textLength="34.6514" x="782.6572" y="1084.9844">Libro</text></g><g class="participant participant-head" data-participant="gl"><rect fill="#E2E2F0" height="30.4883" rx="2.5" ry="2.5" style="stroke:#181818;stroke-width:0.5;" width="96.5166" x="874.9473" y="50"/><text fill="#000000" font-family="sans-serif" font-size="14" lengthAdjust="spacing" textLength="82.5166" x="881.9473" y="70.5352">GestoreLibri</text></g><g class="participant participant-tail" data-participant="gl"><rect fill="#E2E2F0" height="30.4883" rx="2.5" ry="2.5" style="stroke:#181818;stroke-width:0.5;" width="96.5166" x="874.9473" y="1064.4492"/><text fill="#000000" font-family="sans-serif" font-size="14" lengthAdjust="spacing" textLength="82.5166" x="881.9473" y="1084.9844">GestoreLibri</text></g><g><title>ClasseCheContieneVisualizzazioneLibri</title><rect fill="#FFFFFF" height="34.3105" style="stroke:#181818;stroke-width:1;" width="10" x="504.6123" y="275.3516"/></g><g><title>ClasseCheContieneVisualizzazioneLibri</title><rect fill="#FFFFFF" height="105.9316" style="stroke:#181818;stroke-width:1;" width="10" x="504.6123" y="429.9043"/></g><g><title>ClasseCheContieneVisualizzazioneLibri</title><rect fill="#FFFFFF" height="34.3105" style="stroke:#181818;stroke-width:1;" width="10" x="504.6123" y="785.9648"/></g><g><title>Libro</title><rect fill="#FFFFFF" height="71.6211" style="stroke:#181818;stroke-width:1;" width="10" x="794.9829" y="464.2148"/></g><g><title>GestoreLibri</title><rect fill="#FFFFFF" height="71.6211" style="stroke:#181818;stroke-width:1;" width="10" x="918.2056" y="632.7676"/></g><g><title>GestoreLibri</title><rect fill="#FFFFFF" height="71.6211" style="stroke:#181818;stroke-width:1;" width="10" x="918.2056" y="968.8281"/></g><g class="message" data-participant-1="cvl" data-participant-2="cvl"><line style="stroke:#181818;stroke-width:1;" x1="509.6123" x2="551.6123" y1="112.7988" y2="112.7988"/><line style="stroke:#181818;stroke-width:1;" x1="551.6123" x2="551.6123" y1="112.7988" y2="125.7988"/><line style="stroke:#181818;stroke-width:1;" x1="510.6123" x2="551.6123" y1="125.7988" y2="125.7988"/><polygon fill="#181818" points="520.6123,121.7988,510.6123,125.7988,520.6123,129.7988,516.6123,125.7988" style="stroke:#181818;stroke-width:1;"/><text fill="#000000" font-family="sans-serif" font-size="13" lengthAdjust="spacing" textLength="76.978" x="516.6123" y="108.0566">inizialize(...)</text></g><g class="message" data-participant-1="a" data-participant-2="cvl"><polygon fill="#181818" points="497.6123,151.1094,507.6123,155.1094,497.6123,159.1094,501.6123,155.1094" style="stroke:#181818;stroke-width:1;"/><line style="stroke:#181818;stroke-width:1;" x1="85.8896" x2="503.6123" y1="155.1094" y2="155.1094"/><text fill="#000000" font-family="sans-serif" font-size="13" lengthAdjust="spacing" textLength="127.9878" x="92.8896" y="150.3672">Apre schermata libri</text></g><g class="message" data-participant-1="a" data-participant-2="cvl"><polygon fill="#181818" points="497.6123,180.4199,507.6123,184.4199,497.6123,188.4199,501.6123,184.4199" style="stroke:#181818;stroke-width:1;"/><line style="stroke:#181818;stroke-width:1;" x1="85.8896" x2="503.6123" y1="184.4199" y2="184.4199"/><text fill="#000000" font-family="sans-serif" font-size="13" lengthAdjust="spacing" textLength="113.0518" x="92.8896" y="179.6777">Seleziona un libro</text></g><path d="M10,199.4199 L72.1387,199.4199 L72.1387,206.7305 L62.1387,216.7305 L10,216.7305 L10,199.4199" fill="#EEEEEE" style="stroke:#000000;stroke-width:1.5;"/><rect fill="none" height="849.0293" style="stroke:#000000;stroke-width:1.5;" width="1098.1592" x="10" y="199.4199"/><text fill="#000000" font-family="sans-serif" font-size="13" font-weight="bold" lengthAdjust="spacing" textLength="17.1387" x="25" y="212.9883">alt</text><text fill="#000000" font-family="sans-serif" font-size="11" font-weight="bold" lengthAdjust="spacing" textLength="205.2993" x="87.1387" y="212.0547">[Utente clicca il pulsante "Modifica"]</text><g class="message" data-participant-1="a" data-participant-2="cvl"><polygon fill="#181818" points="497.6123,234.041,507.6123,238.041,497.6123,242.041,501.6123,238.041" style="stroke:#181818;stroke-width:1;"/><line style="stroke:#181818;stroke-width:1;" x1="85.8896" x2="503.6123" y1="238.041" y2="238.041"/><text fill="#000000" font-family="sans-serif" font-size="13" lengthAdjust="spacing" textLength="174.0591" x="92.8896" y="233.2988">Clicca il pulsante "Modifica"</text></g><g class="message" data-participant-1="cvl" data-participant-2="cvl"><line style="stroke:#181818;stroke-width:1;" x1="509.6123" x2="556.6123" y1="262.3516" y2="262.3516"/><line style="stroke:#181818;stroke-width:1;" x1="556.6123" x2="556.6123" y1="262.3516" y2="275.3516"/><line style="stroke:#181818;stroke-width:1;" x1="515.6123" x2="556.6123" y1="275.3516" y2="275.3516"/><polygon fill="#181818" points="525.6123,271.3516,515.6123,275.3516,525.6123,279.3516,521.6123,275.3516" style="stroke:#181818;stroke-width:1;"/><text fill="#000000" font-family="sans-serif" font-size="13" lengthAdjust="spacing" textLength="241.1729" x="521.6123" y="257.6094">funzioneOnActionPulsanteModifica(...)</text></g><g class="message" data-participant-1="cvl" data-participant-2="a"><polygon fill="#181818" points="96.8896,305.6621,86.8896,309.6621,96.8896,313.6621,92.8896,309.6621" style="stroke:#181818;stroke-width:1;"/><line style="stroke:#181818;stroke-width:1;stroke-dasharray:2,2;" x1="90.8896" x2="508.6123" y1="309.6621" y2="309.6621"/><text fill="#000000" font-family="sans-serif" font-size="13" lengthAdjust="spacing" textLength="287.2314" x="102.8896" y="304.9199">Viene mostrata la schermata di modifica libro</text></g><path d="M20,324.6621 L94.4468,324.6621 L94.4468,331.9727 L84.4468,341.9727 L20,341.9727 L20,324.6621" fill="#EEEEEE" style="stroke:#000000;stroke-width:1.5;"/><rect fill="none" height="279.7949" style="stroke:#000000;stroke-width:1.5;" width="903.2056" x="20" y="324.6621"/><text fill="#000000" font-family="sans-serif" font-size="13" font-weight="bold" lengthAdjust="spacing" textLength="29.4468" x="35" y="338.2305">loop</text><text fill="#000000" font-family="sans-serif" font-size="11" font-weight="bold" lengthAdjust="spacing" textLength="230.6885" x="109.4468" y="337.2969">[Utente modifica i campi in modo errato]</text><g class="message" data-participant-1="a" data-participant-2="cvl"><polygon fill="#181818" points="497.6123,359.2832,507.6123,363.2832,497.6123,367.2832,501.6123,363.2832" style="stroke:#181818;stroke-width:1;"/><line style="stroke:#181818;stroke-width:1;" x1="85.8896" x2="503.6123" y1="363.2832" y2="363.2832"/><text fill="#000000" font-family="sans-serif" font-size="13" lengthAdjust="spacing" textLength="245.3115" x="92.8896" y="358.541">Modifica i campi del libro nel TextField</text></g><g class="message" data-participant-1="a" data-participant-2="cvl"><polygon fill="#181818" points="497.6123,388.5938,507.6123,392.5938,497.6123,396.5938,501.6123,392.5938" style="stroke:#181818;stroke-width:1;"/><line style="stroke:#181818;stroke-width:1;" x1="85.8896" x2="503.6123" y1="392.5938" y2="392.5938"/><text fill="#000000" font-family="sans-serif" font-size="13" lengthAdjust="spacing" textLength="184.3867" x="92.8896" y="387.8516">Preme il pulsante "Conferma"</text></g><g class="message" data-participant-1="cvl" data-participant-2="cvl"><line style="stroke:#181818;stroke-width:1;" x1="509.6123" x2="556.6123" y1="416.9043" y2="416.9043"/><line style="stroke:#181818;stroke-width:1;" x1="556.6123" x2="556.6123" y1="416.9043" y2="429.9043"/><line style="stroke:#181818;stroke-width:1;" x1="515.6123" x2="556.6123" y1="429.9043" y2="429.9043"/><polygon fill="#181818" points="525.6123,425.9043,515.6123,429.9043,525.6123,433.9043,521.6123,429.9043" style="stroke:#181818;stroke-width:1;"/><text fill="#000000" font-family="sans-serif" font-size="13" lengthAdjust="spacing" textLength="276.3706" x="521.6123" y="412.1621">funzioneOnActionDiPulsanteDiConferma(...)</text></g><g class="message" data-participant-1="cvl" data-participant-2="l"><polygon fill="#181818" points="782.9829,460.2148,792.9829,464.2148,782.9829,468.2148,786.9829,464.2148" style="stroke:#181818;stroke-width:1;"/><line style="stroke:#181818;stroke-width:1;" x1="514.6123" x2="788.9829" y1="464.2148" y2="464.2148"/><text fill="#000000" font-family="sans-serif" font-size="13" lengthAdjust="spacing" textLength="66.2188" x="521.6123" y="459.4727">verifica(...)</text></g><g class="message" data-participant-1="l" data-participant-2="l"><line style="stroke:#181818;stroke-width:1;" x1="804.9829" x2="846.9829" y1="493.5254" y2="493.5254"/><line style="stroke:#181818;stroke-width:1;" x1="846.9829" x2="846.9829" y1="493.5254" y2="506.5254"/><line style="stroke:#181818;stroke-width:1;" x1="805.9829" x2="846.9829" y1="506.5254" y2="506.5254"/><polygon fill="#181818" points="815.9829,502.5254,805.9829,506.5254,815.9829,510.5254,811.9829,506.5254" style="stroke:#181818;stroke-width:1;"/><text fill="#000000" font-family="sans-serif" font-size="13" lengthAdjust="spacing" textLength="89.2227" x="811.9829" y="488.7832">Verifica campi</text></g><g class="message" data-participant-1="l" data-participant-2="cvl"><polygon fill="#181818" points="520.6123,531.8359,510.6123,535.8359,520.6123,539.8359,516.6123,535.8359" style="stroke:#181818;stroke-width:1;"/><line style="stroke:#181818;stroke-width:1;stroke-dasharray:2,2;" x1="514.6123" x2="798.9829" y1="535.8359" y2="535.8359"/><text fill="#000000" font-family="sans-serif" font-size="13" lengthAdjust="spacing" textLength="197.8628" x="526.6123" y="531.0938">Verifica non andata a buon fine</text></g><path d="M359.5371,550.8359 L442.5469,550.8359 L442.5469,558.1465 L432.5469,568.1465 L359.5371,568.1465 L359.5371,550.8359" fill="#EEEEEE" style="stroke:#000000;stroke-width:1.5;"/><rect fill="none" height="46.6211" style="stroke:#000000;stroke-width:1.5;" width="474.7715" x="359.5371" y="550.8359"/><text fill="#000000" font-family="sans-serif" font-size="13" font-weight="bold" lengthAdjust="spacing" textLength="38.0098" x="374.5371" y="564.4043">break</text><g class="message" data-participant-1="l" data-participant-2="cvl"><polygon fill="#181818" points="520.6123,585.457,510.6123,589.457,520.6123,593.457,516.6123,589.457" style="stroke:#181818;stroke-width:1;"/><line style="stroke:#181818;stroke-width:1;stroke-dasharray:2,2;" x1="514.6123" x2="798.9829" y1="589.457" y2="589.457"/><text fill="#000000" font-family="sans-serif" font-size="13" lengthAdjust="spacing" textLength="169.6284" x="526.6123" y="584.7148">Verifica andata a buon fine</text></g><g class="message" data-participant-1="cvl" data-participant-2="gl"><polygon fill="#181818" points="906.2056,628.7676,916.2056,632.7676,906.2056,636.7676,910.2056,632.7676" style="stroke:#181818;stroke-width:1;"/><line style="stroke:#181818;stroke-width:1;" x1="509.6123" x2="912.2056" y1="632.7676" y2="632.7676"/><text fill="#000000" font-family="sans-serif" font-size="13" lengthAdjust="spacing" textLength="107.4087" x="516.6123" y="628.0254">modificaLibro(...)</text></g><g class="message" data-participant-1="gl" data-participant-2="gl"><line style="stroke:#181818;stroke-width:1;" x1="928.2056" x2="970.2056" y1="662.0781" y2="662.0781"/><line style="stroke:#181818;stroke-width:1;" x1="970.2056" x2="970.2056" y1="662.0781" y2="675.0781"/><line style="stroke:#181818;stroke-width:1;" x1="929.2056" x2="970.2056" y1="675.0781" y2="675.0781"/><polygon fill="#181818" points="939.2056,671.0781,929.2056,675.0781,939.2056,679.0781,935.2056,675.0781" style="stroke:#181818;stroke-width:1;"/><text fill="#000000" font-family="sans-serif" font-size="13" lengthAdjust="spacing" textLength="150.9536" x="935.2056" y="657.3359">Viene modificato il libro</text></g><g class="message" data-participant-1="gl" data-participant-2="a"><polygon fill="#181818" points="96.8896,700.3887,86.8896,704.3887,96.8896,708.3887,92.8896,704.3887" style="stroke:#181818;stroke-width:1;"/><line style="stroke:#181818;stroke-width:1;stroke-dasharray:2,2;" x1="90.8896" x2="922.2056" y1="704.3887" y2="704.3887"/><text fill="#000000" font-family="sans-serif" font-size="13" lengthAdjust="spacing" textLength="271.4385" x="102.8896" y="699.6465">Viene chiusa la schermata di modifica libro</text></g><line style="stroke:#000000;stroke-width:1;stroke-dasharray:2,2;" x1="10" x2="1108.1592" y1="713.3887" y2="713.3887"/><text fill="#000000" font-family="sans-serif" font-size="11" font-weight="bold" lengthAdjust="spacing" textLength="203.1509" x="15" y="724.0234">[Utente clicca il pulsante "Rimuovi"]</text><g class="message" data-participant-1="a" data-participant-2="cvl"><polygon fill="#181818" points="497.6123,744.6543,507.6123,748.6543,497.6123,752.6543,501.6123,748.6543" style="stroke:#181818;stroke-width:1;"/><line style="stroke:#181818;stroke-width:1;" x1="85.8896" x2="503.6123" y1="748.6543" y2="748.6543"/><text fill="#000000" font-family="sans-serif" font-size="13" lengthAdjust="spacing" textLength="171.2153" x="92.8896" y="743.9121">Clicca il pulsante "Rimuovi"</text></g><g class="message" data-participant-1="cvl" data-participant-2="cvl"><line style="stroke:#181818;stroke-width:1;" x1="509.6123" x2="556.6123" y1="772.9648" y2="772.9648"/><line style="stroke:#181818;stroke-width:1;" x1="556.6123" x2="556.6123" y1="772.9648" y2="785.9648"/><line style="stroke:#181818;stroke-width:1;" x1="515.6123" x2="556.6123" y1="785.9648" y2="785.9648"/><polygon fill="#181818" points="525.6123,781.9648,515.6123,785.9648,525.6123,789.9648,521.6123,785.9648" style="stroke:#181818;stroke-width:1;"/><text fill="#000000" font-family="sans-serif" font-size="13" lengthAdjust="spacing" textLength="267.7759" x="521.6123" y="768.2227">funzioneOnActionPulsanteDiRimozione(...)</text></g><g class="message" data-participant-1="cvl" data-participant-2="a"><polygon fill="#181818" points="96.8896,816.2754,86.8896,820.2754,96.8896,824.2754,92.8896,820.2754" style="stroke:#181818;stroke-width:1;"/><line style="stroke:#181818;stroke-width:1;stroke-dasharray:2,2;" x1="90.8896" x2="508.6123" y1="820.2754" y2="820.2754"/><text fill="#000000" font-family="sans-serif" font-size="13" lengthAdjust="spacing" textLength="394.7227" x="102.8896" y="815.5332">Viene mostrata una nuova finestra con un messaggio di avviso</text></g><g class="message" data-participant-1="a" data-participant-2="cvl"><polygon fill="#181818" points="497.6123,845.5859,507.6123,849.5859,497.6123,853.5859,501.6123,849.5859" style="stroke:#181818;stroke-width:1;"/><line style="stroke:#181818;stroke-width:1;" x1="85.8896" x2="503.6123" y1="849.5859" y2="849.5859"/><text fill="#000000" font-family="sans-serif" font-size="13" lengthAdjust="spacing" textLength="300.3013" x="92.8896" y="844.8438">Conferma l'operazione cliccando il pulsante "Si"</text></g><path d="M20,864.5859 L87.1851,864.5859 L87.1851,871.8965 L77.1851,881.8965 L20,881.8965 L20,864.5859" fill="#EEEEEE" style="stroke:#000000;stroke-width:1.5;"/><rect fill="none" height="75.9316" style="stroke:#000000;stroke-width:1.5;" width="639.6875" x="20" y="864.5859"/><text fill="#000000" font-family="sans-serif" font-size="13" font-weight="bold" lengthAdjust="spacing" textLength="22.1851" x="35" y="878.1543">opt</text><text fill="#000000" font-family="sans-serif" font-size="11" font-weight="bold" lengthAdjust="spacing" textLength="135.8081" x="102.1851" y="877.2207">[Preme il pulsante "No"]</text><g class="message" data-participant-1="a" data-participant-2="cvl"><polygon fill="#181818" points="497.6123,899.207,507.6123,903.207,497.6123,907.207,501.6123,903.207" style="stroke:#181818;stroke-width:1;"/><line style="stroke:#181818;stroke-width:1;" x1="85.8896" x2="503.6123" y1="903.207" y2="903.207"/><text fill="#000000" font-family="sans-serif" font-size="13" lengthAdjust="spacing" textLength="293.2935" x="92.8896" y="898.4648">Annulla l'operazione cliccando il pulsante "No"</text></g><g class="message" data-participant-1="cvl" data-participant-2="a"><polygon fill="#181818" points="96.8896,928.5176,86.8896,932.5176,96.8896,936.5176,92.8896,932.5176" style="stroke:#181818;stroke-width:1;"/><line style="stroke:#181818;stroke-width:1;stroke-dasharray:2,2;" x1="90.8896" x2="508.6123" y1="932.5176" y2="932.5176"/><text fill="#000000" font-family="sans-serif" font-size="13" lengthAdjust="spacing" textLength="280.7061" x="102.8896" y="927.7754">Viene chiusa la schermata di rimozione libro</text></g><g class="message" data-participant-1="cvl" data-participant-2="gl"><polygon fill="#181818" points="906.2056,964.8281,916.2056,968.8281,906.2056,972.8281,910.2056,968.8281" style="stroke:#181818;stroke-width:1;"/><line style="stroke:#181818;stroke-width:1;" x1="509.6123" x2="912.2056" y1="968.8281" y2="968.8281"/><text fill="#000000" font-family="sans-serif" font-size="13" lengthAdjust="spacing" textLength="98.8711" x="516.6123" y="964.0859">eliminaLibro(...)</text></g><g class="message" data-participant-1="gl" data-participant-2="gl"><line style="stroke:#181818;stroke-width:1;" x1="928.2056" x2="970.2056" y1="998.1387" y2="998.1387"/><line style="stroke:#181818;stroke-width:1;" x1="970.2056" x2="970.2056" y1="998.1387" y2="1011.1387"/><line style="stroke:#181818;stroke-width:1;" x1="929.2056" x2="970.2056" y1="1011.1387" y2="1011.1387"/><polygon fill="#181818" points="939.2056,1007.1387,929.2056,1011.1387,939.2056,1015.1387,935.2056,1011.1387" style="stroke:#181818;stroke-width:1;"/><text fill="#000000" font-family="sans-serif" font-size="13" lengthAdjust="spacing" textLength="142.416" x="935.2056" y="993.3965">Viene eliminato il libro</text></g><g class="message" data-participant-1="gl" data-participant-2="a"><polygon fill="#181818" points="96.8896,1036.4492,86.8896,1040.4492,96.8896,1044.4492,92.8896,1040.4492" style="stroke:#181818;stroke-width:1;"/><line style="stroke:#181818;stroke-width:1;stroke-dasharray:2,2;" x1="90.8896" x2="922.2056" y1="1040.4492" y2="1040.4492"/><text fill="#000000" font-family="sans-serif" font-size="13" lengthAdjust="spacing" textLength="280.7061" x="102.8896" y="1035.707">Viene chiusa la schermata di rimozione libro</text></g><!--SRC=[dLJBhfim45tNNs6nQRiW7t0NaQ94xQQtlUfjiv-O2HdLsCWsgChNTumD2NdTjWiGpCldd3a0AbWdLqr3Xdnmm6yemKiGBRX0YbemGQurU8_h0wwj2OG6j-Gxq7Gymf6imI-qSnJRLAzdZJ5XOs8U_em-7ZIrrLe8RYsNV7kI3EL8SJf-M2mM7mNa-AfbR5uTq3KGGEhOFILVKMF40h8pGyeAq47-36W2IgL9AP2aPTjf3p5KFDkAzgIWc6Qi7rQT0EuxCz3-PbOgyCDBhXvhCspEzH0FPr7uacMvb0KKJt8R9PID7GHd8d36gY9Ef36PHeMpIK9RsuwyfbAI2fgMMBiOin9TtEN4xFcohaATnal3Jp_mT_X4gAkfuSLXWtCbUFVx2B8G3wJOq2Z6XiQ6stAKIsxlqTrIJ8kKtkPq0YsIXCEvKyPO8y5KKJgGkuxVzcJmN3HzgU3E8VmIxtIPEKopRin1KmcHxmbrpHsZx8Ez4_OJU3PpdUl6HQVgOAEWQQbruW9ZZJfGv__52lKLBO7QuoF3VwUcipqzzljKzBRTDyJ5TaZTMN6vX2ktT_o96Zu21e5ZK2fMcx_Q1hs7kYORcKFVaxyo_uGyMqlgzxP5b_v2cRIfx9pIAxCHjWstJFtLdkHO6TDf_NSpOzy5mpihTAD6UOU3boOdeIR-zPuRwRwFSktSHl-1uC960w8_]--></g></svg>