<svg xmlns="http://www.w3.org/2000/svg" xmlns:xlink="http://www.w3.org/1999/xlink" contentStyleType="text/css" data-diagram-type="SEQUENCE" height="1056px" preserveAspectRatio="none" style="width:1478px;height:1056px;background:#FFFFFF;" version="1.1" viewBox="0 0 1478 1056" width="1478px" zoomAndPan="magnify"><defs/><g><g><title>ClasseCheContieneVisualizzazioneLibri</title><rect fill="#FFFFFF" height="34.3105" style="stroke:#181818;stroke-width:1;" width="10" x="648.3716" y="264.041"/></g><g><title>ClasseCheContieneVisualizzazioneLibri</title><rect fill="#FFFFFF" height="135.2422" style="stroke:#181818;stroke-width:1;" width="10" x="648.3716" y="418.5938"/></g><g><title>ClasseCheContieneVisualizzazioneLibri</title><rect fill="#FFFFFF" height="130.2422" style="stroke:#181818;stroke-width:1;" width="10" x="648.3716" y="820.2754"/></g><g><title>Libro</title><rect fill="#FFFFFF" height="71.6211" style="stroke:#181818;stroke-width:1;" width="10" x="945.9849" y="452.9043"/></g><g><title>GestoreLibri</title><rect fill="#FFFFFF" height="71.6211" style="stroke:#181818;stroke-width:1;" width="10" x="1069.2075" y="849.5859"/></g><rect fill="none" height="309.1055" style="stroke:#000000;stroke-width:1.5;" width="1064.2075" x="10" y="313.3516"/><rect fill="none" height="46.6211" style="stroke:#000000;stroke-width:1.5;" width="482.0142" x="503.2964" y="568.8359"/><rect fill="none" height="250.4395" style="stroke:#000000;stroke-width:1.5;" width="1238.0083" x="10" y="708.0781"/><g><title>Amministratore</title><rect fill="#000000" fill-opacity="0.00000" height="894.0293" width="8" x="71.8896" y="81.4883"/><line style="stroke:#181818;stroke-width:0.5;stroke-dasharray:5,5;" x1="75" x2="75" y1="81.4883" y2="975.5176"/></g><g><title>ClasseCheContieneVisualizzazioneLibri</title><rect fill="#000000" fill-opacity="0.00000" height="894.0293" width="8" x="649.3716" y="81.4883"/><line style="stroke:#181818;stroke-width:0.5;stroke-dasharray:5,5;" x1="653.2964" x2="653.2964" y1="81.4883" y2="975.5176"/></g><g><title>Libro</title><rect fill="#000000" fill-opacity="0.00000" height="894.0293" width="8" x="946.9849" y="81.4883"/><line style="stroke:#181818;stroke-width:0.5;stroke-dasharray:5,5;" x1="950.6592" x2="950.6592" y1="81.4883" y2="975.5176"/></g><g><title>GestoreLibri</title><rect fill="#000000" fill-opacity="0.00000" height="894.0293" width="8" x="1070.2075" y="81.4883"/><line style="stroke:#181818;stroke-width:0.5;stroke-dasharray:5,5;" x1="1073.9492" x2="1073.9492" y1="81.4883" y2="975.5176"/></g><g><title>Biblioteca</title><rect fill="#000000" fill-opacity="0.00000" height="894.0293" width="8" x="1351.958" y="81.4883"/><line style="stroke:#181818;stroke-width:0.5;stroke-dasharray:5,5;" x1="1355.1865" x2="1355.1865" y1="81.4883" y2="975.5176"/></g><g class="participant participant-head" data-participant="a"><text fill="#000000" font-family="sans-serif" font-size="14" lengthAdjust="spacing" textLength="105.7793" x="20" y="78.5352">Amministratore</text><ellipse cx="75.8896" cy="13.5" fill="#E2E2F0" rx="8" ry="8" style="stroke:#181818;stroke-width:0.5;"/><path d="M75.8896,21.5 L75.8896,48.5 M62.8896,29.5 L88.8896,29.5 M75.8896,48.5 L62.8896,63.5 M75.8896,48.5 L88.8896,63.5" fill="none" style="stroke:#181818;stroke-width:0.5;"/></g><g class="participant participant-tail" data-participant="a"><text fill="#000000" font-family="sans-serif" font-size="14" lengthAdjust="spacing" textLength="105.7793" x="20" y="988.0527">Amministratore</text><ellipse cx="75.8896" cy="999.5059" fill="#E2E2F0" rx="8" ry="8" style="stroke:#181818;stroke-width:0.5;"/><path d="M75.8896,1007.5059 L75.8896,1034.5059 M62.8896,1015.5059 L88.8896,1015.5059 M75.8896,1034.5059 L62.8896,1049.5059 M75.8896,1034.5059 L88.8896,1049.5059" fill="none" style="stroke:#181818;stroke-width:0.5;"/></g><g class="participant participant-head" data-participant="cvl"><rect fill="#E2E2F0" height="30.4883" rx="2.5" ry="2.5" style="stroke:#181818;stroke-width:0.5;" width="280.1504" x="513.2964" y="50"/><text fill="#000000" font-family="sans-serif" font-size="14" lengthAdjust="spacing" textLength="266.1504" x="520.2964" y="70.5352">ClasseCheContieneVisualizzazioneLibri</text></g><g class="participant participant-tail" data-participant="cvl"><rect fill="#E2E2F0" height="30.4883" rx="2.5" ry="2.5" style="stroke:#181818;stroke-width:0.5;" width="280.1504" x="513.2964" y="974.5176"/><text fill="#000000" font-family="sans-serif" font-size="14" lengthAdjust="spacing" textLength="266.1504" x="520.2964" y="995.0527">ClasseCheContieneVisualizzazioneLibri</text></g><g class="participant participant-head" data-participant="l"><rect fill="#E2E2F0" height="30.4883" rx="2.5" ry="2.5" style="stroke:#181818;stroke-width:0.5;" width="48.6514" x="926.6592" y="50"/><text fill="#000000" font-family="sans-serif" font-size="14" lengthAdjust="spacing" textLength="34.6514" x="933.6592" y="70.5352">Libro</text></g><g class="participant participant-tail" data-participant="l"><rect fill="#E2E2F0" height="30.4883" rx="2.5" ry="2.5" style="stroke:#181818;stroke-width:0.5;" width="48.6514" x="926.6592" y="974.5176"/><text fill="#000000" font-family="sans-serif" font-size="14" lengthAdjust="spacing" textLength="34.6514" x="933.6592" y="995.0527">Libro</text></g><g class="participant participant-head" data-participant="gl"><rect fill="#E2E2F0" height="30.4883" rx="2.5" ry="2.5" style="stroke:#181818;stroke-width:0.5;" width="96.5166" x="1025.9492" y="50"/><text fill="#000000" font-family="sans-serif" font-size="14" lengthAdjust="spacing" textLength="82.5166" x="1032.9492" y="70.5352">GestoreLibri</text></g><g class="participant participant-tail" data-participant="gl"><rect fill="#E2E2F0" height="30.4883" rx="2.5" ry="2.5" style="stroke:#181818;stroke-width:0.5;" width="96.5166" x="1025.9492" y="974.5176"/><text fill="#000000" font-family="sans-serif" font-size="14" lengthAdjust="spacing" textLength="82.5166" x="1032.9492" y="995.0527">GestoreLibri</text></g><g class="participant participant-head" data-participant="b"><rect fill="#E2E2F0" height="30.4883" rx="2.5" ry="2.5" style="stroke:#181818;stroke-width:0.5;" width="79.543" x="1316.1865" y="50"/><text fill="#000000" font-family="sans-serif" font-size="14" lengthAdjust="spacing" textLength="65.543" x="1323.1865" y="70.5352">Biblioteca</text></g><g class="participant participant-tail" data-participant="b"><rect fill="#E2E2F0" height="30.4883" rx="2.5" ry="2.5" style="stroke:#181818;stroke-width:0.5;" width="79.543" x="1316.1865" y="974.5176"/><text fill="#000000" font-family="sans-serif" font-size="14" lengthAdjust="spacing" textLength="65.543" x="1323.1865" y="995.0527">Biblioteca</text></g><g><title>ClasseCheContieneVisualizzazioneLibri</title><rect fill="#FFFFFF" height="34.3105" style="stroke:#181818;stroke-width:1;" width="10" x="648.3716" y="264.041"/></g><g><title>ClasseCheContieneVisualizzazioneLibri</title><rect fill="#FFFFFF" height="135.2422" style="stroke:#181818;stroke-width:1;" width="10" x="648.3716" y="418.5938"/></g><g><title>ClasseCheContieneVisualizzazioneLibri</title><rect fill="#FFFFFF" height="130.2422" style="stroke:#181818;stroke-width:1;" width="10" x="648.3716" y="820.2754"/></g><g><title>Libro</title><rect fill="#FFFFFF" height="71.6211" style="stroke:#181818;stroke-width:1;" width="10" x="945.9849" y="452.9043"/></g><g><title>GestoreLibri</title><rect fill="#FFFFFF" height="71.6211" style="stroke:#181818;stroke-width:1;" width="10" x="1069.2075" y="849.5859"/></g><g class="message" data-participant-1="b" data-participant-2="b"><line style="stroke:#181818;stroke-width:1;" x1="1355.958" x2="1397.958" y1="112.7988" y2="112.7988"/><line style="stroke:#181818;stroke-width:1;" x1="1397.958" x2="1397.958" y1="112.7988" y2="125.7988"/><line style="stroke:#181818;stroke-width:1;" x1="1356.958" x2="1397.958" y1="125.7988" y2="125.7988"/><polygon fill="#181818" points="1366.958,121.7988,1356.958,125.7988,1366.958,129.7988,1362.958,125.7988" style="stroke:#181818;stroke-width:1;"/><text fill="#000000" font-family="sans-serif" font-size="13" lengthAdjust="spacing" textLength="108.7925" x="1362.958" y="108.0566">caricaArchivio(...)</text></g><g class="message" data-participant-1="cvl" data-participant-2="cvl"><line style="stroke:#181818;stroke-width:1;" x1="653.3716" x2="695.3716" y1="155.1094" y2="155.1094"/><line style="stroke:#181818;stroke-width:1;" x1="695.3716" x2="695.3716" y1="155.1094" y2="168.1094"/><line style="stroke:#181818;stroke-width:1;" x1="654.3716" x2="695.3716" y1="168.1094" y2="168.1094"/><polygon fill="#181818" points="664.3716,164.1094,654.3716,168.1094,664.3716,172.1094,660.3716,168.1094" style="stroke:#181818;stroke-width:1;"/><text fill="#000000" font-family="sans-serif" font-size="13" lengthAdjust="spacing" textLength="76.978" x="660.3716" y="150.3672">inizialize(...)</text></g><g class="message" data-participant-1="a" data-participant-2="cvl"><polygon fill="#181818" points="641.3716,193.4199,651.3716,197.4199,641.3716,201.4199,645.3716,197.4199" style="stroke:#181818;stroke-width:1;"/><line style="stroke:#181818;stroke-width:1;" x1="75.8896" x2="647.3716" y1="197.4199" y2="197.4199"/><text fill="#000000" font-family="sans-serif" font-size="13" lengthAdjust="spacing" textLength="127.9878" x="82.8896" y="192.6777">Apre schermata libri</text></g><g class="message" data-participant-1="a" data-participant-2="cvl"><polygon fill="#181818" points="641.3716,222.7305,651.3716,226.7305,641.3716,230.7305,645.3716,226.7305" style="stroke:#181818;stroke-width:1;"/><line style="stroke:#181818;stroke-width:1;" x1="75.8896" x2="647.3716" y1="226.7305" y2="226.7305"/><text fill="#000000" font-family="sans-serif" font-size="13" lengthAdjust="spacing" textLength="177.4995" x="82.8896" y="221.9883">Clicca il pulsante "Aggiungi"</text></g><g class="message" data-participant-1="cvl" data-participant-2="cvl"><line style="stroke:#181818;stroke-width:1;" x1="653.3716" x2="700.3716" y1="251.041" y2="251.041"/><line style="stroke:#181818;stroke-width:1;" x1="700.3716" x2="700.3716" y1="251.041" y2="264.041"/><line style="stroke:#181818;stroke-width:1;" x1="659.3716" x2="700.3716" y1="264.041" y2="264.041"/><polygon fill="#181818" points="669.3716,260.041,659.3716,264.041,669.3716,268.041,665.3716,264.041" style="stroke:#181818;stroke-width:1;"/><text fill="#000000" font-family="sans-serif" font-size="13" lengthAdjust="spacing" textLength="208.4126" x="665.3716" y="246.2988">funzioneOnActionDelPulsante(...)</text></g><g class="message" data-participant-1="cvl" data-participant-2="a"><polygon fill="#181818" points="86.8896,294.3516,76.8896,298.3516,86.8896,302.3516,82.8896,298.3516" style="stroke:#181818;stroke-width:1;"/><line style="stroke:#181818;stroke-width:1;stroke-dasharray:2,2;" x1="80.8896" x2="652.3716" y1="298.3516" y2="298.3516"/><text fill="#000000" font-family="sans-serif" font-size="13" lengthAdjust="spacing" textLength="288.1201" x="92.8896" y="293.6094">Viene mostrata la schermata di aggiunta libro</text></g><path d="M10,313.3516 L84.4468,313.3516 L84.4468,320.6621 L74.4468,330.6621 L10,330.6621 L10,313.3516" fill="#EEEEEE" style="stroke:#000000;stroke-width:1.5;"/><rect fill="none" height="309.1055" style="stroke:#000000;stroke-width:1.5;" width="1064.2075" x="10" y="313.3516"/><text fill="#000000" font-family="sans-serif" font-size="13" font-weight="bold" lengthAdjust="spacing" textLength="29.4468" x="25" y="326.9199">loop</text><text fill="#000000" font-family="sans-serif" font-size="11" font-weight="bold" lengthAdjust="spacing" textLength="355.4858" x="99.4468" y="325.9863">[Amministratore inserisce i campi del libro errati o incompleti]</text><g class="message" data-participant-1="a" data-participant-2="cvl"><polygon fill="#181818" points="641.3716,347.9727,651.3716,351.9727,641.3716,355.9727,645.3716,351.9727" style="stroke:#181818;stroke-width:1;"/><line style="stroke:#181818;stroke-width:1;" x1="75.8896" x2="647.3716" y1="351.9727" y2="351.9727"/><text fill="#000000" font-family="sans-serif" font-size="13" lengthAdjust="spacing" textLength="247.1016" x="82.8896" y="347.2305">Inserisce i campi del libro nel TextField</text></g><g class="message" data-participant-1="a" data-participant-2="cvl"><polygon fill="#181818" points="641.3716,377.2832,651.3716,381.2832,641.3716,385.2832,645.3716,381.2832" style="stroke:#181818;stroke-width:1;"/><line style="stroke:#181818;stroke-width:1;" x1="75.8896" x2="647.3716" y1="381.2832" y2="381.2832"/><text fill="#000000" font-family="sans-serif" font-size="13" lengthAdjust="spacing" textLength="184.3867" x="82.8896" y="376.541">Preme il pulsante "Conferma"</text></g><g class="message" data-participant-1="cvl" data-participant-2="cvl"><line style="stroke:#181818;stroke-width:1;" x1="653.3716" x2="700.3716" y1="405.5938" y2="405.5938"/><line style="stroke:#181818;stroke-width:1;" x1="700.3716" x2="700.3716" y1="405.5938" y2="418.5938"/><line style="stroke:#181818;stroke-width:1;" x1="659.3716" x2="700.3716" y1="418.5938" y2="418.5938"/><polygon fill="#181818" points="669.3716,414.5938,659.3716,418.5938,669.3716,422.5938,665.3716,418.5938" style="stroke:#181818;stroke-width:1;"/><text fill="#000000" font-family="sans-serif" font-size="13" lengthAdjust="spacing" textLength="283.6133" x="665.3716" y="400.8516">funzioneOnActionDelPulsanteDiConferma(...)</text></g><g class="message" data-participant-1="cvl" data-participant-2="l"><polygon fill="#181818" points="933.9849,448.9043,943.9849,452.9043,933.9849,456.9043,937.9849,452.9043" style="stroke:#181818;stroke-width:1;"/><line style="stroke:#181818;stroke-width:1;" x1="658.3716" x2="939.9849" y1="452.9043" y2="452.9043"/><text fill="#000000" font-family="sans-serif" font-size="13" lengthAdjust="spacing" textLength="66.2188" x="665.3716" y="448.1621">verifica(...)</text></g><g class="message" data-participant-1="l" data-participant-2="l"><line style="stroke:#181818;stroke-width:1;" x1="955.9849" x2="997.9849" y1="482.2148" y2="482.2148"/><line style="stroke:#181818;stroke-width:1;" x1="997.9849" x2="997.9849" y1="482.2148" y2="495.2148"/><line style="stroke:#181818;stroke-width:1;" x1="956.9849" x2="997.9849" y1="495.2148" y2="495.2148"/><polygon fill="#181818" points="966.9849,491.2148,956.9849,495.2148,966.9849,499.2148,962.9849,495.2148" style="stroke:#181818;stroke-width:1;"/><text fill="#000000" font-family="sans-serif" font-size="13" lengthAdjust="spacing" textLength="89.2227" x="962.9849" y="477.4727">Verifica campi</text></g><g class="message" data-participant-1="l" data-participant-2="cvl"><polygon fill="#181818" points="669.3716,520.5254,659.3716,524.5254,669.3716,528.5254,665.3716,524.5254" style="stroke:#181818;stroke-width:1;"/><line style="stroke:#181818;stroke-width:1;stroke-dasharray:2,2;" x1="663.3716" x2="949.9849" y1="524.5254" y2="524.5254"/><text fill="#000000" font-family="sans-serif" font-size="13" lengthAdjust="spacing" textLength="197.8628" x="675.3716" y="519.7832">Verifica non andata a buon fine</text></g><g class="message" data-participant-1="cvl" data-participant-2="a"><polygon fill="#181818" points="86.8896,549.8359,76.8896,553.8359,86.8896,557.8359,82.8896,553.8359" style="stroke:#181818;stroke-width:1;"/><line style="stroke:#181818;stroke-width:1;stroke-dasharray:2,2;" x1="80.8896" x2="652.3716" y1="553.8359" y2="553.8359"/><text fill="#000000" font-family="sans-serif" font-size="13" lengthAdjust="spacing" textLength="548.4819" x="92.8896" y="549.0938">Viene visualizzato un messaggio di errore e vengono evidenziati i campi da correggere</text></g><path d="M503.2964,568.8359 L586.3062,568.8359 L586.3062,576.1465 L576.3062,586.1465 L503.2964,586.1465 L503.2964,568.8359" fill="#EEEEEE" style="stroke:#000000;stroke-width:1.5;"/><rect fill="none" height="46.6211" style="stroke:#000000;stroke-width:1.5;" width="482.0142" x="503.2964" y="568.8359"/><text fill="#000000" font-family="sans-serif" font-size="13" font-weight="bold" lengthAdjust="spacing" textLength="38.0098" x="518.2964" y="582.4043">break</text><text fill="#000000" font-family="sans-serif" font-size="11" font-weight="bold" lengthAdjust="spacing" textLength="161.2295" x="601.3062" y="581.4707">[Verifica andata a buon fine]</text><g class="message" data-participant-1="l" data-participant-2="cvl"><polygon fill="#181818" points="664.3716,603.457,654.3716,607.457,664.3716,611.457,660.3716,607.457" style="stroke:#181818;stroke-width:1;"/><line style="stroke:#181818;stroke-width:1;stroke-dasharray:2,2;" x1="658.3716" x2="949.9849" y1="607.457" y2="607.457"/><text fill="#000000" font-family="sans-serif" font-size="13" lengthAdjust="spacing" textLength="169.6284" x="670.3716" y="602.7148">Verifica andata a buon fine</text></g><g class="message" data-participant-1="cvl" data-participant-2="gl"><polygon fill="#181818" points="1062.2075,646.7676,1072.2075,650.7676,1062.2075,654.7676,1066.2075,650.7676" style="stroke:#181818;stroke-width:1;"/><line style="stroke:#181818;stroke-width:1;" x1="653.3716" x2="1068.2075" y1="650.7676" y2="650.7676"/><text fill="#000000" font-family="sans-serif" font-size="13" lengthAdjust="spacing" textLength="95.1069" x="660.3716" y="646.0254">ricercaLibro(...)</text></g><g class="message" data-participant-1="gl" data-participant-2="gl"><line style="stroke:#181818;stroke-width:1;" x1="1074.2075" x2="1116.2075" y1="680.0781" y2="680.0781"/><line style="stroke:#181818;stroke-width:1;" x1="1116.2075" x2="1116.2075" y1="680.0781" y2="693.0781"/><line style="stroke:#181818;stroke-width:1;" x1="1075.2075" x2="1116.2075" y1="693.0781" y2="693.0781"/><polygon fill="#181818" points="1085.2075,689.0781,1075.2075,693.0781,1085.2075,697.0781,1081.2075,693.0781" style="stroke:#181818;stroke-width:1;"/><text fill="#000000" font-family="sans-serif" font-size="13" lengthAdjust="spacing" textLength="267.7505" x="1081.2075" y="675.3359">Verifica se il libro &#232; presente gi&#224; nella lista</text></g><path d="M10,708.0781 L72.1387,708.0781 L72.1387,715.3887 L62.1387,725.3887 L10,725.3887 L10,708.0781" fill="#EEEEEE" style="stroke:#000000;stroke-width:1.5;"/><rect fill="none" height="250.4395" style="stroke:#000000;stroke-width:1.5;" width="1238.0083" x="10" y="708.0781"/><text fill="#000000" font-family="sans-serif" font-size="13" font-weight="bold" lengthAdjust="spacing" textLength="17.1387" x="25" y="721.6465">alt</text><text fill="#000000" font-family="sans-serif" font-size="11" font-weight="bold" lengthAdjust="spacing" textLength="141.3027" x="87.1387" y="720.7129">[Il libro esiste nella lista]</text><g class="message" data-participant-1="gl" data-participant-2="cvl"><polygon fill="#181818" points="664.3716,742.6992,654.3716,746.6992,664.3716,750.6992,660.3716,746.6992" style="stroke:#181818;stroke-width:1;"/><line style="stroke:#181818;stroke-width:1;stroke-dasharray:2,2;" x1="658.3716" x2="1073.2075" y1="746.6992" y2="746.6992"/><text fill="#000000" font-family="sans-serif" font-size="13" lengthAdjust="spacing" textLength="145.5073" x="670.3716" y="741.957">Il libro esiste nella lista</text></g><g class="message" data-participant-1="cvl" data-participant-2="a"><polygon fill="#181818" points="86.8896,772.0098,76.8896,776.0098,86.8896,780.0098,82.8896,776.0098" style="stroke:#181818;stroke-width:1;"/><line style="stroke:#181818;stroke-width:1;stroke-dasharray:2,2;" x1="80.8896" x2="652.3716" y1="776.0098" y2="776.0098"/><text fill="#000000" font-family="sans-serif" font-size="13" lengthAdjust="spacing" textLength="246.6064" x="92.8896" y="771.2676">Viene mostrato un messaggio di errore</text></g><line style="stroke:#000000;stroke-width:1;stroke-dasharray:2,2;" x1="10" x2="1248.0083" y1="785.0098" y2="785.0098"/><text fill="#000000" font-family="sans-serif" font-size="11" font-weight="bold" lengthAdjust="spacing" textLength="166.4019" x="15" y="795.6445">[Il libro non esiste nella lista]</text><g class="message" data-participant-1="gl" data-participant-2="cvl"><polygon fill="#181818" points="669.3716,816.2754,659.3716,820.2754,669.3716,824.2754,665.3716,820.2754" style="stroke:#181818;stroke-width:1;"/><line style="stroke:#181818;stroke-width:1;stroke-dasharray:2,2;" x1="663.3716" x2="1073.2075" y1="820.2754" y2="820.2754"/><text fill="#000000" font-family="sans-serif" font-size="13" lengthAdjust="spacing" textLength="173.7417" x="675.3716" y="815.5332">Il libro non esiste nella lista</text></g><g class="message" data-participant-1="cvl" data-participant-2="gl"><polygon fill="#181818" points="1057.2075,845.5859,1067.2075,849.5859,1057.2075,853.5859,1061.2075,849.5859" style="stroke:#181818;stroke-width:1;"/><line style="stroke:#181818;stroke-width:1;" x1="658.3716" x2="1063.2075" y1="849.5859" y2="849.5859"/><text fill="#000000" font-family="sans-serif" font-size="13" lengthAdjust="spacing" textLength="108.1196" x="665.3716" y="844.8438">aggiungiLibro(...)</text></g><g class="message" data-participant-1="gl" data-participant-2="gl"><line style="stroke:#181818;stroke-width:1;" x1="1079.2075" x2="1121.2075" y1="878.8965" y2="878.8965"/><line style="stroke:#181818;stroke-width:1;" x1="1121.2075" x2="1121.2075" y1="878.8965" y2="891.8965"/><line style="stroke:#181818;stroke-width:1;" x1="1080.2075" x2="1121.2075" y1="891.8965" y2="891.8965"/><polygon fill="#181818" points="1090.2075,887.8965,1080.2075,891.8965,1090.2075,895.8965,1086.2075,891.8965" style="stroke:#181818;stroke-width:1;"/><text fill="#000000" font-family="sans-serif" font-size="13" lengthAdjust="spacing" textLength="139.8008" x="1086.2075" y="874.1543">Viene aggiunto il libro</text></g><g class="message" data-participant-1="gl" data-participant-2="cvl"><polygon fill="#181818" points="669.3716,917.207,659.3716,921.207,669.3716,925.207,665.3716,921.207" style="stroke:#181818;stroke-width:1;"/><line style="stroke:#181818;stroke-width:1;stroke-dasharray:2,2;" x1="663.3716" x2="1073.2075" y1="921.207" y2="921.207"/><text fill="#000000" font-family="sans-serif" font-size="13" lengthAdjust="spacing" textLength="61.7056" x="675.3716" y="916.4648">Conferma</text></g><g class="message" data-participant-1="cvl" data-participant-2="a"><polygon fill="#181818" points="86.8896,946.5176,76.8896,950.5176,86.8896,954.5176,82.8896,950.5176" style="stroke:#181818;stroke-width:1;"/><line style="stroke:#181818;stroke-width:1;stroke-dasharray:2,2;" x1="80.8896" x2="652.3716" y1="950.5176" y2="950.5176"/><text fill="#000000" font-family="sans-serif" font-size="13" lengthAdjust="spacing" textLength="272.3271" x="92.8896" y="945.7754">Viene chiusa la schermata di aggiunta libro</text></g><!--SRC=[XLHBRjim45rBfnXuatRX7C0B0ww3506ADeiY-n4rPWQbI9MaZCAdoRBtoCKwevy_THB0C2JDutpUUyC2JGuHDat3dbEEA6y4c03BeiMOsN2BFiFMOKgqVQPjy9d9qnEd3XqV3dZWuEaRLv7rdDcxyvCQ2Hgv-FwLajQQ3zgB-1Uk78TC1ZLQbMLHBTVL2Wn6DhY9vfdt73xTtjv-BWkfkbpBtmfaZ0DhOpI6S0niMXaicMUA3MO4ftMFqQrZ8vNOGTkv9FK95XjhkVEM5-LfWLtd-ub_-8t9yd17xd4yCbMKxtkK33qNUXIMopKiSB629-KEcj1JBLtWIKkryD2N7DiBPL7JMRAokBbtNKh2fyiKFKfCK2w4zb92zeaY9oDFGbdJCjJaXhH0KK0CGK0cDAsZB4pCL3oySzBBqq_wa- -PN7rovZ5IG-ViYL5sEjXYeE1ZzkvuEZBoU4daa0OaoruQt8aB9k0HsUCA8Rp7FOsuOOuf9B6-bpdgWmVqjMg0K7NojcDFFVn4W26rzh1SuwJaVbw37A3pq51AAc9GDOLdbK9Gv6tmGloUQn82bFsPNEakn4ZMKknhNcXU5FAx4MfgxfdJn5qoh8P1qKMq5q0L2NyT9xe-pRNPhoB9YxZwLmxkNSjsha3sZgB1Vg4dva7psXaofqsz6mRJlFu5sRr4QWlBho_g8gSMJnbrF77rTwcji90IL-mc-mfvTKV3ha9dbMdutR5G8JaWyMm4S3UTbrqGMbvVP0DTXeVPxKaAqMdHdbAhEWw6VnjP_YVukBflYIsPoSdmSqxrrjMyzaIDZz5NLq4Pn_6IEbFb2BU3Q-s87cOORvamIpHYZWrDctYv0_Rg4iXLtAMFBxDhpbQJ_GC0]--></g></svg>