<svg xmlns="http://www.w3.org/2000/svg" xmlns:xlink="http://www.w3.org/1999/xlink" contentStyleType="text/css" data-diagram-type="SEQUENCE" height="505px" preserveAspectRatio="none" style="width:591px;height:505px;background:#FFFFFF;" version="1.1" viewBox="0 0 591 505" width="591px" zoomAndPan="magnify"><defs/><g><g><title>Libri</title><rect fill="#FFFFFF" height="71.6211" style="stroke:#181818;stroke-width:1;" width="10" x="472.1748" y="267.3516"/></g><rect fill="none" height="208.1738" style="stroke:#000000;stroke-width:1.5;" width="575.0996" x="10" y="199.4199"/><rect fill="none" height="46.6211" style="stroke:#000000;stroke-width:1.5;" width="434.9165" x="20" y="353.9727"/><g><title>Amministratore</title><rect fill="#000000" fill-opacity="0.00000" height="343.1055" width="8" x="81.8896" y="81.4883"/><line style="stroke:#181818;stroke-width:0.5;stroke-dasharray:5,5;" x1="85" x2="85" y1="81.4883" y2="424.5938"/></g><g><title>LibriController</title><rect fill="#000000" fill-opacity="0.00000" height="343.1055" width="8" x="384.7866" y="81.4883"/><line style="stroke:#181818;stroke-width:0.5;stroke-dasharray:5,5;" x1="388.6567" x2="388.6567" y1="81.4883" y2="424.5938"/></g><g><title>Libri</title><rect fill="#000000" fill-opacity="0.00000" height="343.1055" width="8" x="473.1748" y="81.4883"/><line style="stroke:#181818;stroke-width:0.5;stroke-dasharray:5,5;" x1="477.1255" x2="477.1255" y1="81.4883" y2="424.5938"/></g><g class="participant participant-head" data-participant="a"><text fill="#000000" font-family="sans-serif" font-size="14" lengthAdjust="spacing" textLength="105.7793" x="30" y="78.5352">Amministratore</text><ellipse cx="85.8896" cy="13.5" fill="#E2E2F0" rx="8" ry="8" style="stroke:#181818;stroke-width:0.5;"/><path d="M85.8896,21.5 L85.8896,48.5 M72.8896,29.5 L98.8896,29.5 M85.8896,48.5 L72.8896,63.5 M85.8896,48.5 L98.8896,63.5" fill="none" style="stroke:#181818;stroke-width:0.5;"/></g><g class="participant participant-tail" data-participant="a"><text fill="#000000" font-family="sans-serif" font-size="14" lengthAdjust="spacing" textLength="105.7793" x="30" y="437.1289">Amministratore</text><ellipse cx="85.8896" cy="448.582" fill="#E2E2F0" rx="8" ry="8" style="stroke:#181818;stroke-width:0.5;"/><path d="M85.8896,456.582 L85.8896,483.582 M72.8896,464.582 L98.8896,464.582 M85.8896,483.582 L72.8896,498.582 M85.8896,483.582 L98.8896,498.582" fill="none" style="stroke:#181818;stroke-width:0.5;"/></g><g class="participant participant-head" data-participant="cvl"><rect fill="#E2E2F0" height="30.4883" rx="2.5" ry="2.5" style="stroke:#181818;stroke-width:0.5;" width="112.2598" x="332.6567" y="50"/><text fill="#000000" font-family="sans-serif" font-size="14" lengthAdjust="spacing" textLength="98.2598" x="339.6567" y="70.5352">LibriController</text></g><g class="participant participant-tail" data-participant="cvl"><rect fill="#E2E2F0" height="30.4883" rx="2.5" ry="2.5" style="stroke:#181818;stroke-width:0.5;" width="112.2598" x="332.6567" y="423.5938"/><text fill="#000000" font-family="sans-serif" font-size="14" lengthAdjust="spacing" textLength="98.2598" x="339.6567" y="444.1289">LibriController</text></g><g class="participant participant-head" data-participant="gl"><rect fill="#E2E2F0" height="30.4883" rx="2.5" ry="2.5" style="stroke:#181818;stroke-width:0.5;" width="44.0986" x="455.1255" y="50"/><text fill="#000000" font-family="sans-serif" font-size="14" lengthAdjust="spacing" textLength="30.0986" x="462.1255" y="70.5352">Libri</text></g><g class="participant participant-tail" data-participant="gl"><rect fill="#E2E2F0" height="30.4883" rx="2.5" ry="2.5" style="stroke:#181818;stroke-width:0.5;" width="44.0986" x="455.1255" y="423.5938"/><text fill="#000000" font-family="sans-serif" font-size="14" lengthAdjust="spacing" textLength="30.0986" x="462.1255" y="444.1289">Libri</text></g><g><title>Libri</title><rect fill="#FFFFFF" height="71.6211" style="stroke:#181818;stroke-width:1;" width="10" x="472.1748" y="267.3516"/></g><g class="message" data-participant-1="cvl" data-participant-2="cvl"><line style="stroke:#181818;stroke-width:1;" x1="388.7866" x2="430.7866" y1="112.7988" y2="112.7988"/><line style="stroke:#181818;stroke-width:1;" x1="430.7866" x2="430.7866" y1="112.7988" y2="125.7988"/><line style="stroke:#181818;stroke-width:1;" x1="389.7866" x2="430.7866" y1="125.7988" y2="125.7988"/><polygon fill="#181818" points="399.7866,121.7988,389.7866,125.7988,399.7866,129.7988,395.7866,125.7988" style="stroke:#181818;stroke-width:1;"/><text fill="#000000" font-family="sans-serif" font-size="13" lengthAdjust="spacing" textLength="74.3882" x="395.7866" y="108.0566">initialize(...)</text></g><g class="message" data-participant-1="a" data-participant-2="cvl"><polygon fill="#181818" points="376.7866,151.1094,386.7866,155.1094,376.7866,159.1094,380.7866,155.1094" style="stroke:#181818;stroke-width:1;"/><line style="stroke:#181818;stroke-width:1;" x1="85.8896" x2="382.7866" y1="155.1094" y2="155.1094"/><text fill="#000000" font-family="sans-serif" font-size="13" lengthAdjust="spacing" textLength="127.9878" x="92.8896" y="150.3672">Apre schermata libri</text></g><g class="message" data-participant-1="a" data-participant-2="cvl"><polygon fill="#181818" points="376.7866,180.4199,386.7866,184.4199,376.7866,188.4199,380.7866,184.4199" style="stroke:#181818;stroke-width:1;"/><line style="stroke:#181818;stroke-width:1;" x1="85.8896" x2="382.7866" y1="184.4199" y2="184.4199"/><text fill="#000000" font-family="sans-serif" font-size="13" lengthAdjust="spacing" textLength="174.332" x="92.8896" y="179.6777">Seleziona la barra di ricerca</text></g><path d="M10,199.4199 L84.4468,199.4199 L84.4468,206.7305 L74.4468,216.7305 L10,216.7305 L10,199.4199" fill="#EEEEEE" style="stroke:#000000;stroke-width:1.5;"/><rect fill="none" height="208.1738" style="stroke:#000000;stroke-width:1.5;" width="575.0996" x="10" y="199.4199"/><text fill="#000000" font-family="sans-serif" font-size="13" font-weight="bold" lengthAdjust="spacing" textLength="29.4468" x="25" y="212.9883">loop</text><text fill="#000000" font-family="sans-serif" font-size="11" font-weight="bold" lengthAdjust="spacing" textLength="149.1016" x="99.4468" y="212.0547">[Inserimento sottostringa]</text><g class="message" data-participant-1="a" data-participant-2="cvl"><polygon fill="#181818" points="376.7866,234.041,386.7866,238.041,376.7866,242.041,380.7866,238.041" style="stroke:#181818;stroke-width:1;"/><line style="stroke:#181818;stroke-width:1;" x1="85.8896" x2="382.7866" y1="238.041" y2="238.041"/><text fill="#000000" font-family="sans-serif" font-size="13" lengthAdjust="spacing" textLength="278.897" x="92.8896" y="233.2988">Digita una sottostringa nella barra di ricerca</text></g><g class="message" data-participant-1="cvl" data-participant-2="gl"><polygon fill="#181818" points="460.1748,263.3516,470.1748,267.3516,460.1748,271.3516,464.1748,267.3516" style="stroke:#181818;stroke-width:1;"/><line style="stroke:#181818;stroke-width:1;" x1="388.7866" x2="466.1748" y1="267.3516" y2="267.3516"/><text fill="#000000" font-family="sans-serif" font-size="13" lengthAdjust="spacing" textLength="62.9307" x="395.7866" y="262.6094">ricerca(...)</text></g><g class="message" data-participant-1="gl" data-participant-2="gl"><line style="stroke:#181818;stroke-width:1;" x1="482.1748" x2="524.1748" y1="296.6621" y2="296.6621"/><line style="stroke:#181818;stroke-width:1;" x1="524.1748" x2="524.1748" y1="296.6621" y2="309.6621"/><line style="stroke:#181818;stroke-width:1;" x1="483.1748" x2="524.1748" y1="309.6621" y2="309.6621"/><polygon fill="#181818" points="493.1748,305.6621,483.1748,309.6621,493.1748,313.6621,489.1748,309.6621" style="stroke:#181818;stroke-width:1;"/><text fill="#000000" font-family="sans-serif" font-size="13" lengthAdjust="spacing" textLength="73.9248" x="489.1748" y="291.9199">Ricerca libri</text></g><g class="message" data-participant-1="gl" data-participant-2="a"><polygon fill="#181818" points="96.8896,334.9727,86.8896,338.9727,96.8896,342.9727,92.8896,338.9727" style="stroke:#181818;stroke-width:1;"/><line style="stroke:#181818;stroke-width:1;stroke-dasharray:2,2;" x1="90.8896" x2="476.1748" y1="338.9727" y2="338.9727"/><text fill="#000000" font-family="sans-serif" font-size="13" lengthAdjust="spacing" textLength="302.3008" x="102.8896" y="334.2305">Restituisce libri che rispettano i criteri di ricerca</text></g><path d="M20,353.9727 L103.0098,353.9727 L103.0098,361.2832 L93.0098,371.2832 L20,371.2832 L20,353.9727" fill="#EEEEEE" style="stroke:#000000;stroke-width:1.5;"/><rect fill="none" height="46.6211" style="stroke:#000000;stroke-width:1.5;" width="434.9165" x="20" y="353.9727"/><text fill="#000000" font-family="sans-serif" font-size="13" font-weight="bold" lengthAdjust="spacing" textLength="38.0098" x="35" y="367.541">break</text><text fill="#000000" font-family="sans-serif" font-size="11" font-weight="bold" lengthAdjust="spacing" textLength="109.8657" x="118.0098" y="366.6074">[Seleziona un libro]</text><g class="message" data-participant-1="a" data-participant-2="cvl"><polygon fill="#181818" points="376.7866,388.5938,386.7866,392.5938,376.7866,396.5938,380.7866,392.5938" style="stroke:#181818;stroke-width:1;"/><line style="stroke:#181818;stroke-width:1;" x1="85.8896" x2="382.7866" y1="392.5938" y2="392.5938"/><text fill="#000000" font-family="sans-serif" font-size="13" lengthAdjust="spacing" textLength="106.8438" x="92.8896" y="387.8516">clicca su un libro</text></g><!--SRC=[RP71QiCm38RFpbFerktGF40FXR9T1eD1zmIA8pmnnmwoaaEVVdAIjYiKWY7-V-cNFZlqcWLEmy29YmhQ7m4MmCQDACgUHqmAdzm9l-MaacCagGu_noUUgWGJ6cVw_cZ70QorCaQ-q4lRjg-DmqquZHPM_0_9W8eGQuEx-asHBfoJ2GWTYY3q3CAUn6DDs7s5n33dQBNM16QcH9PMI5WpJ0aysaPASjKm1CwIbZ2yjuevZ_2nr0sKhBHarMmuE0M4njr6UkV0LZlPJ0-MHF7fZ2k4O9NRrGR06NQUKMbXvLpONEVLTIMn2FiZ7ivKb7NYucdLbds5oqYgc3BOXUriyp_6z_GOPD_ENh7dofMgTog-RjHZX4h139qG_lw3RnXhPAuSRY1yP6zpbkaccqgfRvhb_0C0]--></g></svg>