<svg xmlns="http://www.w3.org/2000/svg" xmlns:xlink="http://www.w3.org/1999/xlink" contentStyleType="text/css" data-diagram-type="SEQUENCE" height="1014px" preserveAspectRatio="none" style="width:1354px;height:1014px;background:#FFFFFF;" version="1.1" viewBox="0 0 1354 1014" width="1354px" zoomAndPan="magnify"><defs/><g><g><title>LibriController</title><rect fill="#FFFFFF" height="34.3105" style="stroke:#181818;stroke-width:1;" width="10" x="388.0098" y="221.7305"/></g><g><title>AggiuntaLibroController</title><rect fill="#FFFFFF" height="135.2422" style="stroke:#181818;stroke-width:1;" width="10" x="648.3716" y="376.2832"/></g><g><title>AggiuntaLibroController</title><rect fill="#FFFFFF" height="130.2422" style="stroke:#181818;stroke-width:1;" width="10" x="648.3716" y="777.9648"/></g><g><title>Libro</title><rect fill="#FFFFFF" height="71.6211" style="stroke:#181818;stroke-width:1;" width="10" x="880.2344" y="410.5938"/></g><g><title>Libri</title><rect fill="#FFFFFF" height="71.6211" style="stroke:#181818;stroke-width:1;" width="10" x="1067.7397" y="807.2754"/></g><rect fill="none" height="309.1055" style="stroke:#000000;stroke-width:1.5;" width="1062.7397" x="10" y="271.041"/><rect fill="none" height="46.6211" style="stroke:#000000;stroke-width:1.5;" width="365.3496" x="554.2104" y="526.5254"/><rect fill="none" height="250.4395" style="stroke:#000000;stroke-width:1.5;" width="1236.5405" x="10" y="665.7676"/><g><title>Amministratore</title><rect fill="#000000" fill-opacity="0.00000" height="851.7188" width="8" x="71.8896" y="81.4883"/><line style="stroke:#181818;stroke-width:0.5;stroke-dasharray:5,5;" x1="75" x2="75" y1="81.4883" y2="933.207"/></g><g><title>LibriController</title><rect fill="#000000" fill-opacity="0.00000" height="851.7188" width="8" x="389.0098" y="81.4883"/><line style="stroke:#181818;stroke-width:0.5;stroke-dasharray:5,5;" x1="392.8799" x2="392.8799" y1="81.4883" y2="933.207"/></g><g><title>AggiuntaLibroController</title><rect fill="#000000" fill-opacity="0.00000" height="851.7188" width="8" x="649.3716" y="81.4883"/><line style="stroke:#181818;stroke-width:0.5;stroke-dasharray:5,5;" x1="653.2104" x2="653.2104" y1="81.4883" y2="933.207"/></g><g><title>Libro</title><rect fill="#000000" fill-opacity="0.00000" height="851.7188" width="8" x="881.2344" y="81.4883"/><line style="stroke:#181818;stroke-width:0.5;stroke-dasharray:5,5;" x1="884.9087" x2="884.9087" y1="81.4883" y2="933.207"/></g><g><title>Libri</title><rect fill="#000000" fill-opacity="0.00000" height="851.7188" width="8" x="1068.7397" y="81.4883"/><line style="stroke:#181818;stroke-width:0.5;stroke-dasharray:5,5;" x1="1072.6904" x2="1072.6904" y1="81.4883" y2="933.207"/></g><g class="participant participant-head" data-participant="a"><text fill="#000000" font-family="sans-serif" font-size="14" lengthAdjust="spacing" textLength="105.7793" x="20" y="78.5352">Amministratore</text><ellipse cx="75.8896" cy="13.5" fill="#E2E2F0" rx="8" ry="8" style="stroke:#181818;stroke-width:0.5;"/><path d="M75.8896,21.5 L75.8896,48.5 M62.8896,29.5 L88.8896,29.5 M75.8896,48.5 L62.8896,63.5 M75.8896,48.5 L88.8896,63.5" fill="none" style="stroke:#181818;stroke-width:0.5;"/></g><g class="participant participant-tail" data-participant="a"><text fill="#000000" font-family="sans-serif" font-size="14" lengthAdjust="spacing" textLength="105.7793" x="20" y="945.7422">Amministratore</text><ellipse cx="75.8896" cy="957.1953" fill="#E2E2F0" rx="8" ry="8" style="stroke:#181818;stroke-width:0.5;"/><path d="M75.8896,965.1953 L75.8896,992.1953 M62.8896,973.1953 L88.8896,973.1953 M75.8896,992.1953 L62.8896,1007.1953 M75.8896,992.1953 L88.8896,1007.1953" fill="none" style="stroke:#181818;stroke-width:0.5;"/></g><g class="participant participant-head" data-participant="cvl"><rect fill="#E2E2F0" height="30.4883" rx="2.5" ry="2.5" style="stroke:#181818;stroke-width:0.5;" width="112.2598" x="336.8799" y="50"/><text fill="#000000" font-family="sans-serif" font-size="14" lengthAdjust="spacing" textLength="98.2598" x="343.8799" y="70.5352">LibriController</text></g><g class="participant participant-tail" data-participant="cvl"><rect fill="#E2E2F0" height="30.4883" rx="2.5" ry="2.5" style="stroke:#181818;stroke-width:0.5;" width="112.2598" x="336.8799" y="932.207"/><text fill="#000000" font-family="sans-serif" font-size="14" lengthAdjust="spacing" textLength="98.2598" x="343.8799" y="952.7422">LibriController</text></g><g class="participant participant-head" data-participant="alc"><rect fill="#E2E2F0" height="30.4883" rx="2.5" ry="2.5" style="stroke:#181818;stroke-width:0.5;" width="178.3223" x="564.2104" y="50"/><text fill="#000000" font-family="sans-serif" font-size="14" lengthAdjust="spacing" textLength="164.3223" x="571.2104" y="70.5352">AggiuntaLibroController</text></g><g class="participant participant-tail" data-participant="alc"><rect fill="#E2E2F0" height="30.4883" rx="2.5" ry="2.5" style="stroke:#181818;stroke-width:0.5;" width="178.3223" x="564.2104" y="932.207"/><text fill="#000000" font-family="sans-serif" font-size="14" lengthAdjust="spacing" textLength="164.3223" x="571.2104" y="952.7422">AggiuntaLibroController</text></g><g class="participant participant-head" data-participant="l"><rect fill="#E2E2F0" height="30.4883" rx="2.5" ry="2.5" style="stroke:#181818;stroke-width:0.5;" width="48.6514" x="860.9087" y="50"/><text fill="#000000" font-family="sans-serif" font-size="14" lengthAdjust="spacing" textLength="34.6514" x="867.9087" y="70.5352">Libro</text></g><g class="participant participant-tail" data-participant="l"><rect fill="#E2E2F0" height="30.4883" rx="2.5" ry="2.5" style="stroke:#181818;stroke-width:0.5;" width="48.6514" x="860.9087" y="932.207"/><text fill="#000000" font-family="sans-serif" font-size="14" lengthAdjust="spacing" textLength="34.6514" x="867.9087" y="952.7422">Libro</text></g><g class="participant participant-head" data-participant="gl"><rect fill="#E2E2F0" height="30.4883" rx="2.5" ry="2.5" style="stroke:#181818;stroke-width:0.5;" width="44.0986" x="1050.6904" y="50"/><text fill="#000000" font-family="sans-serif" font-size="14" lengthAdjust="spacing" textLength="30.0986" x="1057.6904" y="70.5352">Libri</text></g><g class="participant participant-tail" data-participant="gl"><rect fill="#E2E2F0" height="30.4883" rx="2.5" ry="2.5" style="stroke:#181818;stroke-width:0.5;" width="44.0986" x="1050.6904" y="932.207"/><text fill="#000000" font-family="sans-serif" font-size="14" lengthAdjust="spacing" textLength="30.0986" x="1057.6904" y="952.7422">Libri</text></g><g><title>LibriController</title><rect fill="#FFFFFF" height="34.3105" style="stroke:#181818;stroke-width:1;" width="10" x="388.0098" y="221.7305"/></g><g><title>AggiuntaLibroController</title><rect fill="#FFFFFF" height="135.2422" style="stroke:#181818;stroke-width:1;" width="10" x="648.3716" y="376.2832"/></g><g><title>AggiuntaLibroController</title><rect fill="#FFFFFF" height="130.2422" style="stroke:#181818;stroke-width:1;" width="10" x="648.3716" y="777.9648"/></g><g><title>Libro</title><rect fill="#FFFFFF" height="71.6211" style="stroke:#181818;stroke-width:1;" width="10" x="880.2344" y="410.5938"/></g><g><title>Libri</title><rect fill="#FFFFFF" height="71.6211" style="stroke:#181818;stroke-width:1;" width="10" x="1067.7397" y="807.2754"/></g><g class="message" data-participant-1="cvl" data-participant-2="cvl"><line style="stroke:#181818;stroke-width:1;" x1="393.0098" x2="435.0098" y1="112.7988" y2="112.7988"/><line style="stroke:#181818;stroke-width:1;" x1="435.0098" x2="435.0098" y1="112.7988" y2="125.7988"/><line style="stroke:#181818;stroke-width:1;" x1="394.0098" x2="435.0098" y1="125.7988" y2="125.7988"/><polygon fill="#181818" points="404.0098,121.7988,394.0098,125.7988,404.0098,129.7988,400.0098,125.7988" style="stroke:#181818;stroke-width:1;"/><text fill="#000000" font-family="sans-serif" font-size="13" lengthAdjust="spacing" textLength="74.3882" x="400.0098" y="108.0566">initialize(...)</text></g><g class="message" data-participant-1="a" data-participant-2="cvl"><polygon fill="#181818" points="381.0098,151.1094,391.0098,155.1094,381.0098,159.1094,385.0098,155.1094" style="stroke:#181818;stroke-width:1;"/><line style="stroke:#181818;stroke-width:1;" x1="75.8896" x2="387.0098" y1="155.1094" y2="155.1094"/><text fill="#000000" font-family="sans-serif" font-size="13" lengthAdjust="spacing" textLength="127.9878" x="82.8896" y="150.3672">Apre schermata libri</text></g><g class="message" data-participant-1="a" data-participant-2="cvl"><polygon fill="#181818" points="381.0098,180.4199,391.0098,184.4199,381.0098,188.4199,385.0098,184.4199" style="stroke:#181818;stroke-width:1;"/><line style="stroke:#181818;stroke-width:1;" x1="75.8896" x2="387.0098" y1="184.4199" y2="184.4199"/><text fill="#000000" font-family="sans-serif" font-size="13" lengthAdjust="spacing" textLength="177.4995" x="82.8896" y="179.6777">Clicca il pulsante "Aggiungi"</text></g><g class="message" data-participant-1="cvl" data-participant-2="cvl"><line style="stroke:#181818;stroke-width:1;" x1="393.0098" x2="440.0098" y1="208.7305" y2="208.7305"/><line style="stroke:#181818;stroke-width:1;" x1="440.0098" x2="440.0098" y1="208.7305" y2="221.7305"/><line style="stroke:#181818;stroke-width:1;" x1="399.0098" x2="440.0098" y1="221.7305" y2="221.7305"/><polygon fill="#181818" points="409.0098,217.7305,399.0098,221.7305,409.0098,225.7305,405.0098,221.7305" style="stroke:#181818;stroke-width:1;"/><text fill="#000000" font-family="sans-serif" font-size="13" lengthAdjust="spacing" textLength="93.228" x="405.0098" y="203.9883">onAddBook(...)</text></g><g class="message" data-participant-1="cvl" data-participant-2="a"><polygon fill="#181818" points="86.8896,252.041,76.8896,256.041,86.8896,260.041,82.8896,256.041" style="stroke:#181818;stroke-width:1;"/><line style="stroke:#181818;stroke-width:1;stroke-dasharray:2,2;" x1="80.8896" x2="392.0098" y1="256.041" y2="256.041"/><text fill="#000000" font-family="sans-serif" font-size="13" lengthAdjust="spacing" textLength="288.1201" x="92.8896" y="251.2988">Viene mostrata la schermata di aggiunta libro</text></g><path d="M10,271.041 L84.4468,271.041 L84.4468,278.3516 L74.4468,288.3516 L10,288.3516 L10,271.041" fill="#EEEEEE" style="stroke:#000000;stroke-width:1.5;"/><rect fill="none" height="309.1055" style="stroke:#000000;stroke-width:1.5;" width="1062.7397" x="10" y="271.041"/><text fill="#000000" font-family="sans-serif" font-size="13" font-weight="bold" lengthAdjust="spacing" textLength="29.4468" x="25" y="284.6094">loop</text><text fill="#000000" font-family="sans-serif" font-size="11" font-weight="bold" lengthAdjust="spacing" textLength="355.4858" x="99.4468" y="283.6758">[Amministratore inserisce i campi del libro errati o incompleti]</text><g class="message" data-participant-1="a" data-participant-2="alc"><polygon fill="#181818" points="641.3716,305.6621,651.3716,309.6621,641.3716,313.6621,645.3716,309.6621" style="stroke:#181818;stroke-width:1;"/><line style="stroke:#181818;stroke-width:1;" x1="75.8896" x2="647.3716" y1="309.6621" y2="309.6621"/><text fill="#000000" font-family="sans-serif" font-size="13" lengthAdjust="spacing" textLength="247.1016" x="82.8896" y="304.9199">Inserisce i campi del libro nel TextField</text></g><g class="message" data-participant-1="a" data-participant-2="alc"><polygon fill="#181818" points="641.3716,334.9727,651.3716,338.9727,641.3716,342.9727,645.3716,338.9727" style="stroke:#181818;stroke-width:1;"/><line style="stroke:#181818;stroke-width:1;" x1="75.8896" x2="647.3716" y1="338.9727" y2="338.9727"/><text fill="#000000" font-family="sans-serif" font-size="13" lengthAdjust="spacing" textLength="184.3867" x="82.8896" y="334.2305">Preme il pulsante "Conferma"</text></g><g class="message" data-participant-1="alc" data-participant-2="alc"><line style="stroke:#181818;stroke-width:1;" x1="653.3716" x2="700.3716" y1="363.2832" y2="363.2832"/><line style="stroke:#181818;stroke-width:1;" x1="700.3716" x2="700.3716" y1="363.2832" y2="376.2832"/><line style="stroke:#181818;stroke-width:1;" x1="659.3716" x2="700.3716" y1="376.2832" y2="376.2832"/><polygon fill="#181818" points="669.3716,372.2832,659.3716,376.2832,669.3716,380.2832,665.3716,376.2832" style="stroke:#181818;stroke-width:1;"/><text fill="#000000" font-family="sans-serif" font-size="13" lengthAdjust="spacing" textLength="87.8896" x="665.3716" y="358.541">onConfirm(...)</text></g><g class="message" data-participant-1="alc" data-participant-2="l"><polygon fill="#181818" points="868.2344,406.5938,878.2344,410.5938,868.2344,414.5938,872.2344,410.5938" style="stroke:#181818;stroke-width:1;"/><line style="stroke:#181818;stroke-width:1;" x1="658.3716" x2="874.2344" y1="410.5938" y2="410.5938"/><text fill="#000000" font-family="sans-serif" font-size="13" lengthAdjust="spacing" textLength="98.395" x="665.3716" y="405.8516">verificaLibro(...)</text></g><g class="message" data-participant-1="l" data-participant-2="l"><line style="stroke:#181818;stroke-width:1;" x1="890.2344" x2="932.2344" y1="439.9043" y2="439.9043"/><line style="stroke:#181818;stroke-width:1;" x1="932.2344" x2="932.2344" y1="439.9043" y2="452.9043"/><line style="stroke:#181818;stroke-width:1;" x1="891.2344" x2="932.2344" y1="452.9043" y2="452.9043"/><polygon fill="#181818" points="901.2344,448.9043,891.2344,452.9043,901.2344,456.9043,897.2344,452.9043" style="stroke:#181818;stroke-width:1;"/><text fill="#000000" font-family="sans-serif" font-size="13" lengthAdjust="spacing" textLength="153.5054" x="897.2344" y="435.1621">Verifica i campi del libro</text></g><g class="message" data-participant-1="l" data-participant-2="alc"><polygon fill="#181818" points="669.3716,478.2148,659.3716,482.2148,669.3716,486.2148,665.3716,482.2148" style="stroke:#181818;stroke-width:1;"/><line style="stroke:#181818;stroke-width:1;stroke-dasharray:2,2;" x1="663.3716" x2="884.2344" y1="482.2148" y2="482.2148"/><text fill="#000000" font-family="sans-serif" font-size="13" lengthAdjust="spacing" textLength="197.8628" x="675.3716" y="477.4727">Verifica non andata a buon fine</text></g><g class="message" data-participant-1="alc" data-participant-2="a"><polygon fill="#181818" points="86.8896,507.5254,76.8896,511.5254,86.8896,515.5254,82.8896,511.5254" style="stroke:#181818;stroke-width:1;"/><line style="stroke:#181818;stroke-width:1;stroke-dasharray:2,2;" x1="80.8896" x2="652.3716" y1="511.5254" y2="511.5254"/><text fill="#000000" font-family="sans-serif" font-size="13" lengthAdjust="spacing" textLength="548.4819" x="92.8896" y="506.7832">Viene visualizzato un messaggio di errore e vengono evidenziati i campi da correggere</text></g><path d="M554.2104,526.5254 L637.2202,526.5254 L637.2202,533.8359 L627.2202,543.8359 L554.2104,543.8359 L554.2104,526.5254" fill="#EEEEEE" style="stroke:#000000;stroke-width:1.5;"/><rect fill="none" height="46.6211" style="stroke:#000000;stroke-width:1.5;" width="365.3496" x="554.2104" y="526.5254"/><text fill="#000000" font-family="sans-serif" font-size="13" font-weight="bold" lengthAdjust="spacing" textLength="38.0098" x="569.2104" y="540.0938">break</text><text fill="#000000" font-family="sans-serif" font-size="11" font-weight="bold" lengthAdjust="spacing" textLength="161.2295" x="652.2202" y="539.1602">[Verifica andata a buon fine]</text><g class="message" data-participant-1="l" data-participant-2="alc"><polygon fill="#181818" points="664.3716,561.1465,654.3716,565.1465,664.3716,569.1465,660.3716,565.1465" style="stroke:#181818;stroke-width:1;"/><line style="stroke:#181818;stroke-width:1;stroke-dasharray:2,2;" x1="658.3716" x2="884.2344" y1="565.1465" y2="565.1465"/><text fill="#000000" font-family="sans-serif" font-size="13" lengthAdjust="spacing" textLength="169.6284" x="670.3716" y="560.4043">Verifica andata a buon fine</text></g><g class="message" data-participant-1="alc" data-participant-2="gl"><polygon fill="#181818" points="1060.7397,604.457,1070.7397,608.457,1060.7397,612.457,1064.7397,608.457" style="stroke:#181818;stroke-width:1;"/><line style="stroke:#181818;stroke-width:1;" x1="653.3716" x2="1066.7397" y1="608.457" y2="608.457"/><text fill="#000000" font-family="sans-serif" font-size="13" lengthAdjust="spacing" textLength="99.125" x="660.3716" y="603.7148">esisteChiave(...)</text></g><g class="message" data-participant-1="gl" data-participant-2="gl"><line style="stroke:#181818;stroke-width:1;" x1="1072.7397" x2="1114.7397" y1="637.7676" y2="637.7676"/><line style="stroke:#181818;stroke-width:1;" x1="1114.7397" x2="1114.7397" y1="637.7676" y2="650.7676"/><line style="stroke:#181818;stroke-width:1;" x1="1073.7397" x2="1114.7397" y1="650.7676" y2="650.7676"/><polygon fill="#181818" points="1083.7397,646.7676,1073.7397,650.7676,1083.7397,654.7676,1079.7397,650.7676" style="stroke:#181818;stroke-width:1;"/><text fill="#000000" font-family="sans-serif" font-size="13" lengthAdjust="spacing" textLength="267.7505" x="1079.7397" y="633.0254">Verifica se il libro &#232; presente gi&#224; nella lista</text></g><path d="M10,665.7676 L72.1387,665.7676 L72.1387,673.0781 L62.1387,683.0781 L10,683.0781 L10,665.7676" fill="#EEEEEE" style="stroke:#000000;stroke-width:1.5;"/><rect fill="none" height="250.4395" style="stroke:#000000;stroke-width:1.5;" width="1236.5405" x="10" y="665.7676"/><text fill="#000000" font-family="sans-serif" font-size="13" font-weight="bold" lengthAdjust="spacing" textLength="17.1387" x="25" y="679.3359">alt</text><text fill="#000000" font-family="sans-serif" font-size="11" font-weight="bold" lengthAdjust="spacing" textLength="141.3027" x="87.1387" y="678.4023">[Il libro esiste nella lista]</text><g class="message" data-participant-1="gl" data-participant-2="alc"><polygon fill="#181818" points="664.3716,700.3887,654.3716,704.3887,664.3716,708.3887,660.3716,704.3887" style="stroke:#181818;stroke-width:1;"/><line style="stroke:#181818;stroke-width:1;stroke-dasharray:2,2;" x1="658.3716" x2="1071.7397" y1="704.3887" y2="704.3887"/><text fill="#000000" font-family="sans-serif" font-size="13" lengthAdjust="spacing" textLength="145.5073" x="670.3716" y="699.6465">Il libro esiste nella lista</text></g><g class="message" data-participant-1="alc" data-participant-2="a"><polygon fill="#181818" points="86.8896,729.6992,76.8896,733.6992,86.8896,737.6992,82.8896,733.6992" style="stroke:#181818;stroke-width:1;"/><line style="stroke:#181818;stroke-width:1;stroke-dasharray:2,2;" x1="80.8896" x2="652.3716" y1="733.6992" y2="733.6992"/><text fill="#000000" font-family="sans-serif" font-size="13" lengthAdjust="spacing" textLength="246.6064" x="92.8896" y="728.957">Viene mostrato un messaggio di errore</text></g><line style="stroke:#000000;stroke-width:1;stroke-dasharray:2,2;" x1="10" x2="1246.5405" y1="742.6992" y2="742.6992"/><text fill="#000000" font-family="sans-serif" font-size="11" font-weight="bold" lengthAdjust="spacing" textLength="166.4019" x="15" y="753.334">[Il libro non esiste nella lista]</text><g class="message" data-participant-1="gl" data-participant-2="alc"><polygon fill="#181818" points="669.3716,773.9648,659.3716,777.9648,669.3716,781.9648,665.3716,777.9648" style="stroke:#181818;stroke-width:1;"/><line style="stroke:#181818;stroke-width:1;stroke-dasharray:2,2;" x1="663.3716" x2="1071.7397" y1="777.9648" y2="777.9648"/><text fill="#000000" font-family="sans-serif" font-size="13" lengthAdjust="spacing" textLength="173.7417" x="675.3716" y="773.2227">Il libro non esiste nella lista</text></g><g class="message" data-participant-1="alc" data-participant-2="gl"><polygon fill="#181818" points="1055.7397,803.2754,1065.7397,807.2754,1055.7397,811.2754,1059.7397,807.2754" style="stroke:#181818;stroke-width:1;"/><line style="stroke:#181818;stroke-width:1;" x1="658.3716" x2="1061.7397" y1="807.2754" y2="807.2754"/><text fill="#000000" font-family="sans-serif" font-size="13" lengthAdjust="spacing" textLength="75.9434" x="665.3716" y="802.5332">aggiungi(...)</text></g><g class="message" data-participant-1="gl" data-participant-2="gl"><line style="stroke:#181818;stroke-width:1;" x1="1077.7397" x2="1119.7397" y1="836.5859" y2="836.5859"/><line style="stroke:#181818;stroke-width:1;" x1="1119.7397" x2="1119.7397" y1="836.5859" y2="849.5859"/><line style="stroke:#181818;stroke-width:1;" x1="1078.7397" x2="1119.7397" y1="849.5859" y2="849.5859"/><polygon fill="#181818" points="1088.7397,845.5859,1078.7397,849.5859,1088.7397,853.5859,1084.7397,849.5859" style="stroke:#181818;stroke-width:1;"/><text fill="#000000" font-family="sans-serif" font-size="13" lengthAdjust="spacing" textLength="139.8008" x="1084.7397" y="831.8438">Viene aggiunto il libro</text></g><g class="message" data-participant-1="gl" data-participant-2="alc"><polygon fill="#181818" points="669.3716,874.8965,659.3716,878.8965,669.3716,882.8965,665.3716,878.8965" style="stroke:#181818;stroke-width:1;"/><line style="stroke:#181818;stroke-width:1;stroke-dasharray:2,2;" x1="663.3716" x2="1071.7397" y1="878.8965" y2="878.8965"/><text fill="#000000" font-family="sans-serif" font-size="13" lengthAdjust="spacing" textLength="61.7056" x="675.3716" y="874.1543">Conferma</text></g><g class="message" data-participant-1="alc" data-participant-2="a"><polygon fill="#181818" points="86.8896,904.207,76.8896,908.207,86.8896,912.207,82.8896,908.207" style="stroke:#181818;stroke-width:1;"/><line style="stroke:#181818;stroke-width:1;stroke-dasharray:2,2;" x1="80.8896" x2="652.3716" y1="908.207" y2="908.207"/><text fill="#000000" font-family="sans-serif" font-size="13" lengthAdjust="spacing" textLength="272.3271" x="92.8896" y="903.4648">Viene chiusa la schermata di aggiunta libro</text></g><!--SRC=[XLJBRjj033nBNq7uulPWVu0F0Tm00G8KHGz5xlIANXDPxQgxAwFmr-JO__2FbTJBTgmqW25OsX4vCnogG9D3X6rTi-UK8yeT0IR0icWmPZRSeC_mdNUH7uFFCJX7KH7cw6unMskvzHaL6swnwCnzlQ0dRgQFFhUkB0jfiNgGomQ4NMPqVA8lw_NwQrdWSB1jX6yo1uerPWIdxrzE7nqRWy0EcjObQK2mw6bQNjmq27vRLTz2U1thcyn757mdKu6mMZt00XSRU67o17Ne_9AUU4MW4lQ33nsPK1OLtHGhY-MJQrCI-IvJz2XdWd8XDE_dm3vHv6Ja7nYi6uQAN5yMA0g88GZ8XBfnb4Mt2XUlD_3ydpUz_Fj5V_8JawkktlaPgQPRhsIAUnMsK9Wp0p1uVSwn7howcDNDUO22k7eK4disVIH6z0MkpXQ5EDk1NmRmFUKH9hYEm8JqmGFwIer7sBLojsTF7VpAzRwDaX81u_YEd5eDr4ciXjP3JIdfv8AEKCnL_mL5tWOlRX-v8dzYjNoYXs12Z6GjnQxdLSlU2FajnQgAJnoafHHkas5D2Oeo6RW0Tf7mzQ9eNisSzbaaUPceNahLgyPQSPQIP8eU3up7SNyAqBhMZP2fREeYq2Vb_1TalH9f5YoVtpGwJdETCgeyYV8FwQsma1Bls8sP5VEgblfrXDQgq_2xPR52Qa3YAHdWbgsN1H1RpczAEiFp5F6EzdNJpbBhLcFAFqQMTmCVzlMZOKjbSY9-ggdPcgrhhwRnENfsDzHn7Bv3zsjX-y2ApWxOqn- -Ac6Qpe2vS1cNzNtyxMp-pO7RzFd7QoxKcgz_]--></g></svg>