<svg xmlns="http://www.w3.org/2000/svg" xmlns:xlink="http://www.w3.org/1999/xlink" contentStyleType="text/css" data-diagram-type="SEQUENCE" height="547px" preserveAspectRatio="none" style="width:852px;height:547px;background:#FFFFFF;" version="1.1" viewBox="0 0 852 547" width="852px" zoomAndPan="magnify"><defs/><g><g><title>GestioneUtenti</title><rect fill="#FFFFFF" height="71.6211" style="stroke:#181818;stroke-width:1;" width="10" x="605.0654" y="309.6621"/></g><rect fill="none" height="208.1738" style="stroke:#000000;stroke-width:1.5;" width="720.0762" x="10" y="241.7305"/><rect fill="none" height="46.6211" style="stroke:#000000;stroke-width:1.5;" width="531.7646" x="20" y="396.2832"/><g><title>Amministratore</title><rect fill="#000000" fill-opacity="0.00000" height="385.416" width="8" x="81.8896" y="81.4883"/><line style="stroke:#181818;stroke-width:0.5;stroke-dasharray:5,5;" x1="85" x2="85" y1="81.4883" y2="466.9043"/></g><g><title>ClasseCheContieneLaVisualizzazioneUtenti</title><rect fill="#000000" fill-opacity="0.00000" height="385.416" width="8" x="384.7866" y="81.4883"/><line style="stroke:#181818;stroke-width:0.5;stroke-dasharray:5,5;" x1="387.8086" x2="387.8086" y1="81.4883" y2="466.9043"/></g><g><title>GestioneUtenti</title><rect fill="#000000" fill-opacity="0.00000" height="385.416" width="8" x="606.0654" y="81.4883"/><line style="stroke:#181818;stroke-width:0.5;stroke-dasharray:5,5;" x1="609.999" x2="609.999" y1="81.4883" y2="466.9043"/></g><g><title>Biblioteca</title><rect fill="#000000" fill-opacity="0.00000" height="385.416" width="8" x="726.0762" y="81.4883"/><line style="stroke:#181818;stroke-width:0.5;stroke-dasharray:5,5;" x1="729.3047" x2="729.3047" y1="81.4883" y2="466.9043"/></g><g class="participant participant-head" data-participant="a"><text fill="#000000" font-family="sans-serif" font-size="14" lengthAdjust="spacing" textLength="105.7793" x="30" y="78.5352">Amministratore</text><ellipse cx="85.8896" cy="13.5" fill="#E2E2F0" rx="8" ry="8" style="stroke:#181818;stroke-width:0.5;"/><path d="M85.8896,21.5 L85.8896,48.5 M72.8896,29.5 L98.8896,29.5 M85.8896,48.5 L72.8896,63.5 M85.8896,48.5 L98.8896,63.5" fill="none" style="stroke:#181818;stroke-width:0.5;"/></g><g class="participant participant-tail" data-participant="a"><text fill="#000000" font-family="sans-serif" font-size="14" lengthAdjust="spacing" textLength="105.7793" x="30" y="479.4395">Amministratore</text><ellipse cx="85.8896" cy="490.8926" fill="#E2E2F0" rx="8" ry="8" style="stroke:#181818;stroke-width:0.5;"/><path d="M85.8896,498.8926 L85.8896,525.8926 M72.8896,506.8926 L98.8896,506.8926 M85.8896,525.8926 L72.8896,540.8926 M85.8896,525.8926 L98.8896,540.8926" fill="none" style="stroke:#181818;stroke-width:0.5;"/></g><g class="participant participant-head" data-participant="cvu"><rect fill="#E2E2F0" height="30.4883" rx="2.5" ry="2.5" style="stroke:#181818;stroke-width:0.5;" width="305.9561" x="235.8086" y="50"/><text fill="#000000" font-family="sans-serif" font-size="14" lengthAdjust="spacing" textLength="291.9561" x="242.8086" y="70.5352">ClasseCheContieneLaVisualizzazioneUtenti</text></g><g class="participant participant-tail" data-participant="cvu"><rect fill="#E2E2F0" height="30.4883" rx="2.5" ry="2.5" style="stroke:#181818;stroke-width:0.5;" width="305.9561" x="235.8086" y="465.9043"/><text fill="#000000" font-family="sans-serif" font-size="14" lengthAdjust="spacing" textLength="291.9561" x="242.8086" y="486.4395">ClasseCheContieneLaVisualizzazioneUtenti</text></g><g class="participant participant-head" data-participant="gu"><rect fill="#E2E2F0" height="30.4883" rx="2.5" ry="2.5" style="stroke:#181818;stroke-width:0.5;" width="114.1328" x="552.999" y="50"/><text fill="#000000" font-family="sans-serif" font-size="14" lengthAdjust="spacing" textLength="100.1328" x="559.999" y="70.5352">GestioneUtenti</text></g><g class="participant participant-tail" data-participant="gu"><rect fill="#E2E2F0" height="30.4883" rx="2.5" ry="2.5" style="stroke:#181818;stroke-width:0.5;" width="114.1328" x="552.999" y="465.9043"/><text fill="#000000" font-family="sans-serif" font-size="14" lengthAdjust="spacing" textLength="100.1328" x="559.999" y="486.4395">GestioneUtenti</text></g><g class="participant participant-head" data-participant="b"><rect fill="#E2E2F0" height="30.4883" rx="2.5" ry="2.5" style="stroke:#181818;stroke-width:0.5;" width="79.543" x="690.3047" y="50"/><text fill="#000000" font-family="sans-serif" font-size="14" lengthAdjust="spacing" textLength="65.543" x="697.3047" y="70.5352">Biblioteca</text></g><g class="participant participant-tail" data-participant="b"><rect fill="#E2E2F0" height="30.4883" rx="2.5" ry="2.5" style="stroke:#181818;stroke-width:0.5;" width="79.543" x="690.3047" y="465.9043"/><text fill="#000000" font-family="sans-serif" font-size="14" lengthAdjust="spacing" textLength="65.543" x="697.3047" y="486.4395">Biblioteca</text></g><g><title>GestioneUtenti</title><rect fill="#FFFFFF" height="71.6211" style="stroke:#181818;stroke-width:1;" width="10" x="605.0654" y="309.6621"/></g><g class="message" data-participant-1="b" data-participant-2="b"><line style="stroke:#181818;stroke-width:1;" x1="730.0762" x2="772.0762" y1="112.7988" y2="112.7988"/><line style="stroke:#181818;stroke-width:1;" x1="772.0762" x2="772.0762" y1="112.7988" y2="125.7988"/><line style="stroke:#181818;stroke-width:1;" x1="731.0762" x2="772.0762" y1="125.7988" y2="125.7988"/><polygon fill="#181818" points="741.0762,121.7988,731.0762,125.7988,741.0762,129.7988,737.0762,125.7988" style="stroke:#181818;stroke-width:1;"/><text fill="#000000" font-family="sans-serif" font-size="13" lengthAdjust="spacing" textLength="108.7925" x="737.0762" y="108.0566">caricaArchivio(...)</text></g><g class="message" data-participant-1="cvu" data-participant-2="cvu"><line style="stroke:#181818;stroke-width:1;" x1="388.7866" x2="430.7866" y1="155.1094" y2="155.1094"/><line style="stroke:#181818;stroke-width:1;" x1="430.7866" x2="430.7866" y1="155.1094" y2="168.1094"/><line style="stroke:#181818;stroke-width:1;" x1="389.7866" x2="430.7866" y1="168.1094" y2="168.1094"/><polygon fill="#181818" points="399.7866,164.1094,389.7866,168.1094,399.7866,172.1094,395.7866,168.1094" style="stroke:#181818;stroke-width:1;"/><text fill="#000000" font-family="sans-serif" font-size="13" lengthAdjust="spacing" textLength="76.978" x="395.7866" y="150.3672">inizialize(...)</text></g><g class="message" data-participant-1="a" data-participant-2="cvu"><polygon fill="#181818" points="376.7866,193.4199,386.7866,197.4199,376.7866,201.4199,380.7866,197.4199" style="stroke:#181818;stroke-width:1;"/><line style="stroke:#181818;stroke-width:1;" x1="85.8896" x2="382.7866" y1="197.4199" y2="197.4199"/><text fill="#000000" font-family="sans-serif" font-size="13" lengthAdjust="spacing" textLength="140.0737" x="92.8896" y="192.6777">Apre schermata utenti</text></g><g class="message" data-participant-1="a" data-participant-2="cvu"><polygon fill="#181818" points="376.7866,222.7305,386.7866,226.7305,376.7866,230.7305,380.7866,226.7305" style="stroke:#181818;stroke-width:1;"/><line style="stroke:#181818;stroke-width:1;" x1="85.8896" x2="382.7866" y1="226.7305" y2="226.7305"/><text fill="#000000" font-family="sans-serif" font-size="13" lengthAdjust="spacing" textLength="174.332" x="92.8896" y="221.9883">Seleziona la barra di ricerca</text></g><path d="M10,241.7305 L84.4468,241.7305 L84.4468,249.041 L74.4468,259.041 L10,259.041 L10,241.7305" fill="#EEEEEE" style="stroke:#000000;stroke-width:1.5;"/><rect fill="none" height="208.1738" style="stroke:#000000;stroke-width:1.5;" width="720.0762" x="10" y="241.7305"/><text fill="#000000" font-family="sans-serif" font-size="13" font-weight="bold" lengthAdjust="spacing" textLength="29.4468" x="25" y="255.2988">loop</text><text fill="#000000" font-family="sans-serif" font-size="11" font-weight="bold" lengthAdjust="spacing" textLength="149.1016" x="99.4468" y="254.3652">[Inserimento sottostringa]</text><g class="message" data-participant-1="a" data-participant-2="cvu"><polygon fill="#181818" points="376.7866,276.3516,386.7866,280.3516,376.7866,284.3516,380.7866,280.3516" style="stroke:#181818;stroke-width:1;"/><line style="stroke:#181818;stroke-width:1;" x1="85.8896" x2="382.7866" y1="280.3516" y2="280.3516"/><text fill="#000000" font-family="sans-serif" font-size="13" lengthAdjust="spacing" textLength="278.897" x="92.8896" y="275.6094">Digita una sottostringa nella barra di ricerca</text></g><g class="message" data-participant-1="cvu" data-participant-2="gu"><polygon fill="#181818" points="593.0654,305.6621,603.0654,309.6621,593.0654,313.6621,597.0654,309.6621" style="stroke:#181818;stroke-width:1;"/><line style="stroke:#181818;stroke-width:1;" x1="388.7866" x2="599.0654" y1="309.6621" y2="309.6621"/><text fill="#000000" font-family="sans-serif" font-size="13" lengthAdjust="spacing" textLength="197.2788" x="395.7866" y="304.9199">ricercaMedianteSottostringa(...)</text></g><g class="message" data-participant-1="gu" data-participant-2="gu"><line style="stroke:#181818;stroke-width:1;" x1="615.0654" x2="657.0654" y1="338.9727" y2="338.9727"/><line style="stroke:#181818;stroke-width:1;" x1="657.0654" x2="657.0654" y1="338.9727" y2="351.9727"/><line style="stroke:#181818;stroke-width:1;" x1="616.0654" x2="657.0654" y1="351.9727" y2="351.9727"/><polygon fill="#181818" points="626.0654,347.9727,616.0654,351.9727,626.0654,355.9727,622.0654,351.9727" style="stroke:#181818;stroke-width:1;"/><text fill="#000000" font-family="sans-serif" font-size="13" lengthAdjust="spacing" textLength="86.0107" x="622.0654" y="334.2305">Ricerca utenti</text></g><g class="message" data-participant-1="gu" data-participant-2="a"><polygon fill="#181818" points="96.8896,377.2832,86.8896,381.2832,96.8896,385.2832,92.8896,381.2832" style="stroke:#181818;stroke-width:1;"/><line style="stroke:#181818;stroke-width:1;stroke-dasharray:2,2;" x1="90.8896" x2="609.0654" y1="381.2832" y2="381.2832"/><text fill="#000000" font-family="sans-serif" font-size="13" lengthAdjust="spacing" textLength="314.3867" x="102.8896" y="376.541">Restituisce utenti che rispettano i criteri di ricerca</text></g><path d="M20,396.2832 L103.0098,396.2832 L103.0098,403.5938 L93.0098,413.5938 L20,413.5938 L20,396.2832" fill="#EEEEEE" style="stroke:#000000;stroke-width:1.5;"/><rect fill="none" height="46.6211" style="stroke:#000000;stroke-width:1.5;" width="531.7646" x="20" y="396.2832"/><text fill="#000000" font-family="sans-serif" font-size="13" font-weight="bold" lengthAdjust="spacing" textLength="38.0098" x="35" y="409.8516">break</text><text fill="#000000" font-family="sans-serif" font-size="11" font-weight="bold" lengthAdjust="spacing" textLength="119.6519" x="118.0098" y="408.918">[Seleziona un utente]</text><g class="message" data-participant-1="a" data-participant-2="cvu"><polygon fill="#181818" points="376.7866,430.9043,386.7866,434.9043,376.7866,438.9043,380.7866,434.9043" style="stroke:#181818;stroke-width:1;"/><line style="stroke:#181818;stroke-width:1;" x1="85.8896" x2="382.7866" y1="434.9043" y2="434.9043"/><text fill="#000000" font-family="sans-serif" font-size="13" lengthAdjust="spacing" textLength="118.187" x="92.8896" y="430.1621">clicca su un utente</text></g><!--SRC=[RLB1QiCm33qxNw5RjqFx0JqKkWx6O6FGijqLHwHYZXri9OTy_MGtQvin28RuwUazFTcWbH1XttNiEKb4_IF015YP7gEmvHwzmC5XIdGuqo5uOVBqXb-S1dGyJJXnyFGff4Ycsd5OabyeoRAa_LFnnBNZ86GnetLLcNgzgxTWCRB5VRHd7ZayR3QRnyfKHXNMEpsseAudpYve1d46zhtEaUoPOeU2C1Jf6tmYHzasWaEeCKQ4Xa75A5hC4gkFrZECmIbPky2OXrQvH94bmE2pDnIX-8jXstA8Fgjfpsih5q8FhuNNgOS0AOW4ZPfzYr2PgwLdRZaxLK-B4a_kNu-N55fbpbVlrB26IQSxzfoAqJNpY48bUMFQcNcyCA_n56Izm-qnhqm6JfPciAGGEVKaWZw0NcWIEjNIL4DBAVrM-cOQBeyarmx9vZaRT92pqO8w4dxVhKJ3BPgKuxdcOnrRjPg66wum-KPVIpch7m00]--></g></svg>