<svg xmlns="http://www.w3.org/2000/svg" xmlns:xlink="http://www.w3.org/1999/xlink" contentStyleType="text/css" data-diagram-type="SEQUENCE" height="837px" preserveAspectRatio="none" style="width:1184px;height:837px;background:#FFFFFF;" version="1.1" viewBox="0 0 1184 837" width="1184px" zoomAndPan="magnify"><defs/><g><g><title>UtentiController</title><rect fill="#FFFFFF" height="34.3105" style="stroke:#181818;stroke-width:1;" width="10" x="398.4644" y="251.041"/></g><g><title>ModificaUtenteController</title><rect fill="#FFFFFF" height="135.2422" style="stroke:#181818;stroke-width:1;" width="10" x="648.3716" y="405.5938"/></g><g><title>ModificaUtenteController</title><rect fill="#FFFFFF" height="100.9316" style="stroke:#181818;stroke-width:1;" width="10" x="648.3716" y="637.7676"/></g><g><title>Utente</title><rect fill="#FFFFFF" height="71.6211" style="stroke:#181818;stroke-width:1;" width="10" x="880.2344" y="439.9043"/></g><g><title>Utenti</title><rect fill="#FFFFFF" height="71.6211" style="stroke:#181818;stroke-width:1;" width="10" x="1003.457" y="637.7676"/></g><rect fill="none" height="309.1055" style="stroke:#000000;stroke-width:1.5;" width="998.457" x="10" y="300.3516"/><rect fill="none" height="46.6211" style="stroke:#000000;stroke-width:1.5;" width="373.2109" x="551.2539" y="555.8359"/><g><title>Amministratore</title><rect fill="#000000" fill-opacity="0.00000" height="675.2109" width="8" x="71.8896" y="81.4883"/><line style="stroke:#181818;stroke-width:0.5;stroke-dasharray:5,5;" x1="75" x2="75" y1="81.4883" y2="756.6992"/></g><g><title>UtentiController</title><rect fill="#000000" fill-opacity="0.00000" height="675.2109" width="8" x="399.4644" y="81.4883"/><line style="stroke:#181818;stroke-width:0.5;stroke-dasharray:5,5;" x1="403.0298" x2="403.0298" y1="81.4883" y2="756.6992"/></g><g><title>ModificaUtenteController</title><rect fill="#000000" fill-opacity="0.00000" height="675.2109" width="8" x="649.3716" y="81.4883"/><line style="stroke:#181818;stroke-width:0.5;stroke-dasharray:5,5;" x1="653.2539" x2="653.2539" y1="81.4883" y2="756.6992"/></g><g><title>Utente</title><rect fill="#000000" fill-opacity="0.00000" height="675.2109" width="8" x="881.2344" y="81.4883"/><line style="stroke:#181818;stroke-width:0.5;stroke-dasharray:5,5;" x1="885.0039" x2="885.0039" y1="81.4883" y2="756.6992"/></g><g><title>Utenti</title><rect fill="#000000" fill-opacity="0.00000" height="675.2109" width="8" x="1004.457" y="81.4883"/><line style="stroke:#181818;stroke-width:0.5;stroke-dasharray:5,5;" x1="1008.103" x2="1008.103" y1="81.4883" y2="756.6992"/></g><g class="participant participant-head" data-participant="a"><text fill="#000000" font-family="sans-serif" font-size="14" lengthAdjust="spacing" textLength="105.7793" x="20" y="78.5352">Amministratore</text><ellipse cx="75.8896" cy="13.5" fill="#E2E2F0" rx="8" ry="8" style="stroke:#181818;stroke-width:0.5;"/><path d="M75.8896,21.5 L75.8896,48.5 M62.8896,29.5 L88.8896,29.5 M75.8896,48.5 L62.8896,63.5 M75.8896,48.5 L88.8896,63.5" fill="none" style="stroke:#181818;stroke-width:0.5;"/></g><g class="participant participant-tail" data-participant="a"><text fill="#000000" font-family="sans-serif" font-size="14" lengthAdjust="spacing" textLength="105.7793" x="20" y="769.2344">Amministratore</text><ellipse cx="75.8896" cy="780.6875" fill="#E2E2F0" rx="8" ry="8" style="stroke:#181818;stroke-width:0.5;"/><path d="M75.8896,788.6875 L75.8896,815.6875 M62.8896,796.6875 L88.8896,796.6875 M75.8896,815.6875 L62.8896,830.6875 M75.8896,815.6875 L88.8896,830.6875" fill="none" style="stroke:#181818;stroke-width:0.5;"/></g><g class="participant participant-head" data-participant="cvu"><rect fill="#E2E2F0" height="30.4883" rx="2.5" ry="2.5" style="stroke:#181818;stroke-width:0.5;" width="122.8691" x="342.0298" y="50"/><text fill="#000000" font-family="sans-serif" font-size="14" lengthAdjust="spacing" textLength="108.8691" x="349.0298" y="70.5352">UtentiController</text></g><g class="participant participant-tail" data-participant="cvu"><rect fill="#E2E2F0" height="30.4883" rx="2.5" ry="2.5" style="stroke:#181818;stroke-width:0.5;" width="122.8691" x="342.0298" y="755.6992"/><text fill="#000000" font-family="sans-serif" font-size="14" lengthAdjust="spacing" textLength="108.8691" x="349.0298" y="776.2344">UtentiController</text></g><g class="participant participant-head" data-participant="muc"><rect fill="#E2E2F0" height="30.4883" rx="2.5" ry="2.5" style="stroke:#181818;stroke-width:0.5;" width="184.2354" x="561.2539" y="50"/><text fill="#000000" font-family="sans-serif" font-size="14" lengthAdjust="spacing" textLength="170.2354" x="568.2539" y="70.5352">ModificaUtenteController</text></g><g class="participant participant-tail" data-participant="muc"><rect fill="#E2E2F0" height="30.4883" rx="2.5" ry="2.5" style="stroke:#181818;stroke-width:0.5;" width="184.2354" x="561.2539" y="755.6992"/><text fill="#000000" font-family="sans-serif" font-size="14" lengthAdjust="spacing" textLength="170.2354" x="568.2539" y="776.2344">ModificaUtenteController</text></g><g class="participant participant-head" data-participant="u"><rect fill="#E2E2F0" height="30.4883" rx="2.5" ry="2.5" style="stroke:#181818;stroke-width:0.5;" width="58.4609" x="856.0039" y="50"/><text fill="#000000" font-family="sans-serif" font-size="14" lengthAdjust="spacing" textLength="44.4609" x="863.0039" y="70.5352">Utente</text></g><g class="participant participant-tail" data-participant="u"><rect fill="#E2E2F0" height="30.4883" rx="2.5" ry="2.5" style="stroke:#181818;stroke-width:0.5;" width="58.4609" x="856.0039" y="755.6992"/><text fill="#000000" font-family="sans-serif" font-size="14" lengthAdjust="spacing" textLength="44.4609" x="863.0039" y="776.2344">Utente</text></g><g class="participant participant-head" data-participant="gu"><rect fill="#E2E2F0" height="30.4883" rx="2.5" ry="2.5" style="stroke:#181818;stroke-width:0.5;" width="54.708" x="981.103" y="50"/><text fill="#000000" font-family="sans-serif" font-size="14" lengthAdjust="spacing" textLength="40.708" x="988.103" y="70.5352">Utenti</text></g><g class="participant participant-tail" data-participant="gu"><rect fill="#E2E2F0" height="30.4883" rx="2.5" ry="2.5" style="stroke:#181818;stroke-width:0.5;" width="54.708" x="981.103" y="755.6992"/><text fill="#000000" font-family="sans-serif" font-size="14" lengthAdjust="spacing" textLength="40.708" x="988.103" y="776.2344">Utenti</text></g><g><title>UtentiController</title><rect fill="#FFFFFF" height="34.3105" style="stroke:#181818;stroke-width:1;" width="10" x="398.4644" y="251.041"/></g><g><title>ModificaUtenteController</title><rect fill="#FFFFFF" height="135.2422" style="stroke:#181818;stroke-width:1;" width="10" x="648.3716" y="405.5938"/></g><g><title>ModificaUtenteController</title><rect fill="#FFFFFF" height="100.9316" style="stroke:#181818;stroke-width:1;" width="10" x="648.3716" y="637.7676"/></g><g><title>Utente</title><rect fill="#FFFFFF" height="71.6211" style="stroke:#181818;stroke-width:1;" width="10" x="880.2344" y="439.9043"/></g><g><title>Utenti</title><rect fill="#FFFFFF" height="71.6211" style="stroke:#181818;stroke-width:1;" width="10" x="1003.457" y="637.7676"/></g><g class="message" data-participant-1="cvu" data-participant-2="cvu"><line style="stroke:#181818;stroke-width:1;" x1="403.4644" x2="445.4644" y1="112.7988" y2="112.7988"/><line style="stroke:#181818;stroke-width:1;" x1="445.4644" x2="445.4644" y1="112.7988" y2="125.7988"/><line style="stroke:#181818;stroke-width:1;" x1="404.4644" x2="445.4644" y1="125.7988" y2="125.7988"/><polygon fill="#181818" points="414.4644,121.7988,404.4644,125.7988,414.4644,129.7988,410.4644,125.7988" style="stroke:#181818;stroke-width:1;"/><text fill="#000000" font-family="sans-serif" font-size="13" lengthAdjust="spacing" textLength="74.3882" x="410.4644" y="108.0566">initialize(...)</text></g><g class="message" data-participant-1="a" data-participant-2="cvu"><polygon fill="#181818" points="391.4644,151.1094,401.4644,155.1094,391.4644,159.1094,395.4644,155.1094" style="stroke:#181818;stroke-width:1;"/><line style="stroke:#181818;stroke-width:1;" x1="75.8896" x2="397.4644" y1="155.1094" y2="155.1094"/><text fill="#000000" font-family="sans-serif" font-size="13" lengthAdjust="spacing" textLength="140.0737" x="82.8896" y="150.3672">Apre schermata utenti</text></g><g class="message" data-participant-1="a" data-participant-2="cvu"><polygon fill="#181818" points="391.4644,180.4199,401.4644,184.4199,391.4644,188.4199,395.4644,184.4199" style="stroke:#181818;stroke-width:1;"/><line style="stroke:#181818;stroke-width:1;" x1="75.8896" x2="397.4644" y1="184.4199" y2="184.4199"/><text fill="#000000" font-family="sans-serif" font-size="13" lengthAdjust="spacing" textLength="124.395" x="82.8896" y="179.6777">Seleziona un utente</text></g><g class="message" data-participant-1="a" data-participant-2="cvu"><polygon fill="#181818" points="391.4644,209.7305,401.4644,213.7305,391.4644,217.7305,395.4644,213.7305" style="stroke:#181818;stroke-width:1;"/><line style="stroke:#181818;stroke-width:1;" x1="75.8896" x2="397.4644" y1="213.7305" y2="213.7305"/><text fill="#000000" font-family="sans-serif" font-size="13" lengthAdjust="spacing" textLength="174.0591" x="82.8896" y="208.9883">Clicca il pulsante "Modifica"</text></g><g class="message" data-participant-1="cvu" data-participant-2="cvu"><line style="stroke:#181818;stroke-width:1;" x1="403.4644" x2="450.4644" y1="238.041" y2="238.041"/><line style="stroke:#181818;stroke-width:1;" x1="450.4644" x2="450.4644" y1="238.041" y2="251.041"/><line style="stroke:#181818;stroke-width:1;" x1="409.4644" x2="450.4644" y1="251.041" y2="251.041"/><polygon fill="#181818" points="419.4644,247.041,409.4644,251.041,419.4644,255.041,415.4644,251.041" style="stroke:#181818;stroke-width:1;"/><text fill="#000000" font-family="sans-serif" font-size="13" lengthAdjust="spacing" textLength="107.7388" x="415.4644" y="233.2988">onModifyUser(...)</text></g><g class="message" data-participant-1="cvu" data-participant-2="a"><polygon fill="#181818" points="86.8896,281.3516,76.8896,285.3516,86.8896,289.3516,82.8896,285.3516" style="stroke:#181818;stroke-width:1;"/><line style="stroke:#181818;stroke-width:1;stroke-dasharray:2,2;" x1="80.8896" x2="402.4644" y1="285.3516" y2="285.3516"/><text fill="#000000" font-family="sans-serif" font-size="13" lengthAdjust="spacing" textLength="298.5747" x="92.8896" y="280.6094">Viene mostrata la schermata di modifica utente</text></g><path d="M10,300.3516 L84.4468,300.3516 L84.4468,307.6621 L74.4468,317.6621 L10,317.6621 L10,300.3516" fill="#EEEEEE" style="stroke:#000000;stroke-width:1.5;"/><rect fill="none" height="309.1055" style="stroke:#000000;stroke-width:1.5;" width="998.457" x="10" y="300.3516"/><text fill="#000000" font-family="sans-serif" font-size="13" font-weight="bold" lengthAdjust="spacing" textLength="29.4468" x="25" y="313.9199">loop</text><text fill="#000000" font-family="sans-serif" font-size="11" font-weight="bold" lengthAdjust="spacing" textLength="282.4443" x="99.4468" y="312.9863">[Amministratore modifica i campi in modo errato]</text><g class="message" data-participant-1="a" data-participant-2="muc"><polygon fill="#181818" points="641.3716,334.9727,651.3716,338.9727,641.3716,342.9727,645.3716,338.9727" style="stroke:#181818;stroke-width:1;"/><line style="stroke:#181818;stroke-width:1;" x1="75.8896" x2="647.3716" y1="338.9727" y2="338.9727"/><text fill="#000000" font-family="sans-serif" font-size="13" lengthAdjust="spacing" textLength="259.2764" x="82.8896" y="334.2305">Modifica i campi dell'utente nel TextField</text></g><g class="message" data-participant-1="a" data-participant-2="muc"><polygon fill="#181818" points="641.3716,364.2832,651.3716,368.2832,641.3716,372.2832,645.3716,368.2832" style="stroke:#181818;stroke-width:1;"/><line style="stroke:#181818;stroke-width:1;" x1="75.8896" x2="647.3716" y1="368.2832" y2="368.2832"/><text fill="#000000" font-family="sans-serif" font-size="13" lengthAdjust="spacing" textLength="184.3867" x="82.8896" y="363.541">Preme il pulsante "Conferma"</text></g><g class="message" data-participant-1="muc" data-participant-2="muc"><line style="stroke:#181818;stroke-width:1;" x1="653.3716" x2="700.3716" y1="392.5938" y2="392.5938"/><line style="stroke:#181818;stroke-width:1;" x1="700.3716" x2="700.3716" y1="392.5938" y2="405.5938"/><line style="stroke:#181818;stroke-width:1;" x1="659.3716" x2="700.3716" y1="405.5938" y2="405.5938"/><polygon fill="#181818" points="669.3716,401.5938,659.3716,405.5938,669.3716,409.5938,665.3716,405.5938" style="stroke:#181818;stroke-width:1;"/><text fill="#000000" font-family="sans-serif" font-size="13" lengthAdjust="spacing" textLength="87.8896" x="665.3716" y="387.8516">onConfirm(...)</text></g><g class="message" data-participant-1="muc" data-participant-2="u"><polygon fill="#181818" points="868.2344,435.9043,878.2344,439.9043,868.2344,443.9043,872.2344,439.9043" style="stroke:#181818;stroke-width:1;"/><line style="stroke:#181818;stroke-width:1;" x1="658.3716" x2="874.2344" y1="439.9043" y2="439.9043"/><text fill="#000000" font-family="sans-serif" font-size="13" lengthAdjust="spacing" textLength="107.5039" x="665.3716" y="435.1621">verificaUtente(...)</text></g><g class="message" data-participant-1="u" data-participant-2="u"><line style="stroke:#181818;stroke-width:1;" x1="890.2344" x2="932.2344" y1="469.2148" y2="469.2148"/><line style="stroke:#181818;stroke-width:1;" x1="932.2344" x2="932.2344" y1="469.2148" y2="482.2148"/><line style="stroke:#181818;stroke-width:1;" x1="891.2344" x2="932.2344" y1="482.2148" y2="482.2148"/><polygon fill="#181818" points="901.2344,478.2148,891.2344,482.2148,901.2344,486.2148,897.2344,482.2148" style="stroke:#181818;stroke-width:1;"/><text fill="#000000" font-family="sans-serif" font-size="13" lengthAdjust="spacing" textLength="89.2227" x="897.2344" y="464.4727">Verifica campi</text></g><g class="message" data-participant-1="u" data-participant-2="muc"><polygon fill="#181818" points="669.3716,507.5254,659.3716,511.5254,669.3716,515.5254,665.3716,511.5254" style="stroke:#181818;stroke-width:1;"/><line style="stroke:#181818;stroke-width:1;stroke-dasharray:2,2;" x1="663.3716" x2="884.2344" y1="511.5254" y2="511.5254"/><text fill="#000000" font-family="sans-serif" font-size="13" lengthAdjust="spacing" textLength="197.8628" x="675.3716" y="506.7832">Verifica non andata a buon fine</text></g><g class="message" data-participant-1="muc" data-participant-2="a"><polygon fill="#181818" points="86.8896,536.8359,76.8896,540.8359,86.8896,544.8359,82.8896,540.8359" style="stroke:#181818;stroke-width:1;"/><line style="stroke:#181818;stroke-width:1;stroke-dasharray:2,2;" x1="80.8896" x2="652.3716" y1="540.8359" y2="540.8359"/><text fill="#000000" font-family="sans-serif" font-size="13" lengthAdjust="spacing" textLength="548.4819" x="92.8896" y="536.0938">Viene visualizzato un messaggio di errore e vengono evidenziati i campi da correggere</text></g><path d="M551.2539,555.8359 L634.2637,555.8359 L634.2637,563.1465 L624.2637,573.1465 L551.2539,573.1465 L551.2539,555.8359" fill="#EEEEEE" style="stroke:#000000;stroke-width:1.5;"/><rect fill="none" height="46.6211" style="stroke:#000000;stroke-width:1.5;" width="373.2109" x="551.2539" y="555.8359"/><text fill="#000000" font-family="sans-serif" font-size="13" font-weight="bold" lengthAdjust="spacing" textLength="38.0098" x="566.2539" y="569.4043">break</text><g class="message" data-participant-1="u" data-participant-2="muc"><polygon fill="#181818" points="664.3716,590.457,654.3716,594.457,664.3716,598.457,660.3716,594.457" style="stroke:#181818;stroke-width:1;"/><line style="stroke:#181818;stroke-width:1;stroke-dasharray:2,2;" x1="658.3716" x2="884.2344" y1="594.457" y2="594.457"/><text fill="#000000" font-family="sans-serif" font-size="13" lengthAdjust="spacing" textLength="169.6284" x="670.3716" y="589.7148">Verifica andata a buon fine</text></g><g class="message" data-participant-1="muc" data-participant-2="gu"><polygon fill="#181818" points="991.457,633.7676,1001.457,637.7676,991.457,641.7676,995.457,637.7676" style="stroke:#181818;stroke-width:1;"/><line style="stroke:#181818;stroke-width:1;" x1="658.3716" x2="997.457" y1="637.7676" y2="637.7676"/><text fill="#000000" font-family="sans-serif" font-size="13" lengthAdjust="spacing" textLength="75.2324" x="665.3716" y="633.0254">modifica(...)</text></g><g class="message" data-participant-1="gu" data-participant-2="gu"><line style="stroke:#181818;stroke-width:1;" x1="1013.457" x2="1055.457" y1="667.0781" y2="667.0781"/><line style="stroke:#181818;stroke-width:1;" x1="1055.457" x2="1055.457" y1="667.0781" y2="680.0781"/><line style="stroke:#181818;stroke-width:1;" x1="1014.457" x2="1055.457" y1="680.0781" y2="680.0781"/><polygon fill="#181818" points="1024.457,676.0781,1014.457,680.0781,1024.457,684.0781,1020.457,680.0781" style="stroke:#181818;stroke-width:1;"/><text fill="#000000" font-family="sans-serif" font-size="13" lengthAdjust="spacing" textLength="157.4028" x="1020.457" y="662.3359">Viene modificato l'utente</text></g><g class="message" data-participant-1="gu" data-participant-2="muc"><polygon fill="#181818" points="669.3716,705.3887,659.3716,709.3887,669.3716,713.3887,665.3716,709.3887" style="stroke:#181818;stroke-width:1;"/><line style="stroke:#181818;stroke-width:1;stroke-dasharray:2,2;" x1="663.3716" x2="1007.457" y1="709.3887" y2="709.3887"/><text fill="#000000" font-family="sans-serif" font-size="13" lengthAdjust="spacing" textLength="61.7056" x="675.3716" y="704.6465">Conferma</text></g><g class="message" data-participant-1="muc" data-participant-2="a"><polygon fill="#181818" points="86.8896,734.6992,76.8896,738.6992,86.8896,742.6992,82.8896,738.6992" style="stroke:#181818;stroke-width:1;"/><line style="stroke:#181818;stroke-width:1;stroke-dasharray:2,2;" x1="80.8896" x2="652.3716" y1="738.6992" y2="738.6992"/><text fill="#000000" font-family="sans-serif" font-size="13" lengthAdjust="spacing" textLength="282.7817" x="92.8896" y="733.957">Viene chiusa la schermata di modifica utente</text></g><!--SRC=[bPFFRjim3CRFzbCGkMGx90-GGu2Ym6u32cpjdPKPbvWi6R9aR7dwaPB_5hdqOa3YH_7ZZtI59le0Jrt7ZeSOK4u4E03MLOyXik4UNOJNI2xoitSnU6ifgCICQI_wwHk-iS4ifhsuI-R1YxbKUbHA0ssgwqggdAxokO0uZ8oMx_JjV3v_hokS0a-zU1xC1uKE8qBA3wpXNsJfpjv9n9KWrTKQVhPi309Rw9CTK4qTvauEs_hUvUj_hmE5sO69FA9aP1QgXTFf2WSyNE2DoH5qFbD5iBYnsB04Ied5KKExr-hg-6agImQ3mQvd0Q9t7YYeegwizpryDKavo70ko_GMPKFM7eixS6JXD_sDFvXiiqbw2TJHdftC_QPj2hjAD9FGExtdq4taLdHvCoQfK1ufR9PeLgzovLnLAMlV9cqnN09v0Bda4dNU0Rf6mIEy9pdTs97ADypJPFTqnNbs8mz9z-qke7HtEXe6R5lsEZ_Xftn5HQxrJe2Et92xCyhoBWZ5cW-1sfQ25jpKAsqVXKh3kfsaZwR1iAu7Mj1XYk0z4FwfSySJoQMjXosHa_7efov4My4qxy3dfIqMbcERqRQf9CthMr85mBmBHRHYdkUzRqyVat2MBK3D1wVXQxz2zlWV]--></g></svg>