<svg xmlns="http://www.w3.org/2000/svg" xmlns:xlink="http://www.w3.org/1999/xlink" contentStyleType="text/css" data-diagram-type="SEQUENCE" height="1102px" preserveAspectRatio="none" style="width:1269px;height:1102px;background:#FFFFFF;" version="1.1" viewBox="0 0 1269 1102" width="1269px" zoomAndPan="magnify"><defs/><g><g><title>ClasseCheContieneVisualizzazioneLibri</title><rect fill="#FFFFFF" height="34.3105" style="stroke:#181818;stroke-width:1;" width="10" x="658.3716" y="221.7305"/></g><g><title>ClasseCheContieneVisualizzazioneLibri</title><rect fill="#FFFFFF" height="135.2422" style="stroke:#181818;stroke-width:1;" width="10" x="658.3716" y="508.5254"/></g><g><title>ClasseCheContieneVisualizzazioneLibri</title><rect fill="#FFFFFF" height="71.6211" style="stroke:#181818;stroke-width:1;" width="10" x="658.3716" y="740.6992"/></g><g><title>Libro</title><rect fill="#FFFFFF" height="100.9316" style="stroke:#181818;stroke-width:1;" width="10" x="982.4419" y="542.8359"/></g><g><title>GestoreLibri</title><rect fill="#FFFFFF" height="71.6211" style="stroke:#181818;stroke-width:1;" width="10" x="1105.6646" y="740.6992"/></g><g><title>GestoreLibri</title><rect fill="#FFFFFF" height="71.6211" style="stroke:#181818;stroke-width:1;" width="10" x="1105.6646" y="931.5625"/></g><rect fill="none" height="441.3477" style="stroke:#000000;stroke-width:1.5;" width="1100.6646" x="10" y="271.041"/><rect fill="none" height="118.2422" style="stroke:#000000;stroke-width:1.5;" width="972.4419" x="20" y="353.9727"/><rect fill="none" height="46.6211" style="stroke:#000000;stroke-width:1.5;" width="508.4712" x="513.2964" y="658.7676"/><rect fill="none" height="75.9316" style="stroke:#000000;stroke-width:1.5;" width="1148.9229" x="20" y="827.3203"/><g><title>Amministratore</title><rect fill="#000000" fill-opacity="0.00000" height="939.6953" width="8" x="81.8896" y="81.4883"/><line style="stroke:#181818;stroke-width:0.5;stroke-dasharray:5,5;" x1="85" x2="85" y1="81.4883" y2="1021.1836"/></g><g><title>ClasseCheContieneVisualizzazioneLibri</title><rect fill="#000000" fill-opacity="0.00000" height="939.6953" width="8" x="659.3716" y="81.4883"/><line style="stroke:#181818;stroke-width:0.5;stroke-dasharray:5,5;" x1="663.2964" x2="663.2964" y1="81.4883" y2="1021.1836"/></g><g><title>Libro</title><rect fill="#000000" fill-opacity="0.00000" height="939.6953" width="8" x="983.4419" y="81.4883"/><line style="stroke:#181818;stroke-width:0.5;stroke-dasharray:5,5;" x1="987.1162" x2="987.1162" y1="81.4883" y2="1021.1836"/></g><g><title>GestoreLibri</title><rect fill="#000000" fill-opacity="0.00000" height="939.6953" width="8" x="1106.6646" y="81.4883"/><line style="stroke:#181818;stroke-width:0.5;stroke-dasharray:5,5;" x1="1110.4063" x2="1110.4063" y1="81.4883" y2="1021.1836"/></g><g class="participant participant-head" data-participant="a"><text fill="#000000" font-family="sans-serif" font-size="14" lengthAdjust="spacing" textLength="105.7793" x="30" y="78.5352">Amministratore</text><ellipse cx="85.8896" cy="13.5" fill="#E2E2F0" rx="8" ry="8" style="stroke:#181818;stroke-width:0.5;"/><path d="M85.8896,21.5 L85.8896,48.5 M72.8896,29.5 L98.8896,29.5 M85.8896,48.5 L72.8896,63.5 M85.8896,48.5 L98.8896,63.5" fill="none" style="stroke:#181818;stroke-width:0.5;"/></g><g class="participant participant-tail" data-participant="a"><text fill="#000000" font-family="sans-serif" font-size="14" lengthAdjust="spacing" textLength="105.7793" x="30" y="1033.7188">Amministratore</text><ellipse cx="85.8896" cy="1045.1719" fill="#E2E2F0" rx="8" ry="8" style="stroke:#181818;stroke-width:0.5;"/><path d="M85.8896,1053.1719 L85.8896,1080.1719 M72.8896,1061.1719 L98.8896,1061.1719 M85.8896,1080.1719 L72.8896,1095.1719 M85.8896,1080.1719 L98.8896,1095.1719" fill="none" style="stroke:#181818;stroke-width:0.5;"/></g><g class="participant participant-head" data-participant="cvl"><rect fill="#E2E2F0" height="30.4883" rx="2.5" ry="2.5" style="stroke:#181818;stroke-width:0.5;" width="280.1504" x="523.2964" y="50"/><text fill="#000000" font-family="sans-serif" font-size="14" lengthAdjust="spacing" textLength="266.1504" x="530.2964" y="70.5352">ClasseCheContieneVisualizzazioneLibri</text></g><g class="participant participant-tail" data-participant="cvl"><rect fill="#E2E2F0" height="30.4883" rx="2.5" ry="2.5" style="stroke:#181818;stroke-width:0.5;" width="280.1504" x="523.2964" y="1020.1836"/><text fill="#000000" font-family="sans-serif" font-size="14" lengthAdjust="spacing" textLength="266.1504" x="530.2964" y="1040.7188">ClasseCheContieneVisualizzazioneLibri</text></g><g class="participant participant-head" data-participant="l"><rect fill="#E2E2F0" height="30.4883" rx="2.5" ry="2.5" style="stroke:#181818;stroke-width:0.5;" width="48.6514" x="963.1162" y="50"/><text fill="#000000" font-family="sans-serif" font-size="14" lengthAdjust="spacing" textLength="34.6514" x="970.1162" y="70.5352">Libro</text></g><g class="participant participant-tail" data-participant="l"><rect fill="#E2E2F0" height="30.4883" rx="2.5" ry="2.5" style="stroke:#181818;stroke-width:0.5;" width="48.6514" x="963.1162" y="1020.1836"/><text fill="#000000" font-family="sans-serif" font-size="14" lengthAdjust="spacing" textLength="34.6514" x="970.1162" y="1040.7188">Libro</text></g><g class="participant participant-head" data-participant="gl"><rect fill="#E2E2F0" height="30.4883" rx="2.5" ry="2.5" style="stroke:#181818;stroke-width:0.5;" width="96.5166" x="1062.4063" y="50"/><text fill="#000000" font-family="sans-serif" font-size="14" lengthAdjust="spacing" textLength="82.5166" x="1069.4063" y="70.5352">GestoreLibri</text></g><g class="participant participant-tail" data-participant="gl"><rect fill="#E2E2F0" height="30.4883" rx="2.5" ry="2.5" style="stroke:#181818;stroke-width:0.5;" width="96.5166" x="1062.4063" y="1020.1836"/><text fill="#000000" font-family="sans-serif" font-size="14" lengthAdjust="spacing" textLength="82.5166" x="1069.4063" y="1040.7188">GestoreLibri</text></g><g><title>ClasseCheContieneVisualizzazioneLibri</title><rect fill="#FFFFFF" height="34.3105" style="stroke:#181818;stroke-width:1;" width="10" x="658.3716" y="221.7305"/></g><g><title>ClasseCheContieneVisualizzazioneLibri</title><rect fill="#FFFFFF" height="135.2422" style="stroke:#181818;stroke-width:1;" width="10" x="658.3716" y="508.5254"/></g><g><title>ClasseCheContieneVisualizzazioneLibri</title><rect fill="#FFFFFF" height="71.6211" style="stroke:#181818;stroke-width:1;" width="10" x="658.3716" y="740.6992"/></g><g><title>Libro</title><rect fill="#FFFFFF" height="100.9316" style="stroke:#181818;stroke-width:1;" width="10" x="982.4419" y="542.8359"/></g><g><title>GestoreLibri</title><rect fill="#FFFFFF" height="71.6211" style="stroke:#181818;stroke-width:1;" width="10" x="1105.6646" y="740.6992"/></g><g><title>GestoreLibri</title><rect fill="#FFFFFF" height="71.6211" style="stroke:#181818;stroke-width:1;" width="10" x="1105.6646" y="931.5625"/></g><g class="message" data-participant-1="cvl" data-participant-2="cvl"><line style="stroke:#181818;stroke-width:1;" x1="663.3716" x2="705.3716" y1="112.7988" y2="112.7988"/><line style="stroke:#181818;stroke-width:1;" x1="705.3716" x2="705.3716" y1="112.7988" y2="125.7988"/><line style="stroke:#181818;stroke-width:1;" x1="664.3716" x2="705.3716" y1="125.7988" y2="125.7988"/><polygon fill="#181818" points="674.3716,121.7988,664.3716,125.7988,674.3716,129.7988,670.3716,125.7988" style="stroke:#181818;stroke-width:1;"/><text fill="#000000" font-family="sans-serif" font-size="13" lengthAdjust="spacing" textLength="76.978" x="670.3716" y="108.0566">inizialize(...)</text></g><g class="message" data-participant-1="a" data-participant-2="cvl"><polygon fill="#181818" points="651.3716,151.1094,661.3716,155.1094,651.3716,159.1094,655.3716,155.1094" style="stroke:#181818;stroke-width:1;"/><line style="stroke:#181818;stroke-width:1;" x1="85.8896" x2="657.3716" y1="155.1094" y2="155.1094"/><text fill="#000000" font-family="sans-serif" font-size="13" lengthAdjust="spacing" textLength="127.9878" x="92.8896" y="150.3672">Apre schermata libri</text></g><g class="message" data-participant-1="a" data-participant-2="cvl"><polygon fill="#181818" points="651.3716,180.4199,661.3716,184.4199,651.3716,188.4199,655.3716,184.4199" style="stroke:#181818;stroke-width:1;"/><line style="stroke:#181818;stroke-width:1;" x1="85.8896" x2="657.3716" y1="184.4199" y2="184.4199"/><text fill="#000000" font-family="sans-serif" font-size="13" lengthAdjust="spacing" textLength="177.4995" x="92.8896" y="179.6777">Clicca il pulsante "Aggiungi"</text></g><g class="message" data-participant-1="cvl" data-participant-2="cvl"><line style="stroke:#181818;stroke-width:1;" x1="663.3716" x2="710.3716" y1="208.7305" y2="208.7305"/><line style="stroke:#181818;stroke-width:1;" x1="710.3716" x2="710.3716" y1="208.7305" y2="221.7305"/><line style="stroke:#181818;stroke-width:1;" x1="669.3716" x2="710.3716" y1="221.7305" y2="221.7305"/><polygon fill="#181818" points="679.3716,217.7305,669.3716,221.7305,679.3716,225.7305,675.3716,221.7305" style="stroke:#181818;stroke-width:1;"/><text fill="#000000" font-family="sans-serif" font-size="13" lengthAdjust="spacing" textLength="208.4126" x="675.3716" y="203.9883">funzioneOnActionDelPulsante(...)</text></g><g class="message" data-participant-1="cvl" data-participant-2="a"><polygon fill="#181818" points="96.8896,252.041,86.8896,256.041,96.8896,260.041,92.8896,256.041" style="stroke:#181818;stroke-width:1;"/><line style="stroke:#181818;stroke-width:1;stroke-dasharray:2,2;" x1="90.8896" x2="662.3716" y1="256.041" y2="256.041"/><text fill="#000000" font-family="sans-serif" font-size="13" lengthAdjust="spacing" textLength="288.1201" x="102.8896" y="251.2988">Viene mostrata la schermata di aggiunta libro</text></g><path d="M10,271.041 L84.4468,271.041 L84.4468,278.3516 L74.4468,288.3516 L10,288.3516 L10,271.041" fill="#EEEEEE" style="stroke:#000000;stroke-width:1.5;"/><rect fill="none" height="441.3477" style="stroke:#000000;stroke-width:1.5;" width="1100.6646" x="10" y="271.041"/><text fill="#000000" font-family="sans-serif" font-size="13" font-weight="bold" lengthAdjust="spacing" textLength="29.4468" x="25" y="284.6094">loop</text><text fill="#000000" font-family="sans-serif" font-size="11" font-weight="bold" lengthAdjust="spacing" textLength="303.73" x="99.4468" y="283.6758">[Utente inserisce i campi del libro errati o incompleti]</text><g class="message" data-participant-1="a" data-participant-2="cvl"><polygon fill="#181818" points="651.3716,305.6621,661.3716,309.6621,651.3716,313.6621,655.3716,309.6621" style="stroke:#181818;stroke-width:1;"/><line style="stroke:#181818;stroke-width:1;" x1="85.8896" x2="657.3716" y1="309.6621" y2="309.6621"/><text fill="#000000" font-family="sans-serif" font-size="13" lengthAdjust="spacing" textLength="247.1016" x="92.8896" y="304.9199">Inserisce i campi del libro nel TextField</text></g><g class="message" data-participant-1="a" data-participant-2="cvl"><polygon fill="#181818" points="651.3716,334.9727,661.3716,338.9727,651.3716,342.9727,655.3716,338.9727" style="stroke:#181818;stroke-width:1;"/><line style="stroke:#181818;stroke-width:1;" x1="85.8896" x2="657.3716" y1="338.9727" y2="338.9727"/><text fill="#000000" font-family="sans-serif" font-size="13" lengthAdjust="spacing" textLength="184.3867" x="92.8896" y="334.2305">Preme il pulsante "Conferma"</text></g><path d="M20,353.9727 L87.1851,353.9727 L87.1851,361.2832 L77.1851,371.2832 L20,371.2832 L20,353.9727" fill="#EEEEEE" style="stroke:#000000;stroke-width:1.5;"/><rect fill="none" height="118.2422" style="stroke:#000000;stroke-width:1.5;" width="972.4419" x="20" y="353.9727"/><text fill="#000000" font-family="sans-serif" font-size="13" font-weight="bold" lengthAdjust="spacing" textLength="22.1851" x="35" y="367.541">opt</text><text fill="#000000" font-family="sans-serif" font-size="11" font-weight="bold" lengthAdjust="spacing" textLength="205.02" x="102.1851" y="366.6074">[Utente preme il pulsante "Annulla"]</text><g class="message" data-participant-1="a" data-participant-2="cvl"><polygon fill="#181818" points="651.3716,388.5938,661.3716,392.5938,651.3716,396.5938,655.3716,392.5938" style="stroke:#181818;stroke-width:1;"/><line style="stroke:#181818;stroke-width:1;" x1="85.8896" x2="657.3716" y1="392.5938" y2="392.5938"/><text fill="#000000" font-family="sans-serif" font-size="13" lengthAdjust="spacing" textLength="170.5488" x="92.8896" y="387.8516">Preme il pulsante "Annulla"</text></g><g class="message" data-participant-1="cvl" data-participant-2="cvl"><line style="stroke:#181818;stroke-width:1;" x1="663.3716" x2="705.3716" y1="421.9043" y2="421.9043"/><line style="stroke:#181818;stroke-width:1;" x1="705.3716" x2="705.3716" y1="421.9043" y2="434.9043"/><line style="stroke:#181818;stroke-width:1;" x1="664.3716" x2="705.3716" y1="434.9043" y2="434.9043"/><polygon fill="#181818" points="674.3716,430.9043,664.3716,434.9043,674.3716,438.9043,670.3716,434.9043" style="stroke:#181818;stroke-width:1;"/><text fill="#000000" font-family="sans-serif" font-size="13" lengthAdjust="spacing" textLength="310.0703" x="670.3716" y="417.1621">funzioneOnActionDelPulsanteDiAnnullamento(...)</text></g><g class="message" data-participant-1="cvl" data-participant-2="a"><polygon fill="#181818" points="96.8896,460.2148,86.8896,464.2148,96.8896,468.2148,92.8896,464.2148" style="stroke:#181818;stroke-width:1;"/><line style="stroke:#181818;stroke-width:1;stroke-dasharray:2,2;" x1="90.8896" x2="662.3716" y1="464.2148" y2="464.2148"/><text fill="#000000" font-family="sans-serif" font-size="13" lengthAdjust="spacing" textLength="272.3271" x="102.8896" y="459.4727">Viene chiusa la schermata di aggiunta libro</text></g><g class="message" data-participant-1="cvl" data-participant-2="cvl"><line style="stroke:#181818;stroke-width:1;" x1="663.3716" x2="710.3716" y1="495.5254" y2="495.5254"/><line style="stroke:#181818;stroke-width:1;" x1="710.3716" x2="710.3716" y1="495.5254" y2="508.5254"/><line style="stroke:#181818;stroke-width:1;" x1="669.3716" x2="710.3716" y1="508.5254" y2="508.5254"/><polygon fill="#181818" points="679.3716,504.5254,669.3716,508.5254,679.3716,512.5254,675.3716,508.5254" style="stroke:#181818;stroke-width:1;"/><text fill="#000000" font-family="sans-serif" font-size="13" lengthAdjust="spacing" textLength="283.6133" x="675.3716" y="490.7832">funzioneOnActionDelPulsanteDiConferma(...)</text></g><g class="message" data-participant-1="cvl" data-participant-2="l"><polygon fill="#181818" points="970.4419,538.8359,980.4419,542.8359,970.4419,546.8359,974.4419,542.8359" style="stroke:#181818;stroke-width:1;"/><line style="stroke:#181818;stroke-width:1;" x1="668.3716" x2="976.4419" y1="542.8359" y2="542.8359"/><text fill="#000000" font-family="sans-serif" font-size="13" lengthAdjust="spacing" textLength="66.2188" x="675.3716" y="538.0938">verifica(...)</text></g><g class="message" data-participant-1="l" data-participant-2="l"><line style="stroke:#181818;stroke-width:1;" x1="992.4419" x2="1034.4419" y1="572.1465" y2="572.1465"/><line style="stroke:#181818;stroke-width:1;" x1="1034.4419" x2="1034.4419" y1="572.1465" y2="585.1465"/><line style="stroke:#181818;stroke-width:1;" x1="993.4419" x2="1034.4419" y1="585.1465" y2="585.1465"/><polygon fill="#181818" points="1003.4419,581.1465,993.4419,585.1465,1003.4419,589.1465,999.4419,585.1465" style="stroke:#181818;stroke-width:1;"/><text fill="#000000" font-family="sans-serif" font-size="13" lengthAdjust="spacing" textLength="89.2227" x="999.4419" y="567.4043">Verifica campi</text></g><g class="message" data-participant-1="l" data-participant-2="cvl"><polygon fill="#181818" points="679.3716,610.457,669.3716,614.457,679.3716,618.457,675.3716,614.457" style="stroke:#181818;stroke-width:1;"/><line style="stroke:#181818;stroke-width:1;stroke-dasharray:2,2;" x1="673.3716" x2="981.4419" y1="614.457" y2="614.457"/><text fill="#000000" font-family="sans-serif" font-size="13" lengthAdjust="spacing" textLength="197.8628" x="685.3716" y="609.7148">Verifica non andata a buon fine</text></g><g class="message" data-participant-1="cvl" data-participant-2="a"><polygon fill="#181818" points="96.8896,639.7676,86.8896,643.7676,96.8896,647.7676,92.8896,643.7676" style="stroke:#181818;stroke-width:1;"/><line style="stroke:#181818;stroke-width:1;stroke-dasharray:2,2;" x1="90.8896" x2="662.3716" y1="643.7676" y2="643.7676"/><text fill="#000000" font-family="sans-serif" font-size="13" lengthAdjust="spacing" textLength="548.4819" x="102.8896" y="639.0254">Viene visualizzato un messaggio di errore e vengono evidenziati i campi da correggere</text></g><path d="M513.2964,658.7676 L596.3062,658.7676 L596.3062,666.0781 L586.3062,676.0781 L513.2964,676.0781 L513.2964,658.7676" fill="#EEEEEE" style="stroke:#000000;stroke-width:1.5;"/><rect fill="none" height="46.6211" style="stroke:#000000;stroke-width:1.5;" width="508.4712" x="513.2964" y="658.7676"/><text fill="#000000" font-family="sans-serif" font-size="13" font-weight="bold" lengthAdjust="spacing" textLength="38.0098" x="528.2964" y="672.3359">break</text><text fill="#000000" font-family="sans-serif" font-size="11" font-weight="bold" lengthAdjust="spacing" textLength="161.2295" x="611.3062" y="671.4023">[Verifica andata a buon fine]</text><g class="message" data-participant-1="l" data-participant-2="cvl"><polygon fill="#181818" points="674.3716,693.3887,664.3716,697.3887,674.3716,701.3887,670.3716,697.3887" style="stroke:#181818;stroke-width:1;"/><line style="stroke:#181818;stroke-width:1;stroke-dasharray:2,2;" x1="668.3716" x2="986.4419" y1="697.3887" y2="697.3887"/><text fill="#000000" font-family="sans-serif" font-size="13" lengthAdjust="spacing" textLength="169.6284" x="680.3716" y="692.6465">Verifica andata a buon fine</text></g><g class="message" data-participant-1="cvl" data-participant-2="gl"><polygon fill="#181818" points="1093.6646,736.6992,1103.6646,740.6992,1093.6646,744.6992,1097.6646,740.6992" style="stroke:#181818;stroke-width:1;"/><line style="stroke:#181818;stroke-width:1;" x1="668.3716" x2="1099.6646" y1="740.6992" y2="740.6992"/><text fill="#000000" font-family="sans-serif" font-size="13" lengthAdjust="spacing" textLength="57.1543" x="675.3716" y="735.957">esiste(...)</text></g><g class="message" data-participant-1="gl" data-participant-2="gl"><line style="stroke:#181818;stroke-width:1;" x1="1115.6646" x2="1157.6646" y1="770.0098" y2="770.0098"/><line style="stroke:#181818;stroke-width:1;" x1="1157.6646" x2="1157.6646" y1="770.0098" y2="783.0098"/><line style="stroke:#181818;stroke-width:1;" x1="1116.6646" x2="1157.6646" y1="783.0098" y2="783.0098"/><polygon fill="#181818" points="1126.6646,779.0098,1116.6646,783.0098,1126.6646,787.0098,1122.6646,783.0098" style="stroke:#181818;stroke-width:1;"/><text fill="#000000" font-family="sans-serif" font-size="13" lengthAdjust="spacing" textLength="117.1016" x="1122.6646" y="765.2676">Verifica l'esistenza</text></g><g class="message" data-participant-1="gl" data-participant-2="cvl"><polygon fill="#181818" points="674.3716,808.3203,664.3716,812.3203,674.3716,816.3203,670.3716,812.3203" style="stroke:#181818;stroke-width:1;"/><line style="stroke:#181818;stroke-width:1;stroke-dasharray:2,2;" x1="668.3716" x2="1109.6646" y1="812.3203" y2="812.3203"/><text fill="#000000" font-family="sans-serif" font-size="13" lengthAdjust="spacing" textLength="188.6968" x="680.3716" y="807.5781">Il libro non esiste nell'archivio</text></g><path d="M20,827.3203 L87.1851,827.3203 L87.1851,834.6309 L77.1851,844.6309 L20,844.6309 L20,827.3203" fill="#EEEEEE" style="stroke:#000000;stroke-width:1.5;"/><rect fill="none" height="75.9316" style="stroke:#000000;stroke-width:1.5;" width="1148.9229" x="20" y="827.3203"/><text fill="#000000" font-family="sans-serif" font-size="13" font-weight="bold" lengthAdjust="spacing" textLength="22.1851" x="35" y="840.8887">opt</text><text fill="#000000" font-family="sans-serif" font-size="11" font-weight="bold" lengthAdjust="spacing" textLength="154.8809" x="102.1851" y="839.9551">[Il libro esiste nell'archivio]</text><g class="message" data-participant-1="gl" data-participant-2="cvl"><polygon fill="#181818" points="674.3716,861.9414,664.3716,865.9414,674.3716,869.9414,670.3716,865.9414" style="stroke:#181818;stroke-width:1;"/><line style="stroke:#181818;stroke-width:1;stroke-dasharray:2,2;" x1="668.3716" x2="1109.6646" y1="865.9414" y2="865.9414"/><text fill="#000000" font-family="sans-serif" font-size="13" lengthAdjust="spacing" textLength="160.4624" x="680.3716" y="861.1992">Il libro esiste nell'archivio</text></g><g class="message" data-participant-1="cvl" data-participant-2="a"><polygon fill="#181818" points="96.8896,891.252,86.8896,895.252,96.8896,899.252,92.8896,895.252" style="stroke:#181818;stroke-width:1;"/><line style="stroke:#181818;stroke-width:1;stroke-dasharray:2,2;" x1="90.8896" x2="662.3716" y1="895.252" y2="895.252"/><text fill="#000000" font-family="sans-serif" font-size="13" lengthAdjust="spacing" textLength="246.6064" x="102.8896" y="890.5098">Viene mostrato un messaggio di errore</text></g><g class="message" data-participant-1="cvl" data-participant-2="gl"><polygon fill="#181818" points="1093.6646,927.5625,1103.6646,931.5625,1093.6646,935.5625,1097.6646,931.5625" style="stroke:#181818;stroke-width:1;"/><line style="stroke:#181818;stroke-width:1;" x1="663.3716" x2="1099.6646" y1="931.5625" y2="931.5625"/><text fill="#000000" font-family="sans-serif" font-size="13" lengthAdjust="spacing" textLength="108.1196" x="670.3716" y="926.8203">aggiungiLibro(...)</text></g><g class="message" data-participant-1="gl" data-participant-2="gl"><line style="stroke:#181818;stroke-width:1;" x1="1115.6646" x2="1157.6646" y1="960.873" y2="960.873"/><line style="stroke:#181818;stroke-width:1;" x1="1157.6646" x2="1157.6646" y1="960.873" y2="973.873"/><line style="stroke:#181818;stroke-width:1;" x1="1116.6646" x2="1157.6646" y1="973.873" y2="973.873"/><polygon fill="#181818" points="1126.6646,969.873,1116.6646,973.873,1126.6646,977.873,1122.6646,973.873" style="stroke:#181818;stroke-width:1;"/><text fill="#000000" font-family="sans-serif" font-size="13" lengthAdjust="spacing" textLength="139.8008" x="1122.6646" y="956.1309">Viene aggiunto il libro</text></g><g class="message" data-participant-1="gl" data-participant-2="a"><polygon fill="#181818" points="96.8896,999.1836,86.8896,1003.1836,96.8896,1007.1836,92.8896,1003.1836" style="stroke:#181818;stroke-width:1;"/><line style="stroke:#181818;stroke-width:1;stroke-dasharray:2,2;" x1="90.8896" x2="1109.6646" y1="1003.1836" y2="1003.1836"/><text fill="#000000" font-family="sans-serif" font-size="13" lengthAdjust="spacing" textLength="272.3271" x="102.8896" y="998.4414">Viene chiusa la schermata di aggiunta libro</text></g><!--SRC=[bLJBZjim33pNNq7aikqX-O0S0WHPj5YWGFVGvix8Z4DKbWn9DWf_VKdRqSQfcsu3ED1ZI0w7fD0a7s1Vr-mufe2o8y08M3GO4Xjkq2KuM8oH3XSwU9UO71qvjcYvxx5dx-WhdmAhcUdip50ll5xCZxzGr43PhB958QRhdVnjGQZqhDxfusQp-LJWTBvlX5iq5mer9WIhrldoODaO1BRGj3PA48BLlgguTHMlRhsVMpTm_kRs9idYcUphP365a-CEnLwJaG_MwnsiSBM5ewOEjH-44W9umwQKH8Pm4pDVb3JpL5Zl6_YHIAcnYnGu6bc1mRfXACcETa11l3Du0HbVDvRIMvOl3-oShBxJh_IPoPRPuZLGJNDPf8XdPIso-2PTAJL_0lVEjTOAxe6pZ7cNmiyyuMk9wKUzrN2zmwkyvi9j_AUuvChYlI6l-IwNLueh3ZgHzSpc7cCBAVy0E4w0KVPYx8eXThvntW6wKWaZd5hPdTdHVNvT7ftaeNLGKuoQdDSifVOwW88YLtadpT1nIPARTaGkkP3m8L1LKQ3xDhlPsk8K27- -4LmWzs4faGMSwWsZwleRnc8dSxi5Yl9mB8rEtiXqLncUWzYdqTBrE5nVMRpaVfRO8qHRspvXaDRes3_8MDyHRUdiOz6-qdhCOotYxWetpVtVYdRJafedJc_Fy0BUgJC8Ci96rrDpUnsjiRydHVvpAkPI_0O0]--></g></svg>