<svg xmlns="http://www.w3.org/2000/svg" xmlns:xlink="http://www.w3.org/1999/xlink" contentStyleType="text/css" data-diagram-type="SEQUENCE" height="534px" preserveAspectRatio="none" style="width:854px;height:534px;background:#FFFFFF;" version="1.1" viewBox="0 0 854 534" width="854px" zoomAndPan="magnify"><defs/><g><g><title>LibriController</title><rect fill="#FFFFFF" height="100.9316" style="stroke:#181818;stroke-width:1;" width="10" x="399.0635" y="267.3516"/></g><g><title>Libri</title><rect fill="#FFFFFF" height="71.6211" style="stroke:#181818;stroke-width:1;" width="10" x="735.3643" y="267.3516"/></g><rect fill="none" height="237.4844" style="stroke:#000000;stroke-width:1.5;" width="838.2891" x="10" y="199.4199"/><rect fill="none" height="46.6211" style="stroke:#000000;stroke-width:1.5;" width="450.1934" x="20" y="383.2832"/><g><title>Amministratore</title><rect fill="#000000" fill-opacity="0.00000" height="372.416" width="8" x="81.8896" y="81.4883"/><line style="stroke:#181818;stroke-width:0.5;stroke-dasharray:5,5;" x1="85" x2="85" y1="81.4883" y2="453.9043"/></g><g><title>LibriController</title><rect fill="#000000" fill-opacity="0.00000" height="372.416" width="8" x="400.0635" y="81.4883"/><line style="stroke:#181818;stroke-width:0.5;stroke-dasharray:5,5;" x1="403.9336" x2="403.9336" y1="81.4883" y2="453.9043"/></g><g><title>Libri</title><rect fill="#000000" fill-opacity="0.00000" height="372.416" width="8" x="736.3643" y="81.4883"/><line style="stroke:#181818;stroke-width:0.5;stroke-dasharray:5,5;" x1="740.3149" x2="740.3149" y1="81.4883" y2="453.9043"/></g><g class="participant participant-head" data-participant="a"><text fill="#000000" font-family="sans-serif" font-size="14" lengthAdjust="spacing" textLength="105.7793" x="30" y="78.5352">Amministratore</text><ellipse cx="85.8896" cy="13.5" fill="#E2E2F0" rx="8" ry="8" style="stroke:#181818;stroke-width:0.5;"/><path d="M85.8896,21.5 L85.8896,48.5 M72.8896,29.5 L98.8896,29.5 M85.8896,48.5 L72.8896,63.5 M85.8896,48.5 L98.8896,63.5" fill="none" style="stroke:#181818;stroke-width:0.5;"/></g><g class="participant participant-tail" data-participant="a"><text fill="#000000" font-family="sans-serif" font-size="14" lengthAdjust="spacing" textLength="105.7793" x="30" y="466.4395">Amministratore</text><ellipse cx="85.8896" cy="477.8926" fill="#E2E2F0" rx="8" ry="8" style="stroke:#181818;stroke-width:0.5;"/><path d="M85.8896,485.8926 L85.8896,512.8926 M72.8896,493.8926 L98.8896,493.8926 M85.8896,512.8926 L72.8896,527.8926 M85.8896,512.8926 L98.8896,527.8926" fill="none" style="stroke:#181818;stroke-width:0.5;"/></g><g class="participant participant-head" data-participant="cvl"><rect fill="#E2E2F0" height="30.4883" rx="2.5" ry="2.5" style="stroke:#181818;stroke-width:0.5;" width="112.2598" x="347.9336" y="50"/><text fill="#000000" font-family="sans-serif" font-size="14" lengthAdjust="spacing" textLength="98.2598" x="354.9336" y="70.5352">LibriController</text></g><g class="participant participant-tail" data-participant="cvl"><rect fill="#E2E2F0" height="30.4883" rx="2.5" ry="2.5" style="stroke:#181818;stroke-width:0.5;" width="112.2598" x="347.9336" y="452.9043"/><text fill="#000000" font-family="sans-serif" font-size="14" lengthAdjust="spacing" textLength="98.2598" x="354.9336" y="473.4395">LibriController</text></g><g class="participant participant-head" data-participant="gl"><rect fill="#E2E2F0" height="30.4883" rx="2.5" ry="2.5" style="stroke:#181818;stroke-width:0.5;" width="44.0986" x="718.3149" y="50"/><text fill="#000000" font-family="sans-serif" font-size="14" lengthAdjust="spacing" textLength="30.0986" x="725.3149" y="70.5352">Libri</text></g><g class="participant participant-tail" data-participant="gl"><rect fill="#E2E2F0" height="30.4883" rx="2.5" ry="2.5" style="stroke:#181818;stroke-width:0.5;" width="44.0986" x="718.3149" y="452.9043"/><text fill="#000000" font-family="sans-serif" font-size="14" lengthAdjust="spacing" textLength="30.0986" x="725.3149" y="473.4395">Libri</text></g><g><title>LibriController</title><rect fill="#FFFFFF" height="100.9316" style="stroke:#181818;stroke-width:1;" width="10" x="399.0635" y="267.3516"/></g><g><title>Libri</title><rect fill="#FFFFFF" height="71.6211" style="stroke:#181818;stroke-width:1;" width="10" x="735.3643" y="267.3516"/></g><g class="message" data-participant-1="cvl" data-participant-2="cvl"><line style="stroke:#181818;stroke-width:1;" x1="404.0635" x2="446.0635" y1="112.7988" y2="112.7988"/><line style="stroke:#181818;stroke-width:1;" x1="446.0635" x2="446.0635" y1="112.7988" y2="125.7988"/><line style="stroke:#181818;stroke-width:1;" x1="405.0635" x2="446.0635" y1="125.7988" y2="125.7988"/><polygon fill="#181818" points="415.0635,121.7988,405.0635,125.7988,415.0635,129.7988,411.0635,125.7988" style="stroke:#181818;stroke-width:1;"/><text fill="#000000" font-family="sans-serif" font-size="13" lengthAdjust="spacing" textLength="74.3882" x="411.0635" y="108.0566">initialize(...)</text></g><g class="message" data-participant-1="a" data-participant-2="cvl"><polygon fill="#181818" points="392.0635,151.1094,402.0635,155.1094,392.0635,159.1094,396.0635,155.1094" style="stroke:#181818;stroke-width:1;"/><line style="stroke:#181818;stroke-width:1;" x1="85.8896" x2="398.0635" y1="155.1094" y2="155.1094"/><text fill="#000000" font-family="sans-serif" font-size="13" lengthAdjust="spacing" textLength="127.9878" x="92.8896" y="150.3672">Apre schermata libri</text></g><g class="message" data-participant-1="a" data-participant-2="cvl"><polygon fill="#181818" points="392.0635,180.4199,402.0635,184.4199,392.0635,188.4199,396.0635,184.4199" style="stroke:#181818;stroke-width:1;"/><line style="stroke:#181818;stroke-width:1;" x1="85.8896" x2="398.0635" y1="184.4199" y2="184.4199"/><text fill="#000000" font-family="sans-serif" font-size="13" lengthAdjust="spacing" textLength="174.332" x="92.8896" y="179.6777">Seleziona la barra di ricerca</text></g><path d="M10,199.4199 L84.4468,199.4199 L84.4468,206.7305 L74.4468,216.7305 L10,216.7305 L10,199.4199" fill="#EEEEEE" style="stroke:#000000;stroke-width:1.5;"/><rect fill="none" height="237.4844" style="stroke:#000000;stroke-width:1.5;" width="838.2891" x="10" y="199.4199"/><text fill="#000000" font-family="sans-serif" font-size="13" font-weight="bold" lengthAdjust="spacing" textLength="29.4468" x="25" y="212.9883">loop</text><text fill="#000000" font-family="sans-serif" font-size="11" font-weight="bold" lengthAdjust="spacing" textLength="149.1016" x="99.4468" y="212.0547">[Inserimento sottostringa]</text><g class="message" data-participant-1="a" data-participant-2="cvl"><polygon fill="#181818" points="392.0635,234.041,402.0635,238.041,392.0635,242.041,396.0635,238.041" style="stroke:#181818;stroke-width:1;"/><line style="stroke:#181818;stroke-width:1;" x1="85.8896" x2="398.0635" y1="238.041" y2="238.041"/><text fill="#000000" font-family="sans-serif" font-size="13" lengthAdjust="spacing" textLength="278.897" x="92.8896" y="233.2988">Digita una sottostringa nella barra di ricerca</text></g><g class="message" data-participant-1="cvl" data-participant-2="gl"><polygon fill="#181818" points="723.3643,263.3516,733.3643,267.3516,723.3643,271.3516,727.3643,267.3516" style="stroke:#181818;stroke-width:1;"/><line style="stroke:#181818;stroke-width:1;" x1="409.0635" x2="729.3643" y1="267.3516" y2="267.3516"/><text fill="#000000" font-family="sans-serif" font-size="13" lengthAdjust="spacing" textLength="90.8794" x="416.0635" y="262.6094">ricercaLibri(...)</text></g><g class="message" data-participant-1="gl" data-participant-2="gl"><line style="stroke:#181818;stroke-width:1;" x1="745.3643" x2="787.3643" y1="296.6621" y2="296.6621"/><line style="stroke:#181818;stroke-width:1;" x1="787.3643" x2="787.3643" y1="296.6621" y2="309.6621"/><line style="stroke:#181818;stroke-width:1;" x1="746.3643" x2="787.3643" y1="309.6621" y2="309.6621"/><polygon fill="#181818" points="756.3643,305.6621,746.3643,309.6621,756.3643,313.6621,752.3643,309.6621" style="stroke:#181818;stroke-width:1;"/><text fill="#000000" font-family="sans-serif" font-size="13" lengthAdjust="spacing" textLength="73.9248" x="752.3643" y="291.9199">Ricerca libri</text></g><g class="message" data-participant-1="gl" data-participant-2="cvl"><polygon fill="#181818" points="420.0635,334.9727,410.0635,338.9727,420.0635,342.9727,416.0635,338.9727" style="stroke:#181818;stroke-width:1;"/><line style="stroke:#181818;stroke-width:1;stroke-dasharray:2,2;" x1="414.0635" x2="739.3643" y1="338.9727" y2="338.9727"/><text fill="#000000" font-family="sans-serif" font-size="13" lengthAdjust="spacing" textLength="302.3008" x="426.0635" y="334.2305">Restituisce libri che rispettano i criteri di ricerca</text></g><g class="message" data-participant-1="cvl" data-participant-2="a"><polygon fill="#181818" points="96.8896,364.2832,86.8896,368.2832,96.8896,372.2832,92.8896,368.2832" style="stroke:#181818;stroke-width:1;"/><line style="stroke:#181818;stroke-width:1;stroke-dasharray:2,2;" x1="90.8896" x2="403.0635" y1="368.2832" y2="368.2832"/><text fill="#000000" font-family="sans-serif" font-size="13" lengthAdjust="spacing" textLength="289.1738" x="102.8896" y="363.541">Mostra i libri che rispettano i criterii di ricerca</text></g><path d="M20,383.2832 L103.0098,383.2832 L103.0098,390.5938 L93.0098,400.5938 L20,400.5938 L20,383.2832" fill="#EEEEEE" style="stroke:#000000;stroke-width:1.5;"/><rect fill="none" height="46.6211" style="stroke:#000000;stroke-width:1.5;" width="450.1934" x="20" y="383.2832"/><text fill="#000000" font-family="sans-serif" font-size="13" font-weight="bold" lengthAdjust="spacing" textLength="38.0098" x="35" y="396.8516">break</text><text fill="#000000" font-family="sans-serif" font-size="11" font-weight="bold" lengthAdjust="spacing" textLength="109.8657" x="118.0098" y="395.918">[Seleziona un libro]</text><g class="message" data-participant-1="a" data-participant-2="cvl"><polygon fill="#181818" points="392.0635,417.9043,402.0635,421.9043,392.0635,425.9043,396.0635,421.9043" style="stroke:#181818;stroke-width:1;"/><line style="stroke:#181818;stroke-width:1;" x1="85.8896" x2="398.0635" y1="421.9043" y2="421.9043"/><text fill="#000000" font-family="sans-serif" font-size="13" lengthAdjust="spacing" textLength="106.8438" x="92.8896" y="417.1621">clicca su un libro</text></g><!--SRC=[VLBBQiGm33mxNw7RjeVk1-nXOMalXPR2zWkqZd157Jl8IWxxzPMJx9Eb40psQ6QaKHnwpGAxhkF4HGNjHe05i74zYhBd7fF21n-4NtDIoJ6Ir0e_nWSr5Ga6DCxmbwqT6p1fPOnyfAVrUltSE5o0NMzcnV-GTAW8iGfSq6-ATEIS340ue0X2oo3iIJnMXzLNI0nZZiOr4HYP4fbR8M7DC2JmQ1CfoGd343XBcipm8XLpxk5zudMKZ5goQhOuE0M4nfrRUkF0nXsifvkIHF5XZtC8mPZBqvJHaeApx7b4fJdAgtkOhYuitFtCFUKp8tD7UohAEd3nDCDJ4CAb9rLC6Up1mh31RljoBTsvrKvVjhY1ppeL6l5_lJl1Axrv6ljMziEqN5T8jNWeleRNOeGQk1KSXF3tQi-siMgQOKfZoTn7zZPy6SwmePJQffdEFm00]--></g></svg>