<svg xmlns="http://www.w3.org/2000/svg" xmlns:xlink="http://www.w3.org/1999/xlink" contentStyleType="text/css" data-diagram-type="SEQUENCE" height="733px" preserveAspectRatio="none" style="width:1067px;height:733px;background:#FFFFFF;" version="1.1" viewBox="0 0 1067 733" width="1067px" zoomAndPan="magnify"><defs/><g><g><title>PrestitiController</title><rect fill="#FFFFFF" height="34.3105" style="stroke:#181818;stroke-width:1;" width="10" x="494.6123" y="251.041"/></g><g><title>RestituzionePrestitoController</title><rect fill="#FFFFFF" height="34.3105" style="stroke:#181818;stroke-width:1;" width="10" x="678.0981" y="376.2832"/></g><g><title>RestituzionePrestitoController</title><rect fill="#FFFFFF" height="135.2422" style="stroke:#181818;stroke-width:1;" width="10" x="678.0981" y="492.1699"/></g><g><title>Prestiti</title><rect fill="#FFFFFF" height="71.6211" style="stroke:#181818;stroke-width:1;" width="10" x="827.5034" y="526.4805"/></g><rect fill="none" height="335.0605" style="stroke:#000000;stroke-width:1.5;" width="1050.291" x="10" y="300.3516"/><g><title>Amministratore</title><rect fill="#000000" fill-opacity="0.00000" height="570.9238" width="8" x="71.8896" y="81.4883"/><line style="stroke:#181818;stroke-width:0.5;stroke-dasharray:5,5;" x1="75" x2="75" y1="81.4883" y2="652.4121"/></g><g><title>PrestitiController</title><rect fill="#000000" fill-opacity="0.00000" height="570.9238" width="8" x="495.6123" y="81.4883"/><line style="stroke:#181818;stroke-width:0.5;stroke-dasharray:5,5;" x1="499.0469" x2="499.0469" y1="81.4883" y2="652.4121"/></g><g><title>RestituzionePrestitoController</title><rect fill="#000000" fill-opacity="0.00000" height="570.9238" width="8" x="679.0981" y="81.4883"/><line style="stroke:#181818;stroke-width:0.5;stroke-dasharray:5,5;" x1="682.1777" x2="682.1777" y1="81.4883" y2="652.4121"/></g><g><title>Prestiti</title><rect fill="#000000" fill-opacity="0.00000" height="570.9238" width="8" x="828.5034" y="81.4883"/><line style="stroke:#181818;stroke-width:0.5;stroke-dasharray:5,5;" x1="832.0186" x2="832.0186" y1="81.4883" y2="652.4121"/></g><g class="participant participant-head" data-participant="a"><text fill="#000000" font-family="sans-serif" font-size="14" lengthAdjust="spacing" textLength="105.7793" x="20" y="78.5352">Amministratore</text><ellipse cx="75.8896" cy="13.5" fill="#E2E2F0" rx="8" ry="8" style="stroke:#181818;stroke-width:0.5;"/><path d="M75.8896,21.5 L75.8896,48.5 M62.8896,29.5 L88.8896,29.5 M75.8896,48.5 L62.8896,63.5 M75.8896,48.5 L88.8896,63.5" fill="none" style="stroke:#181818;stroke-width:0.5;"/></g><g class="participant participant-tail" data-participant="a"><text fill="#000000" font-family="sans-serif" font-size="14" lengthAdjust="spacing" textLength="105.7793" x="20" y="664.9473">Amministratore</text><ellipse cx="75.8896" cy="676.4004" fill="#E2E2F0" rx="8" ry="8" style="stroke:#181818;stroke-width:0.5;"/><path d="M75.8896,684.4004 L75.8896,711.4004 M62.8896,692.4004 L88.8896,692.4004 M75.8896,711.4004 L62.8896,726.4004 M75.8896,711.4004 L88.8896,726.4004" fill="none" style="stroke:#181818;stroke-width:0.5;"/></g><g class="participant participant-head" data-participant="cvp"><rect fill="#E2E2F0" height="30.4883" rx="2.5" ry="2.5" style="stroke:#181818;stroke-width:0.5;" width="129.1309" x="435.0469" y="50"/><text fill="#000000" font-family="sans-serif" font-size="14" lengthAdjust="spacing" textLength="115.1309" x="442.0469" y="70.5352">PrestitiController</text></g><g class="participant participant-tail" data-participant="cvp"><rect fill="#E2E2F0" height="30.4883" rx="2.5" ry="2.5" style="stroke:#181818;stroke-width:0.5;" width="129.1309" x="435.0469" y="651.4121"/><text fill="#000000" font-family="sans-serif" font-size="14" lengthAdjust="spacing" textLength="115.1309" x="442.0469" y="671.9473">PrestitiController</text></g><g class="participant participant-head" data-participant="rrc"><rect fill="#E2E2F0" height="30.4883" rx="2.5" ry="2.5" style="stroke:#181818;stroke-width:0.5;" width="217.8408" x="574.1777" y="50"/><text fill="#000000" font-family="sans-serif" font-size="14" lengthAdjust="spacing" textLength="203.8408" x="581.1777" y="70.5352">RestituzionePrestitoController</text></g><g class="participant participant-tail" data-participant="rrc"><rect fill="#E2E2F0" height="30.4883" rx="2.5" ry="2.5" style="stroke:#181818;stroke-width:0.5;" width="217.8408" x="574.1777" y="651.4121"/><text fill="#000000" font-family="sans-serif" font-size="14" lengthAdjust="spacing" textLength="203.8408" x="581.1777" y="671.9473">RestituzionePrestitoController</text></g><g class="participant participant-head" data-participant="gp"><rect fill="#E2E2F0" height="30.4883" rx="2.5" ry="2.5" style="stroke:#181818;stroke-width:0.5;" width="60.9697" x="802.0186" y="50"/><text fill="#000000" font-family="sans-serif" font-size="14" lengthAdjust="spacing" textLength="46.9697" x="809.0186" y="70.5352">Prestiti</text></g><g class="participant participant-tail" data-participant="gp"><rect fill="#E2E2F0" height="30.4883" rx="2.5" ry="2.5" style="stroke:#181818;stroke-width:0.5;" width="60.9697" x="802.0186" y="651.4121"/><text fill="#000000" font-family="sans-serif" font-size="14" lengthAdjust="spacing" textLength="46.9697" x="809.0186" y="671.9473">Prestiti</text></g><g><title>PrestitiController</title><rect fill="#FFFFFF" height="34.3105" style="stroke:#181818;stroke-width:1;" width="10" x="494.6123" y="251.041"/></g><g><title>RestituzionePrestitoController</title><rect fill="#FFFFFF" height="34.3105" style="stroke:#181818;stroke-width:1;" width="10" x="678.0981" y="376.2832"/></g><g><title>RestituzionePrestitoController</title><rect fill="#FFFFFF" height="135.2422" style="stroke:#181818;stroke-width:1;" width="10" x="678.0981" y="492.1699"/></g><g><title>Prestiti</title><rect fill="#FFFFFF" height="71.6211" style="stroke:#181818;stroke-width:1;" width="10" x="827.5034" y="526.4805"/></g><g class="message" data-participant-1="cvp" data-participant-2="cvp"><line style="stroke:#181818;stroke-width:1;" x1="499.6123" x2="541.6123" y1="112.7988" y2="112.7988"/><line style="stroke:#181818;stroke-width:1;" x1="541.6123" x2="541.6123" y1="112.7988" y2="125.7988"/><line style="stroke:#181818;stroke-width:1;" x1="500.6123" x2="541.6123" y1="125.7988" y2="125.7988"/><polygon fill="#181818" points="510.6123,121.7988,500.6123,125.7988,510.6123,129.7988,506.6123,125.7988" style="stroke:#181818;stroke-width:1;"/><text fill="#000000" font-family="sans-serif" font-size="13" lengthAdjust="spacing" textLength="74.3882" x="506.6123" y="108.0566">initialize(...)</text></g><g class="message" data-participant-1="a" data-participant-2="cvp"><polygon fill="#181818" points="487.6123,151.1094,497.6123,155.1094,487.6123,159.1094,491.6123,155.1094" style="stroke:#181818;stroke-width:1;"/><line style="stroke:#181818;stroke-width:1;" x1="75.8896" x2="493.6123" y1="155.1094" y2="155.1094"/><text fill="#000000" font-family="sans-serif" font-size="13" lengthAdjust="spacing" textLength="147.8242" x="82.8896" y="150.3672">Apre schermata prestiti</text></g><g class="message" data-participant-1="a" data-participant-2="cvp"><polygon fill="#181818" points="487.6123,180.4199,497.6123,184.4199,487.6123,188.4199,491.6123,184.4199" style="stroke:#181818;stroke-width:1;"/><line style="stroke:#181818;stroke-width:1;" x1="75.8896" x2="493.6123" y1="184.4199" y2="184.4199"/><text fill="#000000" font-family="sans-serif" font-size="13" lengthAdjust="spacing" textLength="132.8882" x="82.8896" y="179.6777">Seleziona un prestito</text></g><g class="message" data-participant-1="a" data-participant-2="cvp"><polygon fill="#181818" points="487.6123,209.7305,497.6123,213.7305,487.6123,217.7305,491.6123,213.7305" style="stroke:#181818;stroke-width:1;"/><line style="stroke:#181818;stroke-width:1;" x1="75.8896" x2="493.6123" y1="213.7305" y2="213.7305"/><text fill="#000000" font-family="sans-serif" font-size="13" lengthAdjust="spacing" textLength="198.707" x="82.8896" y="208.9883">Clicca il pulsante "Restituzione"</text></g><g class="message" data-participant-1="cvp" data-participant-2="cvp"><line style="stroke:#181818;stroke-width:1;" x1="499.6123" x2="546.6123" y1="238.041" y2="238.041"/><line style="stroke:#181818;stroke-width:1;" x1="546.6123" x2="546.6123" y1="238.041" y2="251.041"/><line style="stroke:#181818;stroke-width:1;" x1="505.6123" x2="546.6123" y1="251.041" y2="251.041"/><polygon fill="#181818" points="515.6123,247.041,505.6123,251.041,515.6123,255.041,511.6123,251.041" style="stroke:#181818;stroke-width:1;"/><text fill="#000000" font-family="sans-serif" font-size="13" lengthAdjust="spacing" textLength="108.7925" x="511.6123" y="233.2988">onReturnLoan(...)</text></g><g class="message" data-participant-1="cvp" data-participant-2="a"><polygon fill="#181818" points="86.8896,281.3516,76.8896,285.3516,86.8896,289.3516,82.8896,285.3516" style="stroke:#181818;stroke-width:1;"/><line style="stroke:#181818;stroke-width:1;stroke-dasharray:2,2;" x1="80.8896" x2="498.6123" y1="285.3516" y2="285.3516"/><text fill="#000000" font-family="sans-serif" font-size="13" lengthAdjust="spacing" textLength="394.7227" x="92.8896" y="280.6094">Viene mostrata una nuova finestra con un messaggio di avviso</text></g><path d="M10,300.3516 L72.1387,300.3516 L72.1387,307.6621 L62.1387,317.6621 L10,317.6621 L10,300.3516" fill="#EEEEEE" style="stroke:#000000;stroke-width:1.5;"/><rect fill="none" height="335.0605" style="stroke:#000000;stroke-width:1.5;" width="1050.291" x="10" y="300.3516"/><text fill="#000000" font-family="sans-serif" font-size="13" font-weight="bold" lengthAdjust="spacing" textLength="17.1387" x="25" y="313.9199">alt</text><text fill="#000000" font-family="sans-serif" font-size="11" font-weight="bold" lengthAdjust="spacing" textLength="209.854" x="87.1387" y="312.9863">[Annulla l'operazione cliccando "No"]</text><g class="message" data-participant-1="a" data-participant-2="rrc"><polygon fill="#181818" points="671.0981,334.9727,681.0981,338.9727,671.0981,342.9727,675.0981,338.9727" style="stroke:#181818;stroke-width:1;"/><line style="stroke:#181818;stroke-width:1;" x1="75.8896" x2="677.0981" y1="338.9727" y2="338.9727"/><text fill="#000000" font-family="sans-serif" font-size="13" lengthAdjust="spacing" textLength="293.2935" x="82.8896" y="334.2305">Annulla l'operazione cliccando il pulsante "No"</text></g><g class="message" data-participant-1="rrc" data-participant-2="rrc"><line style="stroke:#181818;stroke-width:1;" x1="683.0981" x2="730.0981" y1="363.2832" y2="363.2832"/><line style="stroke:#181818;stroke-width:1;" x1="730.0981" x2="730.0981" y1="363.2832" y2="376.2832"/><line style="stroke:#181818;stroke-width:1;" x1="689.0981" x2="730.0981" y1="376.2832" y2="376.2832"/><polygon fill="#181818" points="699.0981,372.2832,689.0981,376.2832,699.0981,380.2832,695.0981,376.2832" style="stroke:#181818;stroke-width:1;"/><text fill="#000000" font-family="sans-serif" font-size="13" lengthAdjust="spacing" textLength="78.749" x="695.0981" y="358.541">onCancel(...)</text></g><g class="message" data-participant-1="rrc" data-participant-2="a"><polygon fill="#181818" points="86.8896,406.5938,76.8896,410.5938,86.8896,414.5938,82.8896,410.5938" style="stroke:#181818;stroke-width:1;"/><line style="stroke:#181818;stroke-width:1;stroke-dasharray:2,2;" x1="80.8896" x2="682.0981" y1="410.5938" y2="410.5938"/><text fill="#000000" font-family="sans-serif" font-size="13" lengthAdjust="spacing" textLength="280.7061" x="92.8896" y="405.8516">Viene chiusa la schermata di rimozione libro</text></g><line style="stroke:#000000;stroke-width:1;stroke-dasharray:2,2;" x1="10" x2="1060.291" y1="419.5938" y2="419.5938"/><text fill="#000000" font-family="sans-serif" font-size="11" font-weight="bold" lengthAdjust="spacing" textLength="216.0684" x="15" y="430.2285">[Conferma l'operazione cliccando "Si"]</text><g class="message" data-participant-1="a" data-participant-2="rrc"><polygon fill="#181818" points="671.0981,450.8594,681.0981,454.8594,671.0981,458.8594,675.0981,454.8594" style="stroke:#181818;stroke-width:1;"/><line style="stroke:#181818;stroke-width:1;" x1="75.8896" x2="677.0981" y1="454.8594" y2="454.8594"/><text fill="#000000" font-family="sans-serif" font-size="13" lengthAdjust="spacing" textLength="300.3013" x="82.8896" y="450.1172">Conferma l'operazione cliccando il pulsante "Si"</text></g><g class="message" data-participant-1="rrc" data-participant-2="rrc"><line style="stroke:#181818;stroke-width:1;" x1="683.0981" x2="730.0981" y1="479.1699" y2="479.1699"/><line style="stroke:#181818;stroke-width:1;" x1="730.0981" x2="730.0981" y1="479.1699" y2="492.1699"/><line style="stroke:#181818;stroke-width:1;" x1="689.0981" x2="730.0981" y1="492.1699" y2="492.1699"/><polygon fill="#181818" points="699.0981,488.1699,689.0981,492.1699,699.0981,496.1699,695.0981,492.1699" style="stroke:#181818;stroke-width:1;"/><text fill="#000000" font-family="sans-serif" font-size="13" lengthAdjust="spacing" textLength="87.8896" x="695.0981" y="474.4277">onConfirm(...)</text></g><g class="message" data-participant-1="rrc" data-participant-2="gp"><polygon fill="#181818" points="815.5034,522.4805,825.5034,526.4805,815.5034,530.4805,819.5034,526.4805" style="stroke:#181818;stroke-width:1;"/><line style="stroke:#181818;stroke-width:1;" x1="688.0981" x2="821.5034" y1="526.4805" y2="526.4805"/><text fill="#000000" font-family="sans-serif" font-size="13" lengthAdjust="spacing" textLength="117.0508" x="695.0981" y="521.7383">registraPrestito(...)</text></g><g class="message" data-participant-1="gp" data-participant-2="gp"><line style="stroke:#181818;stroke-width:1;" x1="837.5034" x2="879.5034" y1="555.791" y2="555.791"/><line style="stroke:#181818;stroke-width:1;" x1="879.5034" x2="879.5034" y1="555.791" y2="568.791"/><line style="stroke:#181818;stroke-width:1;" x1="838.5034" x2="879.5034" y1="568.791" y2="568.791"/><polygon fill="#181818" points="848.5034,564.791,838.5034,568.791,848.5034,572.791,844.5034,568.791" style="stroke:#181818;stroke-width:1;"/><text fill="#000000" font-family="sans-serif" font-size="13" lengthAdjust="spacing" textLength="193.7876" x="844.5034" y="551.0488">Viene registrata la restituzione</text></g><g class="message" data-participant-1="gp" data-participant-2="rrc"><polygon fill="#181818" points="699.0981,594.1016,689.0981,598.1016,699.0981,602.1016,695.0981,598.1016" style="stroke:#181818;stroke-width:1;"/><line style="stroke:#181818;stroke-width:1;stroke-dasharray:2,2;" x1="693.0981" x2="831.5034" y1="598.1016" y2="598.1016"/><text fill="#000000" font-family="sans-serif" font-size="13" lengthAdjust="spacing" textLength="61.7056" x="705.0981" y="593.3594">Conferma</text></g><g class="message" data-participant-1="rrc" data-participant-2="a"><polygon fill="#181818" points="86.8896,623.4121,76.8896,627.4121,86.8896,631.4121,82.8896,627.4121" style="stroke:#181818;stroke-width:1;"/><line style="stroke:#181818;stroke-width:1;stroke-dasharray:2,2;" x1="80.8896" x2="682.0981" y1="627.4121" y2="627.4121"/><text fill="#000000" font-family="sans-serif" font-size="13" lengthAdjust="spacing" textLength="319.7568" x="92.8896" y="622.6699">Viene chiusa la schermata di registrazione prestito</text></g><!--SRC=[ZLExRkGm3Apjho2sIQx8Vi0M2oos3Gv10bpFQ1c7W4mAakmYNt-KRCFsFP8q1cpEa3D3ka6NDSAbxrauvOZsHe09i6q2nioE0qg6fqWfS-QhIexgFSK2ScFOmvuhQlXW5PefkgV4wFxTkHIxqBQDDNqus-C49YapUlwW- -Fn-ADjS2vSWebCxfrYZnaXp2rMm0jvAY8G1bdAkfQldfr3O0zXyCbK41osqWzR5IhFb8SeZugow72PHpHM3Q1Y7yvuWbzCGj1h3RBCHf11HuGt5YeVmQaKIJsbX5t72ZSpFewSJDsDzdrjZizm4HcyH_1t6YXYrGUk6f2Rmk6dcjhYp98zVONUEPwOHfkvAbSKHtuskRgiEvkG6vlkdOTaat2p2NCJkTTfhEVNQBQslgPERKC-4TXXl1NUVwszyDRQL_2TjucwysPqZlrdviwThJjILt-4vNmNmiheoiwRfWiJOKfZeUMQIDmSqmB-mqRvl4ccDlrcmlEeAO3rklyAckJMjErl]--></g></svg>