<svg xmlns="http://www.w3.org/2000/svg" xmlns:xlink="http://www.w3.org/1999/xlink" contentStyleType="text/css" data-diagram-type="SEQUENCE" height="837px" preserveAspectRatio="none" style="width:1171px;height:837px;background:#FFFFFF;" version="1.1" viewBox="0 0 1171 837" width="1171px" zoomAndPan="magnify"><defs/><g><g><title>PrestitiController</title><rect fill="#FFFFFF" height="34.3105" style="stroke:#181818;stroke-width:1;" width="10" x="398.5024" y="251.041"/></g><g><title>EstensionePrestitoController</title><rect fill="#FFFFFF" height="135.2422" style="stroke:#181818;stroke-width:1;" width="10" x="648.3716" y="405.5938"/></g><g><title>EstensionePrestitoController</title><rect fill="#FFFFFF" height="100.9316" style="stroke:#181818;stroke-width:1;" width="10" x="648.3716" y="637.7676"/></g><g><title>Prestito</title><rect fill="#FFFFFF" height="71.6211" style="stroke:#181818;stroke-width:1;" width="10" x="880.2344" y="439.9043"/></g><g><title>Prestiti</title><rect fill="#FFFFFF" height="71.6211" style="stroke:#181818;stroke-width:1;" width="10" x="1003.457" y="637.7676"/></g><rect fill="none" height="309.1055" style="stroke:#000000;stroke-width:1.5;" width="998.457" x="10" y="300.3516"/><rect fill="none" height="46.6211" style="stroke:#000000;stroke-width:1.5;" width="387.8262" x="540.1694" y="555.8359"/><g><title>Amministratore</title><rect fill="#000000" fill-opacity="0.00000" height="675.2109" width="8" x="71.8896" y="81.4883"/><line style="stroke:#181818;stroke-width:0.5;stroke-dasharray:5,5;" x1="75" x2="75" y1="81.4883" y2="756.6992"/></g><g><title>PrestitiController</title><rect fill="#000000" fill-opacity="0.00000" height="675.2109" width="8" x="399.5024" y="81.4883"/><line style="stroke:#181818;stroke-width:0.5;stroke-dasharray:5,5;" x1="402.937" x2="402.937" y1="81.4883" y2="756.6992"/></g><g><title>EstensionePrestitoController</title><rect fill="#000000" fill-opacity="0.00000" height="675.2109" width="8" x="649.3716" y="81.4883"/><line style="stroke:#181818;stroke-width:0.5;stroke-dasharray:5,5;" x1="653.1694" x2="653.1694" y1="81.4883" y2="756.6992"/></g><g><title>Prestito</title><rect fill="#000000" fill-opacity="0.00000" height="675.2109" width="8" x="881.2344" y="81.4883"/><line style="stroke:#181818;stroke-width:0.5;stroke-dasharray:5,5;" x1="884.4731" x2="884.4731" y1="81.4883" y2="756.6992"/></g><g><title>Prestiti</title><rect fill="#000000" fill-opacity="0.00000" height="675.2109" width="8" x="1004.457" y="81.4883"/><line style="stroke:#181818;stroke-width:0.5;stroke-dasharray:5,5;" x1="1007.9722" x2="1007.9722" y1="81.4883" y2="756.6992"/></g><g class="participant participant-head" data-participant="a"><text fill="#000000" font-family="sans-serif" font-size="14" lengthAdjust="spacing" textLength="105.7793" x="20" y="78.5352">Amministratore</text><ellipse cx="75.8896" cy="13.5" fill="#E2E2F0" rx="8" ry="8" style="stroke:#181818;stroke-width:0.5;"/><path d="M75.8896,21.5 L75.8896,48.5 M62.8896,29.5 L88.8896,29.5 M75.8896,48.5 L62.8896,63.5 M75.8896,48.5 L88.8896,63.5" fill="none" style="stroke:#181818;stroke-width:0.5;"/></g><g class="participant participant-tail" data-participant="a"><text fill="#000000" font-family="sans-serif" font-size="14" lengthAdjust="spacing" textLength="105.7793" x="20" y="769.2344">Amministratore</text><ellipse cx="75.8896" cy="780.6875" fill="#E2E2F0" rx="8" ry="8" style="stroke:#181818;stroke-width:0.5;"/><path d="M75.8896,788.6875 L75.8896,815.6875 M62.8896,796.6875 L88.8896,796.6875 M75.8896,815.6875 L62.8896,830.6875 M75.8896,815.6875 L88.8896,830.6875" fill="none" style="stroke:#181818;stroke-width:0.5;"/></g><g class="participant participant-head" data-participant="cvp"><rect fill="#E2E2F0" height="30.4883" rx="2.5" ry="2.5" style="stroke:#181818;stroke-width:0.5;" width="129.1309" x="338.937" y="50"/><text fill="#000000" font-family="sans-serif" font-size="14" lengthAdjust="spacing" textLength="115.1309" x="345.937" y="70.5352">PrestitiController</text></g><g class="participant participant-tail" data-participant="cvp"><rect fill="#E2E2F0" height="30.4883" rx="2.5" ry="2.5" style="stroke:#181818;stroke-width:0.5;" width="129.1309" x="338.937" y="755.6992"/><text fill="#000000" font-family="sans-serif" font-size="14" lengthAdjust="spacing" textLength="115.1309" x="345.937" y="776.2344">PrestitiController</text></g><g class="participant participant-head" data-participant="epc"><rect fill="#E2E2F0" height="30.4883" rx="2.5" ry="2.5" style="stroke:#181818;stroke-width:0.5;" width="206.4043" x="550.1694" y="50"/><text fill="#000000" font-family="sans-serif" font-size="14" lengthAdjust="spacing" textLength="192.4043" x="557.1694" y="70.5352">EstensionePrestitoController</text></g><g class="participant participant-tail" data-participant="epc"><rect fill="#E2E2F0" height="30.4883" rx="2.5" ry="2.5" style="stroke:#181818;stroke-width:0.5;" width="206.4043" x="550.1694" y="755.6992"/><text fill="#000000" font-family="sans-serif" font-size="14" lengthAdjust="spacing" textLength="192.4043" x="557.1694" y="776.2344">EstensionePrestitoController</text></g><g class="participant participant-head" data-participant="p"><rect fill="#E2E2F0" height="30.4883" rx="2.5" ry="2.5" style="stroke:#181818;stroke-width:0.5;" width="65.5225" x="852.4731" y="50"/><text fill="#000000" font-family="sans-serif" font-size="14" lengthAdjust="spacing" textLength="51.5225" x="859.4731" y="70.5352">Prestito</text></g><g class="participant participant-tail" data-participant="p"><rect fill="#E2E2F0" height="30.4883" rx="2.5" ry="2.5" style="stroke:#181818;stroke-width:0.5;" width="65.5225" x="852.4731" y="755.6992"/><text fill="#000000" font-family="sans-serif" font-size="14" lengthAdjust="spacing" textLength="51.5225" x="859.4731" y="776.2344">Prestito</text></g><g class="participant participant-head" data-participant="gp"><rect fill="#E2E2F0" height="30.4883" rx="2.5" ry="2.5" style="stroke:#181818;stroke-width:0.5;" width="60.9697" x="977.9722" y="50"/><text fill="#000000" font-family="sans-serif" font-size="14" lengthAdjust="spacing" textLength="46.9697" x="984.9722" y="70.5352">Prestiti</text></g><g class="participant participant-tail" data-participant="gp"><rect fill="#E2E2F0" height="30.4883" rx="2.5" ry="2.5" style="stroke:#181818;stroke-width:0.5;" width="60.9697" x="977.9722" y="755.6992"/><text fill="#000000" font-family="sans-serif" font-size="14" lengthAdjust="spacing" textLength="46.9697" x="984.9722" y="776.2344">Prestiti</text></g><g><title>PrestitiController</title><rect fill="#FFFFFF" height="34.3105" style="stroke:#181818;stroke-width:1;" width="10" x="398.5024" y="251.041"/></g><g><title>EstensionePrestitoController</title><rect fill="#FFFFFF" height="135.2422" style="stroke:#181818;stroke-width:1;" width="10" x="648.3716" y="405.5938"/></g><g><title>EstensionePrestitoController</title><rect fill="#FFFFFF" height="100.9316" style="stroke:#181818;stroke-width:1;" width="10" x="648.3716" y="637.7676"/></g><g><title>Prestito</title><rect fill="#FFFFFF" height="71.6211" style="stroke:#181818;stroke-width:1;" width="10" x="880.2344" y="439.9043"/></g><g><title>Prestiti</title><rect fill="#FFFFFF" height="71.6211" style="stroke:#181818;stroke-width:1;" width="10" x="1003.457" y="637.7676"/></g><g class="message" data-participant-1="cvp" data-participant-2="cvp"><line style="stroke:#181818;stroke-width:1;" x1="403.5024" x2="445.5024" y1="112.7988" y2="112.7988"/><line style="stroke:#181818;stroke-width:1;" x1="445.5024" x2="445.5024" y1="112.7988" y2="125.7988"/><line style="stroke:#181818;stroke-width:1;" x1="404.5024" x2="445.5024" y1="125.7988" y2="125.7988"/><polygon fill="#181818" points="414.5024,121.7988,404.5024,125.7988,414.5024,129.7988,410.5024,125.7988" style="stroke:#181818;stroke-width:1;"/><text fill="#000000" font-family="sans-serif" font-size="13" lengthAdjust="spacing" textLength="74.3882" x="410.5024" y="108.0566">initialize(...)</text></g><g class="message" data-participant-1="a" data-participant-2="cvp"><polygon fill="#181818" points="391.5024,151.1094,401.5024,155.1094,391.5024,159.1094,395.5024,155.1094" style="stroke:#181818;stroke-width:1;"/><line style="stroke:#181818;stroke-width:1;" x1="75.8896" x2="397.5024" y1="155.1094" y2="155.1094"/><text fill="#000000" font-family="sans-serif" font-size="13" lengthAdjust="spacing" textLength="147.8242" x="82.8896" y="150.3672">Apre schermata prestiti</text></g><g class="message" data-participant-1="a" data-participant-2="cvp"><polygon fill="#181818" points="391.5024,180.4199,401.5024,184.4199,391.5024,188.4199,395.5024,184.4199" style="stroke:#181818;stroke-width:1;"/><line style="stroke:#181818;stroke-width:1;" x1="75.8896" x2="397.5024" y1="184.4199" y2="184.4199"/><text fill="#000000" font-family="sans-serif" font-size="13" lengthAdjust="spacing" textLength="132.8882" x="82.8896" y="179.6777">Seleziona un prestito</text></g><g class="message" data-participant-1="a" data-participant-2="cvp"><polygon fill="#181818" points="391.5024,209.7305,401.5024,213.7305,391.5024,217.7305,395.5024,213.7305" style="stroke:#181818;stroke-width:1;"/><line style="stroke:#181818;stroke-width:1;" x1="75.8896" x2="397.5024" y1="213.7305" y2="213.7305"/><text fill="#000000" font-family="sans-serif" font-size="13" lengthAdjust="spacing" textLength="166.3467" x="82.8896" y="208.9883">Clicca il pulsante "Estendi"</text></g><g class="message" data-participant-1="cvp" data-participant-2="cvp"><line style="stroke:#181818;stroke-width:1;" x1="403.5024" x2="450.5024" y1="238.041" y2="238.041"/><line style="stroke:#181818;stroke-width:1;" x1="450.5024" x2="450.5024" y1="238.041" y2="251.041"/><line style="stroke:#181818;stroke-width:1;" x1="409.5024" x2="450.5024" y1="251.041" y2="251.041"/><polygon fill="#181818" points="419.5024,247.041,409.5024,251.041,419.5024,255.041,415.5024,251.041" style="stroke:#181818;stroke-width:1;"/><text fill="#000000" font-family="sans-serif" font-size="13" lengthAdjust="spacing" textLength="110.3857" x="415.5024" y="233.2988">onExtendLoan(...)</text></g><g class="message" data-participant-1="cvp" data-participant-2="a"><polygon fill="#181818" points="86.8896,281.3516,76.8896,285.3516,86.8896,289.3516,82.8896,285.3516" style="stroke:#181818;stroke-width:1;"/><line style="stroke:#181818;stroke-width:1;stroke-dasharray:2,2;" x1="80.8896" x2="402.5024" y1="285.3516" y2="285.3516"/><text fill="#000000" font-family="sans-serif" font-size="13" lengthAdjust="spacing" textLength="298.6128" x="92.8896" y="280.6094">Viene mostrata la schermata di estendi prestito</text></g><path d="M10,300.3516 L84.4468,300.3516 L84.4468,307.6621 L74.4468,317.6621 L10,317.6621 L10,300.3516" fill="#EEEEEE" style="stroke:#000000;stroke-width:1.5;"/><rect fill="none" height="309.1055" style="stroke:#000000;stroke-width:1.5;" width="998.457" x="10" y="300.3516"/><text fill="#000000" font-family="sans-serif" font-size="13" font-weight="bold" lengthAdjust="spacing" textLength="29.4468" x="25" y="313.9199">loop</text><text fill="#000000" font-family="sans-serif" font-size="11" font-weight="bold" lengthAdjust="spacing" textLength="282.4443" x="99.4468" y="312.9863">[Amministratore modifica i campi in modo errato]</text><g class="message" data-participant-1="a" data-participant-2="epc"><polygon fill="#181818" points="641.3716,334.9727,651.3716,338.9727,641.3716,342.9727,645.3716,338.9727" style="stroke:#181818;stroke-width:1;"/><line style="stroke:#181818;stroke-width:1;" x1="75.8896" x2="647.3716" y1="338.9727" y2="338.9727"/><text fill="#000000" font-family="sans-serif" font-size="13" lengthAdjust="spacing" textLength="265.1479" x="82.8896" y="334.2305">Modifica i campi del prestito nel TextField</text></g><g class="message" data-participant-1="a" data-participant-2="epc"><polygon fill="#181818" points="641.3716,364.2832,651.3716,368.2832,641.3716,372.2832,645.3716,368.2832" style="stroke:#181818;stroke-width:1;"/><line style="stroke:#181818;stroke-width:1;" x1="75.8896" x2="647.3716" y1="368.2832" y2="368.2832"/><text fill="#000000" font-family="sans-serif" font-size="13" lengthAdjust="spacing" textLength="184.3867" x="82.8896" y="363.541">Preme il pulsante "Conferma"</text></g><g class="message" data-participant-1="epc" data-participant-2="epc"><line style="stroke:#181818;stroke-width:1;" x1="653.3716" x2="700.3716" y1="392.5938" y2="392.5938"/><line style="stroke:#181818;stroke-width:1;" x1="700.3716" x2="700.3716" y1="392.5938" y2="405.5938"/><line style="stroke:#181818;stroke-width:1;" x1="659.3716" x2="700.3716" y1="405.5938" y2="405.5938"/><polygon fill="#181818" points="669.3716,401.5938,659.3716,405.5938,669.3716,409.5938,665.3716,405.5938" style="stroke:#181818;stroke-width:1;"/><text fill="#000000" font-family="sans-serif" font-size="13" lengthAdjust="spacing" textLength="87.8896" x="665.3716" y="387.8516">onConfirm(...)</text></g><g class="message" data-participant-1="epc" data-participant-2="p"><polygon fill="#181818" points="868.2344,435.9043,878.2344,439.9043,868.2344,443.9043,872.2344,439.9043" style="stroke:#181818;stroke-width:1;"/><line style="stroke:#181818;stroke-width:1;" x1="658.3716" x2="874.2344" y1="439.9043" y2="439.9043"/><text fill="#000000" font-family="sans-serif" font-size="13" lengthAdjust="spacing" textLength="154.1401" x="665.3716" y="435.1621">verificaDataScadenza(...)</text></g><g class="message" data-participant-1="p" data-participant-2="p"><line style="stroke:#181818;stroke-width:1;" x1="890.2344" x2="932.2344" y1="469.2148" y2="469.2148"/><line style="stroke:#181818;stroke-width:1;" x1="932.2344" x2="932.2344" y1="469.2148" y2="482.2148"/><line style="stroke:#181818;stroke-width:1;" x1="891.2344" x2="932.2344" y1="482.2148" y2="482.2148"/><polygon fill="#181818" points="901.2344,478.2148,891.2344,482.2148,901.2344,486.2148,897.2344,482.2148" style="stroke:#181818;stroke-width:1;"/><text fill="#000000" font-family="sans-serif" font-size="13" lengthAdjust="spacing" textLength="89.2227" x="897.2344" y="464.4727">Verifica campi</text></g><g class="message" data-participant-1="p" data-participant-2="epc"><polygon fill="#181818" points="669.3716,507.5254,659.3716,511.5254,669.3716,515.5254,665.3716,511.5254" style="stroke:#181818;stroke-width:1;"/><line style="stroke:#181818;stroke-width:1;stroke-dasharray:2,2;" x1="663.3716" x2="884.2344" y1="511.5254" y2="511.5254"/><text fill="#000000" font-family="sans-serif" font-size="13" lengthAdjust="spacing" textLength="197.8628" x="675.3716" y="506.7832">Verifica non andata a buon fine</text></g><g class="message" data-participant-1="epc" data-participant-2="a"><polygon fill="#181818" points="86.8896,536.8359,76.8896,540.8359,86.8896,544.8359,82.8896,540.8359" style="stroke:#181818;stroke-width:1;"/><line style="stroke:#181818;stroke-width:1;stroke-dasharray:2,2;" x1="80.8896" x2="652.3716" y1="540.8359" y2="540.8359"/><text fill="#000000" font-family="sans-serif" font-size="13" lengthAdjust="spacing" textLength="548.4819" x="92.8896" y="536.0938">Viene visualizzato un messaggio di errore e vengono evidenziati i campi da correggere</text></g><path d="M540.1694,555.8359 L623.1792,555.8359 L623.1792,563.1465 L613.1792,573.1465 L540.1694,573.1465 L540.1694,555.8359" fill="#EEEEEE" style="stroke:#000000;stroke-width:1.5;"/><rect fill="none" height="46.6211" style="stroke:#000000;stroke-width:1.5;" width="387.8262" x="540.1694" y="555.8359"/><text fill="#000000" font-family="sans-serif" font-size="13" font-weight="bold" lengthAdjust="spacing" textLength="38.0098" x="555.1694" y="569.4043">break</text><g class="message" data-participant-1="p" data-participant-2="epc"><polygon fill="#181818" points="664.3716,590.457,654.3716,594.457,664.3716,598.457,660.3716,594.457" style="stroke:#181818;stroke-width:1;"/><line style="stroke:#181818;stroke-width:1;stroke-dasharray:2,2;" x1="658.3716" x2="884.2344" y1="594.457" y2="594.457"/><text fill="#000000" font-family="sans-serif" font-size="13" lengthAdjust="spacing" textLength="169.6284" x="670.3716" y="589.7148">Verifica andata a buon fine</text></g><g class="message" data-participant-1="epc" data-participant-2="gp"><polygon fill="#181818" points="991.457,633.7676,1001.457,637.7676,991.457,641.7676,995.457,637.7676" style="stroke:#181818;stroke-width:1;"/><line style="stroke:#181818;stroke-width:1;" x1="658.3716" x2="997.457" y1="637.7676" y2="637.7676"/><text fill="#000000" font-family="sans-serif" font-size="13" lengthAdjust="spacing" textLength="75.2324" x="665.3716" y="633.0254">modifica(...)</text></g><g class="message" data-participant-1="gp" data-participant-2="gp"><line style="stroke:#181818;stroke-width:1;" x1="1013.457" x2="1055.457" y1="667.0781" y2="667.0781"/><line style="stroke:#181818;stroke-width:1;" x1="1055.457" x2="1055.457" y1="667.0781" y2="680.0781"/><line style="stroke:#181818;stroke-width:1;" x1="1014.457" x2="1055.457" y1="680.0781" y2="680.0781"/><polygon fill="#181818" points="1024.457,676.0781,1014.457,680.0781,1024.457,684.0781,1020.457,680.0781" style="stroke:#181818;stroke-width:1;"/><text fill="#000000" font-family="sans-serif" font-size="13" lengthAdjust="spacing" textLength="144.0918" x="1020.457" y="662.3359">Viene esteso il prestito</text></g><g class="message" data-participant-1="gp" data-participant-2="epc"><polygon fill="#181818" points="669.3716,705.3887,659.3716,709.3887,669.3716,713.3887,665.3716,709.3887" style="stroke:#181818;stroke-width:1;"/><line style="stroke:#181818;stroke-width:1;stroke-dasharray:2,2;" x1="663.3716" x2="1007.457" y1="709.3887" y2="709.3887"/><text fill="#000000" font-family="sans-serif" font-size="13" lengthAdjust="spacing" textLength="61.7056" x="675.3716" y="704.6465">Conferma</text></g><g class="message" data-participant-1="epc" data-participant-2="a"><polygon fill="#181818" points="86.8896,734.6992,76.8896,738.6992,86.8896,742.6992,82.8896,738.6992" style="stroke:#181818;stroke-width:1;"/><line style="stroke:#181818;stroke-width:1;stroke-dasharray:2,2;" x1="80.8896" x2="652.3716" y1="738.6992" y2="738.6992"/><text fill="#000000" font-family="sans-serif" font-size="13" lengthAdjust="spacing" textLength="284.7241" x="92.8896" y="733.957">Viene chiusa la schermata di estensione libro</text></g><!--SRC=[bPJFRjim3CRFzbCGkNGx90-GGu2YwquRCA13xupCkCHaIP1aeyZJZvJ_n0womou6P7uKF_v8kqAJVOJdhcF7AKUK4m4cmBeA63CR3kWo_8gKCcT-yIv7Ror55PaXR6MlAPDBx1rD2NwRGC4ylDThC3mkgQ4sr7KbrVOdUHn1l6P6orVwSZWSljOLJe7d8EwJ-Q3OOKO8qnKtmHjPkee_XDxDONyBlrWs1e4jXDucSK6mApqrl5iRyExrKz_-yEXc2oRpW99GeAWMzliJx71tX7ScHz3v0XZ1uifZmq1ZXPMVXZRNrTNJtOGwt_25rIeOx08B4dtdWQ8gwifw7-1_avI3ZEW8F- -L3Td57ZWv_ARF_9t9DgiicLX7MtWo_eisAlGgqKn2x_GznsvYTuDN5cII2kU1Ol7nJKYz6Mp8NN7EkIKfxweA9UDzoXXzZu4oY59uYJhl05sZ0q0uztAwi2ELhz27oVJ-XFCC1qwzBjvLUEaATPGIjYtxCiSO5REeoBNU2TU1rJAZRF52Kgpv6AbjAMh1LRsn-ITXqx0kAUcbVJAiQu8MTAOYE4V2FtNfUEAvjFMm9TcjkZpgaMihcEPLk5_UqS9oR0lQDen98mBTrkJBc9TzLSsDyZpqRNTwbuIBRE5fFhXF__WYody4B9_ZzejGZty1]--></g></svg>