<svg xmlns="http://www.w3.org/2000/svg" xmlns:xlink="http://www.w3.org/1999/xlink" contentStyleType="text/css" data-diagram-type="SEQUENCE" height="691px" preserveAspectRatio="none" style="width:1163px;height:691px;background:#FFFFFF;" version="1.1" viewBox="0 0 1163 691" width="1163px" zoomAndPan="magnify"><defs/><g><g><title>ClasseCheContieneVisualizzazioneLibri</title><rect fill="#FFFFFF" height="34.3105" style="stroke:#181818;stroke-width:1;" width="10" x="494.6123" y="293.3516"/></g><g><title>ClasseCheContieneVisualizzazioneLibri</title><rect fill="#FFFFFF" height="100.9316" style="stroke:#181818;stroke-width:1;" width="10" x="494.6123" y="484.1699"/></g><g><title>GestoreLibri</title><rect fill="#FFFFFF" height="71.6211" style="stroke:#181818;stroke-width:1;" width="10" x="858.9722" y="484.1699"/></g><rect fill="none" height="250.4395" style="stroke:#000000;stroke-width:1.5;" width="1030.3882" x="10" y="342.6621"/><g><title>Amministratore</title><rect fill="#000000" fill-opacity="0.00000" height="528.6133" width="8" x="71.8896" y="81.4883"/><line style="stroke:#181818;stroke-width:0.5;stroke-dasharray:5,5;" x1="75" x2="75" y1="81.4883" y2="610.1016"/></g><g><title>ClasseCheContieneVisualizzazioneLibri</title><rect fill="#000000" fill-opacity="0.00000" height="528.6133" width="8" x="495.6123" y="81.4883"/><line style="stroke:#181818;stroke-width:0.5;stroke-dasharray:5,5;" x1="499.5371" x2="499.5371" y1="81.4883" y2="610.1016"/></g><g><title>Libro</title><rect fill="#000000" fill-opacity="0.00000" height="528.6133" width="8" x="777.3882" y="81.4883"/><line style="stroke:#181818;stroke-width:0.5;stroke-dasharray:5,5;" x1="781.0625" x2="781.0625" y1="81.4883" y2="610.1016"/></g><g><title>GestoreLibri</title><rect fill="#000000" fill-opacity="0.00000" height="528.6133" width="8" x="859.9722" y="81.4883"/><line style="stroke:#181818;stroke-width:0.5;stroke-dasharray:5,5;" x1="863.7139" x2="863.7139" y1="81.4883" y2="610.1016"/></g><g><title>Biblioteca</title><rect fill="#000000" fill-opacity="0.00000" height="528.6133" width="8" x="1036.3882" y="81.4883"/><line style="stroke:#181818;stroke-width:0.5;stroke-dasharray:5,5;" x1="1039.6167" x2="1039.6167" y1="81.4883" y2="610.1016"/></g><g class="participant participant-head" data-participant="a"><text fill="#000000" font-family="sans-serif" font-size="14" lengthAdjust="spacing" textLength="105.7793" x="20" y="78.5352">Amministratore</text><ellipse cx="75.8896" cy="13.5" fill="#E2E2F0" rx="8" ry="8" style="stroke:#181818;stroke-width:0.5;"/><path d="M75.8896,21.5 L75.8896,48.5 M62.8896,29.5 L88.8896,29.5 M75.8896,48.5 L62.8896,63.5 M75.8896,48.5 L88.8896,63.5" fill="none" style="stroke:#181818;stroke-width:0.5;"/></g><g class="participant participant-tail" data-participant="a"><text fill="#000000" font-family="sans-serif" font-size="14" lengthAdjust="spacing" textLength="105.7793" x="20" y="622.6367">Amministratore</text><ellipse cx="75.8896" cy="634.0898" fill="#E2E2F0" rx="8" ry="8" style="stroke:#181818;stroke-width:0.5;"/><path d="M75.8896,642.0898 L75.8896,669.0898 M62.8896,650.0898 L88.8896,650.0898 M75.8896,669.0898 L62.8896,684.0898 M75.8896,669.0898 L88.8896,684.0898" fill="none" style="stroke:#181818;stroke-width:0.5;"/></g><g class="participant participant-head" data-participant="cvl"><rect fill="#E2E2F0" height="30.4883" rx="2.5" ry="2.5" style="stroke:#181818;stroke-width:0.5;" width="280.1504" x="359.5371" y="50"/><text fill="#000000" font-family="sans-serif" font-size="14" lengthAdjust="spacing" textLength="266.1504" x="366.5371" y="70.5352">ClasseCheContieneVisualizzazioneLibri</text></g><g class="participant participant-tail" data-participant="cvl"><rect fill="#E2E2F0" height="30.4883" rx="2.5" ry="2.5" style="stroke:#181818;stroke-width:0.5;" width="280.1504" x="359.5371" y="609.1016"/><text fill="#000000" font-family="sans-serif" font-size="14" lengthAdjust="spacing" textLength="266.1504" x="366.5371" y="629.6367">ClasseCheContieneVisualizzazioneLibri</text></g><g class="participant participant-head" data-participant="l"><rect fill="#E2E2F0" height="30.4883" rx="2.5" ry="2.5" style="stroke:#181818;stroke-width:0.5;" width="48.6514" x="757.0625" y="50"/><text fill="#000000" font-family="sans-serif" font-size="14" lengthAdjust="spacing" textLength="34.6514" x="764.0625" y="70.5352">Libro</text></g><g class="participant participant-tail" data-participant="l"><rect fill="#E2E2F0" height="30.4883" rx="2.5" ry="2.5" style="stroke:#181818;stroke-width:0.5;" width="48.6514" x="757.0625" y="609.1016"/><text fill="#000000" font-family="sans-serif" font-size="14" lengthAdjust="spacing" textLength="34.6514" x="764.0625" y="629.6367">Libro</text></g><g class="participant participant-head" data-participant="gl"><rect fill="#E2E2F0" height="30.4883" rx="2.5" ry="2.5" style="stroke:#181818;stroke-width:0.5;" width="96.5166" x="815.7139" y="50"/><text fill="#000000" font-family="sans-serif" font-size="14" lengthAdjust="spacing" textLength="82.5166" x="822.7139" y="70.5352">GestoreLibri</text></g><g class="participant participant-tail" data-participant="gl"><rect fill="#E2E2F0" height="30.4883" rx="2.5" ry="2.5" style="stroke:#181818;stroke-width:0.5;" width="96.5166" x="815.7139" y="609.1016"/><text fill="#000000" font-family="sans-serif" font-size="14" lengthAdjust="spacing" textLength="82.5166" x="822.7139" y="629.6367">GestoreLibri</text></g><g class="participant participant-head" data-participant="b"><rect fill="#E2E2F0" height="30.4883" rx="2.5" ry="2.5" style="stroke:#181818;stroke-width:0.5;" width="79.543" x="1000.6167" y="50"/><text fill="#000000" font-family="sans-serif" font-size="14" lengthAdjust="spacing" textLength="65.543" x="1007.6167" y="70.5352">Biblioteca</text></g><g class="participant participant-tail" data-participant="b"><rect fill="#E2E2F0" height="30.4883" rx="2.5" ry="2.5" style="stroke:#181818;stroke-width:0.5;" width="79.543" x="1000.6167" y="609.1016"/><text fill="#000000" font-family="sans-serif" font-size="14" lengthAdjust="spacing" textLength="65.543" x="1007.6167" y="629.6367">Biblioteca</text></g><g><title>ClasseCheContieneVisualizzazioneLibri</title><rect fill="#FFFFFF" height="34.3105" style="stroke:#181818;stroke-width:1;" width="10" x="494.6123" y="293.3516"/></g><g><title>ClasseCheContieneVisualizzazioneLibri</title><rect fill="#FFFFFF" height="100.9316" style="stroke:#181818;stroke-width:1;" width="10" x="494.6123" y="484.1699"/></g><g><title>GestoreLibri</title><rect fill="#FFFFFF" height="71.6211" style="stroke:#181818;stroke-width:1;" width="10" x="858.9722" y="484.1699"/></g><g class="message" data-participant-1="b" data-participant-2="b"><line style="stroke:#181818;stroke-width:1;" x1="1040.3882" x2="1082.3882" y1="112.7988" y2="112.7988"/><line style="stroke:#181818;stroke-width:1;" x1="1082.3882" x2="1082.3882" y1="112.7988" y2="125.7988"/><line style="stroke:#181818;stroke-width:1;" x1="1041.3882" x2="1082.3882" y1="125.7988" y2="125.7988"/><polygon fill="#181818" points="1051.3882,121.7988,1041.3882,125.7988,1051.3882,129.7988,1047.3882,125.7988" style="stroke:#181818;stroke-width:1;"/><text fill="#000000" font-family="sans-serif" font-size="13" lengthAdjust="spacing" textLength="108.7925" x="1047.3882" y="108.0566">caricaArchivio(...)</text></g><g class="message" data-participant-1="cvl" data-participant-2="cvl"><line style="stroke:#181818;stroke-width:1;" x1="499.6123" x2="541.6123" y1="155.1094" y2="155.1094"/><line style="stroke:#181818;stroke-width:1;" x1="541.6123" x2="541.6123" y1="155.1094" y2="168.1094"/><line style="stroke:#181818;stroke-width:1;" x1="500.6123" x2="541.6123" y1="168.1094" y2="168.1094"/><polygon fill="#181818" points="510.6123,164.1094,500.6123,168.1094,510.6123,172.1094,506.6123,168.1094" style="stroke:#181818;stroke-width:1;"/><text fill="#000000" font-family="sans-serif" font-size="13" lengthAdjust="spacing" textLength="76.978" x="506.6123" y="150.3672">inizialize(...)</text></g><g class="message" data-participant-1="a" data-participant-2="cvl"><polygon fill="#181818" points="487.6123,193.4199,497.6123,197.4199,487.6123,201.4199,491.6123,197.4199" style="stroke:#181818;stroke-width:1;"/><line style="stroke:#181818;stroke-width:1;" x1="75.8896" x2="493.6123" y1="197.4199" y2="197.4199"/><text fill="#000000" font-family="sans-serif" font-size="13" lengthAdjust="spacing" textLength="127.9878" x="82.8896" y="192.6777">Apre schermata libri</text></g><g class="message" data-participant-1="a" data-participant-2="cvl"><polygon fill="#181818" points="487.6123,222.7305,497.6123,226.7305,487.6123,230.7305,491.6123,226.7305" style="stroke:#181818;stroke-width:1;"/><line style="stroke:#181818;stroke-width:1;" x1="75.8896" x2="493.6123" y1="226.7305" y2="226.7305"/><text fill="#000000" font-family="sans-serif" font-size="13" lengthAdjust="spacing" textLength="113.0518" x="82.8896" y="221.9883">Seleziona un libro</text></g><g class="message" data-participant-1="a" data-participant-2="cvl"><polygon fill="#181818" points="487.6123,252.041,497.6123,256.041,487.6123,260.041,491.6123,256.041" style="stroke:#181818;stroke-width:1;"/><line style="stroke:#181818;stroke-width:1;" x1="75.8896" x2="493.6123" y1="256.041" y2="256.041"/><text fill="#000000" font-family="sans-serif" font-size="13" lengthAdjust="spacing" textLength="171.2153" x="82.8896" y="251.2988">Clicca il pulsante "Rimuovi"</text></g><g class="message" data-participant-1="cvl" data-participant-2="cvl"><line style="stroke:#181818;stroke-width:1;" x1="499.6123" x2="546.6123" y1="280.3516" y2="280.3516"/><line style="stroke:#181818;stroke-width:1;" x1="546.6123" x2="546.6123" y1="280.3516" y2="293.3516"/><line style="stroke:#181818;stroke-width:1;" x1="505.6123" x2="546.6123" y1="293.3516" y2="293.3516"/><polygon fill="#181818" points="515.6123,289.3516,505.6123,293.3516,515.6123,297.3516,511.6123,293.3516" style="stroke:#181818;stroke-width:1;"/><text fill="#000000" font-family="sans-serif" font-size="13" lengthAdjust="spacing" textLength="267.7759" x="511.6123" y="275.6094">funzioneOnActionPulsanteDiRimozione(...)</text></g><g class="message" data-participant-1="cvl" data-participant-2="a"><polygon fill="#181818" points="86.8896,323.6621,76.8896,327.6621,86.8896,331.6621,82.8896,327.6621" style="stroke:#181818;stroke-width:1;"/><line style="stroke:#181818;stroke-width:1;stroke-dasharray:2,2;" x1="80.8896" x2="498.6123" y1="327.6621" y2="327.6621"/><text fill="#000000" font-family="sans-serif" font-size="13" lengthAdjust="spacing" textLength="394.7227" x="92.8896" y="322.9199">Viene mostrata una nuova finestra con un messaggio di avviso</text></g><path d="M10,342.6621 L72.1387,342.6621 L72.1387,349.9727 L62.1387,359.9727 L10,359.9727 L10,342.6621" fill="#EEEEEE" style="stroke:#000000;stroke-width:1.5;"/><rect fill="none" height="250.4395" style="stroke:#000000;stroke-width:1.5;" width="1030.3882" x="10" y="342.6621"/><text fill="#000000" font-family="sans-serif" font-size="13" font-weight="bold" lengthAdjust="spacing" textLength="17.1387" x="25" y="356.2305">alt</text><text fill="#000000" font-family="sans-serif" font-size="11" font-weight="bold" lengthAdjust="spacing" textLength="209.854" x="87.1387" y="355.2969">[Annulla l'operazione cliccando "No"]</text><g class="message" data-participant-1="a" data-participant-2="cvl"><polygon fill="#181818" points="487.6123,377.2832,497.6123,381.2832,487.6123,385.2832,491.6123,381.2832" style="stroke:#181818;stroke-width:1;"/><line style="stroke:#181818;stroke-width:1;" x1="75.8896" x2="493.6123" y1="381.2832" y2="381.2832"/><text fill="#000000" font-family="sans-serif" font-size="13" lengthAdjust="spacing" textLength="293.2935" x="82.8896" y="376.541">Annulla l'operazione cliccando il pulsante "No"</text></g><g class="message" data-participant-1="cvl" data-participant-2="a"><polygon fill="#181818" points="86.8896,406.5938,76.8896,410.5938,86.8896,414.5938,82.8896,410.5938" style="stroke:#181818;stroke-width:1;"/><line style="stroke:#181818;stroke-width:1;stroke-dasharray:2,2;" x1="80.8896" x2="498.6123" y1="410.5938" y2="410.5938"/><text fill="#000000" font-family="sans-serif" font-size="13" lengthAdjust="spacing" textLength="280.7061" x="92.8896" y="405.8516">Viene chiusa la schermata di rimozione libro</text></g><line style="stroke:#000000;stroke-width:1;stroke-dasharray:2,2;" x1="10" x2="1040.3882" y1="419.5938" y2="419.5938"/><text fill="#000000" font-family="sans-serif" font-size="11" font-weight="bold" lengthAdjust="spacing" textLength="216.0684" x="15" y="430.2285">[Conferma l'operazione cliccando "Si"]</text><g class="message" data-participant-1="a" data-participant-2="cvl"><polygon fill="#181818" points="487.6123,450.8594,497.6123,454.8594,487.6123,458.8594,491.6123,454.8594" style="stroke:#181818;stroke-width:1;"/><line style="stroke:#181818;stroke-width:1;" x1="75.8896" x2="493.6123" y1="454.8594" y2="454.8594"/><text fill="#000000" font-family="sans-serif" font-size="13" lengthAdjust="spacing" textLength="300.3013" x="82.8896" y="450.1172">Conferma l'operazione cliccando il pulsante "Si"</text></g><g class="message" data-participant-1="cvl" data-participant-2="gl"><polygon fill="#181818" points="846.9722,480.1699,856.9722,484.1699,846.9722,488.1699,850.9722,484.1699" style="stroke:#181818;stroke-width:1;"/><line style="stroke:#181818;stroke-width:1;" x1="504.6123" x2="852.9722" y1="484.1699" y2="484.1699"/><text fill="#000000" font-family="sans-serif" font-size="13" lengthAdjust="spacing" textLength="98.8711" x="511.6123" y="479.4277">eliminaLibro(...)</text></g><g class="message" data-participant-1="gl" data-participant-2="gl"><line style="stroke:#181818;stroke-width:1;" x1="868.9722" x2="910.9722" y1="513.4805" y2="513.4805"/><line style="stroke:#181818;stroke-width:1;" x1="910.9722" x2="910.9722" y1="513.4805" y2="526.4805"/><line style="stroke:#181818;stroke-width:1;" x1="869.9722" x2="910.9722" y1="526.4805" y2="526.4805"/><polygon fill="#181818" points="879.9722,522.4805,869.9722,526.4805,879.9722,530.4805,875.9722,526.4805" style="stroke:#181818;stroke-width:1;"/><text fill="#000000" font-family="sans-serif" font-size="13" lengthAdjust="spacing" textLength="142.416" x="875.9722" y="508.7383">Viene eliminato il libro</text></g><g class="message" data-participant-1="gl" data-participant-2="cvl"><polygon fill="#181818" points="515.6123,551.791,505.6123,555.791,515.6123,559.791,511.6123,555.791" style="stroke:#181818;stroke-width:1;"/><line style="stroke:#181818;stroke-width:1;stroke-dasharray:2,2;" x1="509.6123" x2="862.9722" y1="555.791" y2="555.791"/><text fill="#000000" font-family="sans-serif" font-size="13" lengthAdjust="spacing" textLength="61.7056" x="521.6123" y="551.0488">Conferma</text></g><line style="stroke:#A80036;stroke-width:2;" x1="772.3882" x2="790.3882" y1="546.791" y2="564.791"/><line style="stroke:#A80036;stroke-width:2;" x1="772.3882" x2="790.3882" y1="564.791" y2="546.791"/><g class="message" data-participant-1="cvl" data-participant-2="a"><polygon fill="#181818" points="86.8896,581.1016,76.8896,585.1016,86.8896,589.1016,82.8896,585.1016" style="stroke:#181818;stroke-width:1;"/><line style="stroke:#181818;stroke-width:1;stroke-dasharray:2,2;" x1="80.8896" x2="498.6123" y1="585.1016" y2="585.1016"/><text fill="#000000" font-family="sans-serif" font-size="13" lengthAdjust="spacing" textLength="280.7061" x="92.8896" y="580.3594">Viene chiusa la schermata di rimozione libro</text></g><!--SRC=[fLAzJiCm49wJfpXr0ORs0JfK2aLYGO10Ohyur_GannVPJYJwz9pTbBQHW84bYltTp_VZ0aqK3rNNiUCGFUg900DWMVJe8nlkqKNOMWo1jdlQYejCZZuu36ZvSC03YwCdhZsdFZFQwyw4I49czuyKqgxlndQ6ttDjMI8PJ6XTbaMztDHhCEZPOENDdaUMszLgTLSMkdMvqSyQLCQ14p6Q89o0gbTXmUp9TnWHRDfxHj_9KXA2CBYCYIuymrlBHecmXNwmGUaHBDwu6sJanUNstU2o7I-kCb5_NgVg1zPgoT29bk8ZwfniM1wntE0QFfAvq4dE8h51SBe6OSUEqYKOSObaHo5Wsx90e_wD8mSfYuQkvwADK3atMAkARwGdVumBJ1Ra6e75iwY4iqs_LryvSEoSKTTSXg3zU66sClGd_PExXRfBDX3eWzgbiX_vlVCblx_AhmWUMtCyhVQIPNtcc5_a5CCyX_EvpSUYdNgFugO9CUyv2Sb5Cthvkac1oIVaIHVHjFOVjiqZ9jSKvHS0]--></g></svg>