<svg xmlns="http://www.w3.org/2000/svg" xmlns:xlink="http://www.w3.org/1999/xlink" contentStyleType="text/css" data-diagram-type="SEQUENCE" height="733px" preserveAspectRatio="none" style="width:985px;height:733px;background:#FFFFFF;" version="1.1" viewBox="0 0 985 733" width="985px" zoomAndPan="magnify"><defs/><g><g><title>LibriController</title><rect fill="#FFFFFF" height="34.3105" style="stroke:#181818;stroke-width:1;" width="10" x="494.6123" y="251.041"/></g><g><title>RimozioneController</title><rect fill="#FFFFFF" height="34.3105" style="stroke:#181818;stroke-width:1;" width="10" x="637.6875" y="376.2832"/></g><g><title>RimozioneController</title><rect fill="#FFFFFF" height="135.2422" style="stroke:#181818;stroke-width:1;" width="10" x="637.6875" y="492.1699"/></g><g><title>Libri</title><rect fill="#FFFFFF" height="71.6211" style="stroke:#181818;stroke-width:1;" width="10" x="805.3335" y="526.4805"/></g><rect fill="none" height="335.0605" style="stroke:#000000;stroke-width:1.5;" width="968.4404" x="10" y="300.3516"/><g><title>Amministratore</title><rect fill="#000000" fill-opacity="0.00000" height="570.9238" width="8" x="71.8896" y="81.4883"/><line style="stroke:#181818;stroke-width:0.5;stroke-dasharray:5,5;" x1="75" x2="75" y1="81.4883" y2="652.4121"/></g><g><title>LibriController</title><rect fill="#000000" fill-opacity="0.00000" height="570.9238" width="8" x="495.6123" y="81.4883"/><line style="stroke:#181818;stroke-width:0.5;stroke-dasharray:5,5;" x1="499.4824" x2="499.4824" y1="81.4883" y2="652.4121"/></g><g><title>RimozioneController</title><rect fill="#000000" fill-opacity="0.00000" height="570.9238" width="8" x="638.6875" y="81.4883"/><line style="stroke:#181818;stroke-width:0.5;stroke-dasharray:5,5;" x1="641.7422" x2="641.7422" y1="81.4883" y2="652.4121"/></g><g><title>Libro</title><rect fill="#000000" fill-opacity="0.00000" height="570.9238" width="8" x="749.9585" y="81.4883"/><line style="stroke:#181818;stroke-width:0.5;stroke-dasharray:5,5;" x1="753.6328" x2="753.6328" y1="81.4883" y2="652.4121"/></g><g><title>Libri</title><rect fill="#000000" fill-opacity="0.00000" height="570.9238" width="8" x="806.3335" y="81.4883"/><line style="stroke:#181818;stroke-width:0.5;stroke-dasharray:5,5;" x1="810.2842" x2="810.2842" y1="81.4883" y2="652.4121"/></g><g class="participant participant-head" data-participant="a"><text fill="#000000" font-family="sans-serif" font-size="14" lengthAdjust="spacing" textLength="105.7793" x="20" y="78.5352">Amministratore</text><ellipse cx="75.8896" cy="13.5" fill="#E2E2F0" rx="8" ry="8" style="stroke:#181818;stroke-width:0.5;"/><path d="M75.8896,21.5 L75.8896,48.5 M62.8896,29.5 L88.8896,29.5 M75.8896,48.5 L62.8896,63.5 M75.8896,48.5 L88.8896,63.5" fill="none" style="stroke:#181818;stroke-width:0.5;"/></g><g class="participant participant-tail" data-participant="a"><text fill="#000000" font-family="sans-serif" font-size="14" lengthAdjust="spacing" textLength="105.7793" x="20" y="664.9473">Amministratore</text><ellipse cx="75.8896" cy="676.4004" fill="#E2E2F0" rx="8" ry="8" style="stroke:#181818;stroke-width:0.5;"/><path d="M75.8896,684.4004 L75.8896,711.4004 M62.8896,692.4004 L88.8896,692.4004 M75.8896,711.4004 L62.8896,726.4004 M75.8896,711.4004 L88.8896,726.4004" fill="none" style="stroke:#181818;stroke-width:0.5;"/></g><g class="participant participant-head" data-participant="cvl"><rect fill="#E2E2F0" height="30.4883" rx="2.5" ry="2.5" style="stroke:#181818;stroke-width:0.5;" width="112.2598" x="443.4824" y="50"/><text fill="#000000" font-family="sans-serif" font-size="14" lengthAdjust="spacing" textLength="98.2598" x="450.4824" y="70.5352">LibriController</text></g><g class="participant participant-tail" data-participant="cvl"><rect fill="#E2E2F0" height="30.4883" rx="2.5" ry="2.5" style="stroke:#181818;stroke-width:0.5;" width="112.2598" x="443.4824" y="651.4121"/><text fill="#000000" font-family="sans-serif" font-size="14" lengthAdjust="spacing" textLength="98.2598" x="450.4824" y="671.9473">LibriController</text></g><g class="participant participant-head" data-participant="rcl"><rect fill="#E2E2F0" height="30.4883" rx="2.5" ry="2.5" style="stroke:#181818;stroke-width:0.5;" width="153.8906" x="565.7422" y="50"/><text fill="#000000" font-family="sans-serif" font-size="14" lengthAdjust="spacing" textLength="139.8906" x="572.7422" y="70.5352">RimozioneController</text></g><g class="participant participant-tail" data-participant="rcl"><rect fill="#E2E2F0" height="30.4883" rx="2.5" ry="2.5" style="stroke:#181818;stroke-width:0.5;" width="153.8906" x="565.7422" y="651.4121"/><text fill="#000000" font-family="sans-serif" font-size="14" lengthAdjust="spacing" textLength="139.8906" x="572.7422" y="671.9473">RimozioneController</text></g><g class="participant participant-head" data-participant="l"><rect fill="#E2E2F0" height="30.4883" rx="2.5" ry="2.5" style="stroke:#181818;stroke-width:0.5;" width="48.6514" x="729.6328" y="50"/><text fill="#000000" font-family="sans-serif" font-size="14" lengthAdjust="spacing" textLength="34.6514" x="736.6328" y="70.5352">Libro</text></g><g class="participant participant-tail" data-participant="l"><rect fill="#E2E2F0" height="30.4883" rx="2.5" ry="2.5" style="stroke:#181818;stroke-width:0.5;" width="48.6514" x="729.6328" y="651.4121"/><text fill="#000000" font-family="sans-serif" font-size="14" lengthAdjust="spacing" textLength="34.6514" x="736.6328" y="671.9473">Libro</text></g><g class="participant participant-head" data-participant="gl"><rect fill="#E2E2F0" height="30.4883" rx="2.5" ry="2.5" style="stroke:#181818;stroke-width:0.5;" width="44.0986" x="788.2842" y="50"/><text fill="#000000" font-family="sans-serif" font-size="14" lengthAdjust="spacing" textLength="30.0986" x="795.2842" y="70.5352">Libri</text></g><g class="participant participant-tail" data-participant="gl"><rect fill="#E2E2F0" height="30.4883" rx="2.5" ry="2.5" style="stroke:#181818;stroke-width:0.5;" width="44.0986" x="788.2842" y="651.4121"/><text fill="#000000" font-family="sans-serif" font-size="14" lengthAdjust="spacing" textLength="30.0986" x="795.2842" y="671.9473">Libri</text></g><g><title>LibriController</title><rect fill="#FFFFFF" height="34.3105" style="stroke:#181818;stroke-width:1;" width="10" x="494.6123" y="251.041"/></g><g><title>RimozioneController</title><rect fill="#FFFFFF" height="34.3105" style="stroke:#181818;stroke-width:1;" width="10" x="637.6875" y="376.2832"/></g><g><title>RimozioneController</title><rect fill="#FFFFFF" height="135.2422" style="stroke:#181818;stroke-width:1;" width="10" x="637.6875" y="492.1699"/></g><g><title>Libri</title><rect fill="#FFFFFF" height="71.6211" style="stroke:#181818;stroke-width:1;" width="10" x="805.3335" y="526.4805"/></g><g class="message" data-participant-1="cvl" data-participant-2="cvl"><line style="stroke:#181818;stroke-width:1;" x1="499.6123" x2="541.6123" y1="112.7988" y2="112.7988"/><line style="stroke:#181818;stroke-width:1;" x1="541.6123" x2="541.6123" y1="112.7988" y2="125.7988"/><line style="stroke:#181818;stroke-width:1;" x1="500.6123" x2="541.6123" y1="125.7988" y2="125.7988"/><polygon fill="#181818" points="510.6123,121.7988,500.6123,125.7988,510.6123,129.7988,506.6123,125.7988" style="stroke:#181818;stroke-width:1;"/><text fill="#000000" font-family="sans-serif" font-size="13" lengthAdjust="spacing" textLength="74.3882" x="506.6123" y="108.0566">initialize(...)</text></g><g class="message" data-participant-1="a" data-participant-2="cvl"><polygon fill="#181818" points="487.6123,151.1094,497.6123,155.1094,487.6123,159.1094,491.6123,155.1094" style="stroke:#181818;stroke-width:1;"/><line style="stroke:#181818;stroke-width:1;" x1="75.8896" x2="493.6123" y1="155.1094" y2="155.1094"/><text fill="#000000" font-family="sans-serif" font-size="13" lengthAdjust="spacing" textLength="127.9878" x="82.8896" y="150.3672">Apre schermata libri</text></g><g class="message" data-participant-1="a" data-participant-2="cvl"><polygon fill="#181818" points="487.6123,180.4199,497.6123,184.4199,487.6123,188.4199,491.6123,184.4199" style="stroke:#181818;stroke-width:1;"/><line style="stroke:#181818;stroke-width:1;" x1="75.8896" x2="493.6123" y1="184.4199" y2="184.4199"/><text fill="#000000" font-family="sans-serif" font-size="13" lengthAdjust="spacing" textLength="113.0518" x="82.8896" y="179.6777">Seleziona un libro</text></g><g class="message" data-participant-1="a" data-participant-2="cvl"><polygon fill="#181818" points="487.6123,209.7305,497.6123,213.7305,487.6123,217.7305,491.6123,213.7305" style="stroke:#181818;stroke-width:1;"/><line style="stroke:#181818;stroke-width:1;" x1="75.8896" x2="493.6123" y1="213.7305" y2="213.7305"/><text fill="#000000" font-family="sans-serif" font-size="13" lengthAdjust="spacing" textLength="171.2153" x="82.8896" y="208.9883">Clicca il pulsante "Rimuovi"</text></g><g class="message" data-participant-1="cvl" data-participant-2="cvl"><line style="stroke:#181818;stroke-width:1;" x1="499.6123" x2="546.6123" y1="238.041" y2="238.041"/><line style="stroke:#181818;stroke-width:1;" x1="546.6123" x2="546.6123" y1="238.041" y2="251.041"/><line style="stroke:#181818;stroke-width:1;" x1="505.6123" x2="546.6123" y1="251.041" y2="251.041"/><polygon fill="#181818" points="515.6123,247.041,505.6123,251.041,515.6123,255.041,511.6123,251.041" style="stroke:#181818;stroke-width:1;"/><text fill="#000000" font-family="sans-serif" font-size="13" lengthAdjust="spacing" textLength="107.98" x="511.6123" y="233.2988">onDeleteBook(...)</text></g><g class="message" data-participant-1="cvl" data-participant-2="a"><polygon fill="#181818" points="86.8896,281.3516,76.8896,285.3516,86.8896,289.3516,82.8896,285.3516" style="stroke:#181818;stroke-width:1;"/><line style="stroke:#181818;stroke-width:1;stroke-dasharray:2,2;" x1="80.8896" x2="498.6123" y1="285.3516" y2="285.3516"/><text fill="#000000" font-family="sans-serif" font-size="13" lengthAdjust="spacing" textLength="394.7227" x="92.8896" y="280.6094">Viene mostrata una nuova finestra con un messaggio di avviso</text></g><path d="M10,300.3516 L72.1387,300.3516 L72.1387,307.6621 L62.1387,317.6621 L10,317.6621 L10,300.3516" fill="#EEEEEE" style="stroke:#000000;stroke-width:1.5;"/><rect fill="none" height="335.0605" style="stroke:#000000;stroke-width:1.5;" width="968.4404" x="10" y="300.3516"/><text fill="#000000" font-family="sans-serif" font-size="13" font-weight="bold" lengthAdjust="spacing" textLength="17.1387" x="25" y="313.9199">alt</text><text fill="#000000" font-family="sans-serif" font-size="11" font-weight="bold" lengthAdjust="spacing" textLength="209.854" x="87.1387" y="312.9863">[Annulla l'operazione cliccando "No"]</text><g class="message" data-participant-1="a" data-participant-2="rcl"><polygon fill="#181818" points="630.6875,334.9727,640.6875,338.9727,630.6875,342.9727,634.6875,338.9727" style="stroke:#181818;stroke-width:1;"/><line style="stroke:#181818;stroke-width:1;" x1="75.8896" x2="636.6875" y1="338.9727" y2="338.9727"/><text fill="#000000" font-family="sans-serif" font-size="13" lengthAdjust="spacing" textLength="293.2935" x="82.8896" y="334.2305">Annulla l'operazione cliccando il pulsante "No"</text></g><g class="message" data-participant-1="rcl" data-participant-2="rcl"><line style="stroke:#181818;stroke-width:1;" x1="642.6875" x2="689.6875" y1="363.2832" y2="363.2832"/><line style="stroke:#181818;stroke-width:1;" x1="689.6875" x2="689.6875" y1="363.2832" y2="376.2832"/><line style="stroke:#181818;stroke-width:1;" x1="648.6875" x2="689.6875" y1="376.2832" y2="376.2832"/><polygon fill="#181818" points="658.6875,372.2832,648.6875,376.2832,658.6875,380.2832,654.6875,376.2832" style="stroke:#181818;stroke-width:1;"/><text fill="#000000" font-family="sans-serif" font-size="13" lengthAdjust="spacing" textLength="78.749" x="654.6875" y="358.541">onCancel(...)</text></g><g class="message" data-participant-1="rcl" data-participant-2="a"><polygon fill="#181818" points="86.8896,406.5938,76.8896,410.5938,86.8896,414.5938,82.8896,410.5938" style="stroke:#181818;stroke-width:1;"/><line style="stroke:#181818;stroke-width:1;stroke-dasharray:2,2;" x1="80.8896" x2="641.6875" y1="410.5938" y2="410.5938"/><text fill="#000000" font-family="sans-serif" font-size="13" lengthAdjust="spacing" textLength="280.7061" x="92.8896" y="405.8516">Viene chiusa la schermata di rimozione libro</text></g><line style="stroke:#000000;stroke-width:1;stroke-dasharray:2,2;" x1="10" x2="978.4404" y1="419.5938" y2="419.5938"/><text fill="#000000" font-family="sans-serif" font-size="11" font-weight="bold" lengthAdjust="spacing" textLength="216.0684" x="15" y="430.2285">[Conferma l'operazione cliccando "Si"]</text><g class="message" data-participant-1="a" data-participant-2="rcl"><polygon fill="#181818" points="630.6875,450.8594,640.6875,454.8594,630.6875,458.8594,634.6875,454.8594" style="stroke:#181818;stroke-width:1;"/><line style="stroke:#181818;stroke-width:1;" x1="75.8896" x2="636.6875" y1="454.8594" y2="454.8594"/><text fill="#000000" font-family="sans-serif" font-size="13" lengthAdjust="spacing" textLength="300.3013" x="82.8896" y="450.1172">Conferma l'operazione cliccando il pulsante "Si"</text></g><g class="message" data-participant-1="rcl" data-participant-2="rcl"><line style="stroke:#181818;stroke-width:1;" x1="642.6875" x2="689.6875" y1="479.1699" y2="479.1699"/><line style="stroke:#181818;stroke-width:1;" x1="689.6875" x2="689.6875" y1="479.1699" y2="492.1699"/><line style="stroke:#181818;stroke-width:1;" x1="648.6875" x2="689.6875" y1="492.1699" y2="492.1699"/><polygon fill="#181818" points="658.6875,488.1699,648.6875,492.1699,658.6875,496.1699,654.6875,492.1699" style="stroke:#181818;stroke-width:1;"/><text fill="#000000" font-family="sans-serif" font-size="13" lengthAdjust="spacing" textLength="87.8896" x="654.6875" y="474.4277">onConfirm(...)</text></g><g class="message" data-participant-1="rcl" data-participant-2="gl"><polygon fill="#181818" points="793.3335,522.4805,803.3335,526.4805,793.3335,530.4805,797.3335,526.4805" style="stroke:#181818;stroke-width:1;"/><line style="stroke:#181818;stroke-width:1;" x1="647.6875" x2="799.3335" y1="526.4805" y2="526.4805"/><text fill="#000000" font-family="sans-serif" font-size="13" lengthAdjust="spacing" textLength="68.5483" x="654.6875" y="521.7383">rimuovi(...)</text></g><g class="message" data-participant-1="gl" data-participant-2="gl"><line style="stroke:#181818;stroke-width:1;" x1="815.3335" x2="857.3335" y1="555.791" y2="555.791"/><line style="stroke:#181818;stroke-width:1;" x1="857.3335" x2="857.3335" y1="555.791" y2="568.791"/><line style="stroke:#181818;stroke-width:1;" x1="816.3335" x2="857.3335" y1="568.791" y2="568.791"/><polygon fill="#181818" points="826.3335,564.791,816.3335,568.791,826.3335,572.791,822.3335,568.791" style="stroke:#181818;stroke-width:1;"/><text fill="#000000" font-family="sans-serif" font-size="13" lengthAdjust="spacing" textLength="134.1069" x="822.3335" y="551.0488">Viene rimosso il libro</text></g><g class="message" data-participant-1="gl" data-participant-2="rcl"><polygon fill="#181818" points="658.6875,594.1016,648.6875,598.1016,658.6875,602.1016,654.6875,598.1016" style="stroke:#181818;stroke-width:1;"/><line style="stroke:#181818;stroke-width:1;stroke-dasharray:2,2;" x1="652.6875" x2="809.3335" y1="598.1016" y2="598.1016"/><text fill="#000000" font-family="sans-serif" font-size="13" lengthAdjust="spacing" textLength="61.7056" x="664.6875" y="593.3594">Conferma</text></g><line style="stroke:#A80036;stroke-width:2;" x1="744.9585" x2="762.9585" y1="589.1016" y2="607.1016"/><line style="stroke:#A80036;stroke-width:2;" x1="744.9585" x2="762.9585" y1="607.1016" y2="589.1016"/><g class="message" data-participant-1="rcl" data-participant-2="a"><polygon fill="#181818" points="86.8896,623.4121,76.8896,627.4121,86.8896,631.4121,82.8896,627.4121" style="stroke:#181818;stroke-width:1;"/><line style="stroke:#181818;stroke-width:1;stroke-dasharray:2,2;" x1="80.8896" x2="641.6875" y1="627.4121" y2="627.4121"/><text fill="#000000" font-family="sans-serif" font-size="13" lengthAdjust="spacing" textLength="280.7061" x="92.8896" y="622.6699">Viene chiusa la schermata di rimozione libro</text></g><!--SRC=[hPBFQiCm3CRFoLE8NhOTsWVe8T1rnx732hjhZfgAELQmdS3wz9ETXYRxGo-348ZqIVf-YWeqKJpisfOTX-XHlmWm09P5XpwouGvTX6T-zxmN5xrOIpufp62NcbTkvSpYQAdpnlxi9IdpIvnJlB5bMMZxTQMlBQYpo6ZvJFURpUQXBF2Is7NgDPWJ-HOZWatrr-o1B2Kx2BtBERdczfQDGM0BNM-33YTOgVrU1bxDHujxqYwH7aK-fk4cye1QaFcpTbtX5jwO744hUObf9eBJVWX7TfI2OCGbAos5W4t30hNI3WC7DLRJig_EiH5splNMAjcTTEGnBnTCzkvgWTMBgDi4fJlUtb8lOCTABODr1RbQt1wT8Nl1BAwW-GTcyPpKdBWFEWndVq21_7G4qyhdQ6Ed_90D17eenrJw9-21vu2tv0l2iJIPhYO-BMVVJe2_yLMDAlru23yNqMHTqLnqunuIS0Xv-4IS9Tyyvt2T3a4-8VUPxIKt_g_zagkByWi0]--></g></svg>