<svg xmlns="http://www.w3.org/2000/svg" xmlns:xlink="http://www.w3.org/1999/xlink" contentStyleType="text/css" data-diagram-type="SEQUENCE" height="534px" preserveAspectRatio="none" style="width:918px;height:534px;background:#FFFFFF;" version="1.1" viewBox="0 0 918 534" width="918px" zoomAndPan="magnify"><defs/><g><g><title>UtentiController</title><rect fill="#FFFFFF" height="100.9316" style="stroke:#181818;stroke-width:1;" width="10" x="419.2554" y="267.3516"/></g><g><title>Utenti</title><rect fill="#FFFFFF" height="71.6211" style="stroke:#181818;stroke-width:1;" width="10" x="787.377" y="267.3516"/></g><rect fill="none" height="237.4844" style="stroke:#000000;stroke-width:1.5;" width="902.3877" x="10" y="199.4199"/><rect fill="none" height="46.6211" style="stroke:#000000;stroke-width:1.5;" width="475.6899" x="20" y="383.2832"/><g><title>Amministratore</title><rect fill="#000000" fill-opacity="0.00000" height="372.416" width="8" x="81.8896" y="81.4883"/><line style="stroke:#181818;stroke-width:0.5;stroke-dasharray:5,5;" x1="85" x2="85" y1="81.4883" y2="453.9043"/></g><g><title>UtentiController</title><rect fill="#000000" fill-opacity="0.00000" height="372.416" width="8" x="420.2554" y="81.4883"/><line style="stroke:#181818;stroke-width:0.5;stroke-dasharray:5,5;" x1="423.8208" x2="423.8208" y1="81.4883" y2="453.9043"/></g><g><title>Utenti</title><rect fill="#000000" fill-opacity="0.00000" height="372.416" width="8" x="788.377" y="81.4883"/><line style="stroke:#181818;stroke-width:0.5;stroke-dasharray:5,5;" x1="792.0229" x2="792.0229" y1="81.4883" y2="453.9043"/></g><g class="participant participant-head" data-participant="a"><text fill="#000000" font-family="sans-serif" font-size="14" lengthAdjust="spacing" textLength="105.7793" x="30" y="78.5352">Amministratore</text><ellipse cx="85.8896" cy="13.5" fill="#E2E2F0" rx="8" ry="8" style="stroke:#181818;stroke-width:0.5;"/><path d="M85.8896,21.5 L85.8896,48.5 M72.8896,29.5 L98.8896,29.5 M85.8896,48.5 L72.8896,63.5 M85.8896,48.5 L98.8896,63.5" fill="none" style="stroke:#181818;stroke-width:0.5;"/></g><g class="participant participant-tail" data-participant="a"><text fill="#000000" font-family="sans-serif" font-size="14" lengthAdjust="spacing" textLength="105.7793" x="30" y="466.4395">Amministratore</text><ellipse cx="85.8896" cy="477.8926" fill="#E2E2F0" rx="8" ry="8" style="stroke:#181818;stroke-width:0.5;"/><path d="M85.8896,485.8926 L85.8896,512.8926 M72.8896,493.8926 L98.8896,493.8926 M85.8896,512.8926 L72.8896,527.8926 M85.8896,512.8926 L98.8896,527.8926" fill="none" style="stroke:#181818;stroke-width:0.5;"/></g><g class="participant participant-head" data-participant="cvu"><rect fill="#E2E2F0" height="30.4883" rx="2.5" ry="2.5" style="stroke:#181818;stroke-width:0.5;" width="122.8691" x="362.8208" y="50"/><text fill="#000000" font-family="sans-serif" font-size="14" lengthAdjust="spacing" textLength="108.8691" x="369.8208" y="70.5352">UtentiController</text></g><g class="participant participant-tail" data-participant="cvu"><rect fill="#E2E2F0" height="30.4883" rx="2.5" ry="2.5" style="stroke:#181818;stroke-width:0.5;" width="122.8691" x="362.8208" y="452.9043"/><text fill="#000000" font-family="sans-serif" font-size="14" lengthAdjust="spacing" textLength="108.8691" x="369.8208" y="473.4395">UtentiController</text></g><g class="participant participant-head" data-participant="gu"><rect fill="#E2E2F0" height="30.4883" rx="2.5" ry="2.5" style="stroke:#181818;stroke-width:0.5;" width="54.708" x="765.0229" y="50"/><text fill="#000000" font-family="sans-serif" font-size="14" lengthAdjust="spacing" textLength="40.708" x="772.0229" y="70.5352">Utenti</text></g><g class="participant participant-tail" data-participant="gu"><rect fill="#E2E2F0" height="30.4883" rx="2.5" ry="2.5" style="stroke:#181818;stroke-width:0.5;" width="54.708" x="765.0229" y="452.9043"/><text fill="#000000" font-family="sans-serif" font-size="14" lengthAdjust="spacing" textLength="40.708" x="772.0229" y="473.4395">Utenti</text></g><g><title>UtentiController</title><rect fill="#FFFFFF" height="100.9316" style="stroke:#181818;stroke-width:1;" width="10" x="419.2554" y="267.3516"/></g><g><title>Utenti</title><rect fill="#FFFFFF" height="71.6211" style="stroke:#181818;stroke-width:1;" width="10" x="787.377" y="267.3516"/></g><g class="message" data-participant-1="cvu" data-participant-2="cvu"><line style="stroke:#181818;stroke-width:1;" x1="424.2554" x2="466.2554" y1="112.7988" y2="112.7988"/><line style="stroke:#181818;stroke-width:1;" x1="466.2554" x2="466.2554" y1="112.7988" y2="125.7988"/><line style="stroke:#181818;stroke-width:1;" x1="425.2554" x2="466.2554" y1="125.7988" y2="125.7988"/><polygon fill="#181818" points="435.2554,121.7988,425.2554,125.7988,435.2554,129.7988,431.2554,125.7988" style="stroke:#181818;stroke-width:1;"/><text fill="#000000" font-family="sans-serif" font-size="13" lengthAdjust="spacing" textLength="74.3882" x="431.2554" y="108.0566">initialize(...)</text></g><g class="message" data-participant-1="a" data-participant-2="cvu"><polygon fill="#181818" points="412.2554,151.1094,422.2554,155.1094,412.2554,159.1094,416.2554,155.1094" style="stroke:#181818;stroke-width:1;"/><line style="stroke:#181818;stroke-width:1;" x1="85.8896" x2="418.2554" y1="155.1094" y2="155.1094"/><text fill="#000000" font-family="sans-serif" font-size="13" lengthAdjust="spacing" textLength="140.0737" x="92.8896" y="150.3672">Apre schermata utenti</text></g><g class="message" data-participant-1="a" data-participant-2="cvu"><polygon fill="#181818" points="412.2554,180.4199,422.2554,184.4199,412.2554,188.4199,416.2554,184.4199" style="stroke:#181818;stroke-width:1;"/><line style="stroke:#181818;stroke-width:1;" x1="85.8896" x2="418.2554" y1="184.4199" y2="184.4199"/><text fill="#000000" font-family="sans-serif" font-size="13" lengthAdjust="spacing" textLength="174.332" x="92.8896" y="179.6777">Seleziona la barra di ricerca</text></g><path d="M10,199.4199 L84.4468,199.4199 L84.4468,206.7305 L74.4468,216.7305 L10,216.7305 L10,199.4199" fill="#EEEEEE" style="stroke:#000000;stroke-width:1.5;"/><rect fill="none" height="237.4844" style="stroke:#000000;stroke-width:1.5;" width="902.3877" x="10" y="199.4199"/><text fill="#000000" font-family="sans-serif" font-size="13" font-weight="bold" lengthAdjust="spacing" textLength="29.4468" x="25" y="212.9883">loop</text><text fill="#000000" font-family="sans-serif" font-size="11" font-weight="bold" lengthAdjust="spacing" textLength="149.1016" x="99.4468" y="212.0547">[Inserimento sottostringa]</text><g class="message" data-participant-1="a" data-participant-2="cvu"><polygon fill="#181818" points="412.2554,234.041,422.2554,238.041,412.2554,242.041,416.2554,238.041" style="stroke:#181818;stroke-width:1;"/><line style="stroke:#181818;stroke-width:1;" x1="85.8896" x2="418.2554" y1="238.041" y2="238.041"/><text fill="#000000" font-family="sans-serif" font-size="13" lengthAdjust="spacing" textLength="278.897" x="92.8896" y="233.2988">Digita una sottostringa nella barra di ricerca</text></g><g class="message" data-participant-1="cvu" data-participant-2="gu"><polygon fill="#181818" points="775.377,263.3516,785.377,267.3516,775.377,271.3516,779.377,267.3516" style="stroke:#181818;stroke-width:1;"/><line style="stroke:#181818;stroke-width:1;" x1="429.2554" x2="781.377" y1="267.3516" y2="267.3516"/><text fill="#000000" font-family="sans-serif" font-size="13" lengthAdjust="spacing" textLength="100.731" x="436.2554" y="262.6094">ricercaUtenti(...)</text></g><g class="message" data-participant-1="gu" data-participant-2="gu"><line style="stroke:#181818;stroke-width:1;" x1="797.377" x2="839.377" y1="296.6621" y2="296.6621"/><line style="stroke:#181818;stroke-width:1;" x1="839.377" x2="839.377" y1="296.6621" y2="309.6621"/><line style="stroke:#181818;stroke-width:1;" x1="798.377" x2="839.377" y1="309.6621" y2="309.6621"/><polygon fill="#181818" points="808.377,305.6621,798.377,309.6621,808.377,313.6621,804.377,309.6621" style="stroke:#181818;stroke-width:1;"/><text fill="#000000" font-family="sans-serif" font-size="13" lengthAdjust="spacing" textLength="86.0107" x="804.377" y="291.9199">Ricerca utenti</text></g><g class="message" data-participant-1="gu" data-participant-2="cvu"><polygon fill="#181818" points="440.2554,334.9727,430.2554,338.9727,440.2554,342.9727,436.2554,338.9727" style="stroke:#181818;stroke-width:1;"/><line style="stroke:#181818;stroke-width:1;stroke-dasharray:2,2;" x1="434.2554" x2="791.377" y1="338.9727" y2="338.9727"/><text fill="#000000" font-family="sans-serif" font-size="13" lengthAdjust="spacing" textLength="334.1216" x="446.2554" y="334.2305">Restituisce gli utenti che rispettano i criteri di ricerca</text></g><g class="message" data-participant-1="cvu" data-participant-2="a"><polygon fill="#181818" points="96.8896,364.2832,86.8896,368.2832,96.8896,372.2832,92.8896,368.2832" style="stroke:#181818;stroke-width:1;"/><line style="stroke:#181818;stroke-width:1;stroke-dasharray:2,2;" x1="90.8896" x2="423.2554" y1="368.2832" y2="368.2832"/><text fill="#000000" font-family="sans-serif" font-size="13" lengthAdjust="spacing" textLength="309.3657" x="102.8896" y="363.541">Mostra gli utenti che rispettano i criteri di ricerca</text></g><path d="M20,383.2832 L103.0098,383.2832 L103.0098,390.5938 L93.0098,400.5938 L20,400.5938 L20,383.2832" fill="#EEEEEE" style="stroke:#000000;stroke-width:1.5;"/><rect fill="none" height="46.6211" style="stroke:#000000;stroke-width:1.5;" width="475.6899" x="20" y="383.2832"/><text fill="#000000" font-family="sans-serif" font-size="13" font-weight="bold" lengthAdjust="spacing" textLength="38.0098" x="35" y="396.8516">break</text><text fill="#000000" font-family="sans-serif" font-size="11" font-weight="bold" lengthAdjust="spacing" textLength="119.6519" x="118.0098" y="395.918">[Seleziona un utente]</text><g class="message" data-participant-1="a" data-participant-2="cvu"><polygon fill="#181818" points="412.2554,417.9043,422.2554,421.9043,412.2554,425.9043,416.2554,421.9043" style="stroke:#181818;stroke-width:1;"/><line style="stroke:#181818;stroke-width:1;" x1="85.8896" x2="418.2554" y1="421.9043" y2="421.9043"/><text fill="#000000" font-family="sans-serif" font-size="13" lengthAdjust="spacing" textLength="118.187" x="92.8896" y="417.1621">clicca su un utente</text></g><!--SRC=[bLBBJiGm33odN-7Rme7zW3qWhU320I4juWEygHKiqgHod1xswt7QiW_41QcAbCnuF1xNeTSii1y6JbnKq6u4M00xDw8eUnunANme9UMdd5HoZ2IDugVw5wb1eNQTwvmn7Xxjs86fAsFa4zrjjzlxpk4Ax4VhL_mdoO2AK6U92_nEaKwS4q94EA88GiyWx4ayjXQRjv0OfXojs5HWOafaxGe9QuQQmADDfIG_68R0MLBhPffdgPZp22zptM0UCfIicYqIJW6XSsTBpnouEJLFDvH4yK-FImh1AjUd9QOr1sSBu0cLbZYlxc6-kh0M7vRYSq8Bj7WwK57MoiLRMUILC-SXN4PInPJ17YmJc-_MdklfLq-J15C6tC5h6m__BtgbsUQo5_iszl_qtDP9ZLsBRq7s6A65RuIZ47vTxTosDtSbc9DP5-0ZUmkYr0jkCANUsindzmq0]--></g></svg>