<svg xmlns="http://www.w3.org/2000/svg" xmlns:xlink="http://www.w3.org/1999/xlink" contentStyleType="text/css" data-diagram-type="SEQUENCE" height="1220px" preserveAspectRatio="none" style="width:1431px;height:1220px;background:#FFFFFF;" version="1.1" viewBox="0 0 1431 1220" width="1431px" zoomAndPan="magnify"><defs/><g><g><title>PrestitiController</title><rect fill="#FFFFFF" height="34.3105" style="stroke:#181818;stroke-width:1;" width="10" x="435.4395" y="221.7305"/></g><g><title>RegistrazionePrestitoController</title><rect fill="#FFFFFF" height="135.2422" style="stroke:#181818;stroke-width:1;" width="10" x="648.3716" y="376.2832"/></g><g><title>RegistrazionePrestitoController</title><rect fill="#FFFFFF" height="100.9316" style="stroke:#181818;stroke-width:1;" width="10" x="648.3716" y="1020.0938"/></g><g><title>Prestito</title><rect fill="#FFFFFF" height="71.6211" style="stroke:#181818;stroke-width:1;" width="10" x="880.2344" y="410.5938"/></g><g><title>Prestiti</title><rect fill="#FFFFFF" height="71.6211" style="stroke:#181818;stroke-width:1;" width="10" x="1248.3184" y="1020.0938"/></g><rect fill="none" height="309.1055" style="stroke:#000000;stroke-width:1.5;" width="998.457" x="10" y="271.041"/><rect fill="none" height="46.6211" style="stroke:#000000;stroke-width:1.5;" width="397.6768" x="530.3188" y="526.5254"/><rect fill="none" height="120.1973" style="stroke:#000000;stroke-width:1.5;" width="1035.811" x="10" y="665.7676"/><rect fill="none" height="120.1973" style="stroke:#000000;stroke-width:1.5;" width="1159.9194" x="10" y="871.5859"/><g><title>Amministratore</title><rect fill="#000000" fill-opacity="0.00000" height="1057.5371" width="8" x="71.8896" y="81.4883"/><line style="stroke:#181818;stroke-width:0.5;stroke-dasharray:5,5;" x1="75" x2="75" y1="81.4883" y2="1139.0254"/></g><g><title>PrestitiController</title><rect fill="#000000" fill-opacity="0.00000" height="1057.5371" width="8" x="436.4395" y="81.4883"/><line style="stroke:#181818;stroke-width:0.5;stroke-dasharray:5,5;" x1="439.874" x2="439.874" y1="81.4883" y2="1139.0254"/></g><g><title>RegistrazionePrestitoController</title><rect fill="#000000" fill-opacity="0.00000" height="1057.5371" width="8" x="649.3716" y="81.4883"/><line style="stroke:#181818;stroke-width:0.5;stroke-dasharray:5,5;" x1="653.3188" x2="653.3188" y1="81.4883" y2="1139.0254"/></g><g><title>Prestito</title><rect fill="#000000" fill-opacity="0.00000" height="1057.5371" width="8" x="881.2344" y="81.4883"/><line style="stroke:#181818;stroke-width:0.5;stroke-dasharray:5,5;" x1="884.4731" x2="884.4731" y1="81.4883" y2="1139.0254"/></g><g><title>Utenti</title><rect fill="#000000" fill-opacity="0.00000" height="1057.5371" width="8" x="1004.457" y="81.4883"/><line style="stroke:#181818;stroke-width:0.5;stroke-dasharray:5,5;" x1="1008.103" x2="1008.103" y1="81.4883" y2="1139.0254"/></g><g><title>Libri</title><rect fill="#000000" fill-opacity="0.00000" height="1057.5371" width="8" x="1133.8701" y="81.4883"/><line style="stroke:#181818;stroke-width:0.5;stroke-dasharray:5,5;" x1="1137.8208" x2="1137.8208" y1="81.4883" y2="1139.0254"/></g><g><title>Prestiti</title><rect fill="#000000" fill-opacity="0.00000" height="1057.5371" width="8" x="1249.3184" y="81.4883"/><line style="stroke:#181818;stroke-width:0.5;stroke-dasharray:5,5;" x1="1252.8335" x2="1252.8335" y1="81.4883" y2="1139.0254"/></g><g class="participant participant-head" data-participant="a"><text fill="#000000" font-family="sans-serif" font-size="14" lengthAdjust="spacing" textLength="105.7793" x="20" y="78.5352">Amministratore</text><ellipse cx="75.8896" cy="13.5" fill="#E2E2F0" rx="8" ry="8" style="stroke:#181818;stroke-width:0.5;"/><path d="M75.8896,21.5 L75.8896,48.5 M62.8896,29.5 L88.8896,29.5 M75.8896,48.5 L62.8896,63.5 M75.8896,48.5 L88.8896,63.5" fill="none" style="stroke:#181818;stroke-width:0.5;"/></g><g class="participant participant-tail" data-participant="a"><text fill="#000000" font-family="sans-serif" font-size="14" lengthAdjust="spacing" textLength="105.7793" x="20" y="1151.5605">Amministratore</text><ellipse cx="75.8896" cy="1163.0137" fill="#E2E2F0" rx="8" ry="8" style="stroke:#181818;stroke-width:0.5;"/><path d="M75.8896,1171.0137 L75.8896,1198.0137 M62.8896,1179.0137 L88.8896,1179.0137 M75.8896,1198.0137 L62.8896,1213.0137 M75.8896,1198.0137 L88.8896,1213.0137" fill="none" style="stroke:#181818;stroke-width:0.5;"/></g><g class="participant participant-head" data-participant="cvp"><rect fill="#E2E2F0" height="30.4883" rx="2.5" ry="2.5" style="stroke:#181818;stroke-width:0.5;" width="129.1309" x="375.874" y="50"/><text fill="#000000" font-family="sans-serif" font-size="14" lengthAdjust="spacing" textLength="115.1309" x="382.874" y="70.5352">PrestitiController</text></g><g class="participant participant-tail" data-participant="cvp"><rect fill="#E2E2F0" height="30.4883" rx="2.5" ry="2.5" style="stroke:#181818;stroke-width:0.5;" width="129.1309" x="375.874" y="1138.0254"/><text fill="#000000" font-family="sans-serif" font-size="14" lengthAdjust="spacing" textLength="115.1309" x="382.874" y="1158.5605">PrestitiController</text></g><g class="participant participant-head" data-participant="rpc"><rect fill="#E2E2F0" height="30.4883" rx="2.5" ry="2.5" style="stroke:#181818;stroke-width:0.5;" width="226.1055" x="540.3188" y="50"/><text fill="#000000" font-family="sans-serif" font-size="14" lengthAdjust="spacing" textLength="212.1055" x="547.3188" y="70.5352">RegistrazionePrestitoController</text></g><g class="participant participant-tail" data-participant="rpc"><rect fill="#E2E2F0" height="30.4883" rx="2.5" ry="2.5" style="stroke:#181818;stroke-width:0.5;" width="226.1055" x="540.3188" y="1138.0254"/><text fill="#000000" font-family="sans-serif" font-size="14" lengthAdjust="spacing" textLength="212.1055" x="547.3188" y="1158.5605">RegistrazionePrestitoController</text></g><g class="participant participant-head" data-participant="p"><rect fill="#E2E2F0" height="30.4883" rx="2.5" ry="2.5" style="stroke:#181818;stroke-width:0.5;" width="65.5225" x="852.4731" y="50"/><text fill="#000000" font-family="sans-serif" font-size="14" lengthAdjust="spacing" textLength="51.5225" x="859.4731" y="70.5352">Prestito</text></g><g class="participant participant-tail" data-participant="p"><rect fill="#E2E2F0" height="30.4883" rx="2.5" ry="2.5" style="stroke:#181818;stroke-width:0.5;" width="65.5225" x="852.4731" y="1138.0254"/><text fill="#000000" font-family="sans-serif" font-size="14" lengthAdjust="spacing" textLength="51.5225" x="859.4731" y="1158.5605">Prestito</text></g><g class="participant participant-head" data-participant="gu"><rect fill="#E2E2F0" height="30.4883" rx="2.5" ry="2.5" style="stroke:#181818;stroke-width:0.5;" width="54.708" x="981.103" y="50"/><text fill="#000000" font-family="sans-serif" font-size="14" lengthAdjust="spacing" textLength="40.708" x="988.103" y="70.5352">Utenti</text></g><g class="participant participant-tail" data-participant="gu"><rect fill="#E2E2F0" height="30.4883" rx="2.5" ry="2.5" style="stroke:#181818;stroke-width:0.5;" width="54.708" x="981.103" y="1138.0254"/><text fill="#000000" font-family="sans-serif" font-size="14" lengthAdjust="spacing" textLength="40.708" x="988.103" y="1158.5605">Utenti</text></g><g class="participant participant-head" data-participant="gl"><rect fill="#E2E2F0" height="30.4883" rx="2.5" ry="2.5" style="stroke:#181818;stroke-width:0.5;" width="44.0986" x="1115.8208" y="50"/><text fill="#000000" font-family="sans-serif" font-size="14" lengthAdjust="spacing" textLength="30.0986" x="1122.8208" y="70.5352">Libri</text></g><g class="participant participant-tail" data-participant="gl"><rect fill="#E2E2F0" height="30.4883" rx="2.5" ry="2.5" style="stroke:#181818;stroke-width:0.5;" width="44.0986" x="1115.8208" y="1138.0254"/><text fill="#000000" font-family="sans-serif" font-size="14" lengthAdjust="spacing" textLength="30.0986" x="1122.8208" y="1158.5605">Libri</text></g><g class="participant participant-head" data-participant="gp"><rect fill="#E2E2F0" height="30.4883" rx="2.5" ry="2.5" style="stroke:#181818;stroke-width:0.5;" width="60.9697" x="1222.8335" y="50"/><text fill="#000000" font-family="sans-serif" font-size="14" lengthAdjust="spacing" textLength="46.9697" x="1229.8335" y="70.5352">Prestiti</text></g><g class="participant participant-tail" data-participant="gp"><rect fill="#E2E2F0" height="30.4883" rx="2.5" ry="2.5" style="stroke:#181818;stroke-width:0.5;" width="60.9697" x="1222.8335" y="1138.0254"/><text fill="#000000" font-family="sans-serif" font-size="14" lengthAdjust="spacing" textLength="46.9697" x="1229.8335" y="1158.5605">Prestiti</text></g><g><title>PrestitiController</title><rect fill="#FFFFFF" height="34.3105" style="stroke:#181818;stroke-width:1;" width="10" x="435.4395" y="221.7305"/></g><g><title>RegistrazionePrestitoController</title><rect fill="#FFFFFF" height="135.2422" style="stroke:#181818;stroke-width:1;" width="10" x="648.3716" y="376.2832"/></g><g><title>RegistrazionePrestitoController</title><rect fill="#FFFFFF" height="100.9316" style="stroke:#181818;stroke-width:1;" width="10" x="648.3716" y="1020.0938"/></g><g><title>Prestito</title><rect fill="#FFFFFF" height="71.6211" style="stroke:#181818;stroke-width:1;" width="10" x="880.2344" y="410.5938"/></g><g><title>Prestiti</title><rect fill="#FFFFFF" height="71.6211" style="stroke:#181818;stroke-width:1;" width="10" x="1248.3184" y="1020.0938"/></g><g class="message" data-participant-1="cvp" data-participant-2="cvp"><line style="stroke:#181818;stroke-width:1;" x1="440.4395" x2="482.4395" y1="112.7988" y2="112.7988"/><line style="stroke:#181818;stroke-width:1;" x1="482.4395" x2="482.4395" y1="112.7988" y2="125.7988"/><line style="stroke:#181818;stroke-width:1;" x1="441.4395" x2="482.4395" y1="125.7988" y2="125.7988"/><polygon fill="#181818" points="451.4395,121.7988,441.4395,125.7988,451.4395,129.7988,447.4395,125.7988" style="stroke:#181818;stroke-width:1;"/><text fill="#000000" font-family="sans-serif" font-size="13" lengthAdjust="spacing" textLength="74.3882" x="447.4395" y="108.0566">initialize(...)</text></g><g class="message" data-participant-1="a" data-participant-2="cvp"><polygon fill="#181818" points="428.4395,151.1094,438.4395,155.1094,428.4395,159.1094,432.4395,155.1094" style="stroke:#181818;stroke-width:1;"/><line style="stroke:#181818;stroke-width:1;" x1="75.8896" x2="434.4395" y1="155.1094" y2="155.1094"/><text fill="#000000" font-family="sans-serif" font-size="13" lengthAdjust="spacing" textLength="147.8242" x="82.8896" y="150.3672">Apre schermata prestiti</text></g><g class="message" data-participant-1="a" data-participant-2="cvp"><polygon fill="#181818" points="428.4395,180.4199,438.4395,184.4199,428.4395,188.4199,432.4395,184.4199" style="stroke:#181818;stroke-width:1;"/><line style="stroke:#181818;stroke-width:1;" x1="75.8896" x2="434.4395" y1="184.4199" y2="184.4199"/><text fill="#000000" font-family="sans-serif" font-size="13" lengthAdjust="spacing" textLength="172.3643" x="82.8896" y="179.6777">Clicca il pulsante "Inserisci"</text></g><g class="message" data-participant-1="cvp" data-participant-2="cvp"><line style="stroke:#181818;stroke-width:1;" x1="440.4395" x2="487.4395" y1="208.7305" y2="208.7305"/><line style="stroke:#181818;stroke-width:1;" x1="487.4395" x2="487.4395" y1="208.7305" y2="221.7305"/><line style="stroke:#181818;stroke-width:1;" x1="446.4395" x2="487.4395" y1="221.7305" y2="221.7305"/><polygon fill="#181818" points="456.4395,217.7305,446.4395,221.7305,456.4395,225.7305,452.4395,221.7305" style="stroke:#181818;stroke-width:1;"/><text fill="#000000" font-family="sans-serif" font-size="13" lengthAdjust="spacing" textLength="118.3901" x="452.4395" y="203.9883">onRegisterLoan(...)</text></g><g class="message" data-participant-1="cvp" data-participant-2="a"><polygon fill="#181818" points="86.8896,252.041,76.8896,256.041,86.8896,260.041,82.8896,256.041" style="stroke:#181818;stroke-width:1;"/><line style="stroke:#181818;stroke-width:1;stroke-dasharray:2,2;" x1="80.8896" x2="439.4395" y1="256.041" y2="256.041"/><text fill="#000000" font-family="sans-serif" font-size="13" lengthAdjust="spacing" textLength="335.5498" x="92.8896" y="251.2988">Viene mostrata la schermata di registrazione prestito</text></g><path d="M10,271.041 L84.4468,271.041 L84.4468,278.3516 L74.4468,288.3516 L10,288.3516 L10,271.041" fill="#EEEEEE" style="stroke:#000000;stroke-width:1.5;"/><rect fill="none" height="309.1055" style="stroke:#000000;stroke-width:1.5;" width="998.457" x="10" y="271.041"/><text fill="#000000" font-family="sans-serif" font-size="13" font-weight="bold" lengthAdjust="spacing" textLength="29.4468" x="25" y="284.6094">loop</text><text fill="#000000" font-family="sans-serif" font-size="11" font-weight="bold" lengthAdjust="spacing" textLength="373.4897" x="99.4468" y="283.6758">[Amministratore inserisce i campi del prestito errati o incompleti]</text><g class="message" data-participant-1="a" data-participant-2="rpc"><polygon fill="#181818" points="641.3716,305.6621,651.3716,309.6621,641.3716,313.6621,645.3716,309.6621" style="stroke:#181818;stroke-width:1;"/><line style="stroke:#181818;stroke-width:1;" x1="75.8896" x2="647.3716" y1="309.6621" y2="309.6621"/><text fill="#000000" font-family="sans-serif" font-size="13" lengthAdjust="spacing" textLength="266.938" x="82.8896" y="304.9199">Inserisce i campi del prestito nel TextField</text></g><g class="message" data-participant-1="a" data-participant-2="rpc"><polygon fill="#181818" points="641.3716,334.9727,651.3716,338.9727,641.3716,342.9727,645.3716,338.9727" style="stroke:#181818;stroke-width:1;"/><line style="stroke:#181818;stroke-width:1;" x1="75.8896" x2="647.3716" y1="338.9727" y2="338.9727"/><text fill="#000000" font-family="sans-serif" font-size="13" lengthAdjust="spacing" textLength="184.3867" x="82.8896" y="334.2305">Preme il pulsante "Conferma"</text></g><g class="message" data-participant-1="rpc" data-participant-2="rpc"><line style="stroke:#181818;stroke-width:1;" x1="653.3716" x2="700.3716" y1="363.2832" y2="363.2832"/><line style="stroke:#181818;stroke-width:1;" x1="700.3716" x2="700.3716" y1="363.2832" y2="376.2832"/><line style="stroke:#181818;stroke-width:1;" x1="659.3716" x2="700.3716" y1="376.2832" y2="376.2832"/><polygon fill="#181818" points="669.3716,372.2832,659.3716,376.2832,669.3716,380.2832,665.3716,376.2832" style="stroke:#181818;stroke-width:1;"/><text fill="#000000" font-family="sans-serif" font-size="13" lengthAdjust="spacing" textLength="87.8896" x="665.3716" y="358.541">onConfirm(...)</text></g><g class="message" data-participant-1="rpc" data-participant-2="p"><polygon fill="#181818" points="868.2344,406.5938,878.2344,410.5938,868.2344,414.5938,872.2344,410.5938" style="stroke:#181818;stroke-width:1;"/><line style="stroke:#181818;stroke-width:1;" x1="658.3716" x2="874.2344" y1="410.5938" y2="410.5938"/><text fill="#000000" font-family="sans-serif" font-size="13" lengthAdjust="spacing" textLength="152.585" x="665.3716" y="405.8516">verificadataScadenza(...)</text></g><g class="message" data-participant-1="p" data-participant-2="p"><line style="stroke:#181818;stroke-width:1;" x1="890.2344" x2="932.2344" y1="439.9043" y2="439.9043"/><line style="stroke:#181818;stroke-width:1;" x1="932.2344" x2="932.2344" y1="439.9043" y2="452.9043"/><line style="stroke:#181818;stroke-width:1;" x1="891.2344" x2="932.2344" y1="452.9043" y2="452.9043"/><polygon fill="#181818" points="901.2344,448.9043,891.2344,452.9043,901.2344,456.9043,897.2344,452.9043" style="stroke:#181818;stroke-width:1;"/><text fill="#000000" font-family="sans-serif" font-size="13" lengthAdjust="spacing" textLength="89.2227" x="897.2344" y="435.1621">Verifica campi</text></g><g class="message" data-participant-1="p" data-participant-2="rpc"><polygon fill="#181818" points="669.3716,478.2148,659.3716,482.2148,669.3716,486.2148,665.3716,482.2148" style="stroke:#181818;stroke-width:1;"/><line style="stroke:#181818;stroke-width:1;stroke-dasharray:2,2;" x1="663.3716" x2="884.2344" y1="482.2148" y2="482.2148"/><text fill="#000000" font-family="sans-serif" font-size="13" lengthAdjust="spacing" textLength="197.8628" x="675.3716" y="477.4727">Verifica non andata a buon fine</text></g><g class="message" data-participant-1="rpc" data-participant-2="a"><polygon fill="#181818" points="86.8896,507.5254,76.8896,511.5254,86.8896,515.5254,82.8896,511.5254" style="stroke:#181818;stroke-width:1;"/><line style="stroke:#181818;stroke-width:1;stroke-dasharray:2,2;" x1="80.8896" x2="652.3716" y1="511.5254" y2="511.5254"/><text fill="#000000" font-family="sans-serif" font-size="13" lengthAdjust="spacing" textLength="548.4819" x="92.8896" y="506.7832">Viene visualizzato un messaggio di errore e vengono evidenziati i campi da correggere</text></g><path d="M530.3188,526.5254 L613.3286,526.5254 L613.3286,533.8359 L603.3286,543.8359 L530.3188,543.8359 L530.3188,526.5254" fill="#EEEEEE" style="stroke:#000000;stroke-width:1.5;"/><rect fill="none" height="46.6211" style="stroke:#000000;stroke-width:1.5;" width="397.6768" x="530.3188" y="526.5254"/><text fill="#000000" font-family="sans-serif" font-size="13" font-weight="bold" lengthAdjust="spacing" textLength="38.0098" x="545.3188" y="540.0938">break</text><text fill="#000000" font-family="sans-serif" font-size="11" font-weight="bold" lengthAdjust="spacing" textLength="161.2295" x="628.3286" y="539.1602">[Verifica andata a buon fine]</text><g class="message" data-participant-1="p" data-participant-2="rpc"><polygon fill="#181818" points="664.3716,561.1465,654.3716,565.1465,664.3716,569.1465,660.3716,565.1465" style="stroke:#181818;stroke-width:1;"/><line style="stroke:#181818;stroke-width:1;stroke-dasharray:2,2;" x1="658.3716" x2="884.2344" y1="565.1465" y2="565.1465"/><text fill="#000000" font-family="sans-serif" font-size="13" lengthAdjust="spacing" textLength="169.6284" x="670.3716" y="560.4043">Verifica andata a buon fine</text></g><g class="message" data-participant-1="rpc" data-participant-2="gu"><polygon fill="#181818" points="996.457,604.457,1006.457,608.457,996.457,612.457,1000.457,608.457" style="stroke:#181818;stroke-width:1;"/><line style="stroke:#181818;stroke-width:1;" x1="653.3716" x2="1002.457" y1="608.457" y2="608.457"/><text fill="#000000" font-family="sans-serif" font-size="13" lengthAdjust="spacing" textLength="99.125" x="660.3716" y="603.7148">esisteChiave(...)</text></g><g class="message" data-participant-1="gu" data-participant-2="gu"><line style="stroke:#181818;stroke-width:1;" x1="1008.457" x2="1050.457" y1="637.7676" y2="637.7676"/><line style="stroke:#181818;stroke-width:1;" x1="1050.457" x2="1050.457" y1="637.7676" y2="650.7676"/><line style="stroke:#181818;stroke-width:1;" x1="1009.457" x2="1050.457" y1="650.7676" y2="650.7676"/><polygon fill="#181818" points="1019.457,646.7676,1009.457,650.7676,1019.457,654.7676,1015.457,650.7676" style="stroke:#181818;stroke-width:1;"/><text fill="#000000" font-family="sans-serif" font-size="13" lengthAdjust="spacing" textLength="115.4131" x="1015.457" y="633.0254">Ricerca dell'utente</text></g><path d="M10,665.7676 L72.1387,665.7676 L72.1387,673.0781 L62.1387,683.0781 L10,683.0781 L10,665.7676" fill="#EEEEEE" style="stroke:#000000;stroke-width:1.5;"/><rect fill="none" height="120.1973" style="stroke:#000000;stroke-width:1.5;" width="1035.811" x="10" y="665.7676"/><text fill="#000000" font-family="sans-serif" font-size="13" font-weight="bold" lengthAdjust="spacing" textLength="17.1387" x="25" y="679.3359">alt</text><text fill="#000000" font-family="sans-serif" font-size="11" font-weight="bold" lengthAdjust="spacing" textLength="182.3755" x="87.1387" y="678.4023">[Utente non presente nella lista]</text><g class="message" data-participant-1="gu" data-participant-2="rpc"><polygon fill="#181818" points="664.3716,700.3887,654.3716,704.3887,664.3716,708.3887,660.3716,704.3887" style="stroke:#181818;stroke-width:1;"/><line style="stroke:#181818;stroke-width:1;stroke-dasharray:2,2;" x1="658.3716" x2="1007.457" y1="704.3887" y2="704.3887"/><text fill="#000000" font-family="sans-serif" font-size="13" lengthAdjust="spacing" textLength="259.5112" x="670.3716" y="699.6465">L'utente non esiste nella lista degli utenti</text></g><g class="message" data-participant-1="rpc" data-participant-2="a"><polygon fill="#181818" points="86.8896,729.6992,76.8896,733.6992,86.8896,737.6992,82.8896,733.6992" style="stroke:#181818;stroke-width:1;"/><line style="stroke:#181818;stroke-width:1;stroke-dasharray:2,2;" x1="80.8896" x2="652.3716" y1="733.6992" y2="733.6992"/><text fill="#000000" font-family="sans-serif" font-size="13" lengthAdjust="spacing" textLength="246.6064" x="92.8896" y="728.957">Viene mostrato un messaggio di errore</text></g><line style="stroke:#000000;stroke-width:1;stroke-dasharray:2,2;" x1="10" x2="1045.811" y1="742.6992" y2="742.6992"/><text fill="#000000" font-family="sans-serif" font-size="11" font-weight="bold" lengthAdjust="spacing" textLength="157.2764" x="15" y="753.334">[Utente presente nella lista]</text><g class="message" data-participant-1="gu" data-participant-2="rpc"><polygon fill="#181818" points="664.3716,773.9648,654.3716,777.9648,664.3716,781.9648,660.3716,777.9648" style="stroke:#181818;stroke-width:1;"/><line style="stroke:#181818;stroke-width:1;stroke-dasharray:2,2;" x1="658.3716" x2="1007.457" y1="777.9648" y2="777.9648"/><text fill="#000000" font-family="sans-serif" font-size="13" lengthAdjust="spacing" textLength="184.9263" x="670.3716" y="773.2227">L'utente &#232; presente nella lista</text></g><g class="message" data-participant-1="rpc" data-participant-2="gl"><polygon fill="#181818" points="1125.8701,810.2754,1135.8701,814.2754,1125.8701,818.2754,1129.8701,814.2754" style="stroke:#181818;stroke-width:1;"/><line style="stroke:#181818;stroke-width:1;" x1="653.3716" x2="1131.8701" y1="814.2754" y2="814.2754"/><text fill="#000000" font-family="sans-serif" font-size="13" lengthAdjust="spacing" textLength="99.125" x="660.3716" y="809.5332">esisteChiave(...)</text></g><g class="message" data-participant-1="gl" data-participant-2="gl"><line style="stroke:#181818;stroke-width:1;" x1="1137.8701" x2="1179.8701" y1="843.5859" y2="843.5859"/><line style="stroke:#181818;stroke-width:1;" x1="1179.8701" x2="1179.8701" y1="843.5859" y2="856.5859"/><line style="stroke:#181818;stroke-width:1;" x1="1138.8701" x2="1179.8701" y1="856.5859" y2="856.5859"/><polygon fill="#181818" points="1148.8701,852.5859,1138.8701,856.5859,1148.8701,860.5859,1144.8701,856.5859" style="stroke:#181818;stroke-width:1;"/><text fill="#000000" font-family="sans-serif" font-size="13" lengthAdjust="spacing" textLength="101.4482" x="1144.8701" y="838.8438">Ricerca del libro</text></g><path d="M10,871.5859 L72.1387,871.5859 L72.1387,878.8965 L62.1387,888.8965 L10,888.8965 L10,871.5859" fill="#EEEEEE" style="stroke:#000000;stroke-width:1.5;"/><rect fill="none" height="120.1973" style="stroke:#000000;stroke-width:1.5;" width="1159.9194" x="10" y="871.5859"/><text fill="#000000" font-family="sans-serif" font-size="13" font-weight="bold" lengthAdjust="spacing" textLength="17.1387" x="25" y="885.1543">alt</text><text fill="#000000" font-family="sans-serif" font-size="11" font-weight="bold" lengthAdjust="spacing" textLength="174.5337" x="87.1387" y="884.2207">[Libro non presente nella lista]</text><g class="message" data-participant-1="gl" data-participant-2="rpc"><polygon fill="#181818" points="664.3716,906.207,654.3716,910.207,664.3716,914.207,660.3716,910.207" style="stroke:#181818;stroke-width:1;"/><line style="stroke:#181818;stroke-width:1;stroke-dasharray:2,2;" x1="658.3716" x2="1136.8701" y1="910.207" y2="910.207"/><text fill="#000000" font-family="sans-serif" font-size="13" lengthAdjust="spacing" textLength="173.7417" x="670.3716" y="905.4648">Il libro non esiste nella lista</text></g><g class="message" data-participant-1="rpc" data-participant-2="a"><polygon fill="#181818" points="86.8896,935.5176,76.8896,939.5176,86.8896,943.5176,82.8896,939.5176" style="stroke:#181818;stroke-width:1;"/><line style="stroke:#181818;stroke-width:1;stroke-dasharray:2,2;" x1="80.8896" x2="652.3716" y1="939.5176" y2="939.5176"/><text fill="#000000" font-family="sans-serif" font-size="13" lengthAdjust="spacing" textLength="246.6064" x="92.8896" y="934.7754">Viene mostrato un messaggio di errore</text></g><line style="stroke:#000000;stroke-width:1;stroke-dasharray:2,2;" x1="10" x2="1169.9194" y1="948.5176" y2="948.5176"/><text fill="#000000" font-family="sans-serif" font-size="11" font-weight="bold" lengthAdjust="spacing" textLength="149.4346" x="15" y="959.1523">[Libro presente nella lista]</text><g class="message" data-participant-1="gl" data-participant-2="rpc"><polygon fill="#181818" points="664.3716,979.7832,654.3716,983.7832,664.3716,987.7832,660.3716,983.7832" style="stroke:#181818;stroke-width:1;"/><line style="stroke:#181818;stroke-width:1;stroke-dasharray:2,2;" x1="658.3716" x2="1136.8701" y1="983.7832" y2="983.7832"/><text fill="#000000" font-family="sans-serif" font-size="13" lengthAdjust="spacing" textLength="145.5073" x="670.3716" y="979.041">Il libro esiste nella lista</text></g><g class="message" data-participant-1="rpc" data-participant-2="gp"><polygon fill="#181818" points="1236.3184,1016.0938,1246.3184,1020.0938,1236.3184,1024.0938,1240.3184,1020.0938" style="stroke:#181818;stroke-width:1;"/><line style="stroke:#181818;stroke-width:1;" x1="658.3716" x2="1242.3184" y1="1020.0938" y2="1020.0938"/><text fill="#000000" font-family="sans-serif" font-size="13" lengthAdjust="spacing" textLength="75.9434" x="665.3716" y="1015.3516">aggiungi(...)</text></g><g class="message" data-participant-1="gp" data-participant-2="gp"><line style="stroke:#181818;stroke-width:1;" x1="1258.3184" x2="1300.3184" y1="1049.4043" y2="1049.4043"/><line style="stroke:#181818;stroke-width:1;" x1="1300.3184" x2="1300.3184" y1="1049.4043" y2="1062.4043"/><line style="stroke:#181818;stroke-width:1;" x1="1259.3184" x2="1300.3184" y1="1062.4043" y2="1062.4043"/><polygon fill="#181818" points="1269.3184,1058.4043,1259.3184,1062.4043,1269.3184,1066.4043,1265.3184,1062.4043" style="stroke:#181818;stroke-width:1;"/><text fill="#000000" font-family="sans-serif" font-size="13" lengthAdjust="spacing" textLength="159.6372" x="1265.3184" y="1044.6621">Viene aggiunto il prestito</text></g><g class="message" data-participant-1="gp" data-participant-2="rpc"><polygon fill="#181818" points="669.3716,1087.7148,659.3716,1091.7148,669.3716,1095.7148,665.3716,1091.7148" style="stroke:#181818;stroke-width:1;"/><line style="stroke:#181818;stroke-width:1;stroke-dasharray:2,2;" x1="663.3716" x2="1252.3184" y1="1091.7148" y2="1091.7148"/><text fill="#000000" font-family="sans-serif" font-size="13" lengthAdjust="spacing" textLength="61.7056" x="675.3716" y="1086.9727">Conferma</text></g><g class="message" data-participant-1="rpc" data-participant-2="a"><polygon fill="#181818" points="86.8896,1117.0254,76.8896,1121.0254,86.8896,1125.0254,82.8896,1121.0254" style="stroke:#181818;stroke-width:1;"/><line style="stroke:#181818;stroke-width:1;stroke-dasharray:2,2;" x1="80.8896" x2="652.3716" y1="1121.0254" y2="1121.0254"/><text fill="#000000" font-family="sans-serif" font-size="13" lengthAdjust="spacing" textLength="292.1636" x="92.8896" y="1116.2832">Viene chiusa la schermata di aggiunta prestito</text></g><!--SRC=[dPHDRjim48NNqYa6tgHTE0Vm8a0G8420B8gqpNvCJvH1AL8W9QFmYNgFNgoFf6JBZX841GB7zBpvuJV3gTZqFj1jswhJs0V6IOWZSLrr77ersh7hwLkGs6klTzxrmLih8OdClZkNFKcJenpKEnbz_BbFwCnYQ9-C5-5-zk9wJOPcEBSywZOKWrqkDDkwkgvGu_e67nl23NjbgmVvSdrz_RMkU3JSThXpDAyIMkwPkZ74IN1drHWcjTGDDYADqEh1HGaQZQxEadXN64XuzEocHARNFSCh0qjgMgzlQCMh3JshEA7MP_XCbcULx9J2dEXKcg-hdPm5hQkhUpl428eMkHt31fNrlhjihew5uniPRZkbdTXZP980dPA7plYsiv90919et8OUFdPsEFoGt_szYjtDtD2LLixvOIfUqZLNa44p2hrBlsjeHt8dT7bkHYa1z1vrlAZX7K1znpzn1vwSJbu9TrK1T_Pv7drAwPC9jfpxQ7NU4RiKc9Ys0qulwYJBPzXBw5JF-eQdFkur3cd43c1DWwDMOkIcKPzw2RIf0L29Qxm3wxsckZK1F_94TJwWxOs4d7EMiZ30tnKexRJC108F6CCqBcmfTHo2RH3-TRhHycsMxhwe58Tcfe-wy6-63KbCKtxtghoVtbCp5DEJ6Wc8XT6mLqDwmmY2kIplMJBVD3Bb01767i6mSbA8SH8UHy-iBidcMWHlB6wUDqJzfW_ZUtgl1xYDZJBLy_bQ_lvvHvm9JNJiCXrRJ3CwyDu6NzYaZUO_H6EdSXv6ntVG_2-DKi7diozbdWy97bnADBX6B_TW6UJZiSblgUcAKwcvkA9cjRErbrNJq4uhf3vx93dO1G3pgaDykrp77BoyLn6Zgkj_]--></g></svg>