<svg xmlns="http://www.w3.org/2000/svg" xmlns:xlink="http://www.w3.org/1999/xlink" contentStyleType="text/css" data-diagram-type="SEQUENCE" height="691px" preserveAspectRatio="none" style="width:1216px;height:691px;background:#FFFFFF;" version="1.1" viewBox="0 0 1216 691" width="1216px" zoomAndPan="magnify"><defs/><g><g><title>ClasseCheContieneVisualizzazionePrestiti</title><rect fill="#FFFFFF" height="34.3105" style="stroke:#181818;stroke-width:1;" width="10" x="494.6123" y="293.3516"/></g><g><title>ClasseCheContieneVisualizzazionePrestiti</title><rect fill="#FFFFFF" height="100.9316" style="stroke:#181818;stroke-width:1;" width="10" x="494.6123" y="484.1699"/></g><g><title>GestorePrestiti</title><rect fill="#FFFFFF" height="71.6211" style="stroke:#181818;stroke-width:1;" width="10" x="860.5518" y="484.1699"/></g><rect fill="none" height="250.4395" style="stroke:#000000;stroke-width:1.5;" width="1083.3394" x="10" y="342.6621"/><g><title>Amministratore</title><rect fill="#000000" fill-opacity="0.00000" height="528.6133" width="8" x="71.8896" y="81.4883"/><line style="stroke:#181818;stroke-width:0.5;stroke-dasharray:5,5;" x1="75" x2="75" y1="81.4883" y2="610.1016"/></g><g><title>ClasseCheContieneVisualizzazionePrestiti</title><rect fill="#000000" fill-opacity="0.00000" height="528.6133" width="8" x="495.6123" y="81.4883"/><line style="stroke:#181818;stroke-width:0.5;stroke-dasharray:5,5;" x1="499.1016" x2="499.1016" y1="81.4883" y2="610.1016"/></g><g><title>Prestito</title><rect fill="#000000" fill-opacity="0.00000" height="528.6133" width="8" x="762.0967" y="81.4883"/><line style="stroke:#181818;stroke-width:0.5;stroke-dasharray:5,5;" x1="765.3354" x2="765.3354" y1="81.4883" y2="610.1016"/></g><g><title>GestorePrestiti</title><rect fill="#000000" fill-opacity="0.00000" height="528.6133" width="8" x="861.5518" y="81.4883"/><line style="stroke:#181818;stroke-width:0.5;stroke-dasharray:5,5;" x1="864.8579" x2="864.8579" y1="81.4883" y2="610.1016"/></g><g><title>Biblioteca</title><rect fill="#000000" fill-opacity="0.00000" height="528.6133" width="8" x="1089.3394" y="81.4883"/><line style="stroke:#181818;stroke-width:0.5;stroke-dasharray:5,5;" x1="1092.5679" x2="1092.5679" y1="81.4883" y2="610.1016"/></g><g class="participant participant-head" data-participant="a"><text fill="#000000" font-family="sans-serif" font-size="14" lengthAdjust="spacing" textLength="105.7793" x="20" y="78.5352">Amministratore</text><ellipse cx="75.8896" cy="13.5" fill="#E2E2F0" rx="8" ry="8" style="stroke:#181818;stroke-width:0.5;"/><path d="M75.8896,21.5 L75.8896,48.5 M62.8896,29.5 L88.8896,29.5 M75.8896,48.5 L62.8896,63.5 M75.8896,48.5 L88.8896,63.5" fill="none" style="stroke:#181818;stroke-width:0.5;"/></g><g class="participant participant-tail" data-participant="a"><text fill="#000000" font-family="sans-serif" font-size="14" lengthAdjust="spacing" textLength="105.7793" x="20" y="622.6367">Amministratore</text><ellipse cx="75.8896" cy="634.0898" fill="#E2E2F0" rx="8" ry="8" style="stroke:#181818;stroke-width:0.5;"/><path d="M75.8896,642.0898 L75.8896,669.0898 M62.8896,650.0898 L88.8896,650.0898 M75.8896,669.0898 L62.8896,684.0898 M75.8896,669.0898 L88.8896,684.0898" fill="none" style="stroke:#181818;stroke-width:0.5;"/></g><g class="participant participant-head" data-participant="cvp"><rect fill="#E2E2F0" height="30.4883" rx="2.5" ry="2.5" style="stroke:#181818;stroke-width:0.5;" width="297.0215" x="351.1016" y="50"/><text fill="#000000" font-family="sans-serif" font-size="14" lengthAdjust="spacing" textLength="283.0215" x="358.1016" y="70.5352">ClasseCheContieneVisualizzazionePrestiti</text></g><g class="participant participant-tail" data-participant="cvp"><rect fill="#E2E2F0" height="30.4883" rx="2.5" ry="2.5" style="stroke:#181818;stroke-width:0.5;" width="297.0215" x="351.1016" y="609.1016"/><text fill="#000000" font-family="sans-serif" font-size="14" lengthAdjust="spacing" textLength="283.0215" x="358.1016" y="629.6367">ClasseCheContieneVisualizzazionePrestiti</text></g><g class="participant participant-head" data-participant="p"><rect fill="#E2E2F0" height="30.4883" rx="2.5" ry="2.5" style="stroke:#181818;stroke-width:0.5;" width="65.5225" x="733.3354" y="50"/><text fill="#000000" font-family="sans-serif" font-size="14" lengthAdjust="spacing" textLength="51.5225" x="740.3354" y="70.5352">Prestito</text></g><g class="participant participant-tail" data-participant="p"><rect fill="#E2E2F0" height="30.4883" rx="2.5" ry="2.5" style="stroke:#181818;stroke-width:0.5;" width="65.5225" x="733.3354" y="609.1016"/><text fill="#000000" font-family="sans-serif" font-size="14" lengthAdjust="spacing" textLength="51.5225" x="740.3354" y="629.6367">Prestito</text></g><g class="participant participant-head" data-participant="gp"><rect fill="#E2E2F0" height="30.4883" rx="2.5" ry="2.5" style="stroke:#181818;stroke-width:0.5;" width="113.3877" x="808.8579" y="50"/><text fill="#000000" font-family="sans-serif" font-size="14" lengthAdjust="spacing" textLength="99.3877" x="815.8579" y="70.5352">GestorePrestiti</text></g><g class="participant participant-tail" data-participant="gp"><rect fill="#E2E2F0" height="30.4883" rx="2.5" ry="2.5" style="stroke:#181818;stroke-width:0.5;" width="113.3877" x="808.8579" y="609.1016"/><text fill="#000000" font-family="sans-serif" font-size="14" lengthAdjust="spacing" textLength="99.3877" x="815.8579" y="629.6367">GestorePrestiti</text></g><g class="participant participant-head" data-participant="b"><rect fill="#E2E2F0" height="30.4883" rx="2.5" ry="2.5" style="stroke:#181818;stroke-width:0.5;" width="79.543" x="1053.5679" y="50"/><text fill="#000000" font-family="sans-serif" font-size="14" lengthAdjust="spacing" textLength="65.543" x="1060.5679" y="70.5352">Biblioteca</text></g><g class="participant participant-tail" data-participant="b"><rect fill="#E2E2F0" height="30.4883" rx="2.5" ry="2.5" style="stroke:#181818;stroke-width:0.5;" width="79.543" x="1053.5679" y="609.1016"/><text fill="#000000" font-family="sans-serif" font-size="14" lengthAdjust="spacing" textLength="65.543" x="1060.5679" y="629.6367">Biblioteca</text></g><g><title>ClasseCheContieneVisualizzazionePrestiti</title><rect fill="#FFFFFF" height="34.3105" style="stroke:#181818;stroke-width:1;" width="10" x="494.6123" y="293.3516"/></g><g><title>ClasseCheContieneVisualizzazionePrestiti</title><rect fill="#FFFFFF" height="100.9316" style="stroke:#181818;stroke-width:1;" width="10" x="494.6123" y="484.1699"/></g><g><title>GestorePrestiti</title><rect fill="#FFFFFF" height="71.6211" style="stroke:#181818;stroke-width:1;" width="10" x="860.5518" y="484.1699"/></g><g class="message" data-participant-1="b" data-participant-2="b"><line style="stroke:#181818;stroke-width:1;" x1="1093.3394" x2="1135.3394" y1="112.7988" y2="112.7988"/><line style="stroke:#181818;stroke-width:1;" x1="1135.3394" x2="1135.3394" y1="112.7988" y2="125.7988"/><line style="stroke:#181818;stroke-width:1;" x1="1094.3394" x2="1135.3394" y1="125.7988" y2="125.7988"/><polygon fill="#181818" points="1104.3394,121.7988,1094.3394,125.7988,1104.3394,129.7988,1100.3394,125.7988" style="stroke:#181818;stroke-width:1;"/><text fill="#000000" font-family="sans-serif" font-size="13" lengthAdjust="spacing" textLength="108.7925" x="1100.3394" y="108.0566">caricaArchivio(...)</text></g><g class="message" data-participant-1="cvp" data-participant-2="cvp"><line style="stroke:#181818;stroke-width:1;" x1="499.6123" x2="541.6123" y1="155.1094" y2="155.1094"/><line style="stroke:#181818;stroke-width:1;" x1="541.6123" x2="541.6123" y1="155.1094" y2="168.1094"/><line style="stroke:#181818;stroke-width:1;" x1="500.6123" x2="541.6123" y1="168.1094" y2="168.1094"/><polygon fill="#181818" points="510.6123,164.1094,500.6123,168.1094,510.6123,172.1094,506.6123,168.1094" style="stroke:#181818;stroke-width:1;"/><text fill="#000000" font-family="sans-serif" font-size="13" lengthAdjust="spacing" textLength="76.978" x="506.6123" y="150.3672">inizialize(...)</text></g><g class="message" data-participant-1="a" data-participant-2="cvp"><polygon fill="#181818" points="487.6123,193.4199,497.6123,197.4199,487.6123,201.4199,491.6123,197.4199" style="stroke:#181818;stroke-width:1;"/><line style="stroke:#181818;stroke-width:1;" x1="75.8896" x2="493.6123" y1="197.4199" y2="197.4199"/><text fill="#000000" font-family="sans-serif" font-size="13" lengthAdjust="spacing" textLength="147.8242" x="82.8896" y="192.6777">Apre schermata prestiti</text></g><g class="message" data-participant-1="a" data-participant-2="cvp"><polygon fill="#181818" points="487.6123,222.7305,497.6123,226.7305,487.6123,230.7305,491.6123,226.7305" style="stroke:#181818;stroke-width:1;"/><line style="stroke:#181818;stroke-width:1;" x1="75.8896" x2="493.6123" y1="226.7305" y2="226.7305"/><text fill="#000000" font-family="sans-serif" font-size="13" lengthAdjust="spacing" textLength="132.8882" x="82.8896" y="221.9883">Seleziona un prestito</text></g><g class="message" data-participant-1="a" data-participant-2="cvp"><polygon fill="#181818" points="487.6123,252.041,497.6123,256.041,487.6123,260.041,491.6123,256.041" style="stroke:#181818;stroke-width:1;"/><line style="stroke:#181818;stroke-width:1;" x1="75.8896" x2="493.6123" y1="256.041" y2="256.041"/><text fill="#000000" font-family="sans-serif" font-size="13" lengthAdjust="spacing" textLength="171.8755" x="82.8896" y="251.2988">Clicca il pulsante "Registra"</text></g><g class="message" data-participant-1="cvp" data-participant-2="cvp"><line style="stroke:#181818;stroke-width:1;" x1="499.6123" x2="546.6123" y1="280.3516" y2="280.3516"/><line style="stroke:#181818;stroke-width:1;" x1="546.6123" x2="546.6123" y1="280.3516" y2="293.3516"/><line style="stroke:#181818;stroke-width:1;" x1="505.6123" x2="546.6123" y1="293.3516" y2="293.3516"/><polygon fill="#181818" points="515.6123,289.3516,505.6123,293.3516,515.6123,297.3516,511.6123,293.3516" style="stroke:#181818;stroke-width:1;"/><text fill="#000000" font-family="sans-serif" font-size="13" lengthAdjust="spacing" textLength="252.4844" x="511.6123" y="275.6094">funzioneOnActionPulsanteDiRegistra(...)</text></g><g class="message" data-participant-1="cvp" data-participant-2="a"><polygon fill="#181818" points="86.8896,323.6621,76.8896,327.6621,86.8896,331.6621,82.8896,327.6621" style="stroke:#181818;stroke-width:1;"/><line style="stroke:#181818;stroke-width:1;stroke-dasharray:2,2;" x1="80.8896" x2="498.6123" y1="327.6621" y2="327.6621"/><text fill="#000000" font-family="sans-serif" font-size="13" lengthAdjust="spacing" textLength="394.7227" x="92.8896" y="322.9199">Viene mostrata una nuova finestra con un messaggio di avviso</text></g><path d="M10,342.6621 L72.1387,342.6621 L72.1387,349.9727 L62.1387,359.9727 L10,359.9727 L10,342.6621" fill="#EEEEEE" style="stroke:#000000;stroke-width:1.5;"/><rect fill="none" height="250.4395" style="stroke:#000000;stroke-width:1.5;" width="1083.3394" x="10" y="342.6621"/><text fill="#000000" font-family="sans-serif" font-size="13" font-weight="bold" lengthAdjust="spacing" textLength="17.1387" x="25" y="356.2305">alt</text><text fill="#000000" font-family="sans-serif" font-size="11" font-weight="bold" lengthAdjust="spacing" textLength="209.854" x="87.1387" y="355.2969">[Annulla l'operazione cliccando "No"]</text><g class="message" data-participant-1="a" data-participant-2="cvp"><polygon fill="#181818" points="487.6123,377.2832,497.6123,381.2832,487.6123,385.2832,491.6123,381.2832" style="stroke:#181818;stroke-width:1;"/><line style="stroke:#181818;stroke-width:1;" x1="75.8896" x2="493.6123" y1="381.2832" y2="381.2832"/><text fill="#000000" font-family="sans-serif" font-size="13" lengthAdjust="spacing" textLength="293.2935" x="82.8896" y="376.541">Annulla l'operazione cliccando il pulsante "No"</text></g><g class="message" data-participant-1="cvp" data-participant-2="a"><polygon fill="#181818" points="86.8896,406.5938,76.8896,410.5938,86.8896,414.5938,82.8896,410.5938" style="stroke:#181818;stroke-width:1;"/><line style="stroke:#181818;stroke-width:1;stroke-dasharray:2,2;" x1="80.8896" x2="498.6123" y1="410.5938" y2="410.5938"/><text fill="#000000" font-family="sans-serif" font-size="13" lengthAdjust="spacing" textLength="280.7061" x="92.8896" y="405.8516">Viene chiusa la schermata di rimozione libro</text></g><line style="stroke:#000000;stroke-width:1;stroke-dasharray:2,2;" x1="10" x2="1093.3394" y1="419.5938" y2="419.5938"/><text fill="#000000" font-family="sans-serif" font-size="11" font-weight="bold" lengthAdjust="spacing" textLength="216.0684" x="15" y="430.2285">[Conferma l'operazione cliccando "Si"]</text><g class="message" data-participant-1="a" data-participant-2="cvp"><polygon fill="#181818" points="487.6123,450.8594,497.6123,454.8594,487.6123,458.8594,491.6123,454.8594" style="stroke:#181818;stroke-width:1;"/><line style="stroke:#181818;stroke-width:1;" x1="75.8896" x2="493.6123" y1="454.8594" y2="454.8594"/><text fill="#000000" font-family="sans-serif" font-size="13" lengthAdjust="spacing" textLength="300.3013" x="82.8896" y="450.1172">Conferma l'operazione cliccando il pulsante "Si"</text></g><g class="message" data-participant-1="cvp" data-participant-2="gp"><polygon fill="#181818" points="848.5518,480.1699,858.5518,484.1699,848.5518,488.1699,852.5518,484.1699" style="stroke:#181818;stroke-width:1;"/><line style="stroke:#181818;stroke-width:1;" x1="504.6123" x2="854.5518" y1="484.1699" y2="484.1699"/><text fill="#000000" font-family="sans-serif" font-size="13" lengthAdjust="spacing" textLength="117.0508" x="511.6123" y="479.4277">registraPrestito(...)</text></g><g class="message" data-participant-1="gp" data-participant-2="gp"><line style="stroke:#181818;stroke-width:1;" x1="870.5518" x2="912.5518" y1="513.4805" y2="513.4805"/><line style="stroke:#181818;stroke-width:1;" x1="912.5518" x2="912.5518" y1="513.4805" y2="526.4805"/><line style="stroke:#181818;stroke-width:1;" x1="871.5518" x2="912.5518" y1="526.4805" y2="526.4805"/><polygon fill="#181818" points="881.5518,522.4805,871.5518,526.4805,881.5518,530.4805,877.5518,526.4805" style="stroke:#181818;stroke-width:1;"/><text fill="#000000" font-family="sans-serif" font-size="13" lengthAdjust="spacing" textLength="193.7876" x="877.5518" y="508.7383">Viene registrata la restituzione</text></g><g class="message" data-participant-1="gp" data-participant-2="cvp"><polygon fill="#181818" points="515.6123,551.791,505.6123,555.791,515.6123,559.791,511.6123,555.791" style="stroke:#181818;stroke-width:1;"/><line style="stroke:#181818;stroke-width:1;stroke-dasharray:2,2;" x1="509.6123" x2="864.5518" y1="555.791" y2="555.791"/><text fill="#000000" font-family="sans-serif" font-size="13" lengthAdjust="spacing" textLength="61.7056" x="521.6123" y="551.0488">Conferma</text></g><g class="message" data-participant-1="cvp" data-participant-2="a"><polygon fill="#181818" points="86.8896,581.1016,76.8896,585.1016,86.8896,589.1016,82.8896,585.1016" style="stroke:#181818;stroke-width:1;"/><line style="stroke:#181818;stroke-width:1;stroke-dasharray:2,2;" x1="80.8896" x2="498.6123" y1="585.1016" y2="585.1016"/><text fill="#000000" font-family="sans-serif" font-size="13" lengthAdjust="spacing" textLength="319.7568" x="92.8896" y="580.3594">Viene chiusa la schermata di registrazione prestito</text></g><!--SRC=[ZLAxRiCm39pjho2oj1sI3yWGm4s1RctG0jrfXN48o98XoHxozQLakN5SzB4Obkv87kzKe0hMGTMsRDW7Xt8YG0zO5Xswm8exD07s6hsd_PdsrWGcGn_iUzHykU25hQ638nyuS2nLGtTRd44RmGNqB8XCd9St2yeZrvfj88KHhSkogDUxUWiA7Ikid3hpmFP-izayb8NCNk_aimNPvy9H8MK8Cr1rig5NPt8j1eGkZxuItabJN0gXDnDiPUoLiTUiH0vhw7hjHIJ1wesQPE1gBkBKcsJFgwbKa9z3fZ_nH9_42JoWz4dcfGxh7MxX8teDhKtHH448fhS3meaDnKjGraITBNcFJSCMZkBYCB2tPN6asxwe0rJ6z5eZw3lRaHlJ0vKMCaSBgnSh6rpD-frzuy1OkP0kwVHUwd5ckIXqtDgncURQYLHnbxGdaFTrYhGVzRtpNDzVz1k1OsbAfv5QboEOdcUEOfd5zToaOz7a-d71gKj8Iuwj-YHZ8Y-ankjPC4ttVzFog779hvTPVCkPpB4eoqy0]--></g></svg>