<svg xmlns="http://www.w3.org/2000/svg" xmlns:xlink="http://www.w3.org/1999/xlink" contentStyleType="text/css" data-diagram-type="SEQUENCE" height="837px" preserveAspectRatio="none" style="width:1178px;height:837px;background:#FFFFFF;" version="1.1" viewBox="0 0 1178 837" width="1178px" zoomAndPan="magnify"><defs/><g><g><title>LibriController</title><rect fill="#FFFFFF" height="34.3105" style="stroke:#181818;stroke-width:1;" width="10" x="387.1211" y="251.041"/></g><g><title>ModificaLibroController</title><rect fill="#FFFFFF" height="135.2422" style="stroke:#181818;stroke-width:1;" width="10" x="648.3716" y="405.5938"/></g><g><title>ModificaLibroController</title><rect fill="#FFFFFF" height="100.9316" style="stroke:#181818;stroke-width:1;" width="10" x="648.3716" y="637.7676"/></g><g><title>Libro</title><rect fill="#FFFFFF" height="71.6211" style="stroke:#181818;stroke-width:1;" width="10" x="880.2344" y="439.9043"/></g><g><title>Libri</title><rect fill="#FFFFFF" height="71.6211" style="stroke:#181818;stroke-width:1;" width="10" x="1003.457" y="637.7676"/></g><rect fill="none" height="309.1055" style="stroke:#000000;stroke-width:1.5;" width="998.457" x="10" y="300.3516"/><rect fill="none" height="46.6211" style="stroke:#000000;stroke-width:1.5;" width="363.4014" x="556.1587" y="555.8359"/><g><title>Amministratore</title><rect fill="#000000" fill-opacity="0.00000" height="675.2109" width="8" x="71.8896" y="81.4883"/><line style="stroke:#181818;stroke-width:0.5;stroke-dasharray:5,5;" x1="75" x2="75" y1="81.4883" y2="756.6992"/></g><g><title>LibriController</title><rect fill="#000000" fill-opacity="0.00000" height="675.2109" width="8" x="388.1211" y="81.4883"/><line style="stroke:#181818;stroke-width:0.5;stroke-dasharray:5,5;" x1="391.9912" x2="391.9912" y1="81.4883" y2="756.6992"/></g><g><title>ModificaLibroController</title><rect fill="#000000" fill-opacity="0.00000" height="675.2109" width="8" x="649.3716" y="81.4883"/><line style="stroke:#181818;stroke-width:0.5;stroke-dasharray:5,5;" x1="653.1587" x2="653.1587" y1="81.4883" y2="756.6992"/></g><g><title>Libro</title><rect fill="#000000" fill-opacity="0.00000" height="675.2109" width="8" x="881.2344" y="81.4883"/><line style="stroke:#181818;stroke-width:0.5;stroke-dasharray:5,5;" x1="884.9087" x2="884.9087" y1="81.4883" y2="756.6992"/></g><g><title>Libri</title><rect fill="#000000" fill-opacity="0.00000" height="675.2109" width="8" x="1004.457" y="81.4883"/><line style="stroke:#181818;stroke-width:0.5;stroke-dasharray:5,5;" x1="1008.4077" x2="1008.4077" y1="81.4883" y2="756.6992"/></g><g class="participant participant-head" data-participant="a"><text fill="#000000" font-family="sans-serif" font-size="14" lengthAdjust="spacing" textLength="105.7793" x="20" y="78.5352">Amministratore</text><ellipse cx="75.8896" cy="13.5" fill="#E2E2F0" rx="8" ry="8" style="stroke:#181818;stroke-width:0.5;"/><path d="M75.8896,21.5 L75.8896,48.5 M62.8896,29.5 L88.8896,29.5 M75.8896,48.5 L62.8896,63.5 M75.8896,48.5 L88.8896,63.5" fill="none" style="stroke:#181818;stroke-width:0.5;"/></g><g class="participant participant-tail" data-participant="a"><text fill="#000000" font-family="sans-serif" font-size="14" lengthAdjust="spacing" textLength="105.7793" x="20" y="769.2344">Amministratore</text><ellipse cx="75.8896" cy="780.6875" fill="#E2E2F0" rx="8" ry="8" style="stroke:#181818;stroke-width:0.5;"/><path d="M75.8896,788.6875 L75.8896,815.6875 M62.8896,796.6875 L88.8896,796.6875 M75.8896,815.6875 L62.8896,830.6875 M75.8896,815.6875 L88.8896,830.6875" fill="none" style="stroke:#181818;stroke-width:0.5;"/></g><g class="participant participant-head" data-participant="cvl"><rect fill="#E2E2F0" height="30.4883" rx="2.5" ry="2.5" style="stroke:#181818;stroke-width:0.5;" width="112.2598" x="335.9912" y="50"/><text fill="#000000" font-family="sans-serif" font-size="14" lengthAdjust="spacing" textLength="98.2598" x="342.9912" y="70.5352">LibriController</text></g><g class="participant participant-tail" data-participant="cvl"><rect fill="#E2E2F0" height="30.4883" rx="2.5" ry="2.5" style="stroke:#181818;stroke-width:0.5;" width="112.2598" x="335.9912" y="755.6992"/><text fill="#000000" font-family="sans-serif" font-size="14" lengthAdjust="spacing" textLength="98.2598" x="342.9912" y="776.2344">LibriController</text></g><g class="participant participant-head" data-participant="mlc"><rect fill="#E2E2F0" height="30.4883" rx="2.5" ry="2.5" style="stroke:#181818;stroke-width:0.5;" width="174.4258" x="566.1587" y="50"/><text fill="#000000" font-family="sans-serif" font-size="14" lengthAdjust="spacing" textLength="160.4258" x="573.1587" y="70.5352">ModificaLibroController</text></g><g class="participant participant-tail" data-participant="mlc"><rect fill="#E2E2F0" height="30.4883" rx="2.5" ry="2.5" style="stroke:#181818;stroke-width:0.5;" width="174.4258" x="566.1587" y="755.6992"/><text fill="#000000" font-family="sans-serif" font-size="14" lengthAdjust="spacing" textLength="160.4258" x="573.1587" y="776.2344">ModificaLibroController</text></g><g class="participant participant-head" data-participant="l"><rect fill="#E2E2F0" height="30.4883" rx="2.5" ry="2.5" style="stroke:#181818;stroke-width:0.5;" width="48.6514" x="860.9087" y="50"/><text fill="#000000" font-family="sans-serif" font-size="14" lengthAdjust="spacing" textLength="34.6514" x="867.9087" y="70.5352">Libro</text></g><g class="participant participant-tail" data-participant="l"><rect fill="#E2E2F0" height="30.4883" rx="2.5" ry="2.5" style="stroke:#181818;stroke-width:0.5;" width="48.6514" x="860.9087" y="755.6992"/><text fill="#000000" font-family="sans-serif" font-size="14" lengthAdjust="spacing" textLength="34.6514" x="867.9087" y="776.2344">Libro</text></g><g class="participant participant-head" data-participant="gl"><rect fill="#E2E2F0" height="30.4883" rx="2.5" ry="2.5" style="stroke:#181818;stroke-width:0.5;" width="44.0986" x="986.4077" y="50"/><text fill="#000000" font-family="sans-serif" font-size="14" lengthAdjust="spacing" textLength="30.0986" x="993.4077" y="70.5352">Libri</text></g><g class="participant participant-tail" data-participant="gl"><rect fill="#E2E2F0" height="30.4883" rx="2.5" ry="2.5" style="stroke:#181818;stroke-width:0.5;" width="44.0986" x="986.4077" y="755.6992"/><text fill="#000000" font-family="sans-serif" font-size="14" lengthAdjust="spacing" textLength="30.0986" x="993.4077" y="776.2344">Libri</text></g><g><title>LibriController</title><rect fill="#FFFFFF" height="34.3105" style="stroke:#181818;stroke-width:1;" width="10" x="387.1211" y="251.041"/></g><g><title>ModificaLibroController</title><rect fill="#FFFFFF" height="135.2422" style="stroke:#181818;stroke-width:1;" width="10" x="648.3716" y="405.5938"/></g><g><title>ModificaLibroController</title><rect fill="#FFFFFF" height="100.9316" style="stroke:#181818;stroke-width:1;" width="10" x="648.3716" y="637.7676"/></g><g><title>Libro</title><rect fill="#FFFFFF" height="71.6211" style="stroke:#181818;stroke-width:1;" width="10" x="880.2344" y="439.9043"/></g><g><title>Libri</title><rect fill="#FFFFFF" height="71.6211" style="stroke:#181818;stroke-width:1;" width="10" x="1003.457" y="637.7676"/></g><g class="message" data-participant-1="cvl" data-participant-2="cvl"><line style="stroke:#181818;stroke-width:1;" x1="392.1211" x2="434.1211" y1="112.7988" y2="112.7988"/><line style="stroke:#181818;stroke-width:1;" x1="434.1211" x2="434.1211" y1="112.7988" y2="125.7988"/><line style="stroke:#181818;stroke-width:1;" x1="393.1211" x2="434.1211" y1="125.7988" y2="125.7988"/><polygon fill="#181818" points="403.1211,121.7988,393.1211,125.7988,403.1211,129.7988,399.1211,125.7988" style="stroke:#181818;stroke-width:1;"/><text fill="#000000" font-family="sans-serif" font-size="13" lengthAdjust="spacing" textLength="74.3882" x="399.1211" y="108.0566">initialize(...)</text></g><g class="message" data-participant-1="a" data-participant-2="cvl"><polygon fill="#181818" points="380.1211,151.1094,390.1211,155.1094,380.1211,159.1094,384.1211,155.1094" style="stroke:#181818;stroke-width:1;"/><line style="stroke:#181818;stroke-width:1;" x1="75.8896" x2="386.1211" y1="155.1094" y2="155.1094"/><text fill="#000000" font-family="sans-serif" font-size="13" lengthAdjust="spacing" textLength="127.9878" x="82.8896" y="150.3672">Apre schermata libri</text></g><g class="message" data-participant-1="a" data-participant-2="cvl"><polygon fill="#181818" points="380.1211,180.4199,390.1211,184.4199,380.1211,188.4199,384.1211,184.4199" style="stroke:#181818;stroke-width:1;"/><line style="stroke:#181818;stroke-width:1;" x1="75.8896" x2="386.1211" y1="184.4199" y2="184.4199"/><text fill="#000000" font-family="sans-serif" font-size="13" lengthAdjust="spacing" textLength="113.0518" x="82.8896" y="179.6777">Seleziona un libro</text></g><g class="message" data-participant-1="a" data-participant-2="cvl"><polygon fill="#181818" points="380.1211,209.7305,390.1211,213.7305,380.1211,217.7305,384.1211,213.7305" style="stroke:#181818;stroke-width:1;"/><line style="stroke:#181818;stroke-width:1;" x1="75.8896" x2="386.1211" y1="213.7305" y2="213.7305"/><text fill="#000000" font-family="sans-serif" font-size="13" lengthAdjust="spacing" textLength="174.0591" x="82.8896" y="208.9883">Clicca il pulsante "Modifica"</text></g><g class="message" data-participant-1="cvl" data-participant-2="cvl"><line style="stroke:#181818;stroke-width:1;" x1="392.1211" x2="439.1211" y1="238.041" y2="238.041"/><line style="stroke:#181818;stroke-width:1;" x1="439.1211" x2="439.1211" y1="238.041" y2="251.041"/><line style="stroke:#181818;stroke-width:1;" x1="398.1211" x2="439.1211" y1="251.041" y2="251.041"/><polygon fill="#181818" points="408.1211,247.041,398.1211,251.041,408.1211,255.041,404.1211,251.041" style="stroke:#181818;stroke-width:1;"/><text fill="#000000" font-family="sans-serif" font-size="13" lengthAdjust="spacing" textLength="110.5889" x="404.1211" y="233.2988">onModifyBook(...)</text></g><g class="message" data-participant-1="cvl" data-participant-2="a"><polygon fill="#181818" points="86.8896,281.3516,76.8896,285.3516,86.8896,289.3516,82.8896,285.3516" style="stroke:#181818;stroke-width:1;"/><line style="stroke:#181818;stroke-width:1;stroke-dasharray:2,2;" x1="80.8896" x2="391.1211" y1="285.3516" y2="285.3516"/><text fill="#000000" font-family="sans-serif" font-size="13" lengthAdjust="spacing" textLength="287.2314" x="92.8896" y="280.6094">Viene mostrata la schermata di modifica libro</text></g><path d="M10,300.3516 L84.4468,300.3516 L84.4468,307.6621 L74.4468,317.6621 L10,317.6621 L10,300.3516" fill="#EEEEEE" style="stroke:#000000;stroke-width:1.5;"/><rect fill="none" height="309.1055" style="stroke:#000000;stroke-width:1.5;" width="998.457" x="10" y="300.3516"/><text fill="#000000" font-family="sans-serif" font-size="13" font-weight="bold" lengthAdjust="spacing" textLength="29.4468" x="25" y="313.9199">loop</text><text fill="#000000" font-family="sans-serif" font-size="11" font-weight="bold" lengthAdjust="spacing" textLength="282.4443" x="99.4468" y="312.9863">[Amministratore modifica i campi in modo errato]</text><g class="message" data-participant-1="a" data-participant-2="mlc"><polygon fill="#181818" points="641.3716,334.9727,651.3716,338.9727,641.3716,342.9727,645.3716,338.9727" style="stroke:#181818;stroke-width:1;"/><line style="stroke:#181818;stroke-width:1;" x1="75.8896" x2="647.3716" y1="338.9727" y2="338.9727"/><text fill="#000000" font-family="sans-serif" font-size="13" lengthAdjust="spacing" textLength="245.3115" x="82.8896" y="334.2305">Modifica i campi del libro nel TextField</text></g><g class="message" data-participant-1="a" data-participant-2="mlc"><polygon fill="#181818" points="641.3716,364.2832,651.3716,368.2832,641.3716,372.2832,645.3716,368.2832" style="stroke:#181818;stroke-width:1;"/><line style="stroke:#181818;stroke-width:1;" x1="75.8896" x2="647.3716" y1="368.2832" y2="368.2832"/><text fill="#000000" font-family="sans-serif" font-size="13" lengthAdjust="spacing" textLength="184.3867" x="82.8896" y="363.541">Preme il pulsante "Conferma"</text></g><g class="message" data-participant-1="mlc" data-participant-2="mlc"><line style="stroke:#181818;stroke-width:1;" x1="653.3716" x2="700.3716" y1="392.5938" y2="392.5938"/><line style="stroke:#181818;stroke-width:1;" x1="700.3716" x2="700.3716" y1="392.5938" y2="405.5938"/><line style="stroke:#181818;stroke-width:1;" x1="659.3716" x2="700.3716" y1="405.5938" y2="405.5938"/><polygon fill="#181818" points="669.3716,401.5938,659.3716,405.5938,669.3716,409.5938,665.3716,405.5938" style="stroke:#181818;stroke-width:1;"/><text fill="#000000" font-family="sans-serif" font-size="13" lengthAdjust="spacing" textLength="87.8896" x="665.3716" y="387.8516">onConfirm(...)</text></g><g class="message" data-participant-1="mlc" data-participant-2="l"><polygon fill="#181818" points="868.2344,435.9043,878.2344,439.9043,868.2344,443.9043,872.2344,439.9043" style="stroke:#181818;stroke-width:1;"/><line style="stroke:#181818;stroke-width:1;" x1="658.3716" x2="874.2344" y1="439.9043" y2="439.9043"/><text fill="#000000" font-family="sans-serif" font-size="13" lengthAdjust="spacing" textLength="98.395" x="665.3716" y="435.1621">verificaLibro(...)</text></g><g class="message" data-participant-1="l" data-participant-2="l"><line style="stroke:#181818;stroke-width:1;" x1="890.2344" x2="932.2344" y1="469.2148" y2="469.2148"/><line style="stroke:#181818;stroke-width:1;" x1="932.2344" x2="932.2344" y1="469.2148" y2="482.2148"/><line style="stroke:#181818;stroke-width:1;" x1="891.2344" x2="932.2344" y1="482.2148" y2="482.2148"/><polygon fill="#181818" points="901.2344,478.2148,891.2344,482.2148,901.2344,486.2148,897.2344,482.2148" style="stroke:#181818;stroke-width:1;"/><text fill="#000000" font-family="sans-serif" font-size="13" lengthAdjust="spacing" textLength="89.2227" x="897.2344" y="464.4727">Verifica campi</text></g><g class="message" data-participant-1="l" data-participant-2="mlc"><polygon fill="#181818" points="669.3716,507.5254,659.3716,511.5254,669.3716,515.5254,665.3716,511.5254" style="stroke:#181818;stroke-width:1;"/><line style="stroke:#181818;stroke-width:1;stroke-dasharray:2,2;" x1="663.3716" x2="884.2344" y1="511.5254" y2="511.5254"/><text fill="#000000" font-family="sans-serif" font-size="13" lengthAdjust="spacing" textLength="197.8628" x="675.3716" y="506.7832">Verifica non andata a buon fine</text></g><g class="message" data-participant-1="mlc" data-participant-2="a"><polygon fill="#181818" points="86.8896,536.8359,76.8896,540.8359,86.8896,544.8359,82.8896,540.8359" style="stroke:#181818;stroke-width:1;"/><line style="stroke:#181818;stroke-width:1;stroke-dasharray:2,2;" x1="80.8896" x2="652.3716" y1="540.8359" y2="540.8359"/><text fill="#000000" font-family="sans-serif" font-size="13" lengthAdjust="spacing" textLength="548.4819" x="92.8896" y="536.0938">Viene visualizzato un messaggio di errore e vengono evidenziati i campi da correggere</text></g><path d="M556.1587,555.8359 L639.1685,555.8359 L639.1685,563.1465 L629.1685,573.1465 L556.1587,573.1465 L556.1587,555.8359" fill="#EEEEEE" style="stroke:#000000;stroke-width:1.5;"/><rect fill="none" height="46.6211" style="stroke:#000000;stroke-width:1.5;" width="363.4014" x="556.1587" y="555.8359"/><text fill="#000000" font-family="sans-serif" font-size="13" font-weight="bold" lengthAdjust="spacing" textLength="38.0098" x="571.1587" y="569.4043">break</text><g class="message" data-participant-1="l" data-participant-2="mlc"><polygon fill="#181818" points="664.3716,590.457,654.3716,594.457,664.3716,598.457,660.3716,594.457" style="stroke:#181818;stroke-width:1;"/><line style="stroke:#181818;stroke-width:1;stroke-dasharray:2,2;" x1="658.3716" x2="884.2344" y1="594.457" y2="594.457"/><text fill="#000000" font-family="sans-serif" font-size="13" lengthAdjust="spacing" textLength="169.6284" x="670.3716" y="589.7148">Verifica andata a buon fine</text></g><g class="message" data-participant-1="mlc" data-participant-2="gl"><polygon fill="#181818" points="991.457,633.7676,1001.457,637.7676,991.457,641.7676,995.457,637.7676" style="stroke:#181818;stroke-width:1;"/><line style="stroke:#181818;stroke-width:1;" x1="658.3716" x2="997.457" y1="637.7676" y2="637.7676"/><text fill="#000000" font-family="sans-serif" font-size="13" lengthAdjust="spacing" textLength="75.2324" x="665.3716" y="633.0254">modifica(...)</text></g><g class="message" data-participant-1="gl" data-participant-2="gl"><line style="stroke:#181818;stroke-width:1;" x1="1013.457" x2="1055.457" y1="667.0781" y2="667.0781"/><line style="stroke:#181818;stroke-width:1;" x1="1055.457" x2="1055.457" y1="667.0781" y2="680.0781"/><line style="stroke:#181818;stroke-width:1;" x1="1014.457" x2="1055.457" y1="680.0781" y2="680.0781"/><polygon fill="#181818" points="1024.457,676.0781,1014.457,680.0781,1024.457,684.0781,1020.457,680.0781" style="stroke:#181818;stroke-width:1;"/><text fill="#000000" font-family="sans-serif" font-size="13" lengthAdjust="spacing" textLength="150.9536" x="1020.457" y="662.3359">Viene modificato il libro</text></g><g class="message" data-participant-1="gl" data-participant-2="mlc"><polygon fill="#181818" points="669.3716,705.3887,659.3716,709.3887,669.3716,713.3887,665.3716,709.3887" style="stroke:#181818;stroke-width:1;"/><line style="stroke:#181818;stroke-width:1;stroke-dasharray:2,2;" x1="663.3716" x2="1007.457" y1="709.3887" y2="709.3887"/><text fill="#000000" font-family="sans-serif" font-size="13" lengthAdjust="spacing" textLength="61.7056" x="675.3716" y="704.6465">Conferma</text></g><g class="message" data-participant-1="mlc" data-participant-2="a"><polygon fill="#181818" points="86.8896,734.6992,76.8896,738.6992,86.8896,742.6992,82.8896,738.6992" style="stroke:#181818;stroke-width:1;"/><line style="stroke:#181818;stroke-width:1;stroke-dasharray:2,2;" x1="80.8896" x2="652.3716" y1="738.6992" y2="738.6992"/><text fill="#000000" font-family="sans-serif" font-size="13" lengthAdjust="spacing" textLength="271.4385" x="92.8896" y="733.957">Viene chiusa la schermata di modifica libro</text></g><!--SRC=[bPFFRjim3CRFzbCGkNGx90-GGu2km4uTC613xupCk4HbqP1bOylJZvJ_TxtqOaJYH_7ZZqo1Bac4nwRXm5sAg2S2x03BeiMOs76B8S4pNoC_IKXHlATe2ZVulUQ7L7nZXwQLlRRnxl_tn2B-WpfsN_koBBJ4yQAVCwYxnEZvJbzEfzFNii0fyDYgtywzKcmm8NZBNwE_oDET9I3q8SUaBDReasVd4DX3s_jEonCSvYOEs-eIylNVRo9lStsNU43Do1XC2yVZ1GvuECCBKo1e9FDKJxWnMB46nXApeOfsZvN5mxjnB0aC3fkMbORT2L0qHLbuaHO-csGOT2xdPMwBiY8_UeEWltxJd_IToLURb9-H6jg3qu7Vh4S5LwXc4agmUuxDX6tbbbTYaYhYWUAwFBDuLHlZel1P-Z99HxTZ8CFF5PTea00OAeEESEtrTED09jy0zvFRumNdkGtSzRPfTwLaQzDGrs5TizZi59x1LHM5MeBI7BYYS6TClF9JQn8ZrJL5AxYfDtRze50gjiKaUxJl7Djge6BNIQhW6WdVojpn179fwyEMAEXqx5EEG6l5D2_0-uKTBIp7EgEj_PWqh-wOgW3OpsjgeXNpFEvzU_QOXhDi0UfUkUy-zJV85ly1]--></g></svg>