<svg xmlns="http://www.w3.org/2000/svg" xmlns:xlink="http://www.w3.org/1999/xlink" contentStyleType="text/css" data-diagram-type="SEQUENCE" height="1014px" preserveAspectRatio="none" style="width:1296px;height:1014px;background:#FFFFFF;" version="1.1" viewBox="0 0 1296 1014" width="1296px" zoomAndPan="magnify"><defs/><g><g><title>UtentiController</title><rect fill="#FFFFFF" height="34.3105" style="stroke:#181818;stroke-width:1;" width="10" x="399.353" y="221.7305"/></g><g><title>AggiuntaUtenteController</title><rect fill="#FFFFFF" height="135.2422" style="stroke:#181818;stroke-width:1;" width="10" x="648.3716" y="376.2832"/></g><g><title>AggiuntaUtenteController</title><rect fill="#FFFFFF" height="130.2422" style="stroke:#181818;stroke-width:1;" width="10" x="648.3716" y="777.9648"/></g><g><title>Utente</title><rect fill="#FFFFFF" height="71.6211" style="stroke:#181818;stroke-width:1;" width="10" x="880.2344" y="410.5938"/></g><g><title>Utenti</title><rect fill="#FFFFFF" height="71.6211" style="stroke:#181818;stroke-width:1;" width="10" x="1003.457" y="807.2754"/></g><rect fill="none" height="309.1055" style="stroke:#000000;stroke-width:1.5;" width="998.457" x="10" y="271.041"/><rect fill="none" height="46.6211" style="stroke:#000000;stroke-width:1.5;" width="375.1592" x="549.3057" y="526.5254"/><rect fill="none" height="250.4395" style="stroke:#000000;stroke-width:1.5;" width="1178.707" x="10" y="665.7676"/><g><title>Amministratore</title><rect fill="#000000" fill-opacity="0.00000" height="851.7188" width="8" x="71.8896" y="81.4883"/><line style="stroke:#181818;stroke-width:0.5;stroke-dasharray:5,5;" x1="75" x2="75" y1="81.4883" y2="933.207"/></g><g><title>UtentiController</title><rect fill="#000000" fill-opacity="0.00000" height="851.7188" width="8" x="400.353" y="81.4883"/><line style="stroke:#181818;stroke-width:0.5;stroke-dasharray:5,5;" x1="403.9185" x2="403.9185" y1="81.4883" y2="933.207"/></g><g><title>AggiuntaUtenteController</title><rect fill="#000000" fill-opacity="0.00000" height="851.7188" width="8" x="649.3716" y="81.4883"/><line style="stroke:#181818;stroke-width:0.5;stroke-dasharray:5,5;" x1="653.3057" x2="653.3057" y1="81.4883" y2="933.207"/></g><g><title>Utente</title><rect fill="#000000" fill-opacity="0.00000" height="851.7188" width="8" x="881.2344" y="81.4883"/><line style="stroke:#181818;stroke-width:0.5;stroke-dasharray:5,5;" x1="885.0039" x2="885.0039" y1="81.4883" y2="933.207"/></g><g><title>Utenti</title><rect fill="#000000" fill-opacity="0.00000" height="851.7188" width="8" x="1004.457" y="81.4883"/><line style="stroke:#181818;stroke-width:0.5;stroke-dasharray:5,5;" x1="1008.103" x2="1008.103" y1="81.4883" y2="933.207"/></g><g class="participant participant-head" data-participant="a"><text fill="#000000" font-family="sans-serif" font-size="14" lengthAdjust="spacing" textLength="105.7793" x="20" y="78.5352">Amministratore</text><ellipse cx="75.8896" cy="13.5" fill="#E2E2F0" rx="8" ry="8" style="stroke:#181818;stroke-width:0.5;"/><path d="M75.8896,21.5 L75.8896,48.5 M62.8896,29.5 L88.8896,29.5 M75.8896,48.5 L62.8896,63.5 M75.8896,48.5 L88.8896,63.5" fill="none" style="stroke:#181818;stroke-width:0.5;"/></g><g class="participant participant-tail" data-participant="a"><text fill="#000000" font-family="sans-serif" font-size="14" lengthAdjust="spacing" textLength="105.7793" x="20" y="945.7422">Amministratore</text><ellipse cx="75.8896" cy="957.1953" fill="#E2E2F0" rx="8" ry="8" style="stroke:#181818;stroke-width:0.5;"/><path d="M75.8896,965.1953 L75.8896,992.1953 M62.8896,973.1953 L88.8896,973.1953 M75.8896,992.1953 L62.8896,1007.1953 M75.8896,992.1953 L88.8896,1007.1953" fill="none" style="stroke:#181818;stroke-width:0.5;"/></g><g class="participant participant-head" data-participant="cvu"><rect fill="#E2E2F0" height="30.4883" rx="2.5" ry="2.5" style="stroke:#181818;stroke-width:0.5;" width="122.8691" x="342.9185" y="50"/><text fill="#000000" font-family="sans-serif" font-size="14" lengthAdjust="spacing" textLength="108.8691" x="349.9185" y="70.5352">UtentiController</text></g><g class="participant participant-tail" data-participant="cvu"><rect fill="#E2E2F0" height="30.4883" rx="2.5" ry="2.5" style="stroke:#181818;stroke-width:0.5;" width="122.8691" x="342.9185" y="932.207"/><text fill="#000000" font-family="sans-serif" font-size="14" lengthAdjust="spacing" textLength="108.8691" x="349.9185" y="952.7422">UtentiController</text></g><g class="participant participant-head" data-participant="auc"><rect fill="#E2E2F0" height="30.4883" rx="2.5" ry="2.5" style="stroke:#181818;stroke-width:0.5;" width="188.1318" x="559.3057" y="50"/><text fill="#000000" font-family="sans-serif" font-size="14" lengthAdjust="spacing" textLength="174.1318" x="566.3057" y="70.5352">AggiuntaUtenteController</text></g><g class="participant participant-tail" data-participant="auc"><rect fill="#E2E2F0" height="30.4883" rx="2.5" ry="2.5" style="stroke:#181818;stroke-width:0.5;" width="188.1318" x="559.3057" y="932.207"/><text fill="#000000" font-family="sans-serif" font-size="14" lengthAdjust="spacing" textLength="174.1318" x="566.3057" y="952.7422">AggiuntaUtenteController</text></g><g class="participant participant-head" data-participant="u"><rect fill="#E2E2F0" height="30.4883" rx="2.5" ry="2.5" style="stroke:#181818;stroke-width:0.5;" width="58.4609" x="856.0039" y="50"/><text fill="#000000" font-family="sans-serif" font-size="14" lengthAdjust="spacing" textLength="44.4609" x="863.0039" y="70.5352">Utente</text></g><g class="participant participant-tail" data-participant="u"><rect fill="#E2E2F0" height="30.4883" rx="2.5" ry="2.5" style="stroke:#181818;stroke-width:0.5;" width="58.4609" x="856.0039" y="932.207"/><text fill="#000000" font-family="sans-serif" font-size="14" lengthAdjust="spacing" textLength="44.4609" x="863.0039" y="952.7422">Utente</text></g><g class="participant participant-head" data-participant="gu"><rect fill="#E2E2F0" height="30.4883" rx="2.5" ry="2.5" style="stroke:#181818;stroke-width:0.5;" width="54.708" x="981.103" y="50"/><text fill="#000000" font-family="sans-serif" font-size="14" lengthAdjust="spacing" textLength="40.708" x="988.103" y="70.5352">Utenti</text></g><g class="participant participant-tail" data-participant="gu"><rect fill="#E2E2F0" height="30.4883" rx="2.5" ry="2.5" style="stroke:#181818;stroke-width:0.5;" width="54.708" x="981.103" y="932.207"/><text fill="#000000" font-family="sans-serif" font-size="14" lengthAdjust="spacing" textLength="40.708" x="988.103" y="952.7422">Utenti</text></g><g><title>UtentiController</title><rect fill="#FFFFFF" height="34.3105" style="stroke:#181818;stroke-width:1;" width="10" x="399.353" y="221.7305"/></g><g><title>AggiuntaUtenteController</title><rect fill="#FFFFFF" height="135.2422" style="stroke:#181818;stroke-width:1;" width="10" x="648.3716" y="376.2832"/></g><g><title>AggiuntaUtenteController</title><rect fill="#FFFFFF" height="130.2422" style="stroke:#181818;stroke-width:1;" width="10" x="648.3716" y="777.9648"/></g><g><title>Utente</title><rect fill="#FFFFFF" height="71.6211" style="stroke:#181818;stroke-width:1;" width="10" x="880.2344" y="410.5938"/></g><g><title>Utenti</title><rect fill="#FFFFFF" height="71.6211" style="stroke:#181818;stroke-width:1;" width="10" x="1003.457" y="807.2754"/></g><g class="message" data-participant-1="cvu" data-participant-2="cvu"><line style="stroke:#181818;stroke-width:1;" x1="404.353" x2="446.353" y1="112.7988" y2="112.7988"/><line style="stroke:#181818;stroke-width:1;" x1="446.353" x2="446.353" y1="112.7988" y2="125.7988"/><line style="stroke:#181818;stroke-width:1;" x1="405.353" x2="446.353" y1="125.7988" y2="125.7988"/><polygon fill="#181818" points="415.353,121.7988,405.353,125.7988,415.353,129.7988,411.353,125.7988" style="stroke:#181818;stroke-width:1;"/><text fill="#000000" font-family="sans-serif" font-size="13" lengthAdjust="spacing" textLength="74.3882" x="411.353" y="108.0566">initialize(...)</text></g><g class="message" data-participant-1="a" data-participant-2="cvu"><polygon fill="#181818" points="392.353,151.1094,402.353,155.1094,392.353,159.1094,396.353,155.1094" style="stroke:#181818;stroke-width:1;"/><line style="stroke:#181818;stroke-width:1;" x1="75.8896" x2="398.353" y1="155.1094" y2="155.1094"/><text fill="#000000" font-family="sans-serif" font-size="13" lengthAdjust="spacing" textLength="140.0737" x="82.8896" y="150.3672">Apre schermata utenti</text></g><g class="message" data-participant-1="a" data-participant-2="cvu"><polygon fill="#181818" points="392.353,180.4199,402.353,184.4199,392.353,188.4199,396.353,184.4199" style="stroke:#181818;stroke-width:1;"/><line style="stroke:#181818;stroke-width:1;" x1="75.8896" x2="398.353" y1="184.4199" y2="184.4199"/><text fill="#000000" font-family="sans-serif" font-size="13" lengthAdjust="spacing" textLength="177.4995" x="82.8896" y="179.6777">Clicca il pulsante "Aggiungi"</text></g><g class="message" data-participant-1="cvu" data-participant-2="cvu"><line style="stroke:#181818;stroke-width:1;" x1="404.353" x2="451.353" y1="208.7305" y2="208.7305"/><line style="stroke:#181818;stroke-width:1;" x1="451.353" x2="451.353" y1="208.7305" y2="221.7305"/><line style="stroke:#181818;stroke-width:1;" x1="410.353" x2="451.353" y1="221.7305" y2="221.7305"/><polygon fill="#181818" points="420.353,217.7305,410.353,221.7305,420.353,225.7305,416.353,221.7305" style="stroke:#181818;stroke-width:1;"/><text fill="#000000" font-family="sans-serif" font-size="13" lengthAdjust="spacing" textLength="90.3779" x="416.353" y="203.9883">onAddUser(...)</text></g><g class="message" data-participant-1="cvu" data-participant-2="a"><polygon fill="#181818" points="86.8896,252.041,76.8896,256.041,86.8896,260.041,82.8896,256.041" style="stroke:#181818;stroke-width:1;"/><line style="stroke:#181818;stroke-width:1;stroke-dasharray:2,2;" x1="80.8896" x2="403.353" y1="256.041" y2="256.041"/><text fill="#000000" font-family="sans-serif" font-size="13" lengthAdjust="spacing" textLength="299.4634" x="92.8896" y="251.2988">Viene mostrata la schermata di aggiunta utente</text></g><path d="M10,271.041 L84.4468,271.041 L84.4468,278.3516 L74.4468,288.3516 L10,288.3516 L10,271.041" fill="#EEEEEE" style="stroke:#000000;stroke-width:1.5;"/><rect fill="none" height="309.1055" style="stroke:#000000;stroke-width:1.5;" width="998.457" x="10" y="271.041"/><text fill="#000000" font-family="sans-serif" font-size="13" font-weight="bold" lengthAdjust="spacing" textLength="29.4468" x="25" y="284.6094">loop</text><text fill="#000000" font-family="sans-serif" font-size="11" font-weight="bold" lengthAdjust="spacing" textLength="316.1855" x="99.4468" y="283.6758">[Utente inserisce i campi dell'utente errati o incompleti]</text><g class="message" data-participant-1="a" data-participant-2="auc"><polygon fill="#181818" points="641.3716,305.6621,651.3716,309.6621,641.3716,313.6621,645.3716,309.6621" style="stroke:#181818;stroke-width:1;"/><line style="stroke:#181818;stroke-width:1;" x1="75.8896" x2="647.3716" y1="309.6621" y2="309.6621"/><text fill="#000000" font-family="sans-serif" font-size="13" lengthAdjust="spacing" textLength="247.1016" x="82.8896" y="304.9199">Inserisce i campi del libro nel TextField</text></g><g class="message" data-participant-1="a" data-participant-2="auc"><polygon fill="#181818" points="641.3716,334.9727,651.3716,338.9727,641.3716,342.9727,645.3716,338.9727" style="stroke:#181818;stroke-width:1;"/><line style="stroke:#181818;stroke-width:1;" x1="75.8896" x2="647.3716" y1="338.9727" y2="338.9727"/><text fill="#000000" font-family="sans-serif" font-size="13" lengthAdjust="spacing" textLength="184.3867" x="82.8896" y="334.2305">Preme il pulsante "Conferma"</text></g><g class="message" data-participant-1="auc" data-participant-2="auc"><line style="stroke:#181818;stroke-width:1;" x1="653.3716" x2="700.3716" y1="363.2832" y2="363.2832"/><line style="stroke:#181818;stroke-width:1;" x1="700.3716" x2="700.3716" y1="363.2832" y2="376.2832"/><line style="stroke:#181818;stroke-width:1;" x1="659.3716" x2="700.3716" y1="376.2832" y2="376.2832"/><polygon fill="#181818" points="669.3716,372.2832,659.3716,376.2832,669.3716,380.2832,665.3716,376.2832" style="stroke:#181818;stroke-width:1;"/><text fill="#000000" font-family="sans-serif" font-size="13" lengthAdjust="spacing" textLength="87.8896" x="665.3716" y="358.541">onConfirm(...)</text></g><g class="message" data-participant-1="auc" data-participant-2="u"><polygon fill="#181818" points="868.2344,406.5938,878.2344,410.5938,868.2344,414.5938,872.2344,410.5938" style="stroke:#181818;stroke-width:1;"/><line style="stroke:#181818;stroke-width:1;" x1="658.3716" x2="874.2344" y1="410.5938" y2="410.5938"/><text fill="#000000" font-family="sans-serif" font-size="13" lengthAdjust="spacing" textLength="107.5039" x="665.3716" y="405.8516">verificaUtente(...)</text></g><g class="message" data-participant-1="u" data-participant-2="u"><line style="stroke:#181818;stroke-width:1;" x1="890.2344" x2="932.2344" y1="439.9043" y2="439.9043"/><line style="stroke:#181818;stroke-width:1;" x1="932.2344" x2="932.2344" y1="439.9043" y2="452.9043"/><line style="stroke:#181818;stroke-width:1;" x1="891.2344" x2="932.2344" y1="452.9043" y2="452.9043"/><polygon fill="#181818" points="901.2344,448.9043,891.2344,452.9043,901.2344,456.9043,897.2344,452.9043" style="stroke:#181818;stroke-width:1;"/><text fill="#000000" font-family="sans-serif" font-size="13" lengthAdjust="spacing" textLength="89.2227" x="897.2344" y="435.1621">Verifica campi</text></g><g class="message" data-participant-1="u" data-participant-2="auc"><polygon fill="#181818" points="669.3716,478.2148,659.3716,482.2148,669.3716,486.2148,665.3716,482.2148" style="stroke:#181818;stroke-width:1;"/><line style="stroke:#181818;stroke-width:1;stroke-dasharray:2,2;" x1="663.3716" x2="884.2344" y1="482.2148" y2="482.2148"/><text fill="#000000" font-family="sans-serif" font-size="13" lengthAdjust="spacing" textLength="197.8628" x="675.3716" y="477.4727">Verifica non andata a buon fine</text></g><g class="message" data-participant-1="auc" data-participant-2="a"><polygon fill="#181818" points="86.8896,507.5254,76.8896,511.5254,86.8896,515.5254,82.8896,511.5254" style="stroke:#181818;stroke-width:1;"/><line style="stroke:#181818;stroke-width:1;stroke-dasharray:2,2;" x1="80.8896" x2="652.3716" y1="511.5254" y2="511.5254"/><text fill="#000000" font-family="sans-serif" font-size="13" lengthAdjust="spacing" textLength="548.4819" x="92.8896" y="506.7832">Viene visualizzato un messaggio di errore e vengono evidenziati i campi da correggere</text></g><path d="M549.3057,526.5254 L632.3154,526.5254 L632.3154,533.8359 L622.3154,543.8359 L549.3057,543.8359 L549.3057,526.5254" fill="#EEEEEE" style="stroke:#000000;stroke-width:1.5;"/><rect fill="none" height="46.6211" style="stroke:#000000;stroke-width:1.5;" width="375.1592" x="549.3057" y="526.5254"/><text fill="#000000" font-family="sans-serif" font-size="13" font-weight="bold" lengthAdjust="spacing" textLength="38.0098" x="564.3057" y="540.0938">break</text><text fill="#000000" font-family="sans-serif" font-size="11" font-weight="bold" lengthAdjust="spacing" textLength="161.2295" x="647.3154" y="539.1602">[Verifica andata a buon fine]</text><g class="message" data-participant-1="u" data-participant-2="auc"><polygon fill="#181818" points="664.3716,561.1465,654.3716,565.1465,664.3716,569.1465,660.3716,565.1465" style="stroke:#181818;stroke-width:1;"/><line style="stroke:#181818;stroke-width:1;stroke-dasharray:2,2;" x1="658.3716" x2="884.2344" y1="565.1465" y2="565.1465"/><text fill="#000000" font-family="sans-serif" font-size="13" lengthAdjust="spacing" textLength="169.6284" x="670.3716" y="560.4043">Verifica andata a buon fine</text></g><g class="message" data-participant-1="auc" data-participant-2="gu"><polygon fill="#181818" points="996.457,604.457,1006.457,608.457,996.457,612.457,1000.457,608.457" style="stroke:#181818;stroke-width:1;"/><line style="stroke:#181818;stroke-width:1;" x1="653.3716" x2="1002.457" y1="608.457" y2="608.457"/><text fill="#000000" font-family="sans-serif" font-size="13" lengthAdjust="spacing" textLength="99.125" x="660.3716" y="603.7148">esisteChiave(...)</text></g><g class="message" data-participant-1="gu" data-participant-2="gu"><line style="stroke:#181818;stroke-width:1;" x1="1008.457" x2="1050.457" y1="637.7676" y2="637.7676"/><line style="stroke:#181818;stroke-width:1;" x1="1050.457" x2="1050.457" y1="637.7676" y2="650.7676"/><line style="stroke:#181818;stroke-width:1;" x1="1009.457" x2="1050.457" y1="650.7676" y2="650.7676"/><polygon fill="#181818" points="1019.457,646.7676,1009.457,650.7676,1019.457,654.7676,1015.457,650.7676" style="stroke:#181818;stroke-width:1;"/><text fill="#000000" font-family="sans-serif" font-size="13" lengthAdjust="spacing" textLength="274.1997" x="1015.457" y="633.0254">Verifica se l'utente &#232; presente gi&#224; nella lista</text></g><path d="M10,665.7676 L72.1387,665.7676 L72.1387,673.0781 L62.1387,683.0781 L10,683.0781 L10,665.7676" fill="#EEEEEE" style="stroke:#000000;stroke-width:1.5;"/><rect fill="none" height="250.4395" style="stroke:#000000;stroke-width:1.5;" width="1178.707" x="10" y="665.7676"/><text fill="#000000" font-family="sans-serif" font-size="13" font-weight="bold" lengthAdjust="spacing" textLength="17.1387" x="25" y="679.3359">alt</text><text fill="#000000" font-family="sans-serif" font-size="11" font-weight="bold" lengthAdjust="spacing" textLength="149.354" x="87.1387" y="678.4023">[L'utente esiste nella lista]</text><g class="message" data-participant-1="gu" data-participant-2="auc"><polygon fill="#181818" points="664.3716,700.3887,654.3716,704.3887,664.3716,708.3887,660.3716,704.3887" style="stroke:#181818;stroke-width:1;"/><line style="stroke:#181818;stroke-width:1;stroke-dasharray:2,2;" x1="658.3716" x2="1007.457" y1="704.3887" y2="704.3887"/><text fill="#000000" font-family="sans-serif" font-size="13" lengthAdjust="spacing" textLength="155.1431" x="670.3716" y="699.6465">L'utente esiste nella lista</text></g><g class="message" data-participant-1="auc" data-participant-2="a"><polygon fill="#181818" points="86.8896,729.6992,76.8896,733.6992,86.8896,737.6992,82.8896,733.6992" style="stroke:#181818;stroke-width:1;"/><line style="stroke:#181818;stroke-width:1;stroke-dasharray:2,2;" x1="80.8896" x2="652.3716" y1="733.6992" y2="733.6992"/><text fill="#000000" font-family="sans-serif" font-size="13" lengthAdjust="spacing" textLength="246.6064" x="92.8896" y="728.957">Viene mostrato un messaggio di errore</text></g><line style="stroke:#000000;stroke-width:1;stroke-dasharray:2,2;" x1="10" x2="1188.707" y1="742.6992" y2="742.6992"/><text fill="#000000" font-family="sans-serif" font-size="11" font-weight="bold" lengthAdjust="spacing" textLength="174.4531" x="15" y="753.334">[L'utente non esiste nella lista]</text><g class="message" data-participant-1="gu" data-participant-2="auc"><polygon fill="#181818" points="669.3716,773.9648,659.3716,777.9648,669.3716,781.9648,665.3716,777.9648" style="stroke:#181818;stroke-width:1;"/><line style="stroke:#181818;stroke-width:1;stroke-dasharray:2,2;" x1="663.3716" x2="1007.457" y1="777.9648" y2="777.9648"/><text fill="#000000" font-family="sans-serif" font-size="13" lengthAdjust="spacing" textLength="183.3774" x="675.3716" y="773.2227">L'utente non esiste nella lista</text></g><g class="message" data-participant-1="auc" data-participant-2="gu"><polygon fill="#181818" points="991.457,803.2754,1001.457,807.2754,991.457,811.2754,995.457,807.2754" style="stroke:#181818;stroke-width:1;"/><line style="stroke:#181818;stroke-width:1;" x1="658.3716" x2="997.457" y1="807.2754" y2="807.2754"/><text fill="#000000" font-family="sans-serif" font-size="13" lengthAdjust="spacing" textLength="75.9434" x="665.3716" y="802.5332">aggiungi(...)</text></g><g class="message" data-participant-1="gu" data-participant-2="gu"><line style="stroke:#181818;stroke-width:1;" x1="1013.457" x2="1055.457" y1="836.5859" y2="836.5859"/><line style="stroke:#181818;stroke-width:1;" x1="1055.457" x2="1055.457" y1="836.5859" y2="849.5859"/><line style="stroke:#181818;stroke-width:1;" x1="1014.457" x2="1055.457" y1="849.5859" y2="849.5859"/><polygon fill="#181818" points="1024.457,845.5859,1014.457,849.5859,1024.457,853.5859,1020.457,849.5859" style="stroke:#181818;stroke-width:1;"/><text fill="#000000" font-family="sans-serif" font-size="13" lengthAdjust="spacing" textLength="146.25" x="1020.457" y="831.8438">Viene aggiunto l'utente</text></g><g class="message" data-participant-1="gu" data-participant-2="auc"><polygon fill="#181818" points="669.3716,874.8965,659.3716,878.8965,669.3716,882.8965,665.3716,878.8965" style="stroke:#181818;stroke-width:1;"/><line style="stroke:#181818;stroke-width:1;stroke-dasharray:2,2;" x1="663.3716" x2="1007.457" y1="878.8965" y2="878.8965"/><text fill="#000000" font-family="sans-serif" font-size="13" lengthAdjust="spacing" textLength="61.7056" x="675.3716" y="874.1543">Conferma</text></g><g class="message" data-participant-1="auc" data-participant-2="a"><polygon fill="#181818" points="86.8896,904.207,76.8896,908.207,86.8896,912.207,82.8896,908.207" style="stroke:#181818;stroke-width:1;"/><line style="stroke:#181818;stroke-width:1;stroke-dasharray:2,2;" x1="80.8896" x2="652.3716" y1="908.207" y2="908.207"/><text fill="#000000" font-family="sans-serif" font-size="13" lengthAdjust="spacing" textLength="283.6704" x="92.8896" y="903.4648">Viene chiusa la schermata di aggiunta utente</text></g><!--SRC=[ZLJBRjj033nBNq7ualRWV40E0Om00GeKHGzDxlIAsH1TxQhxC0f_JOxzZ_nOoTN3TgEs0Gn1yeuum-5G3PeS8kpwdZsd756U2301jis0CRFX0Ns6Xqm-yrtmEGRdA2h47CebQ6Sj5v-nWkaIZCMiLAnKPOrA3snfsqPOjhTokG5Hc1aT7-d3zVNrnxR1wM0tYEPadYdsc15ABN0wldDi308x68fBgAoRKQhbpGL3yBkkUqWKPmAJ-O22hwqg4BRRMzZWvWOUcJn17wff20xF57GYV_9YL4Djqz55jRQvkdSbfG3eCaMFSXRQneKmpDQm5oMSZDo1mNvWwCYvgx4WK1HUXY0m4_h1aRQiFOlJD_1fxLrml8y1lDnzev_vdibrP-zyZTJJfKqomoVjQQEmOYPWyFe_ntwowUHJdV841J7q82AUs4o9cE4dlBhQDE9gHJzEw57nV2HdbNKvzS43-awDHjWNUNfYJnL-Pl9OMfM8wdbS1qv54tIKd4Fnq5DAEgcW8nD7DVo28c-33q07xiWVMNrUR1Hr8KQobcBbFACSkvVVbVZJyP63K4hXaWnhAb0c8FCLm3uIVZzrjDxDMk-hIF8oHhsqsg-QQSLDIhBGTFVCU5YS1wrhomnPoYQ29LYllq3sATLxowylcXT9jvDggEr9Shy8jy92IhndDqTLpEiAJVi7nQhLyAEmU2558F6I1sNp4dZnvVL5LBiCdvTWLztdhDLJMxPJ_Fw1RDzCV5hGlqrRAfEJxfUQ6gxLklPi7Fz7hsw4MexJX-VjBjWniT9d1Oxofyz8MCOpOKvQvXNzC_zsTG7CCvVqZg_LMgmrORy1]--></g></svg>