<svg xmlns="http://www.w3.org/2000/svg" xmlns:xlink="http://www.w3.org/1999/xlink" contentStyleType="text/css" data-diagram-type="SEQUENCE" height="733px" preserveAspectRatio="none" style="width:1003px;height:733px;background:#FFFFFF;" version="1.1" viewBox="0 0 1003 733" width="1003px" zoomAndPan="magnify"><defs/><g><g><title>PrestitiController</title><rect fill="#FFFFFF" height="34.3105" style="stroke:#181818;stroke-width:1;" width="10" x="494.6123" y="251.041"/></g><g><title>RimozioneController</title><rect fill="#FFFFFF" height="34.3105" style="stroke:#181818;stroke-width:1;" width="10" x="646.123" y="376.2832"/></g><g><title>RimozioneController</title><rect fill="#FFFFFF" height="135.2422" style="stroke:#181818;stroke-width:1;" width="10" x="646.123" y="492.1699"/></g><g><title>Prestiti</title><rect fill="#FFFFFF" height="71.6211" style="stroke:#181818;stroke-width:1;" width="10" x="763.5532" y="526.4805"/></g><rect fill="none" height="335.0605" style="stroke:#000000;stroke-width:1.5;" width="986.3408" x="10" y="300.3516"/><g><title>Amministratore</title><rect fill="#000000" fill-opacity="0.00000" height="570.9238" width="8" x="71.8896" y="81.4883"/><line style="stroke:#181818;stroke-width:0.5;stroke-dasharray:5,5;" x1="75" x2="75" y1="81.4883" y2="652.4121"/></g><g><title>PrestitiController</title><rect fill="#000000" fill-opacity="0.00000" height="570.9238" width="8" x="495.6123" y="81.4883"/><line style="stroke:#181818;stroke-width:0.5;stroke-dasharray:5,5;" x1="499.0469" x2="499.0469" y1="81.4883" y2="652.4121"/></g><g><title>RimozioneController</title><rect fill="#000000" fill-opacity="0.00000" height="570.9238" width="8" x="647.123" y="81.4883"/><line style="stroke:#181818;stroke-width:0.5;stroke-dasharray:5,5;" x1="650.1777" x2="650.1777" y1="81.4883" y2="652.4121"/></g><g><title>Prestiti</title><rect fill="#000000" fill-opacity="0.00000" height="570.9238" width="8" x="764.5532" y="81.4883"/><line style="stroke:#181818;stroke-width:0.5;stroke-dasharray:5,5;" x1="768.0684" x2="768.0684" y1="81.4883" y2="652.4121"/></g><g class="participant participant-head" data-participant="a"><text fill="#000000" font-family="sans-serif" font-size="14" lengthAdjust="spacing" textLength="105.7793" x="20" y="78.5352">Amministratore</text><ellipse cx="75.8896" cy="13.5" fill="#E2E2F0" rx="8" ry="8" style="stroke:#181818;stroke-width:0.5;"/><path d="M75.8896,21.5 L75.8896,48.5 M62.8896,29.5 L88.8896,29.5 M75.8896,48.5 L62.8896,63.5 M75.8896,48.5 L88.8896,63.5" fill="none" style="stroke:#181818;stroke-width:0.5;"/></g><g class="participant participant-tail" data-participant="a"><text fill="#000000" font-family="sans-serif" font-size="14" lengthAdjust="spacing" textLength="105.7793" x="20" y="664.9473">Amministratore</text><ellipse cx="75.8896" cy="676.4004" fill="#E2E2F0" rx="8" ry="8" style="stroke:#181818;stroke-width:0.5;"/><path d="M75.8896,684.4004 L75.8896,711.4004 M62.8896,692.4004 L88.8896,692.4004 M75.8896,711.4004 L62.8896,726.4004 M75.8896,711.4004 L88.8896,726.4004" fill="none" style="stroke:#181818;stroke-width:0.5;"/></g><g class="participant participant-head" data-participant="cvp"><rect fill="#E2E2F0" height="30.4883" rx="2.5" ry="2.5" style="stroke:#181818;stroke-width:0.5;" width="129.1309" x="435.0469" y="50"/><text fill="#000000" font-family="sans-serif" font-size="14" lengthAdjust="spacing" textLength="115.1309" x="442.0469" y="70.5352">PrestitiController</text></g><g class="participant participant-tail" data-participant="cvp"><rect fill="#E2E2F0" height="30.4883" rx="2.5" ry="2.5" style="stroke:#181818;stroke-width:0.5;" width="129.1309" x="435.0469" y="651.4121"/><text fill="#000000" font-family="sans-serif" font-size="14" lengthAdjust="spacing" textLength="115.1309" x="442.0469" y="671.9473">PrestitiController</text></g><g class="participant participant-head" data-participant="rrc"><rect fill="#E2E2F0" height="30.4883" rx="2.5" ry="2.5" style="stroke:#181818;stroke-width:0.5;" width="153.8906" x="574.1777" y="50"/><text fill="#000000" font-family="sans-serif" font-size="14" lengthAdjust="spacing" textLength="139.8906" x="581.1777" y="70.5352">RimozioneController</text></g><g class="participant participant-tail" data-participant="rrc"><rect fill="#E2E2F0" height="30.4883" rx="2.5" ry="2.5" style="stroke:#181818;stroke-width:0.5;" width="153.8906" x="574.1777" y="651.4121"/><text fill="#000000" font-family="sans-serif" font-size="14" lengthAdjust="spacing" textLength="139.8906" x="581.1777" y="671.9473">RimozioneController</text></g><g class="participant participant-head" data-participant="gp"><rect fill="#E2E2F0" height="30.4883" rx="2.5" ry="2.5" style="stroke:#181818;stroke-width:0.5;" width="60.9697" x="738.0684" y="50"/><text fill="#000000" font-family="sans-serif" font-size="14" lengthAdjust="spacing" textLength="46.9697" x="745.0684" y="70.5352">Prestiti</text></g><g class="participant participant-tail" data-participant="gp"><rect fill="#E2E2F0" height="30.4883" rx="2.5" ry="2.5" style="stroke:#181818;stroke-width:0.5;" width="60.9697" x="738.0684" y="651.4121"/><text fill="#000000" font-family="sans-serif" font-size="14" lengthAdjust="spacing" textLength="46.9697" x="745.0684" y="671.9473">Prestiti</text></g><g><title>PrestitiController</title><rect fill="#FFFFFF" height="34.3105" style="stroke:#181818;stroke-width:1;" width="10" x="494.6123" y="251.041"/></g><g><title>RimozioneController</title><rect fill="#FFFFFF" height="34.3105" style="stroke:#181818;stroke-width:1;" width="10" x="646.123" y="376.2832"/></g><g><title>RimozioneController</title><rect fill="#FFFFFF" height="135.2422" style="stroke:#181818;stroke-width:1;" width="10" x="646.123" y="492.1699"/></g><g><title>Prestiti</title><rect fill="#FFFFFF" height="71.6211" style="stroke:#181818;stroke-width:1;" width="10" x="763.5532" y="526.4805"/></g><g class="message" data-participant-1="cvp" data-participant-2="cvp"><line style="stroke:#181818;stroke-width:1;" x1="499.6123" x2="541.6123" y1="112.7988" y2="112.7988"/><line style="stroke:#181818;stroke-width:1;" x1="541.6123" x2="541.6123" y1="112.7988" y2="125.7988"/><line style="stroke:#181818;stroke-width:1;" x1="500.6123" x2="541.6123" y1="125.7988" y2="125.7988"/><polygon fill="#181818" points="510.6123,121.7988,500.6123,125.7988,510.6123,129.7988,506.6123,125.7988" style="stroke:#181818;stroke-width:1;"/><text fill="#000000" font-family="sans-serif" font-size="13" lengthAdjust="spacing" textLength="74.3882" x="506.6123" y="108.0566">initialize(...)</text></g><g class="message" data-participant-1="a" data-participant-2="cvp"><polygon fill="#181818" points="487.6123,151.1094,497.6123,155.1094,487.6123,159.1094,491.6123,155.1094" style="stroke:#181818;stroke-width:1;"/><line style="stroke:#181818;stroke-width:1;" x1="75.8896" x2="493.6123" y1="155.1094" y2="155.1094"/><text fill="#000000" font-family="sans-serif" font-size="13" lengthAdjust="spacing" textLength="147.8242" x="82.8896" y="150.3672">Apre schermata prestiti</text></g><g class="message" data-participant-1="a" data-participant-2="cvp"><polygon fill="#181818" points="487.6123,180.4199,497.6123,184.4199,487.6123,188.4199,491.6123,184.4199" style="stroke:#181818;stroke-width:1;"/><line style="stroke:#181818;stroke-width:1;" x1="75.8896" x2="493.6123" y1="184.4199" y2="184.4199"/><text fill="#000000" font-family="sans-serif" font-size="13" lengthAdjust="spacing" textLength="132.8882" x="82.8896" y="179.6777">Seleziona un prestito</text></g><g class="message" data-participant-1="a" data-participant-2="cvp"><polygon fill="#181818" points="487.6123,209.7305,497.6123,213.7305,487.6123,217.7305,491.6123,213.7305" style="stroke:#181818;stroke-width:1;"/><line style="stroke:#181818;stroke-width:1;" x1="75.8896" x2="493.6123" y1="213.7305" y2="213.7305"/><text fill="#000000" font-family="sans-serif" font-size="13" lengthAdjust="spacing" textLength="198.707" x="82.8896" y="208.9883">Clicca il pulsante "Restituzione"</text></g><g class="message" data-participant-1="cvp" data-participant-2="cvp"><line style="stroke:#181818;stroke-width:1;" x1="499.6123" x2="546.6123" y1="238.041" y2="238.041"/><line style="stroke:#181818;stroke-width:1;" x1="546.6123" x2="546.6123" y1="238.041" y2="251.041"/><line style="stroke:#181818;stroke-width:1;" x1="505.6123" x2="546.6123" y1="251.041" y2="251.041"/><polygon fill="#181818" points="515.6123,247.041,505.6123,251.041,515.6123,255.041,511.6123,251.041" style="stroke:#181818;stroke-width:1;"/><text fill="#000000" font-family="sans-serif" font-size="13" lengthAdjust="spacing" textLength="108.7925" x="511.6123" y="233.2988">onReturnLoan(...)</text></g><g class="message" data-participant-1="cvp" data-participant-2="a"><polygon fill="#181818" points="86.8896,281.3516,76.8896,285.3516,86.8896,289.3516,82.8896,285.3516" style="stroke:#181818;stroke-width:1;"/><line style="stroke:#181818;stroke-width:1;stroke-dasharray:2,2;" x1="80.8896" x2="498.6123" y1="285.3516" y2="285.3516"/><text fill="#000000" font-family="sans-serif" font-size="13" lengthAdjust="spacing" textLength="394.7227" x="92.8896" y="280.6094">Viene mostrata una nuova finestra con un messaggio di avviso</text></g><path d="M10,300.3516 L72.1387,300.3516 L72.1387,307.6621 L62.1387,317.6621 L10,317.6621 L10,300.3516" fill="#EEEEEE" style="stroke:#000000;stroke-width:1.5;"/><rect fill="none" height="335.0605" style="stroke:#000000;stroke-width:1.5;" width="986.3408" x="10" y="300.3516"/><text fill="#000000" font-family="sans-serif" font-size="13" font-weight="bold" lengthAdjust="spacing" textLength="17.1387" x="25" y="313.9199">alt</text><text fill="#000000" font-family="sans-serif" font-size="11" font-weight="bold" lengthAdjust="spacing" textLength="209.854" x="87.1387" y="312.9863">[Annulla l'operazione cliccando "No"]</text><g class="message" data-participant-1="a" data-participant-2="rrc"><polygon fill="#181818" points="639.123,334.9727,649.123,338.9727,639.123,342.9727,643.123,338.9727" style="stroke:#181818;stroke-width:1;"/><line style="stroke:#181818;stroke-width:1;" x1="75.8896" x2="645.123" y1="338.9727" y2="338.9727"/><text fill="#000000" font-family="sans-serif" font-size="13" lengthAdjust="spacing" textLength="293.2935" x="82.8896" y="334.2305">Annulla l'operazione cliccando il pulsante "No"</text></g><g class="message" data-participant-1="rrc" data-participant-2="rrc"><line style="stroke:#181818;stroke-width:1;" x1="651.123" x2="698.123" y1="363.2832" y2="363.2832"/><line style="stroke:#181818;stroke-width:1;" x1="698.123" x2="698.123" y1="363.2832" y2="376.2832"/><line style="stroke:#181818;stroke-width:1;" x1="657.123" x2="698.123" y1="376.2832" y2="376.2832"/><polygon fill="#181818" points="667.123,372.2832,657.123,376.2832,667.123,380.2832,663.123,376.2832" style="stroke:#181818;stroke-width:1;"/><text fill="#000000" font-family="sans-serif" font-size="13" lengthAdjust="spacing" textLength="78.749" x="663.123" y="358.541">onCancel(...)</text></g><g class="message" data-participant-1="rrc" data-participant-2="a"><polygon fill="#181818" points="86.8896,406.5938,76.8896,410.5938,86.8896,414.5938,82.8896,410.5938" style="stroke:#181818;stroke-width:1;"/><line style="stroke:#181818;stroke-width:1;stroke-dasharray:2,2;" x1="80.8896" x2="650.123" y1="410.5938" y2="410.5938"/><text fill="#000000" font-family="sans-serif" font-size="13" lengthAdjust="spacing" textLength="280.7061" x="92.8896" y="405.8516">Viene chiusa la schermata di rimozione libro</text></g><line style="stroke:#000000;stroke-width:1;stroke-dasharray:2,2;" x1="10" x2="996.3408" y1="419.5938" y2="419.5938"/><text fill="#000000" font-family="sans-serif" font-size="11" font-weight="bold" lengthAdjust="spacing" textLength="216.0684" x="15" y="430.2285">[Conferma l'operazione cliccando "Si"]</text><g class="message" data-participant-1="a" data-participant-2="rrc"><polygon fill="#181818" points="639.123,450.8594,649.123,454.8594,639.123,458.8594,643.123,454.8594" style="stroke:#181818;stroke-width:1;"/><line style="stroke:#181818;stroke-width:1;" x1="75.8896" x2="645.123" y1="454.8594" y2="454.8594"/><text fill="#000000" font-family="sans-serif" font-size="13" lengthAdjust="spacing" textLength="300.3013" x="82.8896" y="450.1172">Conferma l'operazione cliccando il pulsante "Si"</text></g><g class="message" data-participant-1="rrc" data-participant-2="rrc"><line style="stroke:#181818;stroke-width:1;" x1="651.123" x2="698.123" y1="479.1699" y2="479.1699"/><line style="stroke:#181818;stroke-width:1;" x1="698.123" x2="698.123" y1="479.1699" y2="492.1699"/><line style="stroke:#181818;stroke-width:1;" x1="657.123" x2="698.123" y1="492.1699" y2="492.1699"/><polygon fill="#181818" points="667.123,488.1699,657.123,492.1699,667.123,496.1699,663.123,492.1699" style="stroke:#181818;stroke-width:1;"/><text fill="#000000" font-family="sans-serif" font-size="13" lengthAdjust="spacing" textLength="87.8896" x="663.123" y="474.4277">onConfirm(...)</text></g><g class="message" data-participant-1="rrc" data-participant-2="gp"><polygon fill="#181818" points="751.5532,522.4805,761.5532,526.4805,751.5532,530.4805,755.5532,526.4805" style="stroke:#181818;stroke-width:1;"/><line style="stroke:#181818;stroke-width:1;" x1="656.123" x2="757.5532" y1="526.4805" y2="526.4805"/><text fill="#000000" font-family="sans-serif" font-size="13" lengthAdjust="spacing" textLength="68.5483" x="663.123" y="521.7383">rimuovi(...)</text></g><g class="message" data-participant-1="gp" data-participant-2="gp"><line style="stroke:#181818;stroke-width:1;" x1="773.5532" x2="815.5532" y1="555.791" y2="555.791"/><line style="stroke:#181818;stroke-width:1;" x1="815.5532" x2="815.5532" y1="555.791" y2="568.791"/><line style="stroke:#181818;stroke-width:1;" x1="774.5532" x2="815.5532" y1="568.791" y2="568.791"/><polygon fill="#181818" points="784.5532,564.791,774.5532,568.791,784.5532,572.791,780.5532,568.791" style="stroke:#181818;stroke-width:1;"/><text fill="#000000" font-family="sans-serif" font-size="13" lengthAdjust="spacing" textLength="193.7876" x="780.5532" y="551.0488">Viene registrata la restituzione</text></g><g class="message" data-participant-1="gp" data-participant-2="rrc"><polygon fill="#181818" points="667.123,594.1016,657.123,598.1016,667.123,602.1016,663.123,598.1016" style="stroke:#181818;stroke-width:1;"/><line style="stroke:#181818;stroke-width:1;stroke-dasharray:2,2;" x1="661.123" x2="767.5532" y1="598.1016" y2="598.1016"/><text fill="#000000" font-family="sans-serif" font-size="13" lengthAdjust="spacing" textLength="61.7056" x="673.123" y="593.3594">Conferma</text></g><g class="message" data-participant-1="rrc" data-participant-2="a"><polygon fill="#181818" points="86.8896,623.4121,76.8896,627.4121,86.8896,631.4121,82.8896,627.4121" style="stroke:#181818;stroke-width:1;"/><line style="stroke:#181818;stroke-width:1;stroke-dasharray:2,2;" x1="80.8896" x2="650.123" y1="627.4121" y2="627.4121"/><text fill="#000000" font-family="sans-serif" font-size="13" lengthAdjust="spacing" textLength="319.7568" x="92.8896" y="622.6699">Viene chiusa la schermata di registrazione prestito</text></g><!--SRC=[ZP8zRiCm38Ld-nH4bhP3Se0C0OAiHL6aG7TMOLm2CYL8ieUUlfHimtR_qiM0nKVoVIGhDCa5EBOj2ySKKFy8C0BMbSUGsB17IV0SA2PEV7AIWhEMGXQPtgzbPsxT1pkXjIu4ytEv76nyNLTQQNlGpnxKHsAq_47tkztkeQvm31ozEelcdKAB2S6F9MR12rdApH4wcS9k3fyi6uF05dndexeWs9oBg2kMDqiNJiwKkY2F3cNoOHBtg5c5kcYt1zp3AvCGjAvCB_T6aCxr25SMoezWd6HBBSM8JSCEBWhUznpLtONMTRMFJN0KwQn5i7VEKy3Y3qm1a8k3pPDJjvbC9xk_fLuH3vcQDkOwEQ4OiYFaJ5bsDYWNcEQTkwYTSB49fGdJti7oMr2i9TTGgQx8HW8zZ6lE-nNjXPTej-GhjY5rnQRf7Dg_u0wDhblzwyfuqit29g-wgXe_w8OX16futBOE8YnkQ19_SP-V5mCfHVyvsB7Lm3qVzRVvabogklu4]--></g></svg>