<svg xmlns="http://www.w3.org/2000/svg" xmlns:xlink="http://www.w3.org/1999/xlink" contentStyleType="text/css" data-diagram-type="SEQUENCE" height="1262px" preserveAspectRatio="none" style="width:1635px;height:1262px;background:#FFFFFF;" version="1.1" viewBox="0 0 1635 1262" width="1635px" zoomAndPan="magnify"><defs/><g><g><title>ClasseCheContieneVisualizzazionePrestiti</title><rect fill="#FFFFFF" height="34.3105" style="stroke:#181818;stroke-width:1;" width="10" x="648.3716" y="264.041"/></g><g><title>ClasseCheContieneVisualizzazionePrestiti</title><rect fill="#FFFFFF" height="135.2422" style="stroke:#181818;stroke-width:1;" width="10" x="648.3716" y="418.5938"/></g><g><title>ClasseCheContieneVisualizzazionePrestiti</title><rect fill="#FFFFFF" height="100.9316" style="stroke:#181818;stroke-width:1;" width="10" x="648.3716" y="1062.4043"/></g><g><title>Prestiti</title><rect fill="#FFFFFF" height="71.6211" style="stroke:#181818;stroke-width:1;" width="10" x="945.9849" y="452.9043"/></g><g><title>GestorePrestiti</title><rect fill="#FFFFFF" height="71.6211" style="stroke:#181818;stroke-width:1;" width="10" x="1314.0688" y="1062.4043"/></g><rect fill="none" height="309.1055" style="stroke:#000000;stroke-width:1.5;" width="1064.2075" x="10" y="313.3516"/><rect fill="none" height="46.6211" style="stroke:#000000;stroke-width:1.5;" width="496.6089" x="494.8608" y="568.8359"/><rect fill="none" height="120.1973" style="stroke:#000000;stroke-width:1.5;" width="1127.7705" x="10" y="708.0781"/><rect fill="none" height="120.1973" style="stroke:#000000;stroke-width:1.5;" width="1251.8789" x="10" y="913.8965"/><g><title>Amministratore</title><rect fill="#000000" fill-opacity="0.00000" height="1099.8477" width="8" x="71.8896" y="81.4883"/><line style="stroke:#181818;stroke-width:0.5;stroke-dasharray:5,5;" x1="75" x2="75" y1="81.4883" y2="1181.3359"/></g><g><title>ClasseCheContieneVisualizzazionePrestiti</title><rect fill="#000000" fill-opacity="0.00000" height="1099.8477" width="8" x="649.3716" y="81.4883"/><line style="stroke:#181818;stroke-width:0.5;stroke-dasharray:5,5;" x1="652.8608" x2="652.8608" y1="81.4883" y2="1181.3359"/></g><g><title>Prestiti</title><rect fill="#000000" fill-opacity="0.00000" height="1099.8477" width="8" x="946.9849" y="81.4883"/><line style="stroke:#181818;stroke-width:0.5;stroke-dasharray:5,5;" x1="950.5" x2="950.5" y1="81.4883" y2="1181.3359"/></g><g><title>GestoreUtenti</title><rect fill="#000000" fill-opacity="0.00000" height="1099.8477" width="8" x="1070.2075" y="81.4883"/><line style="stroke:#181818;stroke-width:0.5;stroke-dasharray:5,5;" x1="1073.6445" x2="1073.6445" y1="81.4883" y2="1181.3359"/></g><g><title>GestoreLibri</title><rect fill="#000000" fill-opacity="0.00000" height="1099.8477" width="8" x="1199.6206" y="81.4883"/><line style="stroke:#181818;stroke-width:0.5;stroke-dasharray:5,5;" x1="1203.3623" x2="1203.3623" y1="81.4883" y2="1181.3359"/></g><g><title>GestorePrestiti</title><rect fill="#000000" fill-opacity="0.00000" height="1099.8477" width="8" x="1315.0688" y="81.4883"/><line style="stroke:#181818;stroke-width:0.5;stroke-dasharray:5,5;" x1="1318.375" x2="1318.375" y1="81.4883" y2="1181.3359"/></g><g><title>Biblioteca</title><rect fill="#000000" fill-opacity="0.00000" height="1099.8477" width="8" x="1508.7061" y="81.4883"/><line style="stroke:#181818;stroke-width:0.5;stroke-dasharray:5,5;" x1="1511.9346" x2="1511.9346" y1="81.4883" y2="1181.3359"/></g><g class="participant participant-head" data-participant="a"><text fill="#000000" font-family="sans-serif" font-size="14" lengthAdjust="spacing" textLength="105.7793" x="20" y="78.5352">Amministratore</text><ellipse cx="75.8896" cy="13.5" fill="#E2E2F0" rx="8" ry="8" style="stroke:#181818;stroke-width:0.5;"/><path d="M75.8896,21.5 L75.8896,48.5 M62.8896,29.5 L88.8896,29.5 M75.8896,48.5 L62.8896,63.5 M75.8896,48.5 L88.8896,63.5" fill="none" style="stroke:#181818;stroke-width:0.5;"/></g><g class="participant participant-tail" data-participant="a"><text fill="#000000" font-family="sans-serif" font-size="14" lengthAdjust="spacing" textLength="105.7793" x="20" y="1193.8711">Amministratore</text><ellipse cx="75.8896" cy="1205.3242" fill="#E2E2F0" rx="8" ry="8" style="stroke:#181818;stroke-width:0.5;"/><path d="M75.8896,1213.3242 L75.8896,1240.3242 M62.8896,1221.3242 L88.8896,1221.3242 M75.8896,1240.3242 L62.8896,1255.3242 M75.8896,1240.3242 L88.8896,1255.3242" fill="none" style="stroke:#181818;stroke-width:0.5;"/></g><g class="participant participant-head" data-participant="cvp"><rect fill="#E2E2F0" height="30.4883" rx="2.5" ry="2.5" style="stroke:#181818;stroke-width:0.5;" width="297.0215" x="504.8608" y="50"/><text fill="#000000" font-family="sans-serif" font-size="14" lengthAdjust="spacing" textLength="283.0215" x="511.8608" y="70.5352">ClasseCheContieneVisualizzazionePrestiti</text></g><g class="participant participant-tail" data-participant="cvp"><rect fill="#E2E2F0" height="30.4883" rx="2.5" ry="2.5" style="stroke:#181818;stroke-width:0.5;" width="297.0215" x="504.8608" y="1180.3359"/><text fill="#000000" font-family="sans-serif" font-size="14" lengthAdjust="spacing" textLength="283.0215" x="511.8608" y="1200.8711">ClasseCheContieneVisualizzazionePrestiti</text></g><g class="participant participant-head" data-participant="p"><rect fill="#E2E2F0" height="30.4883" rx="2.5" ry="2.5" style="stroke:#181818;stroke-width:0.5;" width="60.9697" x="920.5" y="50"/><text fill="#000000" font-family="sans-serif" font-size="14" lengthAdjust="spacing" textLength="46.9697" x="927.5" y="70.5352">Prestiti</text></g><g class="participant participant-tail" data-participant="p"><rect fill="#E2E2F0" height="30.4883" rx="2.5" ry="2.5" style="stroke:#181818;stroke-width:0.5;" width="60.9697" x="920.5" y="1180.3359"/><text fill="#000000" font-family="sans-serif" font-size="14" lengthAdjust="spacing" textLength="46.9697" x="927.5" y="1200.8711">Prestiti</text></g><g class="participant participant-head" data-participant="gu"><rect fill="#E2E2F0" height="30.4883" rx="2.5" ry="2.5" style="stroke:#181818;stroke-width:0.5;" width="107.126" x="1020.6445" y="50"/><text fill="#000000" font-family="sans-serif" font-size="14" lengthAdjust="spacing" textLength="93.126" x="1027.6445" y="70.5352">GestoreUtenti</text></g><g class="participant participant-tail" data-participant="gu"><rect fill="#E2E2F0" height="30.4883" rx="2.5" ry="2.5" style="stroke:#181818;stroke-width:0.5;" width="107.126" x="1020.6445" y="1180.3359"/><text fill="#000000" font-family="sans-serif" font-size="14" lengthAdjust="spacing" textLength="93.126" x="1027.6445" y="1200.8711">GestoreUtenti</text></g><g class="participant participant-head" data-participant="gl"><rect fill="#E2E2F0" height="30.4883" rx="2.5" ry="2.5" style="stroke:#181818;stroke-width:0.5;" width="96.5166" x="1155.3623" y="50"/><text fill="#000000" font-family="sans-serif" font-size="14" lengthAdjust="spacing" textLength="82.5166" x="1162.3623" y="70.5352">GestoreLibri</text></g><g class="participant participant-tail" data-participant="gl"><rect fill="#E2E2F0" height="30.4883" rx="2.5" ry="2.5" style="stroke:#181818;stroke-width:0.5;" width="96.5166" x="1155.3623" y="1180.3359"/><text fill="#000000" font-family="sans-serif" font-size="14" lengthAdjust="spacing" textLength="82.5166" x="1162.3623" y="1200.8711">GestoreLibri</text></g><g class="participant participant-head" data-participant="gp"><rect fill="#E2E2F0" height="30.4883" rx="2.5" ry="2.5" style="stroke:#181818;stroke-width:0.5;" width="113.3877" x="1262.375" y="50"/><text fill="#000000" font-family="sans-serif" font-size="14" lengthAdjust="spacing" textLength="99.3877" x="1269.375" y="70.5352">GestorePrestiti</text></g><g class="participant participant-tail" data-participant="gp"><rect fill="#E2E2F0" height="30.4883" rx="2.5" ry="2.5" style="stroke:#181818;stroke-width:0.5;" width="113.3877" x="1262.375" y="1180.3359"/><text fill="#000000" font-family="sans-serif" font-size="14" lengthAdjust="spacing" textLength="99.3877" x="1269.375" y="1200.8711">GestorePrestiti</text></g><g class="participant participant-head" data-participant="b"><rect fill="#E2E2F0" height="30.4883" rx="2.5" ry="2.5" style="stroke:#181818;stroke-width:0.5;" width="79.543" x="1472.9346" y="50"/><text fill="#000000" font-family="sans-serif" font-size="14" lengthAdjust="spacing" textLength="65.543" x="1479.9346" y="70.5352">Biblioteca</text></g><g class="participant participant-tail" data-participant="b"><rect fill="#E2E2F0" height="30.4883" rx="2.5" ry="2.5" style="stroke:#181818;stroke-width:0.5;" width="79.543" x="1472.9346" y="1180.3359"/><text fill="#000000" font-family="sans-serif" font-size="14" lengthAdjust="spacing" textLength="65.543" x="1479.9346" y="1200.8711">Biblioteca</text></g><g><title>ClasseCheContieneVisualizzazionePrestiti</title><rect fill="#FFFFFF" height="34.3105" style="stroke:#181818;stroke-width:1;" width="10" x="648.3716" y="264.041"/></g><g><title>ClasseCheContieneVisualizzazionePrestiti</title><rect fill="#FFFFFF" height="135.2422" style="stroke:#181818;stroke-width:1;" width="10" x="648.3716" y="418.5938"/></g><g><title>ClasseCheContieneVisualizzazionePrestiti</title><rect fill="#FFFFFF" height="100.9316" style="stroke:#181818;stroke-width:1;" width="10" x="648.3716" y="1062.4043"/></g><g><title>Prestiti</title><rect fill="#FFFFFF" height="71.6211" style="stroke:#181818;stroke-width:1;" width="10" x="945.9849" y="452.9043"/></g><g><title>GestorePrestiti</title><rect fill="#FFFFFF" height="71.6211" style="stroke:#181818;stroke-width:1;" width="10" x="1314.0688" y="1062.4043"/></g><g class="message" data-participant-1="b" data-participant-2="b"><line style="stroke:#181818;stroke-width:1;" x1="1512.7061" x2="1554.7061" y1="112.7988" y2="112.7988"/><line style="stroke:#181818;stroke-width:1;" x1="1554.7061" x2="1554.7061" y1="112.7988" y2="125.7988"/><line style="stroke:#181818;stroke-width:1;" x1="1513.7061" x2="1554.7061" y1="125.7988" y2="125.7988"/><polygon fill="#181818" points="1523.7061,121.7988,1513.7061,125.7988,1523.7061,129.7988,1519.7061,125.7988" style="stroke:#181818;stroke-width:1;"/><text fill="#000000" font-family="sans-serif" font-size="13" lengthAdjust="spacing" textLength="108.7925" x="1519.7061" y="108.0566">caricaArchivio(...)</text></g><g class="message" data-participant-1="cvp" data-participant-2="cvp"><line style="stroke:#181818;stroke-width:1;" x1="653.3716" x2="695.3716" y1="155.1094" y2="155.1094"/><line style="stroke:#181818;stroke-width:1;" x1="695.3716" x2="695.3716" y1="155.1094" y2="168.1094"/><line style="stroke:#181818;stroke-width:1;" x1="654.3716" x2="695.3716" y1="168.1094" y2="168.1094"/><polygon fill="#181818" points="664.3716,164.1094,654.3716,168.1094,664.3716,172.1094,660.3716,168.1094" style="stroke:#181818;stroke-width:1;"/><text fill="#000000" font-family="sans-serif" font-size="13" lengthAdjust="spacing" textLength="76.978" x="660.3716" y="150.3672">inizialize(...)</text></g><g class="message" data-participant-1="a" data-participant-2="cvp"><polygon fill="#181818" points="641.3716,193.4199,651.3716,197.4199,641.3716,201.4199,645.3716,197.4199" style="stroke:#181818;stroke-width:1;"/><line style="stroke:#181818;stroke-width:1;" x1="75.8896" x2="647.3716" y1="197.4199" y2="197.4199"/><text fill="#000000" font-family="sans-serif" font-size="13" lengthAdjust="spacing" textLength="147.8242" x="82.8896" y="192.6777">Apre schermata prestiti</text></g><g class="message" data-participant-1="a" data-participant-2="cvp"><polygon fill="#181818" points="641.3716,222.7305,651.3716,226.7305,641.3716,230.7305,645.3716,226.7305" style="stroke:#181818;stroke-width:1;"/><line style="stroke:#181818;stroke-width:1;" x1="75.8896" x2="647.3716" y1="226.7305" y2="226.7305"/><text fill="#000000" font-family="sans-serif" font-size="13" lengthAdjust="spacing" textLength="177.4995" x="82.8896" y="221.9883">Clicca il pulsante "Aggiungi"</text></g><g class="message" data-participant-1="cvp" data-participant-2="cvp"><line style="stroke:#181818;stroke-width:1;" x1="653.3716" x2="700.3716" y1="251.041" y2="251.041"/><line style="stroke:#181818;stroke-width:1;" x1="700.3716" x2="700.3716" y1="251.041" y2="264.041"/><line style="stroke:#181818;stroke-width:1;" x1="659.3716" x2="700.3716" y1="264.041" y2="264.041"/><polygon fill="#181818" points="669.3716,260.041,659.3716,264.041,669.3716,268.041,665.3716,264.041" style="stroke:#181818;stroke-width:1;"/><text fill="#000000" font-family="sans-serif" font-size="13" lengthAdjust="spacing" textLength="208.4126" x="665.3716" y="246.2988">funzioneOnActionDelPulsante(...)</text></g><g class="message" data-participant-1="cvp" data-participant-2="a"><polygon fill="#181818" points="86.8896,294.3516,76.8896,298.3516,86.8896,302.3516,82.8896,298.3516" style="stroke:#181818;stroke-width:1;"/><line style="stroke:#181818;stroke-width:1;stroke-dasharray:2,2;" x1="80.8896" x2="652.3716" y1="298.3516" y2="298.3516"/><text fill="#000000" font-family="sans-serif" font-size="13" lengthAdjust="spacing" textLength="307.9565" x="92.8896" y="293.6094">Viene mostrata la schermata di aggiunta prestito</text></g><path d="M10,313.3516 L84.4468,313.3516 L84.4468,320.6621 L74.4468,330.6621 L10,330.6621 L10,313.3516" fill="#EEEEEE" style="stroke:#000000;stroke-width:1.5;"/><rect fill="none" height="309.1055" style="stroke:#000000;stroke-width:1.5;" width="1064.2075" x="10" y="313.3516"/><text fill="#000000" font-family="sans-serif" font-size="13" font-weight="bold" lengthAdjust="spacing" textLength="29.4468" x="25" y="326.9199">loop</text><text fill="#000000" font-family="sans-serif" font-size="11" font-weight="bold" lengthAdjust="spacing" textLength="373.4897" x="99.4468" y="325.9863">[Amministratore inserisce i campi del prestito errati o incompleti]</text><g class="message" data-participant-1="a" data-participant-2="cvp"><polygon fill="#181818" points="641.3716,347.9727,651.3716,351.9727,641.3716,355.9727,645.3716,351.9727" style="stroke:#181818;stroke-width:1;"/><line style="stroke:#181818;stroke-width:1;" x1="75.8896" x2="647.3716" y1="351.9727" y2="351.9727"/><text fill="#000000" font-family="sans-serif" font-size="13" lengthAdjust="spacing" textLength="266.938" x="82.8896" y="347.2305">Inserisce i campi del prestito nel TextField</text></g><g class="message" data-participant-1="a" data-participant-2="cvp"><polygon fill="#181818" points="641.3716,377.2832,651.3716,381.2832,641.3716,385.2832,645.3716,381.2832" style="stroke:#181818;stroke-width:1;"/><line style="stroke:#181818;stroke-width:1;" x1="75.8896" x2="647.3716" y1="381.2832" y2="381.2832"/><text fill="#000000" font-family="sans-serif" font-size="13" lengthAdjust="spacing" textLength="184.3867" x="82.8896" y="376.541">Preme il pulsante "Conferma"</text></g><g class="message" data-participant-1="cvp" data-participant-2="cvp"><line style="stroke:#181818;stroke-width:1;" x1="653.3716" x2="700.3716" y1="405.5938" y2="405.5938"/><line style="stroke:#181818;stroke-width:1;" x1="700.3716" x2="700.3716" y1="405.5938" y2="418.5938"/><line style="stroke:#181818;stroke-width:1;" x1="659.3716" x2="700.3716" y1="418.5938" y2="418.5938"/><polygon fill="#181818" points="669.3716,414.5938,659.3716,418.5938,669.3716,422.5938,665.3716,418.5938" style="stroke:#181818;stroke-width:1;"/><text fill="#000000" font-family="sans-serif" font-size="13" lengthAdjust="spacing" textLength="283.6133" x="665.3716" y="400.8516">funzioneOnActionDelPulsanteDiConferma(...)</text></g><g class="message" data-participant-1="cvp" data-participant-2="p"><polygon fill="#181818" points="933.9849,448.9043,943.9849,452.9043,933.9849,456.9043,937.9849,452.9043" style="stroke:#181818;stroke-width:1;"/><line style="stroke:#181818;stroke-width:1;" x1="658.3716" x2="939.9849" y1="452.9043" y2="452.9043"/><text fill="#000000" font-family="sans-serif" font-size="13" lengthAdjust="spacing" textLength="66.2188" x="665.3716" y="448.1621">verifica(...)</text></g><g class="message" data-participant-1="p" data-participant-2="p"><line style="stroke:#181818;stroke-width:1;" x1="955.9849" x2="997.9849" y1="482.2148" y2="482.2148"/><line style="stroke:#181818;stroke-width:1;" x1="997.9849" x2="997.9849" y1="482.2148" y2="495.2148"/><line style="stroke:#181818;stroke-width:1;" x1="956.9849" x2="997.9849" y1="495.2148" y2="495.2148"/><polygon fill="#181818" points="966.9849,491.2148,956.9849,495.2148,966.9849,499.2148,962.9849,495.2148" style="stroke:#181818;stroke-width:1;"/><text fill="#000000" font-family="sans-serif" font-size="13" lengthAdjust="spacing" textLength="89.2227" x="962.9849" y="477.4727">Verifica campi</text></g><g class="message" data-participant-1="p" data-participant-2="cvp"><polygon fill="#181818" points="669.3716,520.5254,659.3716,524.5254,669.3716,528.5254,665.3716,524.5254" style="stroke:#181818;stroke-width:1;"/><line style="stroke:#181818;stroke-width:1;stroke-dasharray:2,2;" x1="663.3716" x2="949.9849" y1="524.5254" y2="524.5254"/><text fill="#000000" font-family="sans-serif" font-size="13" lengthAdjust="spacing" textLength="197.8628" x="675.3716" y="519.7832">Verifica non andata a buon fine</text></g><g class="message" data-participant-1="cvp" data-participant-2="a"><polygon fill="#181818" points="86.8896,549.8359,76.8896,553.8359,86.8896,557.8359,82.8896,553.8359" style="stroke:#181818;stroke-width:1;"/><line style="stroke:#181818;stroke-width:1;stroke-dasharray:2,2;" x1="80.8896" x2="652.3716" y1="553.8359" y2="553.8359"/><text fill="#000000" font-family="sans-serif" font-size="13" lengthAdjust="spacing" textLength="548.4819" x="92.8896" y="549.0938">Viene visualizzato un messaggio di errore e vengono evidenziati i campi da correggere</text></g><path d="M494.8608,568.8359 L577.8706,568.8359 L577.8706,576.1465 L567.8706,586.1465 L494.8608,586.1465 L494.8608,568.8359" fill="#EEEEEE" style="stroke:#000000;stroke-width:1.5;"/><rect fill="none" height="46.6211" style="stroke:#000000;stroke-width:1.5;" width="496.6089" x="494.8608" y="568.8359"/><text fill="#000000" font-family="sans-serif" font-size="13" font-weight="bold" lengthAdjust="spacing" textLength="38.0098" x="509.8608" y="582.4043">break</text><text fill="#000000" font-family="sans-serif" font-size="11" font-weight="bold" lengthAdjust="spacing" textLength="161.2295" x="592.8706" y="581.4707">[Verifica andata a buon fine]</text><g class="message" data-participant-1="p" data-participant-2="cvp"><polygon fill="#181818" points="664.3716,603.457,654.3716,607.457,664.3716,611.457,660.3716,607.457" style="stroke:#181818;stroke-width:1;"/><line style="stroke:#181818;stroke-width:1;stroke-dasharray:2,2;" x1="658.3716" x2="949.9849" y1="607.457" y2="607.457"/><text fill="#000000" font-family="sans-serif" font-size="13" lengthAdjust="spacing" textLength="169.6284" x="670.3716" y="602.7148">Verifica andata a buon fine</text></g><g class="message" data-participant-1="cvp" data-participant-2="gu"><polygon fill="#181818" points="1062.2075,646.7676,1072.2075,650.7676,1062.2075,654.7676,1066.2075,650.7676" style="stroke:#181818;stroke-width:1;"/><line style="stroke:#181818;stroke-width:1;" x1="653.3716" x2="1068.2075" y1="650.7676" y2="650.7676"/><text fill="#000000" font-family="sans-serif" font-size="13" lengthAdjust="spacing" textLength="104.2158" x="660.3716" y="646.0254">ricercaUtente(...)</text></g><g class="message" data-participant-1="gu" data-participant-2="gu"><line style="stroke:#181818;stroke-width:1;" x1="1074.2075" x2="1116.2075" y1="680.0781" y2="680.0781"/><line style="stroke:#181818;stroke-width:1;" x1="1116.2075" x2="1116.2075" y1="680.0781" y2="693.0781"/><line style="stroke:#181818;stroke-width:1;" x1="1075.2075" x2="1116.2075" y1="693.0781" y2="693.0781"/><polygon fill="#181818" points="1085.2075,689.0781,1075.2075,693.0781,1085.2075,697.0781,1081.2075,693.0781" style="stroke:#181818;stroke-width:1;"/><text fill="#000000" font-family="sans-serif" font-size="13" lengthAdjust="spacing" textLength="115.4131" x="1081.2075" y="675.3359">Ricerca dell'utente</text></g><path d="M10,708.0781 L72.1387,708.0781 L72.1387,715.3887 L62.1387,725.3887 L10,725.3887 L10,708.0781" fill="#EEEEEE" style="stroke:#000000;stroke-width:1.5;"/><rect fill="none" height="120.1973" style="stroke:#000000;stroke-width:1.5;" width="1127.7705" x="10" y="708.0781"/><text fill="#000000" font-family="sans-serif" font-size="13" font-weight="bold" lengthAdjust="spacing" textLength="17.1387" x="25" y="721.6465">alt</text><text fill="#000000" font-family="sans-serif" font-size="11" font-weight="bold" lengthAdjust="spacing" textLength="182.3755" x="87.1387" y="720.7129">[Utente non presente nella lista]</text><g class="message" data-participant-1="gu" data-participant-2="cvp"><polygon fill="#181818" points="664.3716,742.6992,654.3716,746.6992,664.3716,750.6992,660.3716,746.6992" style="stroke:#181818;stroke-width:1;"/><line style="stroke:#181818;stroke-width:1;stroke-dasharray:2,2;" x1="658.3716" x2="1073.2075" y1="746.6992" y2="746.6992"/><text fill="#000000" font-family="sans-serif" font-size="13" lengthAdjust="spacing" textLength="259.5112" x="670.3716" y="741.957">L'utente non esiste nella lista degli utenti</text></g><g class="message" data-participant-1="cvp" data-participant-2="a"><polygon fill="#181818" points="86.8896,772.0098,76.8896,776.0098,86.8896,780.0098,82.8896,776.0098" style="stroke:#181818;stroke-width:1;"/><line style="stroke:#181818;stroke-width:1;stroke-dasharray:2,2;" x1="80.8896" x2="652.3716" y1="776.0098" y2="776.0098"/><text fill="#000000" font-family="sans-serif" font-size="13" lengthAdjust="spacing" textLength="246.6064" x="92.8896" y="771.2676">Viene mostrato un messaggio di errore</text></g><line style="stroke:#000000;stroke-width:1;stroke-dasharray:2,2;" x1="10" x2="1137.7705" y1="785.0098" y2="785.0098"/><text fill="#000000" font-family="sans-serif" font-size="11" font-weight="bold" lengthAdjust="spacing" textLength="157.2764" x="15" y="795.6445">[Utente presente nella lista]</text><g class="message" data-participant-1="gu" data-participant-2="cvp"><polygon fill="#181818" points="664.3716,816.2754,654.3716,820.2754,664.3716,824.2754,660.3716,820.2754" style="stroke:#181818;stroke-width:1;"/><line style="stroke:#181818;stroke-width:1;stroke-dasharray:2,2;" x1="658.3716" x2="1073.2075" y1="820.2754" y2="820.2754"/><text fill="#000000" font-family="sans-serif" font-size="13" lengthAdjust="spacing" textLength="184.9263" x="670.3716" y="815.5332">L'utente &#232; presente nella lista</text></g><g class="message" data-participant-1="cvp" data-participant-2="gl"><polygon fill="#181818" points="1191.6206,852.5859,1201.6206,856.5859,1191.6206,860.5859,1195.6206,856.5859" style="stroke:#181818;stroke-width:1;"/><line style="stroke:#181818;stroke-width:1;" x1="653.3716" x2="1197.6206" y1="856.5859" y2="856.5859"/><text fill="#000000" font-family="sans-serif" font-size="13" lengthAdjust="spacing" textLength="90.8794" x="660.3716" y="851.8438">ricercaLibri(...)</text></g><g class="message" data-participant-1="gl" data-participant-2="gl"><line style="stroke:#181818;stroke-width:1;" x1="1203.6206" x2="1245.6206" y1="885.8965" y2="885.8965"/><line style="stroke:#181818;stroke-width:1;" x1="1245.6206" x2="1245.6206" y1="885.8965" y2="898.8965"/><line style="stroke:#181818;stroke-width:1;" x1="1204.6206" x2="1245.6206" y1="898.8965" y2="898.8965"/><polygon fill="#181818" points="1214.6206,894.8965,1204.6206,898.8965,1214.6206,902.8965,1210.6206,898.8965" style="stroke:#181818;stroke-width:1;"/><text fill="#000000" font-family="sans-serif" font-size="13" lengthAdjust="spacing" textLength="101.4482" x="1210.6206" y="881.1543">Ricerca del libro</text></g><path d="M10,913.8965 L72.1387,913.8965 L72.1387,921.207 L62.1387,931.207 L10,931.207 L10,913.8965" fill="#EEEEEE" style="stroke:#000000;stroke-width:1.5;"/><rect fill="none" height="120.1973" style="stroke:#000000;stroke-width:1.5;" width="1251.8789" x="10" y="913.8965"/><text fill="#000000" font-family="sans-serif" font-size="13" font-weight="bold" lengthAdjust="spacing" textLength="17.1387" x="25" y="927.4648">alt</text><text fill="#000000" font-family="sans-serif" font-size="11" font-weight="bold" lengthAdjust="spacing" textLength="174.5337" x="87.1387" y="926.5313">[Libro non presente nella lista]</text><g class="message" data-participant-1="gl" data-participant-2="cvp"><polygon fill="#181818" points="664.3716,948.5176,654.3716,952.5176,664.3716,956.5176,660.3716,952.5176" style="stroke:#181818;stroke-width:1;"/><line style="stroke:#181818;stroke-width:1;stroke-dasharray:2,2;" x1="658.3716" x2="1202.6206" y1="952.5176" y2="952.5176"/><text fill="#000000" font-family="sans-serif" font-size="13" lengthAdjust="spacing" textLength="173.7417" x="670.3716" y="947.7754">Il libro non esiste nella lista</text></g><g class="message" data-participant-1="cvp" data-participant-2="a"><polygon fill="#181818" points="86.8896,977.8281,76.8896,981.8281,86.8896,985.8281,82.8896,981.8281" style="stroke:#181818;stroke-width:1;"/><line style="stroke:#181818;stroke-width:1;stroke-dasharray:2,2;" x1="80.8896" x2="652.3716" y1="981.8281" y2="981.8281"/><text fill="#000000" font-family="sans-serif" font-size="13" lengthAdjust="spacing" textLength="246.6064" x="92.8896" y="977.0859">Viene mostrato un messaggio di errore</text></g><line style="stroke:#000000;stroke-width:1;stroke-dasharray:2,2;" x1="10" x2="1261.8789" y1="990.8281" y2="990.8281"/><text fill="#000000" font-family="sans-serif" font-size="11" font-weight="bold" lengthAdjust="spacing" textLength="149.4346" x="15" y="1001.4629">[Libro presente nella lista]</text><g class="message" data-participant-1="gl" data-participant-2="cvp"><polygon fill="#181818" points="664.3716,1022.0938,654.3716,1026.0938,664.3716,1030.0938,660.3716,1026.0938" style="stroke:#181818;stroke-width:1;"/><line style="stroke:#181818;stroke-width:1;stroke-dasharray:2,2;" x1="658.3716" x2="1202.6206" y1="1026.0938" y2="1026.0938"/><text fill="#000000" font-family="sans-serif" font-size="13" lengthAdjust="spacing" textLength="145.5073" x="670.3716" y="1021.3516">Il libro esiste nella lista</text></g><g class="message" data-participant-1="cvp" data-participant-2="gp"><polygon fill="#181818" points="1302.0688,1058.4043,1312.0688,1062.4043,1302.0688,1066.4043,1306.0688,1062.4043" style="stroke:#181818;stroke-width:1;"/><line style="stroke:#181818;stroke-width:1;" x1="658.3716" x2="1308.0688" y1="1062.4043" y2="1062.4043"/><text fill="#000000" font-family="sans-serif" font-size="13" lengthAdjust="spacing" textLength="117.0508" x="665.3716" y="1057.6621">registraPrestito(...)</text></g><g class="message" data-participant-1="gp" data-participant-2="gp"><line style="stroke:#181818;stroke-width:1;" x1="1324.0688" x2="1366.0688" y1="1091.7148" y2="1091.7148"/><line style="stroke:#181818;stroke-width:1;" x1="1366.0688" x2="1366.0688" y1="1091.7148" y2="1104.7148"/><line style="stroke:#181818;stroke-width:1;" x1="1325.0688" x2="1366.0688" y1="1104.7148" y2="1104.7148"/><polygon fill="#181818" points="1335.0688,1100.7148,1325.0688,1104.7148,1335.0688,1108.7148,1331.0688,1104.7148" style="stroke:#181818;stroke-width:1;"/><text fill="#000000" font-family="sans-serif" font-size="13" lengthAdjust="spacing" textLength="159.6372" x="1331.0688" y="1086.9727">Viene aggiunto il prestito</text></g><g class="message" data-participant-1="gp" data-participant-2="cvp"><polygon fill="#181818" points="669.3716,1130.0254,659.3716,1134.0254,669.3716,1138.0254,665.3716,1134.0254" style="stroke:#181818;stroke-width:1;"/><line style="stroke:#181818;stroke-width:1;stroke-dasharray:2,2;" x1="663.3716" x2="1318.0688" y1="1134.0254" y2="1134.0254"/><text fill="#000000" font-family="sans-serif" font-size="13" lengthAdjust="spacing" textLength="61.7056" x="675.3716" y="1129.2832">Conferma</text></g><g class="message" data-participant-1="cvp" data-participant-2="a"><polygon fill="#181818" points="86.8896,1159.3359,76.8896,1163.3359,86.8896,1167.3359,82.8896,1163.3359" style="stroke:#181818;stroke-width:1;"/><line style="stroke:#181818;stroke-width:1;" x1="80.8896" x2="652.3716" y1="1163.3359" y2="1163.3359"/><text fill="#000000" font-family="sans-serif" font-size="13" lengthAdjust="spacing" textLength="292.1509" x="92.8896" y="1158.5938">VIene chiusa la schermata di aggiunta prestito</text></g><!--SRC=[dLLBRjim45rBfo2yIRjm3k250TT5YW016XHjzYDgp0nAaG996OLFr7lqOXr-9CkkaWO10iFCU_Dxyt45CbWdTbr7Xdnmm2yKu0NKLGykaAGUJ11x3TxZ_XdtrWH2Wq_a1z1qEi69hC57XpvGe6WgZ_sbyHoyWhummX5_13GPLyCYuO4Qbt6zYCz3gAiOdwZHP0DAY6XJrrMptZOR8S6HX9sJptGa- -7szlPZNN7owor_R0GBSg9O8XO82h3hMI8ldz5r443q9VIPiDSaEHXfqG_QSmeeLZkbQ32ALlKync4mIRwlPYS3V_cC-h6OZ47v_qTW3qdLQ2hMwwrOmMeZdc8ZH6TJtq1ec6NLiXGfv3b3MrSjNlYhgvixFNXl1UY0pW1ZpDBMzjSZGSQZ8o_v6mlNzIHQr9DdWOvv92ppfErwZL6FIP3xruqDFxxZht17gDkP6JUrmqiPUVmEiS9LrkB_CdwcqQG8UgreTYFOov5pFF14ZCGpC_4gLZxndWelbp92ZALS9jHO8y2qiHaWce5V1pAOwBCsPDSnX_KMnfOUf-LYTGOZElG-TjF6jhBKiI7CGgEiOUsFr28B41imwSlPMUTGANGfvbNdguh_RbYQbf9oqV7W9SN90ItY132XSGW_pnKjLxDK-o8J3JStVfGDKCD6y0QYav3sVnnvDMJiMyRYhEYR8J5u7tGGcPq4ZZEK7qpY5U21vSiLNPJHU2YMYOsUyGikErUQIq_tf_wd4MMtNce2bwCzZlcyFPS_lryW9ub6UVGaJxf-epewGpDrsBfnDciJgVPLQVIOpdqnV46QzwgHCtXxzAN8yobXBiznkaJbojlbspWzLLegLOnpxkKOsdHEfdkOMEFqZeUYljWMrO-d9kfm7ttn3yRWtt5lgxh-2m00]--></g></svg>