<svg xmlns="http://www.w3.org/2000/svg" xmlns:xlink="http://www.w3.org/1999/xlink" contentStyleType="text/css" data-diagram-type="SEQUENCE" height="733px" preserveAspectRatio="none" style="width:1020px;height:733px;background:#FFFFFF;" version="1.1" viewBox="0 0 1020 733" width="1020px" zoomAndPan="magnify"><defs/><g><g><title>LibriController</title><rect fill="#FFFFFF" height="34.3105" style="stroke:#181818;stroke-width:1;" width="10" x="494.6123" y="251.041"/></g><g><title>RimozioneLibroController</title><rect fill="#FFFFFF" height="34.3105" style="stroke:#181818;stroke-width:1;" width="10" x="655.0132" y="376.2832"/></g><g><title>RimozioneLibroController</title><rect fill="#FFFFFF" height="135.2422" style="stroke:#181818;stroke-width:1;" width="10" x="655.0132" y="492.1699"/></g><g><title>Libri</title><rect fill="#FFFFFF" height="71.6211" style="stroke:#181818;stroke-width:1;" width="10" x="839.9849" y="526.4805"/></g><rect fill="none" height="335.0605" style="stroke:#000000;stroke-width:1.5;" width="1003.0918" x="10" y="300.3516"/><g><title>Amministratore</title><rect fill="#000000" fill-opacity="0.00000" height="570.9238" width="8" x="71.8896" y="81.4883"/><line style="stroke:#181818;stroke-width:0.5;stroke-dasharray:5,5;" x1="75" x2="75" y1="81.4883" y2="652.4121"/></g><g><title>LibriController</title><rect fill="#000000" fill-opacity="0.00000" height="570.9238" width="8" x="495.6123" y="81.4883"/><line style="stroke:#181818;stroke-width:0.5;stroke-dasharray:5,5;" x1="499.4824" x2="499.4824" y1="81.4883" y2="652.4121"/></g><g><title>RimozioneLibroController</title><rect fill="#000000" fill-opacity="0.00000" height="570.9238" width="8" x="656.0132" y="81.4883"/><line style="stroke:#181818;stroke-width:0.5;stroke-dasharray:5,5;" x1="659.7422" x2="659.7422" y1="81.4883" y2="652.4121"/></g><g><title>Libro</title><rect fill="#000000" fill-opacity="0.00000" height="570.9238" width="8" x="784.6099" y="81.4883"/><line style="stroke:#181818;stroke-width:0.5;stroke-dasharray:5,5;" x1="788.2842" x2="788.2842" y1="81.4883" y2="652.4121"/></g><g><title>Libri</title><rect fill="#000000" fill-opacity="0.00000" height="570.9238" width="8" x="840.9849" y="81.4883"/><line style="stroke:#181818;stroke-width:0.5;stroke-dasharray:5,5;" x1="844.9355" x2="844.9355" y1="81.4883" y2="652.4121"/></g><g class="participant participant-head" data-participant="a"><text fill="#000000" font-family="sans-serif" font-size="14" lengthAdjust="spacing" textLength="105.7793" x="20" y="78.5352">Amministratore</text><ellipse cx="75.8896" cy="13.5" fill="#E2E2F0" rx="8" ry="8" style="stroke:#181818;stroke-width:0.5;"/><path d="M75.8896,21.5 L75.8896,48.5 M62.8896,29.5 L88.8896,29.5 M75.8896,48.5 L62.8896,63.5 M75.8896,48.5 L88.8896,63.5" fill="none" style="stroke:#181818;stroke-width:0.5;"/></g><g class="participant participant-tail" data-participant="a"><text fill="#000000" font-family="sans-serif" font-size="14" lengthAdjust="spacing" textLength="105.7793" x="20" y="664.9473">Amministratore</text><ellipse cx="75.8896" cy="676.4004" fill="#E2E2F0" rx="8" ry="8" style="stroke:#181818;stroke-width:0.5;"/><path d="M75.8896,684.4004 L75.8896,711.4004 M62.8896,692.4004 L88.8896,692.4004 M75.8896,711.4004 L62.8896,726.4004 M75.8896,711.4004 L88.8896,726.4004" fill="none" style="stroke:#181818;stroke-width:0.5;"/></g><g class="participant participant-head" data-participant="cvl"><rect fill="#E2E2F0" height="30.4883" rx="2.5" ry="2.5" style="stroke:#181818;stroke-width:0.5;" width="112.2598" x="443.4824" y="50"/><text fill="#000000" font-family="sans-serif" font-size="14" lengthAdjust="spacing" textLength="98.2598" x="450.4824" y="70.5352">LibriController</text></g><g class="participant participant-tail" data-participant="cvl"><rect fill="#E2E2F0" height="30.4883" rx="2.5" ry="2.5" style="stroke:#181818;stroke-width:0.5;" width="112.2598" x="443.4824" y="651.4121"/><text fill="#000000" font-family="sans-serif" font-size="14" lengthAdjust="spacing" textLength="98.2598" x="450.4824" y="671.9473">LibriController</text></g><g class="participant participant-head" data-participant="rcl"><rect fill="#E2E2F0" height="30.4883" rx="2.5" ry="2.5" style="stroke:#181818;stroke-width:0.5;" width="188.542" x="565.7422" y="50"/><text fill="#000000" font-family="sans-serif" font-size="14" lengthAdjust="spacing" textLength="174.542" x="572.7422" y="70.5352">RimozioneLibroController</text></g><g class="participant participant-tail" data-participant="rcl"><rect fill="#E2E2F0" height="30.4883" rx="2.5" ry="2.5" style="stroke:#181818;stroke-width:0.5;" width="188.542" x="565.7422" y="651.4121"/><text fill="#000000" font-family="sans-serif" font-size="14" lengthAdjust="spacing" textLength="174.542" x="572.7422" y="671.9473">RimozioneLibroController</text></g><g class="participant participant-head" data-participant="l"><rect fill="#E2E2F0" height="30.4883" rx="2.5" ry="2.5" style="stroke:#181818;stroke-width:0.5;" width="48.6514" x="764.2842" y="50"/><text fill="#000000" font-family="sans-serif" font-size="14" lengthAdjust="spacing" textLength="34.6514" x="771.2842" y="70.5352">Libro</text></g><g class="participant participant-tail" data-participant="l"><rect fill="#E2E2F0" height="30.4883" rx="2.5" ry="2.5" style="stroke:#181818;stroke-width:0.5;" width="48.6514" x="764.2842" y="651.4121"/><text fill="#000000" font-family="sans-serif" font-size="14" lengthAdjust="spacing" textLength="34.6514" x="771.2842" y="671.9473">Libro</text></g><g class="participant participant-head" data-participant="gl"><rect fill="#E2E2F0" height="30.4883" rx="2.5" ry="2.5" style="stroke:#181818;stroke-width:0.5;" width="44.0986" x="822.9355" y="50"/><text fill="#000000" font-family="sans-serif" font-size="14" lengthAdjust="spacing" textLength="30.0986" x="829.9355" y="70.5352">Libri</text></g><g class="participant participant-tail" data-participant="gl"><rect fill="#E2E2F0" height="30.4883" rx="2.5" ry="2.5" style="stroke:#181818;stroke-width:0.5;" width="44.0986" x="822.9355" y="651.4121"/><text fill="#000000" font-family="sans-serif" font-size="14" lengthAdjust="spacing" textLength="30.0986" x="829.9355" y="671.9473">Libri</text></g><g><title>LibriController</title><rect fill="#FFFFFF" height="34.3105" style="stroke:#181818;stroke-width:1;" width="10" x="494.6123" y="251.041"/></g><g><title>RimozioneLibroController</title><rect fill="#FFFFFF" height="34.3105" style="stroke:#181818;stroke-width:1;" width="10" x="655.0132" y="376.2832"/></g><g><title>RimozioneLibroController</title><rect fill="#FFFFFF" height="135.2422" style="stroke:#181818;stroke-width:1;" width="10" x="655.0132" y="492.1699"/></g><g><title>Libri</title><rect fill="#FFFFFF" height="71.6211" style="stroke:#181818;stroke-width:1;" width="10" x="839.9849" y="526.4805"/></g><g class="message" data-participant-1="cvl" data-participant-2="cvl"><line style="stroke:#181818;stroke-width:1;" x1="499.6123" x2="541.6123" y1="112.7988" y2="112.7988"/><line style="stroke:#181818;stroke-width:1;" x1="541.6123" x2="541.6123" y1="112.7988" y2="125.7988"/><line style="stroke:#181818;stroke-width:1;" x1="500.6123" x2="541.6123" y1="125.7988" y2="125.7988"/><polygon fill="#181818" points="510.6123,121.7988,500.6123,125.7988,510.6123,129.7988,506.6123,125.7988" style="stroke:#181818;stroke-width:1;"/><text fill="#000000" font-family="sans-serif" font-size="13" lengthAdjust="spacing" textLength="74.3882" x="506.6123" y="108.0566">initialize(...)</text></g><g class="message" data-participant-1="a" data-participant-2="cvl"><polygon fill="#181818" points="487.6123,151.1094,497.6123,155.1094,487.6123,159.1094,491.6123,155.1094" style="stroke:#181818;stroke-width:1;"/><line style="stroke:#181818;stroke-width:1;" x1="75.8896" x2="493.6123" y1="155.1094" y2="155.1094"/><text fill="#000000" font-family="sans-serif" font-size="13" lengthAdjust="spacing" textLength="127.9878" x="82.8896" y="150.3672">Apre schermata libri</text></g><g class="message" data-participant-1="a" data-participant-2="cvl"><polygon fill="#181818" points="487.6123,180.4199,497.6123,184.4199,487.6123,188.4199,491.6123,184.4199" style="stroke:#181818;stroke-width:1;"/><line style="stroke:#181818;stroke-width:1;" x1="75.8896" x2="493.6123" y1="184.4199" y2="184.4199"/><text fill="#000000" font-family="sans-serif" font-size="13" lengthAdjust="spacing" textLength="113.0518" x="82.8896" y="179.6777">Seleziona un libro</text></g><g class="message" data-participant-1="a" data-participant-2="cvl"><polygon fill="#181818" points="487.6123,209.7305,497.6123,213.7305,487.6123,217.7305,491.6123,213.7305" style="stroke:#181818;stroke-width:1;"/><line style="stroke:#181818;stroke-width:1;" x1="75.8896" x2="493.6123" y1="213.7305" y2="213.7305"/><text fill="#000000" font-family="sans-serif" font-size="13" lengthAdjust="spacing" textLength="171.2153" x="82.8896" y="208.9883">Clicca il pulsante "Rimuovi"</text></g><g class="message" data-participant-1="cvl" data-participant-2="cvl"><line style="stroke:#181818;stroke-width:1;" x1="499.6123" x2="546.6123" y1="238.041" y2="238.041"/><line style="stroke:#181818;stroke-width:1;" x1="546.6123" x2="546.6123" y1="238.041" y2="251.041"/><line style="stroke:#181818;stroke-width:1;" x1="505.6123" x2="546.6123" y1="251.041" y2="251.041"/><polygon fill="#181818" points="515.6123,247.041,505.6123,251.041,515.6123,255.041,511.6123,251.041" style="stroke:#181818;stroke-width:1;"/><text fill="#000000" font-family="sans-serif" font-size="13" lengthAdjust="spacing" textLength="107.98" x="511.6123" y="233.2988">onDeleteBook(...)</text></g><g class="message" data-participant-1="cvl" data-participant-2="a"><polygon fill="#181818" points="86.8896,281.3516,76.8896,285.3516,86.8896,289.3516,82.8896,285.3516" style="stroke:#181818;stroke-width:1;"/><line style="stroke:#181818;stroke-width:1;stroke-dasharray:2,2;" x1="80.8896" x2="498.6123" y1="285.3516" y2="285.3516"/><text fill="#000000" font-family="sans-serif" font-size="13" lengthAdjust="spacing" textLength="394.7227" x="92.8896" y="280.6094">Viene mostrata una nuova finestra con un messaggio di avviso</text></g><path d="M10,300.3516 L72.1387,300.3516 L72.1387,307.6621 L62.1387,317.6621 L10,317.6621 L10,300.3516" fill="#EEEEEE" style="stroke:#000000;stroke-width:1.5;"/><rect fill="none" height="335.0605" style="stroke:#000000;stroke-width:1.5;" width="1003.0918" x="10" y="300.3516"/><text fill="#000000" font-family="sans-serif" font-size="13" font-weight="bold" lengthAdjust="spacing" textLength="17.1387" x="25" y="313.9199">alt</text><text fill="#000000" font-family="sans-serif" font-size="11" font-weight="bold" lengthAdjust="spacing" textLength="209.854" x="87.1387" y="312.9863">[Annulla l'operazione cliccando "No"]</text><g class="message" data-participant-1="a" data-participant-2="rcl"><polygon fill="#181818" points="648.0132,334.9727,658.0132,338.9727,648.0132,342.9727,652.0132,338.9727" style="stroke:#181818;stroke-width:1;"/><line style="stroke:#181818;stroke-width:1;" x1="75.8896" x2="654.0132" y1="338.9727" y2="338.9727"/><text fill="#000000" font-family="sans-serif" font-size="13" lengthAdjust="spacing" textLength="293.2935" x="82.8896" y="334.2305">Annulla l'operazione cliccando il pulsante "No"</text></g><g class="message" data-participant-1="rcl" data-participant-2="rcl"><line style="stroke:#181818;stroke-width:1;" x1="660.0132" x2="707.0132" y1="363.2832" y2="363.2832"/><line style="stroke:#181818;stroke-width:1;" x1="707.0132" x2="707.0132" y1="363.2832" y2="376.2832"/><line style="stroke:#181818;stroke-width:1;" x1="666.0132" x2="707.0132" y1="376.2832" y2="376.2832"/><polygon fill="#181818" points="676.0132,372.2832,666.0132,376.2832,676.0132,380.2832,672.0132,376.2832" style="stroke:#181818;stroke-width:1;"/><text fill="#000000" font-family="sans-serif" font-size="13" lengthAdjust="spacing" textLength="78.749" x="672.0132" y="358.541">onCancel(...)</text></g><g class="message" data-participant-1="rcl" data-participant-2="a"><polygon fill="#181818" points="86.8896,406.5938,76.8896,410.5938,86.8896,414.5938,82.8896,410.5938" style="stroke:#181818;stroke-width:1;"/><line style="stroke:#181818;stroke-width:1;stroke-dasharray:2,2;" x1="80.8896" x2="659.0132" y1="410.5938" y2="410.5938"/><text fill="#000000" font-family="sans-serif" font-size="13" lengthAdjust="spacing" textLength="280.7061" x="92.8896" y="405.8516">Viene chiusa la schermata di rimozione libro</text></g><line style="stroke:#000000;stroke-width:1;stroke-dasharray:2,2;" x1="10" x2="1013.0918" y1="419.5938" y2="419.5938"/><text fill="#000000" font-family="sans-serif" font-size="11" font-weight="bold" lengthAdjust="spacing" textLength="216.0684" x="15" y="430.2285">[Conferma l'operazione cliccando "Si"]</text><g class="message" data-participant-1="a" data-participant-2="rcl"><polygon fill="#181818" points="648.0132,450.8594,658.0132,454.8594,648.0132,458.8594,652.0132,454.8594" style="stroke:#181818;stroke-width:1;"/><line style="stroke:#181818;stroke-width:1;" x1="75.8896" x2="654.0132" y1="454.8594" y2="454.8594"/><text fill="#000000" font-family="sans-serif" font-size="13" lengthAdjust="spacing" textLength="300.3013" x="82.8896" y="450.1172">Conferma l'operazione cliccando il pulsante "Si"</text></g><g class="message" data-participant-1="rcl" data-participant-2="rcl"><line style="stroke:#181818;stroke-width:1;" x1="660.0132" x2="707.0132" y1="479.1699" y2="479.1699"/><line style="stroke:#181818;stroke-width:1;" x1="707.0132" x2="707.0132" y1="479.1699" y2="492.1699"/><line style="stroke:#181818;stroke-width:1;" x1="666.0132" x2="707.0132" y1="492.1699" y2="492.1699"/><polygon fill="#181818" points="676.0132,488.1699,666.0132,492.1699,676.0132,496.1699,672.0132,492.1699" style="stroke:#181818;stroke-width:1;"/><text fill="#000000" font-family="sans-serif" font-size="13" lengthAdjust="spacing" textLength="87.8896" x="672.0132" y="474.4277">onConfirm(...)</text></g><g class="message" data-participant-1="rcl" data-participant-2="gl"><polygon fill="#181818" points="827.9849,522.4805,837.9849,526.4805,827.9849,530.4805,831.9849,526.4805" style="stroke:#181818;stroke-width:1;"/><line style="stroke:#181818;stroke-width:1;" x1="665.0132" x2="833.9849" y1="526.4805" y2="526.4805"/><text fill="#000000" font-family="sans-serif" font-size="13" lengthAdjust="spacing" textLength="68.5483" x="672.0132" y="521.7383">rimuovi(...)</text></g><g class="message" data-participant-1="gl" data-participant-2="gl"><line style="stroke:#181818;stroke-width:1;" x1="849.9849" x2="891.9849" y1="555.791" y2="555.791"/><line style="stroke:#181818;stroke-width:1;" x1="891.9849" x2="891.9849" y1="555.791" y2="568.791"/><line style="stroke:#181818;stroke-width:1;" x1="850.9849" x2="891.9849" y1="568.791" y2="568.791"/><polygon fill="#181818" points="860.9849,564.791,850.9849,568.791,860.9849,572.791,856.9849,568.791" style="stroke:#181818;stroke-width:1;"/><text fill="#000000" font-family="sans-serif" font-size="13" lengthAdjust="spacing" textLength="134.1069" x="856.9849" y="551.0488">Viene rimosso il libro</text></g><g class="message" data-participant-1="gl" data-participant-2="rcl"><polygon fill="#181818" points="676.0132,594.1016,666.0132,598.1016,676.0132,602.1016,672.0132,598.1016" style="stroke:#181818;stroke-width:1;"/><line style="stroke:#181818;stroke-width:1;stroke-dasharray:2,2;" x1="670.0132" x2="843.9849" y1="598.1016" y2="598.1016"/><text fill="#000000" font-family="sans-serif" font-size="13" lengthAdjust="spacing" textLength="61.7056" x="682.0132" y="593.3594">Conferma</text></g><line style="stroke:#A80036;stroke-width:2;" x1="779.6099" x2="797.6099" y1="589.1016" y2="607.1016"/><line style="stroke:#A80036;stroke-width:2;" x1="779.6099" x2="797.6099" y1="607.1016" y2="589.1016"/><g class="message" data-participant-1="rcl" data-participant-2="a"><polygon fill="#181818" points="86.8896,623.4121,76.8896,627.4121,86.8896,631.4121,82.8896,627.4121" style="stroke:#181818;stroke-width:1;"/><line style="stroke:#181818;stroke-width:1;stroke-dasharray:2,2;" x1="80.8896" x2="659.0132" y1="627.4121" y2="627.4121"/><text fill="#000000" font-family="sans-serif" font-size="13" lengthAdjust="spacing" textLength="280.7061" x="92.8896" y="622.6699">Viene chiusa la schermata di rimozione libro</text></g><!--SRC=[hPBFQiCm3CRFoLE8NhOTsWVe8T1rnx732hjhZfgAELQmdS3wz9ETXYRxGo-348ZrIVf-NroWYU9XrxRiE4IF-aM00R0iElIH3NVe8Zppk-UzkEZ5Ml99OGQxrBnoAsSMHqaiIx4tzkT0IPLVpZcTDxOi2zsnhlIr1RKN6IsVwNwpsJoK1LuAkquD1tCYts94iAd_MZsGfUG9eNUv9jVQth8n26oXwstGvGGhPUXbuDLyjRWddHBfKUHZMcuY3wWDEOIiNLUuXJScHz1AJZBjH70w3-78Zj8X6779IaiXODEmGAsqmy11ZTMqdAjxR8ITSxsrIdOd7NdC2OF9tbqji7eHTPkWDEFjBVK2TkpKDbXNaBl5xT4PiXVCuWgQVs0MpqdDYVkWot3s1nJ8JpTXYdoEDaxA3zb0e1Vbc5h_13pm7F2MV44ujYRJrSIdxUpR2V0tlgfHfHylmiyWcgmhcejkp241Xv2NJyHPyirpFgxJHP1Fo7DckUJ1_vKlkReelm00]--></g></svg>