<svg xmlns="http://www.w3.org/2000/svg" xmlns:xlink="http://www.w3.org/1999/xlink" contentStyleType="text/css" data-diagram-type="SEQUENCE" height="547px" preserveAspectRatio="none" style="width:840px;height:547px;background:#FFFFFF;" version="1.1" viewBox="0 0 840 547" width="840px" zoomAndPan="magnify"><defs/><g><g><title>GestioneLibro</title><rect fill="#FFFFFF" height="71.6211" style="stroke:#181818;stroke-width:1;" width="10" x="605.0654" y="309.6621"/></g><rect fill="none" height="208.1738" style="stroke:#000000;stroke-width:1.5;" width="707.9902" x="10" y="241.7305"/><rect fill="none" height="46.6211" style="stroke:#000000;stroke-width:1.5;" width="526.46" x="20" y="396.2832"/><g><title>Amministratore</title><rect fill="#000000" fill-opacity="0.00000" height="385.416" width="8" x="81.8896" y="81.4883"/><line style="stroke:#181818;stroke-width:0.5;stroke-dasharray:5,5;" x1="85" x2="85" y1="81.4883" y2="466.9043"/></g><g><title>ClasseCheContieneLaVisualizzazioneLibri</title><rect fill="#000000" fill-opacity="0.00000" height="385.416" width="8" x="384.7866" y="81.4883"/><line style="stroke:#181818;stroke-width:0.5;stroke-dasharray:5,5;" x1="388.1133" x2="388.1133" y1="81.4883" y2="466.9043"/></g><g><title>GestioneLibro</title><rect fill="#000000" fill-opacity="0.00000" height="385.416" width="8" x="606.0654" y="81.4883"/><line style="stroke:#181818;stroke-width:0.5;stroke-dasharray:5,5;" x1="610.0273" x2="610.0273" y1="81.4883" y2="466.9043"/></g><g><title>Biblioteca</title><rect fill="#000000" fill-opacity="0.00000" height="385.416" width="8" x="713.9902" y="81.4883"/><line style="stroke:#181818;stroke-width:0.5;stroke-dasharray:5,5;" x1="717.2188" x2="717.2188" y1="81.4883" y2="466.9043"/></g><g class="participant participant-head" data-participant="a"><text fill="#000000" font-family="sans-serif" font-size="14" lengthAdjust="spacing" textLength="105.7793" x="30" y="78.5352">Amministratore</text><ellipse cx="85.8896" cy="13.5" fill="#E2E2F0" rx="8" ry="8" style="stroke:#181818;stroke-width:0.5;"/><path d="M85.8896,21.5 L85.8896,48.5 M72.8896,29.5 L98.8896,29.5 M85.8896,48.5 L72.8896,63.5 M85.8896,48.5 L98.8896,63.5" fill="none" style="stroke:#181818;stroke-width:0.5;"/></g><g class="participant participant-tail" data-participant="a"><text fill="#000000" font-family="sans-serif" font-size="14" lengthAdjust="spacing" textLength="105.7793" x="30" y="479.4395">Amministratore</text><ellipse cx="85.8896" cy="490.8926" fill="#E2E2F0" rx="8" ry="8" style="stroke:#181818;stroke-width:0.5;"/><path d="M85.8896,498.8926 L85.8896,525.8926 M72.8896,506.8926 L98.8896,506.8926 M85.8896,525.8926 L72.8896,540.8926 M85.8896,525.8926 L98.8896,540.8926" fill="none" style="stroke:#181818;stroke-width:0.5;"/></g><g class="participant participant-head" data-participant="cvl"><rect fill="#E2E2F0" height="30.4883" rx="2.5" ry="2.5" style="stroke:#181818;stroke-width:0.5;" width="295.3467" x="241.1133" y="50"/><text fill="#000000" font-family="sans-serif" font-size="14" lengthAdjust="spacing" textLength="281.3467" x="248.1133" y="70.5352">ClasseCheContieneLaVisualizzazioneLibri</text></g><g class="participant participant-tail" data-participant="cvl"><rect fill="#E2E2F0" height="30.4883" rx="2.5" ry="2.5" style="stroke:#181818;stroke-width:0.5;" width="295.3467" x="241.1133" y="465.9043"/><text fill="#000000" font-family="sans-serif" font-size="14" lengthAdjust="spacing" textLength="281.3467" x="248.1133" y="486.4395">ClasseCheContieneLaVisualizzazioneLibri</text></g><g class="participant participant-head" data-participant="gl"><rect fill="#E2E2F0" height="30.4883" rx="2.5" ry="2.5" style="stroke:#181818;stroke-width:0.5;" width="108.0762" x="556.0273" y="50"/><text fill="#000000" font-family="sans-serif" font-size="14" lengthAdjust="spacing" textLength="94.0762" x="563.0273" y="70.5352">GestioneLibro</text></g><g class="participant participant-tail" data-participant="gl"><rect fill="#E2E2F0" height="30.4883" rx="2.5" ry="2.5" style="stroke:#181818;stroke-width:0.5;" width="108.0762" x="556.0273" y="465.9043"/><text fill="#000000" font-family="sans-serif" font-size="14" lengthAdjust="spacing" textLength="94.0762" x="563.0273" y="486.4395">GestioneLibro</text></g><g class="participant participant-head" data-participant="b"><rect fill="#E2E2F0" height="30.4883" rx="2.5" ry="2.5" style="stroke:#181818;stroke-width:0.5;" width="79.543" x="678.2188" y="50"/><text fill="#000000" font-family="sans-serif" font-size="14" lengthAdjust="spacing" textLength="65.543" x="685.2188" y="70.5352">Biblioteca</text></g><g class="participant participant-tail" data-participant="b"><rect fill="#E2E2F0" height="30.4883" rx="2.5" ry="2.5" style="stroke:#181818;stroke-width:0.5;" width="79.543" x="678.2188" y="465.9043"/><text fill="#000000" font-family="sans-serif" font-size="14" lengthAdjust="spacing" textLength="65.543" x="685.2188" y="486.4395">Biblioteca</text></g><g><title>GestioneLibro</title><rect fill="#FFFFFF" height="71.6211" style="stroke:#181818;stroke-width:1;" width="10" x="605.0654" y="309.6621"/></g><g class="message" data-participant-1="b" data-participant-2="b"><line style="stroke:#181818;stroke-width:1;" x1="717.9902" x2="759.9902" y1="112.7988" y2="112.7988"/><line style="stroke:#181818;stroke-width:1;" x1="759.9902" x2="759.9902" y1="112.7988" y2="125.7988"/><line style="stroke:#181818;stroke-width:1;" x1="718.9902" x2="759.9902" y1="125.7988" y2="125.7988"/><polygon fill="#181818" points="728.9902,121.7988,718.9902,125.7988,728.9902,129.7988,724.9902,125.7988" style="stroke:#181818;stroke-width:1;"/><text fill="#000000" font-family="sans-serif" font-size="13" lengthAdjust="spacing" textLength="108.7925" x="724.9902" y="108.0566">caricaArchivio(...)</text></g><g class="message" data-participant-1="cvl" data-participant-2="cvl"><line style="stroke:#181818;stroke-width:1;" x1="388.7866" x2="430.7866" y1="155.1094" y2="155.1094"/><line style="stroke:#181818;stroke-width:1;" x1="430.7866" x2="430.7866" y1="155.1094" y2="168.1094"/><line style="stroke:#181818;stroke-width:1;" x1="389.7866" x2="430.7866" y1="168.1094" y2="168.1094"/><polygon fill="#181818" points="399.7866,164.1094,389.7866,168.1094,399.7866,172.1094,395.7866,168.1094" style="stroke:#181818;stroke-width:1;"/><text fill="#000000" font-family="sans-serif" font-size="13" lengthAdjust="spacing" textLength="76.978" x="395.7866" y="150.3672">inizialize(...)</text></g><g class="message" data-participant-1="a" data-participant-2="cvl"><polygon fill="#181818" points="376.7866,193.4199,386.7866,197.4199,376.7866,201.4199,380.7866,197.4199" style="stroke:#181818;stroke-width:1;"/><line style="stroke:#181818;stroke-width:1;" x1="85.8896" x2="382.7866" y1="197.4199" y2="197.4199"/><text fill="#000000" font-family="sans-serif" font-size="13" lengthAdjust="spacing" textLength="127.9878" x="92.8896" y="192.6777">Apre schermata libri</text></g><g class="message" data-participant-1="a" data-participant-2="cvl"><polygon fill="#181818" points="376.7866,222.7305,386.7866,226.7305,376.7866,230.7305,380.7866,226.7305" style="stroke:#181818;stroke-width:1;"/><line style="stroke:#181818;stroke-width:1;" x1="85.8896" x2="382.7866" y1="226.7305" y2="226.7305"/><text fill="#000000" font-family="sans-serif" font-size="13" lengthAdjust="spacing" textLength="174.332" x="92.8896" y="221.9883">Seleziona la barra di ricerca</text></g><path d="M10,241.7305 L84.4468,241.7305 L84.4468,249.041 L74.4468,259.041 L10,259.041 L10,241.7305" fill="#EEEEEE" style="stroke:#000000;stroke-width:1.5;"/><rect fill="none" height="208.1738" style="stroke:#000000;stroke-width:1.5;" width="707.9902" x="10" y="241.7305"/><text fill="#000000" font-family="sans-serif" font-size="13" font-weight="bold" lengthAdjust="spacing" textLength="29.4468" x="25" y="255.2988">loop</text><text fill="#000000" font-family="sans-serif" font-size="11" font-weight="bold" lengthAdjust="spacing" textLength="149.1016" x="99.4468" y="254.3652">[Inserimento sottostringa]</text><g class="message" data-participant-1="a" data-participant-2="cvl"><polygon fill="#181818" points="376.7866,276.3516,386.7866,280.3516,376.7866,284.3516,380.7866,280.3516" style="stroke:#181818;stroke-width:1;"/><line style="stroke:#181818;stroke-width:1;" x1="85.8896" x2="382.7866" y1="280.3516" y2="280.3516"/><text fill="#000000" font-family="sans-serif" font-size="13" lengthAdjust="spacing" textLength="278.897" x="92.8896" y="275.6094">Digita una sottostringa nella barra di ricerca</text></g><g class="message" data-participant-1="cvl" data-participant-2="gl"><polygon fill="#181818" points="593.0654,305.6621,603.0654,309.6621,593.0654,313.6621,597.0654,309.6621" style="stroke:#181818;stroke-width:1;"/><line style="stroke:#181818;stroke-width:1;" x1="388.7866" x2="599.0654" y1="309.6621" y2="309.6621"/><text fill="#000000" font-family="sans-serif" font-size="13" lengthAdjust="spacing" textLength="197.2788" x="395.7866" y="304.9199">ricercaMedianteSottostringa(...)</text></g><g class="message" data-participant-1="gl" data-participant-2="gl"><line style="stroke:#181818;stroke-width:1;" x1="615.0654" x2="657.0654" y1="338.9727" y2="338.9727"/><line style="stroke:#181818;stroke-width:1;" x1="657.0654" x2="657.0654" y1="338.9727" y2="351.9727"/><line style="stroke:#181818;stroke-width:1;" x1="616.0654" x2="657.0654" y1="351.9727" y2="351.9727"/><polygon fill="#181818" points="626.0654,347.9727,616.0654,351.9727,626.0654,355.9727,622.0654,351.9727" style="stroke:#181818;stroke-width:1;"/><text fill="#000000" font-family="sans-serif" font-size="13" lengthAdjust="spacing" textLength="73.9248" x="622.0654" y="334.2305">Ricerca libri</text></g><g class="message" data-participant-1="gl" data-participant-2="a"><polygon fill="#181818" points="96.8896,377.2832,86.8896,381.2832,96.8896,385.2832,92.8896,381.2832" style="stroke:#181818;stroke-width:1;"/><line style="stroke:#181818;stroke-width:1;stroke-dasharray:2,2;" x1="90.8896" x2="609.0654" y1="381.2832" y2="381.2832"/><text fill="#000000" font-family="sans-serif" font-size="13" lengthAdjust="spacing" textLength="302.3008" x="102.8896" y="376.541">Restituisce libri che rispettano i criteri di ricerca</text></g><path d="M20,396.2832 L103.0098,396.2832 L103.0098,403.5938 L93.0098,413.5938 L20,413.5938 L20,396.2832" fill="#EEEEEE" style="stroke:#000000;stroke-width:1.5;"/><rect fill="none" height="46.6211" style="stroke:#000000;stroke-width:1.5;" width="526.46" x="20" y="396.2832"/><text fill="#000000" font-family="sans-serif" font-size="13" font-weight="bold" lengthAdjust="spacing" textLength="38.0098" x="35" y="409.8516">break</text><text fill="#000000" font-family="sans-serif" font-size="11" font-weight="bold" lengthAdjust="spacing" textLength="109.8657" x="118.0098" y="408.918">[Seleziona un libro]</text><g class="message" data-participant-1="a" data-participant-2="cvl"><polygon fill="#181818" points="376.7866,430.9043,386.7866,434.9043,376.7866,438.9043,380.7866,434.9043" style="stroke:#181818;stroke-width:1;"/><line style="stroke:#181818;stroke-width:1;" x1="85.8896" x2="382.7866" y1="434.9043" y2="434.9043"/><text fill="#000000" font-family="sans-serif" font-size="13" lengthAdjust="spacing" textLength="106.8438" x="92.8896" y="430.1621">clicca su un libro</text></g><!--SRC=[RL9DQyCm33qxlqAtReVs1_HGw3eOWur12xihZd3573lOIWxvzPFJf1zZ40pHq_DxUfP1Ap71lcqvS9Q4-aU06R0o7IPXonq6WOF7dEbmfaCCmXJe0xyvz-Xv777ag0Mk4nUc7VmZzusoB1snTBW_3IzSUuv25WjQLvMfrxjw2nOJMzmdU-Q1uzDcitckJ6LKOBtJOmlgUUJYWMOGPs3VwHJPdYcrA0Y-UBkX9_9KF2k0K6DA20s3Qb6oM1HMNoum3D4hLo-1eKoiQfaIIuG-56ieGcd1q3cEAKnYUBlAnzZ1-yHhAIWrHv6eENDm29MvMdfbnyhjrTD3Io3_hyTB24wPS-cJ6jOiwNJ7daCn-iOyeD0Kl35kPXulp2MT2LZlS7iixoKzPqiNRCeWSUv814C4BMWEEjEZfOOUXVHRwReqFEr7wUspBLCswA4aemrr8lovUn2DrazhKlmiuLZFLdtc_WehIg7HHIddBm00]--></g></svg>